<?xml version="1.0" encoding="utf-8"?>
<svg xmlns="http://www.w3.org/2000/svg" xmlns:xlink="http://www.w3.org/1999/xlink" width="600" height="400" viewBox="0 0 2400 1600">
<defs>
  <clipPath id="clip580">
    <rect x="0" y="0" width="2400" height="1600"/>
  </clipPath>
</defs>
<path clip-path="url(#clip580)" d="
M0 1600 L2400 1600 L2400 0 L0 0  Z
  " fill="#ffffff" fill-rule="evenodd" fill-opacity="1"/>
<defs>
  <clipPath id="clip581">
    <rect x="480" y="0" width="1681" height="1600"/>
  </clipPath>
</defs>
<path clip-path="url(#clip580)" d="
M300.815 1423.18 L2352.76 1423.18 L2352.76 47.2441 L300.815 47.2441  Z
  " fill="#ffffff" fill-rule="evenodd" fill-opacity="1"/>
<defs>
  <clipPath id="clip582">
    <rect x="300" y="47" width="2053" height="1377"/>
  </clipPath>
</defs>
<polyline clip-path="url(#clip582)" style="stroke:#000000; stroke-width:2; stroke-opacity:0.1; fill:none" points="
  358.885,1423.18 358.885,47.2441 
  "/>
<polyline clip-path="url(#clip582)" style="stroke:#000000; stroke-width:2; stroke-opacity:0.1; fill:none" points="
  746.044,1423.18 746.044,47.2441 
  "/>
<polyline clip-path="url(#clip582)" style="stroke:#000000; stroke-width:2; stroke-opacity:0.1; fill:none" points="
  1133.2,1423.18 1133.2,47.2441 
  "/>
<polyline clip-path="url(#clip582)" style="stroke:#000000; stroke-width:2; stroke-opacity:0.1; fill:none" points="
  1520.36,1423.18 1520.36,47.2441 
  "/>
<polyline clip-path="url(#clip582)" style="stroke:#000000; stroke-width:2; stroke-opacity:0.1; fill:none" points="
  1907.52,1423.18 1907.52,47.2441 
  "/>
<polyline clip-path="url(#clip582)" style="stroke:#000000; stroke-width:2; stroke-opacity:0.1; fill:none" points="
  2294.68,1423.18 2294.68,47.2441 
  "/>
<polyline clip-path="url(#clip582)" style="stroke:#000000; stroke-width:2; stroke-opacity:0.1; fill:none" points="
  300.815,1384.24 2352.76,1384.24 
  "/>
<polyline clip-path="url(#clip582)" style="stroke:#000000; stroke-width:2; stroke-opacity:0.1; fill:none" points="
  300.815,1191.04 2352.76,1191.04 
  "/>
<polyline clip-path="url(#clip582)" style="stroke:#000000; stroke-width:2; stroke-opacity:0.1; fill:none" points="
  300.815,997.85 2352.76,997.85 
  "/>
<polyline clip-path="url(#clip582)" style="stroke:#000000; stroke-width:2; stroke-opacity:0.1; fill:none" points="
  300.815,804.656 2352.76,804.656 
  "/>
<polyline clip-path="url(#clip582)" style="stroke:#000000; stroke-width:2; stroke-opacity:0.1; fill:none" points="
  300.815,611.461 2352.76,611.461 
  "/>
<polyline clip-path="url(#clip582)" style="stroke:#000000; stroke-width:2; stroke-opacity:0.1; fill:none" points="
  300.815,418.267 2352.76,418.267 
  "/>
<polyline clip-path="url(#clip582)" style="stroke:#000000; stroke-width:2; stroke-opacity:0.1; fill:none" points="
  300.815,225.073 2352.76,225.073 
  "/>
<polyline clip-path="url(#clip580)" style="stroke:#000000; stroke-width:4; stroke-opacity:1; fill:none" points="
  300.815,1423.18 2352.76,1423.18 
  "/>
<polyline clip-path="url(#clip580)" style="stroke:#000000; stroke-width:4; stroke-opacity:1; fill:none" points="
  300.815,1423.18 300.815,47.2441 
  "/>
<polyline clip-path="url(#clip580)" style="stroke:#000000; stroke-width:4; stroke-opacity:1; fill:none" points="
  358.885,1423.18 358.885,1406.67 
  "/>
<polyline clip-path="url(#clip580)" style="stroke:#000000; stroke-width:4; stroke-opacity:1; fill:none" points="
  746.044,1423.18 746.044,1406.67 
  "/>
<polyline clip-path="url(#clip580)" style="stroke:#000000; stroke-width:4; stroke-opacity:1; fill:none" points="
  1133.2,1423.18 1133.2,1406.67 
  "/>
<polyline clip-path="url(#clip580)" style="stroke:#000000; stroke-width:4; stroke-opacity:1; fill:none" points="
  1520.36,1423.18 1520.36,1406.67 
  "/>
<polyline clip-path="url(#clip580)" style="stroke:#000000; stroke-width:4; stroke-opacity:1; fill:none" points="
  1907.52,1423.18 1907.52,1406.67 
  "/>
<polyline clip-path="url(#clip580)" style="stroke:#000000; stroke-width:4; stroke-opacity:1; fill:none" points="
  2294.68,1423.18 2294.68,1406.67 
  "/>
<polyline clip-path="url(#clip580)" style="stroke:#000000; stroke-width:4; stroke-opacity:1; fill:none" points="
  300.815,1384.24 325.438,1384.24 
  "/>
<polyline clip-path="url(#clip580)" style="stroke:#000000; stroke-width:4; stroke-opacity:1; fill:none" points="
  300.815,1191.04 325.438,1191.04 
  "/>
<polyline clip-path="url(#clip580)" style="stroke:#000000; stroke-width:4; stroke-opacity:1; fill:none" points="
  300.815,997.85 325.438,997.85 
  "/>
<polyline clip-path="url(#clip580)" style="stroke:#000000; stroke-width:4; stroke-opacity:1; fill:none" points="
  300.815,804.656 325.438,804.656 
  "/>
<polyline clip-path="url(#clip580)" style="stroke:#000000; stroke-width:4; stroke-opacity:1; fill:none" points="
  300.815,611.461 325.438,611.461 
  "/>
<polyline clip-path="url(#clip580)" style="stroke:#000000; stroke-width:4; stroke-opacity:1; fill:none" points="
  300.815,418.267 325.438,418.267 
  "/>
<polyline clip-path="url(#clip580)" style="stroke:#000000; stroke-width:4; stroke-opacity:1; fill:none" points="
  300.815,225.073 325.438,225.073 
  "/>
<path clip-path="url(#clip580)" d="M 0 0 M358.885 1445.17 Q355.274 1445.17 353.445 1448.74 Q351.64 1452.28 351.64 1459.41 Q351.64 1466.51 353.445 1470.08 Q355.274 1473.62 358.885 1473.62 Q362.519 1473.62 364.325 1470.08 Q366.153 1466.51 366.153 1459.41 Q366.153 1452.28 364.325 1448.74 Q362.519 1445.17 358.885 1445.17 M358.885 1441.47 Q364.695 1441.47 367.751 1446.07 Q370.829 1450.66 370.829 1459.41 Q370.829 1468.13 367.751 1472.74 Q364.695 1477.32 358.885 1477.32 Q353.075 1477.32 349.996 1472.74 Q346.94 1468.13 346.94 1459.41 Q346.94 1450.66 349.996 1446.07 Q353.075 1441.47 358.885 1441.47 Z" fill="#000000" fill-rule="evenodd" fill-opacity="1" /><path clip-path="url(#clip580)" d="M 0 0 M736.426 1472.72 L744.065 1472.72 L744.065 1446.35 L735.755 1448.02 L735.755 1443.76 L744.019 1442.09 L748.695 1442.09 L748.695 1472.72 L756.334 1472.72 L756.334 1476.65 L736.426 1476.65 L736.426 1472.72 Z" fill="#000000" fill-rule="evenodd" fill-opacity="1" /><path clip-path="url(#clip580)" d="M 0 0 M1127.86 1472.72 L1144.18 1472.72 L1144.18 1476.65 L1122.23 1476.65 L1122.23 1472.72 Q1124.89 1469.96 1129.48 1465.33 Q1134.08 1460.68 1135.26 1459.34 Q1137.51 1456.81 1138.39 1455.08 Q1139.29 1453.32 1139.29 1451.63 Q1139.29 1448.87 1137.35 1447.14 Q1135.43 1445.4 1132.32 1445.4 Q1130.13 1445.4 1127.67 1446.17 Q1125.24 1446.93 1122.46 1448.48 L1122.46 1443.76 Q1125.29 1442.62 1127.74 1442.05 Q1130.19 1441.47 1132.23 1441.47 Q1137.6 1441.47 1140.8 1444.15 Q1143.99 1446.84 1143.99 1451.33 Q1143.99 1453.46 1143.18 1455.38 Q1142.39 1457.28 1140.29 1459.87 Q1139.71 1460.54 1136.61 1463.76 Q1133.5 1466.95 1127.86 1472.72 Z" fill="#000000" fill-rule="evenodd" fill-opacity="1" /><path clip-path="url(#clip580)" d="M 0 0 M1524.61 1458.02 Q1527.97 1458.74 1529.84 1461 Q1531.74 1463.27 1531.74 1466.61 Q1531.74 1471.72 1528.22 1474.52 Q1524.7 1477.32 1518.22 1477.32 Q1516.05 1477.32 1513.73 1476.88 Q1511.44 1476.47 1508.99 1475.61 L1508.99 1471.1 Q1510.93 1472.23 1513.25 1472.81 Q1515.56 1473.39 1518.08 1473.39 Q1522.48 1473.39 1524.77 1471.65 Q1527.09 1469.92 1527.09 1466.61 Q1527.09 1463.55 1524.93 1461.84 Q1522.81 1460.1 1518.99 1460.1 L1514.96 1460.1 L1514.96 1456.26 L1519.17 1456.26 Q1522.62 1456.26 1524.45 1454.89 Q1526.28 1453.5 1526.28 1450.91 Q1526.28 1448.25 1524.38 1446.84 Q1522.5 1445.4 1518.99 1445.4 Q1517.06 1445.4 1514.87 1445.82 Q1512.67 1446.24 1510.03 1447.11 L1510.03 1442.95 Q1512.69 1442.21 1515 1441.84 Q1517.34 1441.47 1519.4 1441.47 Q1524.73 1441.47 1527.83 1443.9 Q1530.93 1446.3 1530.93 1450.43 Q1530.93 1453.3 1529.29 1455.29 Q1527.64 1457.25 1524.61 1458.02 Z" fill="#000000" fill-rule="evenodd" fill-opacity="1" /><path clip-path="url(#clip580)" d="M 0 0 M1910.53 1446.17 L1898.73 1464.61 L1910.53 1464.61 L1910.53 1446.17 M1909.31 1442.09 L1915.18 1442.09 L1915.18 1464.61 L1920.12 1464.61 L1920.12 1468.5 L1915.18 1468.5 L1915.18 1476.65 L1910.53 1476.65 L1910.53 1468.5 L1894.93 1468.5 L1894.93 1463.99 L1909.31 1442.09 Z" fill="#000000" fill-rule="evenodd" fill-opacity="1" /><path clip-path="url(#clip580)" d="M 0 0 M2284.96 1442.09 L2303.32 1442.09 L2303.32 1446.03 L2289.24 1446.03 L2289.24 1454.5 Q2290.26 1454.15 2291.28 1453.99 Q2292.3 1453.8 2293.32 1453.8 Q2299.1 1453.8 2302.48 1456.98 Q2305.86 1460.15 2305.86 1465.56 Q2305.86 1471.14 2302.39 1474.24 Q2298.92 1477.32 2292.6 1477.32 Q2290.42 1477.32 2288.15 1476.95 Q2285.91 1476.58 2283.5 1475.84 L2283.5 1471.14 Q2285.58 1472.28 2287.81 1472.83 Q2290.03 1473.39 2292.51 1473.39 Q2296.51 1473.39 2298.85 1471.28 Q2301.19 1469.18 2301.19 1465.56 Q2301.19 1461.95 2298.85 1459.85 Q2296.51 1457.74 2292.51 1457.74 Q2290.63 1457.74 2288.76 1458.16 Q2286.9 1458.57 2284.96 1459.45 L2284.96 1442.09 Z" fill="#000000" fill-rule="evenodd" fill-opacity="1" /><path clip-path="url(#clip580)" d="M 0 0 M264.871 1370.04 Q261.259 1370.04 259.431 1373.6 Q257.625 1377.14 257.625 1384.27 Q257.625 1391.38 259.431 1394.94 Q261.259 1398.49 264.871 1398.49 Q268.505 1398.49 270.31 1394.94 Q272.139 1391.38 272.139 1384.27 Q272.139 1377.14 270.31 1373.6 Q268.505 1370.04 264.871 1370.04 M264.871 1366.33 Q270.681 1366.33 273.736 1370.94 Q276.815 1375.52 276.815 1384.27 Q276.815 1393 273.736 1397.61 Q270.681 1402.19 264.871 1402.19 Q259.06 1402.19 255.982 1397.61 Q252.926 1393 252.926 1384.27 Q252.926 1375.52 255.982 1370.94 Q259.06 1366.33 264.871 1366.33 Z" fill="#000000" fill-rule="evenodd" fill-opacity="1" /><path clip-path="url(#clip580)" d="M 0 0 M141.489 1210.84 L149.128 1210.84 L149.128 1184.47 L140.817 1186.14 L140.817 1181.88 L149.081 1180.21 L153.757 1180.21 L153.757 1210.84 L161.396 1210.84 L161.396 1214.77 L141.489 1214.77 L141.489 1210.84 Z" fill="#000000" fill-rule="evenodd" fill-opacity="1" /><path clip-path="url(#clip580)" d="M 0 0 M194.637 1189.31 L184.058 1199.93 L194.637 1210.51 L191.882 1213.31 L181.257 1202.69 L170.632 1213.31 L167.901 1210.51 L178.456 1199.93 L167.901 1189.31 L170.632 1186.51 L181.257 1197.13 L191.882 1186.51 L194.637 1189.31 Z" fill="#000000" fill-rule="evenodd" fill-opacity="1" /><path clip-path="url(#clip580)" d="M 0 0 M200.516 1210.84 L208.155 1210.84 L208.155 1184.47 L199.845 1186.14 L199.845 1181.88 L208.109 1180.21 L212.785 1180.21 L212.785 1210.84 L220.423 1210.84 L220.423 1214.77 L200.516 1214.77 L200.516 1210.84 Z" fill="#000000" fill-rule="evenodd" fill-opacity="1" /><path clip-path="url(#clip580)" d="M 0 0 M235.493 1183.29 Q231.882 1183.29 230.053 1186.86 Q228.247 1190.4 228.247 1197.53 Q228.247 1204.63 230.053 1208.2 Q231.882 1211.74 235.493 1211.74 Q239.127 1211.74 240.933 1208.2 Q242.761 1204.63 242.761 1197.53 Q242.761 1190.4 240.933 1186.86 Q239.127 1183.29 235.493 1183.29 M235.493 1179.59 Q241.303 1179.59 244.358 1184.19 Q247.437 1188.78 247.437 1197.53 Q247.437 1206.25 244.358 1210.86 Q241.303 1215.44 235.493 1215.44 Q229.683 1215.44 226.604 1210.86 Q223.548 1206.25 223.548 1197.53 Q223.548 1188.78 226.604 1184.19 Q229.683 1179.59 235.493 1179.59 Z" fill="#000000" fill-rule="evenodd" fill-opacity="1" /><path clip-path="url(#clip580)" d="M 0 0 M247.437 1167.14 L262.615 1167.14 L262.615 1168.93 L247.437 1168.93 L247.437 1167.14 Z" fill="#000000" fill-rule="evenodd" fill-opacity="1" /><path clip-path="url(#clip580)" d="M 0 0 M270.796 1166.05 Q269.141 1166.05 268.182 1167.03 Q267.223 1168.03 267.223 1169.74 Q267.223 1171.43 268.182 1172.41 Q269.141 1173.41 270.796 1173.41 Q272.433 1173.41 273.392 1172.41 Q274.351 1171.43 274.351 1169.74 Q274.351 1168.03 273.392 1167.03 Q272.433 1166.05 270.796 1166.05 M275.649 1159.39 L275.649 1161.33 Q274.727 1160.96 273.787 1160.77 Q272.846 1160.56 271.925 1160.56 Q269.517 1160.56 268.239 1161.97 Q266.96 1163.4 266.772 1166.28 Q267.486 1165.36 268.558 1164.87 Q269.649 1164.38 270.928 1164.38 Q273.655 1164.38 275.235 1165.81 Q276.815 1167.26 276.815 1169.74 Q276.815 1172.13 275.16 1173.61 Q273.524 1175.08 270.796 1175.08 Q267.656 1175.08 266 1172.99 Q264.345 1170.9 264.345 1166.92 Q264.345 1163.19 266.377 1160.99 Q268.408 1158.77 271.831 1158.77 Q272.752 1158.77 273.693 1158.92 Q274.633 1159.09 275.649 1159.39 Z" fill="#000000" fill-rule="evenodd" fill-opacity="1" /><path clip-path="url(#clip580)" d="M 0 0 M145.077 1017.64 L161.396 1017.64 L161.396 1021.58 L139.452 1021.58 L139.452 1017.64 Q142.114 1014.89 146.697 1010.26 Q151.303 1005.61 152.484 1004.26 Q154.729 1001.74 155.609 1000 Q156.512 998.244 156.512 996.554 Q156.512 993.8 154.567 992.064 Q152.646 990.328 149.544 990.328 Q147.345 990.328 144.891 991.091 Q142.461 991.855 139.683 993.406 L139.683 988.684 Q142.507 987.55 144.961 986.971 Q147.415 986.392 149.452 986.392 Q154.822 986.392 158.016 989.078 Q161.211 991.763 161.211 996.253 Q161.211 998.383 160.401 1000.3 Q159.614 1002.2 157.507 1004.8 Q156.928 1005.47 153.827 1008.68 Q150.725 1011.88 145.077 1017.64 Z" fill="#000000" fill-rule="evenodd" fill-opacity="1" /><path clip-path="url(#clip580)" d="M 0 0 M194.637 996.115 L184.058 1006.74 L194.637 1017.32 L191.882 1020.12 L181.257 1009.49 L170.632 1020.12 L167.901 1017.32 L178.456 1006.74 L167.901 996.115 L170.632 993.314 L181.257 1003.94 L191.882 993.314 L194.637 996.115 Z" fill="#000000" fill-rule="evenodd" fill-opacity="1" /><path clip-path="url(#clip580)" d="M 0 0 M200.516 1017.64 L208.155 1017.64 L208.155 991.277 L199.845 992.943 L199.845 988.684 L208.109 987.017 L212.785 987.017 L212.785 1017.64 L220.423 1017.64 L220.423 1021.58 L200.516 1021.58 L200.516 1017.64 Z" fill="#000000" fill-rule="evenodd" fill-opacity="1" /><path clip-path="url(#clip580)" d="M 0 0 M235.493 990.096 Q231.882 990.096 230.053 993.661 Q228.247 997.203 228.247 1004.33 Q228.247 1011.44 230.053 1015 Q231.882 1018.54 235.493 1018.54 Q239.127 1018.54 240.933 1015 Q242.761 1011.44 242.761 1004.33 Q242.761 997.203 240.933 993.661 Q239.127 990.096 235.493 990.096 M235.493 986.392 Q241.303 986.392 244.358 990.999 Q247.437 995.582 247.437 1004.33 Q247.437 1013.06 244.358 1017.67 Q241.303 1022.25 235.493 1022.25 Q229.683 1022.25 226.604 1017.67 Q223.548 1013.06 223.548 1004.33 Q223.548 995.582 226.604 990.999 Q229.683 986.392 235.493 986.392 Z" fill="#000000" fill-rule="evenodd" fill-opacity="1" /><path clip-path="url(#clip580)" d="M 0 0 M247.437 973.949 L262.615 973.949 L262.615 975.735 L247.437 975.735 L247.437 973.949 Z" fill="#000000" fill-rule="evenodd" fill-opacity="1" /><path clip-path="url(#clip580)" d="M 0 0 M270.796 972.858 Q269.141 972.858 268.182 973.836 Q267.223 974.833 267.223 976.544 Q267.223 978.237 268.182 979.215 Q269.141 980.212 270.796 980.212 Q272.433 980.212 273.392 979.215 Q274.351 978.237 274.351 976.544 Q274.351 974.833 273.392 973.836 Q272.433 972.858 270.796 972.858 M275.649 966.2 L275.649 968.137 Q274.727 967.761 273.787 967.573 Q272.846 967.366 271.925 967.366 Q269.517 967.366 268.239 968.776 Q266.96 970.206 266.772 973.083 Q267.486 972.162 268.558 971.673 Q269.649 971.184 270.928 971.184 Q273.655 971.184 275.235 972.613 Q276.815 974.061 276.815 976.544 Q276.815 978.933 275.16 980.418 Q273.524 981.885 270.796 981.885 Q267.656 981.885 266 979.798 Q264.345 977.71 264.345 973.723 Q264.345 969.999 266.377 967.798 Q268.408 965.579 271.831 965.579 Q272.752 965.579 273.693 965.73 Q274.633 965.899 275.649 966.2 Z" fill="#000000" fill-rule="evenodd" fill-opacity="1" /><path clip-path="url(#clip580)" d="M 0 0 M154.266 809.749 Q157.623 810.467 159.498 812.735 Q161.396 815.004 161.396 818.337 Q161.396 823.453 157.877 826.254 Q154.359 829.054 147.878 829.054 Q145.702 829.054 143.387 828.615 Q141.095 828.198 138.641 827.341 L138.641 822.828 Q140.586 823.962 142.901 824.541 Q145.215 825.119 147.739 825.119 Q152.137 825.119 154.428 823.383 Q156.743 821.647 156.743 818.337 Q156.743 815.281 154.59 813.568 Q152.461 811.832 148.641 811.832 L144.614 811.832 L144.614 807.99 L148.827 807.99 Q152.276 807.99 154.104 806.624 Q155.933 805.235 155.933 802.643 Q155.933 799.98 154.035 798.568 Q152.16 797.133 148.641 797.133 Q146.72 797.133 144.521 797.55 Q142.322 797.967 139.683 798.846 L139.683 794.68 Q142.345 793.939 144.66 793.568 Q146.998 793.198 149.058 793.198 Q154.382 793.198 157.484 795.629 Q160.586 798.036 160.586 802.156 Q160.586 805.027 158.942 807.017 Q157.299 808.985 154.266 809.749 Z" fill="#000000" fill-rule="evenodd" fill-opacity="1" /><path clip-path="url(#clip580)" d="M 0 0 M194.637 802.92 L184.058 813.545 L194.637 824.124 L191.882 826.925 L181.257 816.3 L170.632 826.925 L167.901 824.124 L178.456 813.545 L167.901 802.92 L170.632 800.119 L181.257 810.744 L191.882 800.119 L194.637 802.92 Z" fill="#000000" fill-rule="evenodd" fill-opacity="1" /><path clip-path="url(#clip580)" d="M 0 0 M200.516 824.448 L208.155 824.448 L208.155 798.082 L199.845 799.749 L199.845 795.49 L208.109 793.823 L212.785 793.823 L212.785 824.448 L220.423 824.448 L220.423 828.383 L200.516 828.383 L200.516 824.448 Z" fill="#000000" fill-rule="evenodd" fill-opacity="1" /><path clip-path="url(#clip580)" d="M 0 0 M235.493 796.902 Q231.882 796.902 230.053 800.467 Q228.247 804.008 228.247 811.138 Q228.247 818.244 230.053 821.809 Q231.882 825.351 235.493 825.351 Q239.127 825.351 240.933 821.809 Q242.761 818.244 242.761 811.138 Q242.761 804.008 240.933 800.467 Q239.127 796.902 235.493 796.902 M235.493 793.198 Q241.303 793.198 244.358 797.805 Q247.437 802.388 247.437 811.138 Q247.437 819.865 244.358 824.471 Q241.303 829.054 235.493 829.054 Q229.683 829.054 226.604 824.471 Q223.548 819.865 223.548 811.138 Q223.548 802.388 226.604 797.805 Q229.683 793.198 235.493 793.198 Z" fill="#000000" fill-rule="evenodd" fill-opacity="1" /><path clip-path="url(#clip580)" d="M 0 0 M247.437 780.754 L262.615 780.754 L262.615 782.541 L247.437 782.541 L247.437 780.754 Z" fill="#000000" fill-rule="evenodd" fill-opacity="1" /><path clip-path="url(#clip580)" d="M 0 0 M270.796 779.664 Q269.141 779.664 268.182 780.642 Q267.223 781.638 267.223 783.35 Q267.223 785.043 268.182 786.021 Q269.141 787.017 270.796 787.017 Q272.433 787.017 273.392 786.021 Q274.351 785.043 274.351 783.35 Q274.351 781.638 273.392 780.642 Q272.433 779.664 270.796 779.664 M275.649 773.006 L275.649 774.943 Q274.727 774.567 273.787 774.379 Q272.846 774.172 271.925 774.172 Q269.517 774.172 268.239 775.582 Q266.96 777.012 266.772 779.889 Q267.486 778.968 268.558 778.479 Q269.649 777.99 270.928 777.99 Q273.655 777.99 275.235 779.419 Q276.815 780.867 276.815 783.35 Q276.815 785.738 275.16 787.224 Q273.524 788.691 270.796 788.691 Q267.656 788.691 266 786.604 Q264.345 784.516 264.345 780.529 Q264.345 776.805 266.377 774.604 Q268.408 772.385 271.831 772.385 Q272.752 772.385 273.693 772.535 Q274.633 772.705 275.649 773.006 Z" fill="#000000" fill-rule="evenodd" fill-opacity="1" /><path clip-path="url(#clip580)" d="M 0 0 M151.813 604.703 L140.007 623.152 L151.813 623.152 L151.813 604.703 M150.586 600.629 L156.465 600.629 L156.465 623.152 L161.396 623.152 L161.396 627.041 L156.465 627.041 L156.465 635.189 L151.813 635.189 L151.813 627.041 L136.211 627.041 L136.211 622.527 L150.586 600.629 Z" fill="#000000" fill-rule="evenodd" fill-opacity="1" /><path clip-path="url(#clip580)" d="M 0 0 M194.637 609.726 L184.058 620.351 L194.637 630.93 L191.882 633.731 L181.257 623.106 L170.632 633.731 L167.901 630.93 L178.456 620.351 L167.901 609.726 L170.632 606.925 L181.257 617.55 L191.882 606.925 L194.637 609.726 Z" fill="#000000" fill-rule="evenodd" fill-opacity="1" /><path clip-path="url(#clip580)" d="M 0 0 M200.516 631.254 L208.155 631.254 L208.155 604.888 L199.845 606.555 L199.845 602.296 L208.109 600.629 L212.785 600.629 L212.785 631.254 L220.423 631.254 L220.423 635.189 L200.516 635.189 L200.516 631.254 Z" fill="#000000" fill-rule="evenodd" fill-opacity="1" /><path clip-path="url(#clip580)" d="M 0 0 M235.493 603.708 Q231.882 603.708 230.053 607.272 Q228.247 610.814 228.247 617.944 Q228.247 625.05 230.053 628.615 Q231.882 632.156 235.493 632.156 Q239.127 632.156 240.933 628.615 Q242.761 625.05 242.761 617.944 Q242.761 610.814 240.933 607.272 Q239.127 603.708 235.493 603.708 M235.493 600.004 Q241.303 600.004 244.358 604.61 Q247.437 609.194 247.437 617.944 Q247.437 626.67 244.358 631.277 Q241.303 635.86 235.493 635.86 Q229.683 635.86 226.604 631.277 Q223.548 626.67 223.548 617.944 Q223.548 609.194 226.604 604.61 Q229.683 600.004 235.493 600.004 Z" fill="#000000" fill-rule="evenodd" fill-opacity="1" /><path clip-path="url(#clip580)" d="M 0 0 M247.437 587.56 L262.615 587.56 L262.615 589.347 L247.437 589.347 L247.437 587.56 Z" fill="#000000" fill-rule="evenodd" fill-opacity="1" /><path clip-path="url(#clip580)" d="M 0 0 M270.796 586.469 Q269.141 586.469 268.182 587.447 Q267.223 588.444 267.223 590.156 Q267.223 591.848 268.182 592.826 Q269.141 593.823 270.796 593.823 Q272.433 593.823 273.392 592.826 Q274.351 591.848 274.351 590.156 Q274.351 588.444 273.392 587.447 Q272.433 586.469 270.796 586.469 M275.649 579.811 L275.649 581.749 Q274.727 581.372 273.787 581.184 Q272.846 580.977 271.925 580.977 Q269.517 580.977 268.239 582.388 Q266.96 583.817 266.772 586.695 Q267.486 585.773 268.558 585.284 Q269.649 584.795 270.928 584.795 Q273.655 584.795 275.235 586.225 Q276.815 587.673 276.815 590.156 Q276.815 592.544 275.16 594.03 Q273.524 595.497 270.796 595.497 Q267.656 595.497 266 593.409 Q264.345 591.322 264.345 587.334 Q264.345 583.61 266.377 581.41 Q268.408 579.191 271.831 579.191 Q272.752 579.191 273.693 579.341 Q274.633 579.51 275.649 579.811 Z" fill="#000000" fill-rule="evenodd" fill-opacity="1" /><path clip-path="url(#clip580)" d="M 0 0 M140.493 407.435 L158.85 407.435 L158.85 411.37 L144.776 411.37 L144.776 419.842 Q145.794 419.495 146.813 419.333 Q147.831 419.148 148.85 419.148 Q154.637 419.148 158.016 422.319 Q161.396 425.49 161.396 430.907 Q161.396 436.485 157.924 439.587 Q154.452 442.666 148.132 442.666 Q145.956 442.666 143.688 442.296 Q141.442 441.925 139.035 441.184 L139.035 436.485 Q141.118 437.62 143.341 438.175 Q145.563 438.731 148.04 438.731 Q152.044 438.731 154.382 436.624 Q156.72 434.518 156.72 430.907 Q156.72 427.296 154.382 425.189 Q152.044 423.083 148.04 423.083 Q146.165 423.083 144.29 423.499 Q142.438 423.916 140.493 424.796 L140.493 407.435 Z" fill="#000000" fill-rule="evenodd" fill-opacity="1" /><path clip-path="url(#clip580)" d="M 0 0 M194.637 416.532 L184.058 427.157 L194.637 437.735 L191.882 440.536 L181.257 429.911 L170.632 440.536 L167.901 437.735 L178.456 427.157 L167.901 416.532 L170.632 413.731 L181.257 424.356 L191.882 413.731 L194.637 416.532 Z" fill="#000000" fill-rule="evenodd" fill-opacity="1" /><path clip-path="url(#clip580)" d="M 0 0 M200.516 438.059 L208.155 438.059 L208.155 411.694 L199.845 413.361 L199.845 409.101 L208.109 407.435 L212.785 407.435 L212.785 438.059 L220.423 438.059 L220.423 441.995 L200.516 441.995 L200.516 438.059 Z" fill="#000000" fill-rule="evenodd" fill-opacity="1" /><path clip-path="url(#clip580)" d="M 0 0 M235.493 410.513 Q231.882 410.513 230.053 414.078 Q228.247 417.62 228.247 424.749 Q228.247 431.856 230.053 435.421 Q231.882 438.962 235.493 438.962 Q239.127 438.962 240.933 435.421 Q242.761 431.856 242.761 424.749 Q242.761 417.62 240.933 414.078 Q239.127 410.513 235.493 410.513 M235.493 406.81 Q241.303 406.81 244.358 411.416 Q247.437 415.999 247.437 424.749 Q247.437 433.476 244.358 438.083 Q241.303 442.666 235.493 442.666 Q229.683 442.666 226.604 438.083 Q223.548 433.476 223.548 424.749 Q223.548 415.999 226.604 411.416 Q229.683 406.81 235.493 406.81 Z" fill="#000000" fill-rule="evenodd" fill-opacity="1" /><path clip-path="url(#clip580)" d="M 0 0 M247.437 394.366 L262.615 394.366 L262.615 396.153 L247.437 396.153 L247.437 394.366 Z" fill="#000000" fill-rule="evenodd" fill-opacity="1" /><path clip-path="url(#clip580)" d="M 0 0 M270.796 393.275 Q269.141 393.275 268.182 394.253 Q267.223 395.25 267.223 396.961 Q267.223 398.654 268.182 399.632 Q269.141 400.629 270.796 400.629 Q272.433 400.629 273.392 399.632 Q274.351 398.654 274.351 396.961 Q274.351 395.25 273.392 394.253 Q272.433 393.275 270.796 393.275 M275.649 386.617 L275.649 388.554 Q274.727 388.178 273.787 387.99 Q272.846 387.783 271.925 387.783 Q269.517 387.783 268.239 389.194 Q266.96 390.623 266.772 393.501 Q267.486 392.579 268.558 392.09 Q269.649 391.601 270.928 391.601 Q273.655 391.601 275.235 393.031 Q276.815 394.479 276.815 396.961 Q276.815 399.35 275.16 400.836 Q273.524 402.303 270.796 402.303 Q267.656 402.303 266 400.215 Q264.345 398.127 264.345 394.14 Q264.345 390.416 266.377 388.216 Q268.408 385.996 271.831 385.996 Q272.752 385.996 273.693 386.147 Q274.633 386.316 275.649 386.617 Z" fill="#000000" fill-rule="evenodd" fill-opacity="1" /><path clip-path="url(#clip580)" d="M 0 0 M149.868 229.657 Q146.72 229.657 144.868 231.81 Q143.04 233.963 143.04 237.712 Q143.04 241.439 144.868 243.615 Q146.72 245.768 149.868 245.768 Q153.016 245.768 154.845 243.615 Q156.697 241.439 156.697 237.712 Q156.697 233.963 154.845 231.81 Q153.016 229.657 149.868 229.657 M159.151 215.004 L159.151 219.264 Q157.391 218.43 155.586 217.99 Q153.803 217.551 152.044 217.551 Q147.415 217.551 144.961 220.676 Q142.53 223.801 142.183 230.12 Q143.549 228.106 145.609 227.041 Q147.669 225.953 150.146 225.953 Q155.354 225.953 158.364 229.125 Q161.396 232.273 161.396 237.712 Q161.396 243.037 158.248 246.254 Q155.1 249.472 149.868 249.472 Q143.873 249.472 140.702 244.888 Q137.53 240.282 137.53 231.555 Q137.53 223.361 141.419 218.5 Q145.308 213.615 151.859 213.615 Q153.618 213.615 155.401 213.963 Q157.206 214.31 159.151 215.004 Z" fill="#000000" fill-rule="evenodd" fill-opacity="1" /><path clip-path="url(#clip580)" d="M 0 0 M194.637 223.338 L184.058 233.963 L194.637 244.541 L191.882 247.342 L181.257 236.717 L170.632 247.342 L167.901 244.541 L178.456 233.963 L167.901 223.338 L170.632 220.537 L181.257 231.162 L191.882 220.537 L194.637 223.338 Z" fill="#000000" fill-rule="evenodd" fill-opacity="1" /><path clip-path="url(#clip580)" d="M 0 0 M200.516 244.865 L208.155 244.865 L208.155 218.5 L199.845 220.166 L199.845 215.907 L208.109 214.24 L212.785 214.24 L212.785 244.865 L220.423 244.865 L220.423 248.8 L200.516 248.8 L200.516 244.865 Z" fill="#000000" fill-rule="evenodd" fill-opacity="1" /><path clip-path="url(#clip580)" d="M 0 0 M235.493 217.319 Q231.882 217.319 230.053 220.884 Q228.247 224.426 228.247 231.555 Q228.247 238.662 230.053 242.226 Q231.882 245.768 235.493 245.768 Q239.127 245.768 240.933 242.226 Q242.761 238.662 242.761 231.555 Q242.761 224.426 240.933 220.884 Q239.127 217.319 235.493 217.319 M235.493 213.615 Q241.303 213.615 244.358 218.222 Q247.437 222.805 247.437 231.555 Q247.437 240.282 244.358 244.888 Q241.303 249.472 235.493 249.472 Q229.683 249.472 226.604 244.888 Q223.548 240.282 223.548 231.555 Q223.548 222.805 226.604 218.222 Q229.683 213.615 235.493 213.615 Z" fill="#000000" fill-rule="evenodd" fill-opacity="1" /><path clip-path="url(#clip580)" d="M 0 0 M247.437 201.172 L262.615 201.172 L262.615 202.958 L247.437 202.958 L247.437 201.172 Z" fill="#000000" fill-rule="evenodd" fill-opacity="1" /><path clip-path="url(#clip580)" d="M 0 0 M270.796 200.081 Q269.141 200.081 268.182 201.059 Q267.223 202.056 267.223 203.767 Q267.223 205.46 268.182 206.438 Q269.141 207.435 270.796 207.435 Q272.433 207.435 273.392 206.438 Q274.351 205.46 274.351 203.767 Q274.351 202.056 273.392 201.059 Q272.433 200.081 270.796 200.081 M275.649 193.423 L275.649 195.36 Q274.727 194.984 273.787 194.796 Q272.846 194.589 271.925 194.589 Q269.517 194.589 268.239 195.999 Q266.96 197.429 266.772 200.306 Q267.486 199.385 268.558 198.896 Q269.649 198.407 270.928 198.407 Q273.655 198.407 275.235 199.836 Q276.815 201.284 276.815 203.767 Q276.815 206.156 275.16 207.642 Q273.524 209.109 270.796 209.109 Q267.656 209.109 266 207.021 Q264.345 204.933 264.345 200.946 Q264.345 197.222 266.377 195.021 Q268.408 192.802 271.831 192.802 Q272.752 192.802 273.693 192.953 Q274.633 193.122 275.649 193.423 Z" fill="#000000" fill-rule="evenodd" fill-opacity="1" /><path clip-path="url(#clip580)" d="M 0 0 M1048.68 1538.25 Q1048.68 1544.71 1051.33 1548.4 Q1054 1552.07 1058.65 1552.07 Q1063.29 1552.07 1065.97 1548.4 Q1068.64 1544.71 1068.64 1538.25 Q1068.64 1531.79 1065.97 1528.13 Q1063.29 1524.44 1058.65 1524.44 Q1054 1524.44 1051.33 1528.13 Q1048.68 1531.79 1048.68 1538.25 M1068.64 1550.7 Q1066.79 1553.88 1063.96 1555.44 Q1061.16 1556.97 1057.21 1556.97 Q1050.75 1556.97 1046.68 1551.81 Q1042.64 1546.65 1042.64 1538.25 Q1042.64 1529.85 1046.68 1524.69 Q1050.75 1519.54 1057.21 1519.54 Q1061.16 1519.54 1063.96 1521.1 Q1066.79 1522.62 1068.64 1525.81 L1068.64 1520.4 L1074.5 1520.4 L1074.5 1569.6 L1068.64 1569.6 L1068.64 1550.7 Z" fill="#000000" fill-rule="evenodd" fill-opacity="1" /><path clip-path="url(#clip580)" d="M 0 0 M1107.73 1566.87 L1107.73 1571.42 L1073.86 1571.42 L1073.86 1566.87 L1107.73 1566.87 Z" fill="#000000" fill-rule="evenodd" fill-opacity="1" /><path clip-path="url(#clip580)" d="M 0 0 M1113.87 1506.52 L1119.72 1506.52 L1119.72 1556.04 L1113.87 1556.04 L1113.87 1506.52 Z" fill="#000000" fill-rule="evenodd" fill-opacity="1" /><path clip-path="url(#clip580)" d="M 0 0 M1125.87 1520.4 L1131.72 1520.4 L1131.72 1556.04 L1125.87 1556.04 L1125.87 1520.4 M1125.87 1506.52 L1131.72 1506.52 L1131.72 1513.93 L1125.87 1513.93 L1125.87 1506.52 Z" fill="#000000" fill-rule="evenodd" fill-opacity="1" /><path clip-path="url(#clip580)" d="M 0 0 M1141.37 1538.25 Q1141.37 1544.71 1144.01 1548.4 Q1146.68 1552.07 1151.33 1552.07 Q1155.98 1552.07 1158.65 1548.4 Q1161.32 1544.71 1161.32 1538.25 Q1161.32 1531.79 1158.65 1528.13 Q1155.98 1524.44 1151.33 1524.44 Q1146.68 1524.44 1144.01 1528.13 Q1141.37 1531.79 1141.37 1538.25 M1161.32 1550.7 Q1159.48 1553.88 1156.65 1555.44 Q1153.85 1556.97 1149.9 1556.97 Q1143.44 1556.97 1139.36 1551.81 Q1135.32 1546.65 1135.32 1538.25 Q1135.32 1529.85 1139.36 1524.69 Q1143.44 1519.54 1149.9 1519.54 Q1153.85 1519.54 1156.65 1521.1 Q1159.48 1522.62 1161.32 1525.81 L1161.32 1520.4 L1167.18 1520.4 L1167.18 1569.6 L1161.32 1569.6 L1161.32 1550.7 Z" fill="#000000" fill-rule="evenodd" fill-opacity="1" /><path clip-path="url(#clip580)" d="M 0 0 M1207.86 1524.5 Q1203.15 1524.5 1200.41 1528.19 Q1197.67 1531.85 1197.67 1538.25 Q1197.67 1544.65 1200.38 1548.34 Q1203.12 1552 1207.86 1552 Q1212.54 1552 1215.27 1548.31 Q1218.01 1544.62 1218.01 1538.25 Q1218.01 1531.92 1215.27 1528.23 Q1212.54 1524.5 1207.86 1524.5 M1207.86 1519.54 Q1215.5 1519.54 1219.86 1524.5 Q1224.22 1529.47 1224.22 1538.25 Q1224.22 1547 1219.86 1552 Q1215.5 1556.97 1207.86 1556.97 Q1200.19 1556.97 1195.83 1552 Q1191.5 1547 1191.5 1538.25 Q1191.5 1529.47 1195.83 1524.5 Q1200.19 1519.54 1207.86 1519.54 Z" fill="#000000" fill-rule="evenodd" fill-opacity="1" /><path clip-path="url(#clip580)" d="M 0 0 M1251.02 1525.87 Q1250.03 1525.3 1248.85 1525.04 Q1247.71 1524.76 1246.31 1524.76 Q1241.34 1524.76 1238.67 1528 Q1236.03 1531.22 1236.03 1537.27 L1236.03 1556.04 L1230.14 1556.04 L1230.14 1520.4 L1236.03 1520.4 L1236.03 1525.93 Q1237.87 1522.69 1240.83 1521.13 Q1243.79 1519.54 1248.03 1519.54 Q1248.63 1519.54 1249.36 1519.63 Q1250.09 1519.7 1250.99 1519.85 L1251.02 1525.87 Z" fill="#000000" fill-rule="evenodd" fill-opacity="1" /><path clip-path="url(#clip580)" d="M 0 0 M1281.38 1538.25 Q1281.38 1544.71 1284.02 1548.4 Q1286.7 1552.07 1291.34 1552.07 Q1295.99 1552.07 1298.66 1548.4 Q1301.34 1544.71 1301.34 1538.25 Q1301.34 1531.79 1298.66 1528.13 Q1295.99 1524.44 1291.34 1524.44 Q1286.7 1524.44 1284.02 1528.13 Q1281.38 1531.79 1281.38 1538.25 M1301.34 1550.7 Q1299.49 1553.88 1296.66 1555.44 Q1293.86 1556.97 1289.91 1556.97 Q1283.45 1556.97 1279.38 1551.81 Q1275.33 1546.65 1275.33 1538.25 Q1275.33 1529.85 1279.38 1524.69 Q1283.45 1519.54 1289.91 1519.54 Q1293.86 1519.54 1296.66 1521.1 Q1299.49 1522.62 1301.34 1525.81 L1301.34 1520.4 L1307.19 1520.4 L1307.19 1569.6 L1301.34 1569.6 L1301.34 1550.7 Z" fill="#000000" fill-rule="evenodd" fill-opacity="1" /><path clip-path="url(#clip580)" d="M 0 0 M1340.42 1566.87 L1340.42 1571.42 L1306.56 1571.42 L1306.56 1566.87 L1340.42 1566.87 Z" fill="#000000" fill-rule="evenodd" fill-opacity="1" /><path clip-path="url(#clip580)" d="M 0 0 M1346.57 1520.4 L1352.42 1520.4 L1352.42 1556.04 L1346.57 1556.04 L1346.57 1520.4 M1346.57 1506.52 L1352.42 1506.52 L1352.42 1513.93 L1346.57 1513.93 L1346.57 1506.52 Z" fill="#000000" fill-rule="evenodd" fill-opacity="1" /><path clip-path="url(#clip580)" d="M 0 0 M1384.22 1521.76 L1384.22 1527.24 Q1381.74 1525.87 1379.22 1525.2 Q1376.74 1524.5 1374.19 1524.5 Q1368.5 1524.5 1365.35 1528.13 Q1362.19 1531.73 1362.19 1538.25 Q1362.19 1544.78 1365.35 1548.4 Q1368.5 1552 1374.19 1552 Q1376.74 1552 1379.22 1551.33 Q1381.74 1550.63 1384.22 1549.26 L1384.22 1554.68 Q1381.77 1555.82 1379.13 1556.39 Q1376.52 1556.97 1373.56 1556.97 Q1365.5 1556.97 1360.76 1551.91 Q1356.02 1546.85 1356.02 1538.25 Q1356.02 1529.53 1360.79 1524.53 Q1365.6 1519.54 1373.94 1519.54 Q1376.64 1519.54 1379.22 1520.11 Q1381.8 1520.65 1384.22 1521.76 Z" fill="#000000" fill-rule="evenodd" fill-opacity="1" /><path clip-path="url(#clip580)" d="M 0 0 M1420.85 1536.76 L1420.85 1539.62 L1393.93 1539.62 Q1394.31 1545.67 1397.56 1548.85 Q1400.83 1552 1406.66 1552 Q1410.03 1552 1413.18 1551.17 Q1416.37 1550.35 1419.49 1548.69 L1419.49 1554.23 Q1416.33 1555.57 1413.02 1556.27 Q1409.71 1556.97 1406.31 1556.97 Q1397.78 1556.97 1392.78 1552 Q1387.82 1547.04 1387.82 1538.57 Q1387.82 1529.82 1392.53 1524.69 Q1397.27 1519.54 1405.29 1519.54 Q1412.48 1519.54 1416.65 1524.18 Q1420.85 1528.8 1420.85 1536.76 M1415 1535.04 Q1414.93 1530.23 1412.29 1527.37 Q1409.68 1524.5 1405.35 1524.5 Q1400.45 1524.5 1397.49 1527.27 Q1394.56 1530.04 1394.12 1535.07 L1415 1535.04 Z" fill="#000000" fill-rule="evenodd" fill-opacity="1" /><path clip-path="url(#clip580)" d="M 0 0 M1447.18 1506.52 L1460.67 1506.52 L1460.67 1511.07 L1453.03 1511.07 L1453.03 1560.09 L1460.67 1560.09 L1460.67 1564.64 L1447.18 1564.64 L1447.18 1506.52 Z" fill="#000000" fill-rule="evenodd" fill-opacity="1" /><path clip-path="url(#clip580)" d="M 0 0 M1490.27 1537.81 Q1490.27 1531.44 1487.63 1527.94 Q1485.02 1524.44 1480.28 1524.44 Q1475.57 1524.44 1472.93 1527.94 Q1470.32 1531.44 1470.32 1537.81 Q1470.32 1544.14 1472.93 1547.64 Q1475.57 1551.14 1480.28 1551.14 Q1485.02 1551.14 1487.63 1547.64 Q1490.27 1544.14 1490.27 1537.81 M1496.13 1551.62 Q1496.13 1560.72 1492.09 1565.15 Q1488.04 1569.6 1479.71 1569.6 Q1476.62 1569.6 1473.88 1569.13 Q1471.14 1568.68 1468.57 1567.72 L1468.57 1562.03 Q1471.14 1563.43 1473.66 1564.1 Q1476.17 1564.76 1478.78 1564.76 Q1484.54 1564.76 1487.41 1561.74 Q1490.27 1558.75 1490.27 1552.67 L1490.27 1549.77 Q1488.46 1552.92 1485.63 1554.48 Q1482.79 1556.04 1478.85 1556.04 Q1472.29 1556.04 1468.28 1551.05 Q1464.27 1546.05 1464.27 1537.81 Q1464.27 1529.53 1468.28 1524.53 Q1472.29 1519.54 1478.85 1519.54 Q1482.79 1519.54 1485.63 1521.1 Q1488.46 1522.66 1490.27 1525.81 L1490.27 1520.4 L1496.13 1520.4 L1496.13 1551.62 Z" fill="#000000" fill-rule="evenodd" fill-opacity="1" /><path clip-path="url(#clip580)" d="M 0 0 M1512.68 1508.52 L1518.09 1508.52 L1501.54 1562.09 L1496.13 1562.09 L1512.68 1508.52 Z" fill="#000000" fill-rule="evenodd" fill-opacity="1" /><path clip-path="url(#clip580)" d="M 0 0 M1524.01 1506.52 L1529.9 1506.52 L1529.9 1535.77 L1547.37 1520.4 L1554.85 1520.4 L1535.95 1537.07 L1555.65 1556.04 L1548.01 1556.04 L1529.9 1538.63 L1529.9 1556.04 L1524.01 1556.04 L1524.01 1506.52 Z" fill="#000000" fill-rule="evenodd" fill-opacity="1" /><path clip-path="url(#clip580)" d="M 0 0 M1585.25 1537.81 Q1585.25 1531.44 1582.61 1527.94 Q1580 1524.44 1575.25 1524.44 Q1570.54 1524.44 1567.9 1527.94 Q1565.29 1531.44 1565.29 1537.81 Q1565.29 1544.14 1567.9 1547.64 Q1570.54 1551.14 1575.25 1551.14 Q1580 1551.14 1582.61 1547.64 Q1585.25 1544.14 1585.25 1537.81 M1591.11 1551.62 Q1591.11 1560.72 1587.06 1565.15 Q1583.02 1569.6 1574.68 1569.6 Q1571.59 1569.6 1568.86 1569.13 Q1566.12 1568.68 1563.54 1567.72 L1563.54 1562.03 Q1566.12 1563.43 1568.63 1564.1 Q1571.15 1564.76 1573.76 1564.76 Q1579.52 1564.76 1582.38 1561.74 Q1585.25 1558.75 1585.25 1552.67 L1585.25 1549.77 Q1583.43 1552.92 1580.6 1554.48 Q1577.77 1556.04 1573.82 1556.04 Q1567.27 1556.04 1563.26 1551.05 Q1559.25 1546.05 1559.25 1537.81 Q1559.25 1529.53 1563.26 1524.53 Q1567.27 1519.54 1573.82 1519.54 Q1577.77 1519.54 1580.6 1521.1 Q1583.43 1522.66 1585.25 1525.81 L1585.25 1520.4 L1591.11 1520.4 L1591.11 1551.62 Z" fill="#000000" fill-rule="evenodd" fill-opacity="1" /><path clip-path="url(#clip580)" d="M 0 0 M1610.93 1506.52 L1610.93 1564.64 L1597.44 1564.64 L1597.44 1560.09 L1605.05 1560.09 L1605.05 1511.07 L1597.44 1511.07 L1597.44 1506.52 L1610.93 1506.52 Z" fill="#000000" fill-rule="evenodd" fill-opacity="1" /><path clip-path="url(#clip580)" d="M 0 0 M70.0847 1084.12 Q70.0847 1091.21 71.7079 1093.95 Q73.3312 1096.69 77.2461 1096.69 Q80.3653 1096.69 82.2114 1094.65 Q84.0256 1092.58 84.0256 1089.05 Q84.0256 1084.18 80.5881 1081.25 Q77.1188 1078.29 71.3897 1078.29 L70.0847 1078.29 L70.0847 1084.12 M67.6657 1072.44 L88.0042 1072.44 L88.0042 1078.29 L82.5933 1078.29 Q85.8398 1080.3 87.3994 1083.29 Q88.9272 1086.28 88.9272 1090.61 Q88.9272 1096.08 85.8716 1099.33 Q82.7843 1102.55 77.6281 1102.55 Q71.6125 1102.55 68.5569 1098.53 Q65.5014 1094.49 65.5014 1086.5 L65.5014 1078.29 L64.9285 1078.29 Q60.8862 1078.29 58.6901 1080.97 Q56.4621 1083.61 56.4621 1088.41 Q56.4621 1091.47 57.1941 1094.37 Q57.9262 1097.26 59.3903 1099.94 L53.9795 1099.94 Q52.7381 1096.72 52.1334 1093.7 Q51.4968 1090.67 51.4968 1087.81 Q51.4968 1080.07 55.5072 1076.25 Q59.5176 1072.44 67.6657 1072.44 Z" fill="#000000" fill-rule="evenodd" fill-opacity="1" /><path clip-path="url(#clip580)" d="M 0 0 M73.9359 1066.9 L52.3562 1066.9 L52.3562 1061.04 L73.7131 1061.04 Q78.7739 1061.04 81.3202 1059.07 Q83.8346 1057.09 83.8346 1053.15 Q83.8346 1048.4 80.8109 1045.67 Q77.7872 1042.9 72.5673 1042.9 L52.3562 1042.9 L52.3562 1037.04 L88.0042 1037.04 L88.0042 1042.9 L82.5296 1042.9 Q85.7762 1045.03 87.3676 1047.86 Q88.9272 1050.66 88.9272 1054.39 Q88.9272 1060.53 85.1078 1063.71 Q81.2883 1066.9 73.9359 1066.9 M51.4968 1052.16 L51.4968 1052.16 Z" fill="#000000" fill-rule="evenodd" fill-opacity="1" /><path clip-path="url(#clip580)" d="M 0 0 M42.2347 1025.11 L52.3562 1025.11 L52.3562 1013.04 L56.9077 1013.04 L56.9077 1025.11 L76.2594 1025.11 Q80.6199 1025.11 81.8613 1023.93 Q83.1026 1022.72 83.1026 1019.06 L83.1026 1013.04 L88.0042 1013.04 L88.0042 1019.06 Q88.0042 1025.84 85.4897 1028.42 Q82.9434 1030.99 76.2594 1030.99 L56.9077 1030.99 L56.9077 1035.29 L52.3562 1035.29 L52.3562 1030.99 L42.2347 1030.99 L42.2347 1025.11 Z" fill="#000000" fill-rule="evenodd" fill-opacity="1" /><path clip-path="url(#clip580)" d="M 0 0 M56.4621 993.087 Q56.4621 997.797 60.1542 1000.53 Q63.8145 1003.27 70.212 1003.27 Q76.6095 1003.27 80.3017 1000.57 Q83.9619 997.829 83.9619 993.087 Q83.9619 988.408 80.2698 985.671 Q76.5777 982.933 70.212 982.933 Q63.8781 982.933 60.186 985.671 Q56.4621 988.408 56.4621 993.087 M51.4968 993.087 Q51.4968 985.448 56.4621 981.087 Q61.4273 976.727 70.212 976.727 Q78.9649 976.727 83.9619 981.087 Q88.9272 985.448 88.9272 993.087 Q88.9272 1000.76 83.9619 1005.12 Q78.9649 1009.45 70.212 1009.45 Q61.4273 1009.45 56.4621 1005.12 Q51.4968 1000.76 51.4968 993.087 Z" fill="#000000" fill-rule="evenodd" fill-opacity="1" /><path clip-path="url(#clip580)" d="M 0 0 M53.7248 944.93 L59.1993 944.93 Q57.8307 947.413 57.1623 949.927 Q56.4621 952.41 56.4621 954.956 Q56.4621 960.653 60.0905 963.804 Q63.6872 966.956 70.212 966.956 Q76.7369 966.956 80.3653 963.804 Q83.9619 960.653 83.9619 954.956 Q83.9619 952.41 83.2935 949.927 Q82.5933 947.413 81.2247 944.93 L86.6355 944.93 Q87.7814 947.381 88.3543 950.023 Q88.9272 952.633 88.9272 955.593 Q88.9272 963.645 83.8664 968.388 Q78.8057 973.13 70.212 973.13 Q61.491 973.13 56.4939 968.356 Q51.4968 963.55 51.4968 955.211 Q51.4968 952.505 52.0697 949.927 Q52.6108 947.349 53.7248 944.93 Z" fill="#000000" fill-rule="evenodd" fill-opacity="1" /><path clip-path="url(#clip580)" d="M 0 0 M56.4621 924.974 Q56.4621 929.684 60.1542 932.422 Q63.8145 935.159 70.212 935.159 Q76.6095 935.159 80.3017 932.453 Q83.9619 929.716 83.9619 924.974 Q83.9619 920.295 80.2698 917.558 Q76.5777 914.82 70.212 914.82 Q63.8781 914.82 60.186 917.558 Q56.4621 920.295 56.4621 924.974 M51.4968 924.974 Q51.4968 917.335 56.4621 912.974 Q61.4273 908.614 70.212 908.614 Q78.9649 908.614 83.9619 912.974 Q88.9272 917.335 88.9272 924.974 Q88.9272 932.644 83.9619 937.005 Q78.9649 941.334 70.212 941.334 Q61.4273 941.334 56.4621 937.005 Q51.4968 932.644 51.4968 924.974 Z" fill="#000000" fill-rule="evenodd" fill-opacity="1" /><path clip-path="url(#clip580)" d="M 0 0 M66.4881 872.839 L88.0042 872.839 L88.0042 878.695 L66.679 878.695 Q61.6183 878.695 59.1038 880.668 Q56.5894 882.642 56.5894 886.588 Q56.5894 891.331 59.6131 894.068 Q62.6368 896.805 67.8567 896.805 L88.0042 896.805 L88.0042 902.694 L52.3562 902.694 L52.3562 896.805 L57.8944 896.805 Q54.6797 894.705 53.0883 891.872 Q51.4968 889.007 51.4968 885.284 Q51.4968 879.141 55.3163 875.99 Q59.1038 872.839 66.4881 872.839 Z" fill="#000000" fill-rule="evenodd" fill-opacity="1" /><path clip-path="url(#clip580)" d="M 0 0 M52.3562 870.897 L52.3562 864.69 L82.275 853.55 L52.3562 842.41 L52.3562 836.204 L88.0042 849.572 L88.0042 857.529 L52.3562 870.897 Z" fill="#000000" fill-rule="evenodd" fill-opacity="1" /><path clip-path="url(#clip580)" d="M 0 0 M68.7161 799.569 L71.5806 799.569 L71.5806 826.496 Q77.6281 826.114 80.8109 822.868 Q83.9619 819.589 83.9619 813.765 Q83.9619 810.391 83.1344 807.24 Q82.3069 804.057 80.6518 800.938 L86.1899 800.938 Q87.5267 804.089 88.227 807.399 Q88.9272 810.709 88.9272 814.115 Q88.9272 822.645 83.9619 827.642 Q78.9967 832.607 70.5303 832.607 Q61.7774 832.607 56.6531 827.897 Q51.4968 823.154 51.4968 815.133 Q51.4968 807.94 56.1438 803.771 Q60.7589 799.569 68.7161 799.569 M66.9973 805.426 Q62.1912 805.489 59.3266 808.131 Q56.4621 810.741 56.4621 815.07 Q56.4621 819.971 59.2312 822.931 Q62.0002 825.86 67.0292 826.305 L66.9973 805.426 Z" fill="#000000" fill-rule="evenodd" fill-opacity="1" /><path clip-path="url(#clip580)" d="M 0 0 M57.8307 772.77 Q57.2578 773.756 57.0032 774.934 Q56.7167 776.08 56.7167 777.48 Q56.7167 782.446 59.9632 785.119 Q63.1779 787.761 69.2253 787.761 L88.0042 787.761 L88.0042 793.649 L52.3562 793.649 L52.3562 787.761 L57.8944 787.761 Q54.6479 785.915 53.0883 782.955 Q51.4968 779.995 51.4968 775.762 Q51.4968 775.157 51.5923 774.425 Q51.656 773.693 51.8151 772.801 L57.8307 772.77 Z" fill="#000000" fill-rule="evenodd" fill-opacity="1" /><path clip-path="url(#clip580)" d="M 0 0 M53.4065 743.901 L58.9447 743.901 Q57.6716 746.384 57.035 749.057 Q56.3984 751.731 56.3984 754.596 Q56.3984 758.956 57.7352 761.152 Q59.072 763.317 61.7456 763.317 Q63.7826 763.317 64.9603 761.757 Q66.1061 760.197 67.1565 755.487 L67.6021 753.482 Q68.9389 747.243 71.3897 744.633 Q73.8086 741.991 78.1691 741.991 Q83.1344 741.991 86.0308 745.938 Q88.9272 749.853 88.9272 756.728 Q88.9272 759.593 88.3543 762.712 Q87.8132 765.799 86.6992 769.237 L80.6518 769.237 Q82.3387 765.99 83.198 762.839 Q84.0256 759.688 84.0256 756.601 Q84.0256 752.463 82.6251 750.235 Q81.1929 748.007 78.6147 748.007 Q76.2276 748.007 74.9545 749.63 Q73.6813 751.222 72.5037 756.664 L72.0262 758.701 Q70.8804 764.144 68.5251 766.563 Q66.138 768.982 62.0002 768.982 Q56.9713 768.982 54.2341 765.417 Q51.4968 761.852 51.4968 755.296 Q51.4968 752.049 51.9743 749.185 Q52.4517 746.32 53.4065 743.901 Z" fill="#000000" fill-rule="evenodd" fill-opacity="1" /><path clip-path="url(#clip580)" d="M 0 0 M52.3562 735.849 L52.3562 729.992 L88.0042 729.992 L88.0042 735.849 L52.3562 735.849 M38.479 735.849 L38.479 729.992 L45.895 729.992 L45.895 735.849 L38.479 735.849 Z" fill="#000000" fill-rule="evenodd" fill-opacity="1" /><path clip-path="url(#clip580)" d="M 0 0 M56.4621 710.036 Q56.4621 714.746 60.1542 717.483 Q63.8145 720.221 70.212 720.221 Q76.6095 720.221 80.3017 717.515 Q83.9619 714.778 83.9619 710.036 Q83.9619 705.357 80.2698 702.62 Q76.5777 699.882 70.212 699.882 Q63.8781 699.882 60.186 702.62 Q56.4621 705.357 56.4621 710.036 M51.4968 710.036 Q51.4968 702.397 56.4621 698.036 Q61.4273 693.676 70.212 693.676 Q78.9649 693.676 83.9619 698.036 Q88.9272 702.397 88.9272 710.036 Q88.9272 717.706 83.9619 722.067 Q78.9649 726.395 70.212 726.395 Q61.4273 726.395 56.4621 722.067 Q51.4968 717.706 51.4968 710.036 Z" fill="#000000" fill-rule="evenodd" fill-opacity="1" /><path clip-path="url(#clip580)" d="M 0 0 M66.4881 657.9 L88.0042 657.9 L88.0042 663.757 L66.679 663.757 Q61.6183 663.757 59.1038 665.73 Q56.5894 667.704 56.5894 671.65 Q56.5894 676.393 59.6131 679.13 Q62.6368 681.867 67.8567 681.867 L88.0042 681.867 L88.0042 687.756 L52.3562 687.756 L52.3562 681.867 L57.8944 681.867 Q54.6797 679.767 53.0883 676.934 Q51.4968 674.069 51.4968 670.345 Q51.4968 664.203 55.3163 661.051 Q59.1038 657.9 66.4881 657.9 Z" fill="#000000" fill-rule="evenodd" fill-opacity="1" /><path clip-path="url(#clip580)" d="M 0 0 M57.8307 610.38 Q57.2578 611.367 57.0032 612.545 Q56.7167 613.691 56.7167 615.091 Q56.7167 620.056 59.9632 622.73 Q63.1779 625.372 69.2253 625.372 L88.0042 625.372 L88.0042 631.26 L52.3562 631.26 L52.3562 625.372 L57.8944 625.372 Q54.6479 623.526 53.0883 620.566 Q51.4968 617.606 51.4968 613.372 Q51.4968 612.768 51.5923 612.036 Q51.656 611.303 51.8151 610.412 L57.8307 610.38 Z" fill="#000000" fill-rule="evenodd" fill-opacity="1" /><path clip-path="url(#clip580)" d="M 0 0 M70.0847 588.037 Q70.0847 595.135 71.7079 597.872 Q73.3312 600.609 77.2461 600.609 Q80.3653 600.609 82.2114 598.572 Q84.0256 596.503 84.0256 592.97 Q84.0256 588.1 80.5881 585.172 Q77.1188 582.212 71.3897 582.212 L70.0847 582.212 L70.0847 588.037 M67.6657 576.356 L88.0042 576.356 L88.0042 582.212 L82.5933 582.212 Q85.8398 584.217 87.3994 587.209 Q88.9272 590.201 88.9272 594.53 Q88.9272 600.004 85.8716 603.251 Q82.7843 606.466 77.6281 606.466 Q71.6125 606.466 68.5569 602.455 Q65.5014 598.413 65.5014 590.424 L65.5014 582.212 L64.9285 582.212 Q60.8862 582.212 58.6901 584.886 Q56.4621 587.528 56.4621 592.334 Q56.4621 595.389 57.1941 598.286 Q57.9262 601.182 59.3903 603.856 L53.9795 603.856 Q52.7381 600.641 52.1334 597.617 Q51.4968 594.594 51.4968 591.729 Q51.4968 583.995 55.5072 580.175 Q59.5176 576.356 67.6657 576.356 Z" fill="#000000" fill-rule="evenodd" fill-opacity="1" /><path clip-path="url(#clip580)" d="M 0 0 M42.2347 564.42 L52.3562 564.42 L52.3562 552.357 L56.9077 552.357 L56.9077 564.42 L76.2594 564.42 Q80.6199 564.42 81.8613 563.242 Q83.1026 562.033 83.1026 558.373 L83.1026 552.357 L88.0042 552.357 L88.0042 558.373 Q88.0042 565.152 85.4897 567.73 Q82.9434 570.308 76.2594 570.308 L56.9077 570.308 L56.9077 574.605 L52.3562 574.605 L52.3562 570.308 L42.2347 570.308 L42.2347 564.42 Z" fill="#000000" fill-rule="evenodd" fill-opacity="1" /><path clip-path="url(#clip580)" d="M 0 0 M68.7161 515.722 L71.5806 515.722 L71.5806 542.649 Q77.6281 542.267 80.8109 539.021 Q83.9619 535.743 83.9619 529.918 Q83.9619 526.544 83.1344 523.393 Q82.3069 520.21 80.6518 517.091 L86.1899 517.091 Q87.5267 520.242 88.227 523.552 Q88.9272 526.862 88.9272 530.268 Q88.9272 538.798 83.9619 543.795 Q78.9967 548.76 70.5303 548.76 Q61.7774 548.76 56.6531 544.05 Q51.4968 539.307 51.4968 531.287 Q51.4968 524.093 56.1438 519.924 Q60.7589 515.722 68.7161 515.722 M66.9973 521.579 Q62.1912 521.643 59.3266 524.284 Q56.4621 526.894 56.4621 531.223 Q56.4621 536.124 59.2312 539.085 Q62.0002 542.013 67.0292 542.458 L66.9973 521.579 Z" fill="#000000" fill-rule="evenodd" fill-opacity="1" /><path clip-path="url(#clip580)" d="M 0 0 M38.479 489.4 L38.479 475.905 L43.0304 475.905 L43.0304 483.544 L92.0464 483.544 L92.0464 475.905 L96.5979 475.905 L96.5979 489.4 L38.479 489.4 Z" fill="#000000" fill-rule="evenodd" fill-opacity="1" /><path clip-path="url(#clip580)" d="M 0 0 M82.5933 467.82 L82.5933 457.317 L46.3406 457.317 L48.6323 468.743 L42.7758 468.743 L40.4842 457.381 L40.4842 450.951 L82.5933 450.951 L82.5933 440.448 L88.0042 440.448 L88.0042 467.82 L82.5933 467.82 Z" fill="#000000" fill-rule="evenodd" fill-opacity="1" /><path clip-path="url(#clip580)" d="M 0 0 M40.4842 423.897 L40.4842 418.486 L94.0516 435.037 L94.0516 440.448 L40.4842 423.897 Z" fill="#000000" fill-rule="evenodd" fill-opacity="1" /><path clip-path="url(#clip580)" d="M 0 0 M53.4065 389.618 L58.9447 389.618 Q57.6716 392.1 57.035 394.774 Q56.3984 397.448 56.3984 400.312 Q56.3984 404.673 57.7352 406.869 Q59.072 409.033 61.7456 409.033 Q63.7826 409.033 64.9603 407.474 Q66.1061 405.914 67.1565 401.203 L67.6021 399.198 Q68.9389 392.96 71.3897 390.35 Q73.8086 387.708 78.1691 387.708 Q83.1344 387.708 86.0308 391.655 Q88.9272 395.57 88.9272 402.445 Q88.9272 405.309 88.3543 408.428 Q87.8132 411.516 86.6992 414.953 L80.6518 414.953 Q82.3387 411.707 83.198 408.556 Q84.0256 405.405 84.0256 402.317 Q84.0256 398.18 82.6251 395.952 Q81.1929 393.724 78.6147 393.724 Q76.2276 393.724 74.9545 395.347 Q73.6813 396.938 72.5037 402.381 L72.0262 404.418 Q70.8804 409.861 68.5251 412.28 Q66.138 414.699 62.0002 414.699 Q56.9713 414.699 54.2341 411.134 Q51.4968 407.569 51.4968 401.012 Q51.4968 397.766 51.9743 394.901 Q52.4517 392.037 53.4065 389.618 Z" fill="#000000" fill-rule="evenodd" fill-opacity="1" /><path clip-path="url(#clip580)" d="M 0 0 M38.479 367.879 L96.5979 367.879 L96.5979 381.374 L92.0464 381.374 L92.0464 373.767 L43.0304 373.767 L43.0304 381.374 L38.479 381.374 L38.479 367.879 Z" fill="#000000" fill-rule="evenodd" fill-opacity="1" /><polyline clip-path="url(#clip582)" style="stroke:#009af9; stroke-width:12; stroke-opacity:1; fill:none" points="
  358.889,1384.24 378.442,1384.24 397.996,1384.24 417.549,1384.24 437.103,1384.24 456.656,1384.24 476.21,1384.24 495.763,1384.24 515.316,1384.24 534.87,1384.24 
  554.423,1383.26 573.977,1373.5 593.53,1363.75 613.084,1353.99 632.637,1344.23 652.191,1334.47 671.744,1324.72 691.298,1314.96 710.851,1305.2 730.405,1295.45 
  749.958,1285.69 769.512,1275.93 789.065,1266.17 808.618,1256.42 828.172,1246.66 847.725,1236.9 867.279,1227.14 886.832,1217.39 906.386,1207.63 925.939,1197.87 
  945.493,1188.12 965.046,1178.36 984.6,1168.6 1004.15,1158.84 1023.71,1149.09 1043.26,1139.33 1062.81,1129.57 1082.37,1119.81 1101.92,1110.06 1121.47,1100.3 
  1141.03,1090.54 1160.58,1080.79 1180.13,1071.03 1199.69,1061.27 1219.24,1051.51 1238.79,1041.76 1258.35,1032 1277.9,1022.24 1297.46,1012.48 1317.01,1002.73 
  1336.56,992.97 1356.12,983.213 1375.67,973.456 1395.22,963.698 1414.78,953.941 1434.33,944.184 1453.88,934.427 1473.44,924.669 1492.99,914.912 1512.54,905.155 
  1532.1,895.398 1551.65,885.64 1571.2,875.883 1590.76,866.126 1610.31,856.368 1629.86,846.611 1649.42,836.854 1668.97,827.097 1688.52,817.339 1708.08,807.582 
  1727.63,797.825 1747.18,788.068 1766.74,778.31 1786.29,768.553 1805.85,758.796 1825.4,749.039 1844.95,739.281 1864.51,729.524 1884.06,719.767 1903.61,710.009 
  1923.17,700.252 1942.72,690.495 1962.27,680.738 1981.83,670.98 2001.38,661.223 2020.93,651.466 2040.49,641.709 2060.04,631.951 2079.59,622.194 2099.15,612.437 
  2118.7,602.68 2138.25,592.922 2157.81,583.165 2177.36,573.408 2196.91,563.65 2216.47,553.893 2236.02,544.136 2255.58,534.379 2275.13,524.621 2294.68,514.864 
  
  "/>
<polyline clip-path="url(#clip582)" style="stroke:#e26f46; stroke-width:12; stroke-opacity:1; fill:none" points="
  358.889,1384.06 378.442,1263.96 397.996,1211.98 417.549,1172.4 437.103,1139.33 456.656,1110.44 476.21,1084.56 495.763,1060.97 515.316,1039.22 534.87,1018.98 
  554.423,1000.01 573.977,982.143 593.53,965.233 613.084,949.171 632.637,933.867 652.191,919.245 671.744,905.244 691.298,891.811 710.851,878.9 730.405,866.472 
  749.958,854.493 769.512,842.932 789.065,831.763 808.618,820.963 828.172,810.509 847.725,800.383 867.279,790.568 886.832,781.047 906.386,771.807 925.939,762.835 
  945.493,754.119 965.046,745.648 984.6,737.411 1004.15,729.399 1023.71,721.604 1043.26,714.017 1062.81,706.632 1082.37,699.44 1101.92,692.436 1121.47,685.613 
  1141.03,678.965 1160.58,672.487 1180.13,666.174 1199.69,660.022 1219.24,654.024 1238.79,648.178 1258.35,642.479 1277.9,636.923 1297.46,631.507 1317.01,626.227 
  1336.56,621.079 1356.12,616.061 1375.67,611.17 1395.22,606.402 1414.78,601.755 1434.33,597.226 1453.88,592.813 1473.44,588.513 1492.99,584.324 1512.54,580.244 
  1532.1,576.27 1551.65,572.401 1571.2,568.635 1590.76,564.969 1610.31,561.402 1629.86,557.932 1649.42,554.557 1668.97,551.277 1688.52,548.088 1708.08,544.99 
  1727.63,541.981 1747.18,539.06 1766.74,536.225 1786.29,533.475 1805.85,530.809 1825.4,528.225 1844.95,525.723 1864.51,523.301 1884.06,520.957 1903.61,518.692 
  1923.17,516.503 1942.72,514.39 1962.27,512.351 1981.83,510.387 2001.38,508.495 2020.93,506.674 2040.49,504.925 2060.04,503.246 2079.59,501.636 2099.15,500.094 
  2118.7,498.62 2138.25,497.212 2157.81,495.87 2177.36,494.594 2196.91,493.382 2216.47,492.233 2236.02,491.148 2255.58,490.125 2275.13,489.164 2294.68,488.264 
  
  "/>
<polyline clip-path="url(#clip582)" style="stroke:#3da44d; stroke-width:12; stroke-opacity:1; fill:none" points="
  358.889,1384.02 378.442,1238.55 397.996,1175.54 417.549,1127.56 437.103,1087.44 456.656,1052.38 476.21,1020.95 495.763,992.301 515.316,965.863 534.87,941.249 
  554.423,918.175 573.977,896.424 593.53,875.83 613.084,856.256 632.637,837.596 652.191,819.758 671.744,802.668 691.298,786.261 710.851,770.482 730.405,755.284 
  749.958,740.626 769.512,726.47 789.065,712.786 808.618,699.544 828.172,686.718 847.725,674.286 867.279,662.227 886.832,650.521 906.386,639.153 925.939,628.105 
  945.493,617.364 965.046,606.916 984.6,596.749 1004.15,586.852 1023.71,577.215 1043.26,567.827 1062.81,558.679 1082.37,549.763 1101.92,541.072 1121.47,532.597 
  1141.03,524.332 1160.58,516.27 1180.13,508.406 1199.69,500.732 1219.24,493.244 1238.79,485.937 1258.35,478.805 1277.9,471.844 1297.46,465.05 1317.01,458.418 
  1336.56,451.944 1356.12,445.624 1375.67,439.456 1395.22,433.435 1414.78,427.557 1434.33,421.821 1453.88,416.223 1473.44,410.759 1492.99,405.427 1512.54,400.225 
  1532.1,395.15 1551.65,390.2 1571.2,385.371 1590.76,380.662 1610.31,376.07 1629.86,371.594 1649.42,367.232 1668.97,362.981 1688.52,358.839 1708.08,354.805 
  1727.63,350.877 1747.18,347.053 1766.74,343.332 1786.29,339.711 1805.85,336.19 1825.4,332.767 1844.95,329.44 1864.51,326.209 1884.06,323.071 1903.61,320.025 
  1923.17,317.07 1942.72,314.205 1962.27,311.429 1981.83,308.74 2001.38,306.137 2020.93,303.62 2040.49,301.186 2060.04,298.835 2079.59,296.566 2099.15,294.379 
  2118.7,292.271 2138.25,290.242 2157.81,288.291 2177.36,286.417 2196.91,284.62 2216.47,282.898 2236.02,281.25 2255.58,279.677 2275.13,278.176 2294.68,276.747 
  
  "/>
<polyline clip-path="url(#clip582)" style="stroke:#c271d2; stroke-width:12; stroke-opacity:1; fill:none" points="
  358.889,1383.98 378.442,1215.58 397.996,1142.63 417.549,1087.05 437.103,1040.57 456.656,999.936 476.21,963.503 495.763,930.276 515.316,899.608 534.87,871.047 
  554.423,844.263 573.977,819.008 593.53,795.087 613.084,772.345 632.637,750.656 652.191,729.916 671.744,710.037 691.298,690.947 710.851,672.58 730.405,654.883 
  749.958,637.808 769.512,621.312 789.065,605.359 808.618,589.915 828.172,574.951 847.725,560.439 867.279,546.357 886.832,532.682 906.386,519.394 925.939,506.475 
  945.493,493.909 965.046,481.68 984.6,469.775 1004.15,458.179 1023.71,446.881 1043.26,435.87 1062.81,425.136 1082.37,414.668 1101.92,404.457 1121.47,394.495 
  1141.03,384.774 1160.58,375.286 1180.13,366.024 1199.69,356.982 1219.24,348.153 1238.79,339.53 1258.35,331.109 1277.9,322.885 1297.46,314.851 1317.01,307.003 
  1336.56,299.337 1356.12,291.847 1375.67,284.531 1395.22,277.383 1414.78,270.4 1434.33,263.579 1453.88,256.916 1473.44,250.407 1492.99,244.049 1512.54,237.839 
  1532.1,231.775 1551.65,225.853 1571.2,220.071 1590.76,214.426 1610.31,208.915 1629.86,203.537 1649.42,198.288 1668.97,193.167 1688.52,188.171 1708.08,183.298 
  1727.63,178.546 1747.18,173.913 1766.74,169.397 1786.29,164.997 1805.85,160.711 1825.4,156.536 1844.95,152.472 1864.51,148.516 1884.06,144.667 1903.61,140.923 
  1923.17,137.284 1942.72,133.747 1962.27,130.311 1981.83,126.975 2001.38,123.737 2020.93,120.596 2040.49,117.552 2060.04,114.602 2079.59,111.745 2099.15,108.981 
  2118.7,106.308 2138.25,103.726 2157.81,101.232 2177.36,98.8264 2196.91,96.5077 2216.47,94.2751 2236.02,92.1275 2255.58,90.064 2275.13,88.0837 2294.68,86.1857 
  
  "/>
<path clip-path="url(#clip580)" d="
M1751.22 433.164 L2280.76 433.164 L2280.76 130.764 L1751.22 130.764  Z
  " fill="#ffffff" fill-rule="evenodd" fill-opacity="1"/>
<polyline clip-path="url(#clip580)" style="stroke:#000000; stroke-width:4; stroke-opacity:1; fill:none" points="
  1751.22,433.164 2280.76,433.164 2280.76,130.764 1751.22,130.764 1751.22,433.164 
  "/>
<polyline clip-path="url(#clip580)" style="stroke:#009af9; stroke-width:4; stroke-opacity:1; fill:none" points="
  1775.22,191.244 1919.22,191.244 
  "/>
<path clip-path="url(#clip580)" d="M 0 0 M1959.61 192.32 Q1961.11 192.83 1962.53 194.496 Q1963.96 196.163 1965.4 199.08 L1970.14 208.524 L1965.12 208.524 L1960.7 199.658 Q1958.98 196.186 1957.36 195.052 Q1955.77 193.918 1952.99 193.918 L1947.9 193.918 L1947.9 208.524 L1943.22 208.524 L1943.22 173.964 L1953.78 173.964 Q1959.7 173.964 1962.62 176.441 Q1965.54 178.918 1965.54 183.918 Q1965.54 187.182 1964.01 189.334 Q1962.5 191.487 1959.61 192.32 M1947.9 177.807 L1947.9 190.075 L1953.78 190.075 Q1957.16 190.075 1958.87 188.524 Q1960.6 186.95 1960.6 183.918 Q1960.6 180.885 1958.87 179.358 Q1957.16 177.807 1953.78 177.807 L1947.9 177.807 Z" fill="#000000" fill-rule="evenodd" fill-opacity="1" /><path clip-path="url(#clip580)" d="M 0 0 M1985.35 195.492 Q1980.19 195.492 1978.2 196.672 Q1976.21 197.853 1976.21 200.7 Q1976.21 202.969 1977.69 204.311 Q1979.19 205.631 1981.76 205.631 Q1985.3 205.631 1987.43 203.131 Q1989.59 200.607 1989.59 196.441 L1989.59 195.492 L1985.35 195.492 M1993.85 193.733 L1993.85 208.524 L1989.59 208.524 L1989.59 204.589 Q1988.13 206.95 1985.95 208.084 Q1983.78 209.195 1980.63 209.195 Q1976.65 209.195 1974.29 206.973 Q1971.95 204.728 1971.95 200.978 Q1971.95 196.603 1974.86 194.381 Q1977.8 192.158 1983.61 192.158 L1989.59 192.158 L1989.59 191.742 Q1989.59 188.802 1987.64 187.205 Q1985.72 185.584 1982.22 185.584 Q1980 185.584 1977.9 186.117 Q1975.79 186.649 1973.85 187.714 L1973.85 183.779 Q1976.18 182.876 1978.38 182.436 Q1980.58 181.973 1982.66 181.973 Q1988.29 181.973 1991.07 184.89 Q1993.85 187.807 1993.85 193.733 Z" fill="#000000" fill-rule="evenodd" fill-opacity="1" /><path clip-path="url(#clip580)" d="M 0 0 M1998.31 182.598 L2002.57 182.598 L2002.57 208.524 L1998.31 208.524 L1998.31 182.598 M1998.31 172.506 L2002.57 172.506 L2002.57 177.899 L1998.31 177.899 L1998.31 172.506 Z" fill="#000000" fill-rule="evenodd" fill-opacity="1" /><path clip-path="url(#clip580)" d="M 0 0 M2028.59 192.876 L2028.59 208.524 L2024.33 208.524 L2024.33 193.015 Q2024.33 189.334 2022.9 187.506 Q2021.46 185.677 2018.59 185.677 Q2015.14 185.677 2013.15 187.876 Q2011.16 190.075 2011.16 193.871 L2011.16 208.524 L2006.88 208.524 L2006.88 182.598 L2011.16 182.598 L2011.16 186.626 Q2012.69 184.288 2014.75 183.131 Q2016.83 181.973 2019.54 181.973 Q2024.01 181.973 2026.3 184.751 Q2028.59 187.506 2028.59 192.876 Z" fill="#000000" fill-rule="evenodd" fill-opacity="1" /><polyline clip-path="url(#clip580)" style="stroke:#e26f46; stroke-width:4; stroke-opacity:1; fill:none" points="
  1775.22,251.724 1919.22,251.724 
  "/>
<path clip-path="url(#clip580)" d="M 0 0 M1965.47 235.578 L1965.47 240.139 Q1962.8 238.865 1960.44 238.24 Q1958.08 237.615 1955.88 237.615 Q1952.06 237.615 1949.98 239.097 Q1947.92 240.578 1947.92 243.31 Q1947.92 245.601 1949.29 246.782 Q1950.67 247.939 1954.52 248.657 L1957.34 249.236 Q1962.57 250.231 1965.05 252.754 Q1967.55 255.254 1967.55 259.467 Q1967.55 264.49 1964.17 267.083 Q1960.81 269.675 1954.31 269.675 Q1951.85 269.675 1949.08 269.12 Q1946.32 268.564 1943.36 267.476 L1943.36 262.662 Q1946.21 264.259 1948.94 265.069 Q1951.67 265.879 1954.31 265.879 Q1958.31 265.879 1960.49 264.305 Q1962.66 262.731 1962.66 259.814 Q1962.66 257.268 1961.09 255.833 Q1959.54 254.398 1955.97 253.68 L1953.13 253.125 Q1947.9 252.083 1945.56 249.861 Q1943.22 247.638 1943.22 243.68 Q1943.22 239.097 1946.44 236.458 Q1949.68 233.819 1955.35 233.819 Q1957.78 233.819 1960.3 234.259 Q1962.83 234.699 1965.47 235.578 Z" fill="#000000" fill-rule="evenodd" fill-opacity="1" /><path clip-path="url(#clip580)" d="M 0 0 M1993.57 253.356 L1993.57 269.004 L1989.31 269.004 L1989.31 253.495 Q1989.31 249.814 1987.87 247.986 Q1986.44 246.157 1983.57 246.157 Q1980.12 246.157 1978.13 248.356 Q1976.14 250.555 1976.14 254.351 L1976.14 269.004 L1971.85 269.004 L1971.85 243.078 L1976.14 243.078 L1976.14 247.106 Q1977.66 244.768 1979.72 243.611 Q1981.81 242.453 1984.52 242.453 Q1988.98 242.453 1991.28 245.231 Q1993.57 247.986 1993.57 253.356 Z" fill="#000000" fill-rule="evenodd" fill-opacity="1" /><path clip-path="url(#clip580)" d="M 0 0 M2008.08 246.064 Q2004.66 246.064 2002.66 248.75 Q2000.67 251.412 2000.67 256.064 Q2000.67 260.717 2002.64 263.402 Q2004.63 266.064 2008.08 266.064 Q2011.48 266.064 2013.47 263.379 Q2015.47 260.694 2015.47 256.064 Q2015.47 251.458 2013.47 248.773 Q2011.48 246.064 2008.08 246.064 M2008.08 242.453 Q2013.64 242.453 2016.81 246.064 Q2019.98 249.675 2019.98 256.064 Q2019.98 262.43 2016.81 266.064 Q2013.64 269.675 2008.08 269.675 Q2002.5 269.675 1999.33 266.064 Q1996.18 262.43 1996.18 256.064 Q1996.18 249.675 1999.33 246.064 Q2002.5 242.453 2008.08 242.453 Z" fill="#000000" fill-rule="evenodd" fill-opacity="1" /><path clip-path="url(#clip580)" d="M 0 0 M2021.97 243.078 L2026.23 243.078 L2031.55 263.31 L2036.85 243.078 L2041.88 243.078 L2047.2 263.31 L2052.5 243.078 L2056.76 243.078 L2049.98 269.004 L2044.96 269.004 L2039.38 247.754 L2033.78 269.004 L2028.75 269.004 L2021.97 243.078 Z" fill="#000000" fill-rule="evenodd" fill-opacity="1" /><path clip-path="url(#clip580)" d="M 0 0 M2071.69 234.444 L2100.93 234.444 L2100.93 238.379 L2088.66 238.379 L2088.66 269.004 L2083.96 269.004 L2083.96 238.379 L2071.69 238.379 L2071.69 234.444 Z" fill="#000000" fill-rule="evenodd" fill-opacity="1" /><path clip-path="url(#clip580)" d="M 0 0 M2105.95 247.476 L2135.63 247.476 L2135.63 251.365 L2105.95 251.365 L2105.95 247.476 M2105.95 256.921 L2135.63 256.921 L2135.63 260.856 L2105.95 260.856 L2105.95 256.921 Z" fill="#000000" fill-rule="evenodd" fill-opacity="1" /><path clip-path="url(#clip580)" d="M 0 0 M2137.94 254.12 L2150.42 254.12 L2150.42 257.916 L2137.94 257.916 L2137.94 254.12 Z" fill="#000000" fill-rule="evenodd" fill-opacity="1" /><path clip-path="url(#clip580)" d="M 0 0 M2155.53 234.444 L2173.89 234.444 L2173.89 238.379 L2159.82 238.379 L2159.82 246.851 Q2160.83 246.504 2161.85 246.342 Q2162.87 246.157 2163.89 246.157 Q2169.68 246.157 2173.06 249.328 Q2176.44 252.5 2176.44 257.916 Q2176.44 263.495 2172.96 266.597 Q2169.49 269.675 2163.17 269.675 Q2161 269.675 2158.73 269.305 Q2156.48 268.935 2154.08 268.194 L2154.08 263.495 Q2156.16 264.629 2158.38 265.185 Q2160.6 265.74 2163.08 265.74 Q2167.08 265.74 2169.42 263.634 Q2171.76 261.527 2171.76 257.916 Q2171.76 254.305 2169.42 252.199 Q2167.08 250.092 2163.08 250.092 Q2161.21 250.092 2159.33 250.509 Q2157.48 250.925 2155.53 251.805 L2155.53 234.444 Z" fill="#000000" fill-rule="evenodd" fill-opacity="1" /><path clip-path="url(#clip580)" d="M 0 0 M2206.97 237.106 L2206.97 242.037 Q2204.61 239.838 2201.92 238.75 Q2199.26 237.662 2196.25 237.662 Q2190.33 237.662 2187.18 241.296 Q2184.03 244.907 2184.03 251.759 Q2184.03 258.587 2187.18 262.222 Q2190.33 265.833 2196.25 265.833 Q2199.26 265.833 2201.92 264.745 Q2204.61 263.657 2206.97 261.458 L2206.97 266.342 Q2204.52 268.009 2201.76 268.842 Q2199.03 269.675 2195.97 269.675 Q2188.13 269.675 2183.61 264.884 Q2179.1 260.069 2179.1 251.759 Q2179.1 243.426 2183.61 238.634 Q2188.13 233.819 2195.97 233.819 Q2199.08 233.819 2201.81 234.652 Q2204.56 235.463 2206.97 237.106 Z" fill="#000000" fill-rule="evenodd" fill-opacity="1" /><polyline clip-path="url(#clip580)" style="stroke:#3da44d; stroke-width:4; stroke-opacity:1; fill:none" points="
  1775.22,312.204 1919.22,312.204 
  "/>
<path clip-path="url(#clip580)" d="M 0 0 M1965.47 296.058 L1965.47 300.619 Q1962.8 299.345 1960.44 298.72 Q1958.08 298.095 1955.88 298.095 Q1952.06 298.095 1949.98 299.577 Q1947.92 301.058 1947.92 303.79 Q1947.92 306.081 1949.29 307.262 Q1950.67 308.419 1954.52 309.137 L1957.34 309.716 Q1962.57 310.711 1965.05 313.234 Q1967.55 315.734 1967.55 319.947 Q1967.55 324.97 1964.17 327.563 Q1960.81 330.155 1954.31 330.155 Q1951.85 330.155 1949.08 329.6 Q1946.32 329.044 1943.36 327.956 L1943.36 323.142 Q1946.21 324.739 1948.94 325.549 Q1951.67 326.359 1954.31 326.359 Q1958.31 326.359 1960.49 324.785 Q1962.66 323.211 1962.66 320.294 Q1962.66 317.748 1961.09 316.313 Q1959.54 314.878 1955.97 314.16 L1953.13 313.605 Q1947.9 312.563 1945.56 310.341 Q1943.22 308.118 1943.22 304.16 Q1943.22 299.577 1946.44 296.938 Q1949.68 294.299 1955.35 294.299 Q1957.78 294.299 1960.3 294.739 Q1962.83 295.179 1965.47 296.058 Z" fill="#000000" fill-rule="evenodd" fill-opacity="1" /><path clip-path="url(#clip580)" d="M 0 0 M1993.57 313.836 L1993.57 329.484 L1989.31 329.484 L1989.31 313.975 Q1989.31 310.294 1987.87 308.466 Q1986.44 306.637 1983.57 306.637 Q1980.12 306.637 1978.13 308.836 Q1976.14 311.035 1976.14 314.831 L1976.14 329.484 L1971.85 329.484 L1971.85 303.558 L1976.14 303.558 L1976.14 307.586 Q1977.66 305.248 1979.72 304.091 Q1981.81 302.933 1984.52 302.933 Q1988.98 302.933 1991.28 305.711 Q1993.57 308.466 1993.57 313.836 Z" fill="#000000" fill-rule="evenodd" fill-opacity="1" /><path clip-path="url(#clip580)" d="M 0 0 M2008.08 306.544 Q2004.66 306.544 2002.66 309.23 Q2000.67 311.892 2000.67 316.544 Q2000.67 321.197 2002.64 323.882 Q2004.63 326.544 2008.08 326.544 Q2011.48 326.544 2013.47 323.859 Q2015.47 321.174 2015.47 316.544 Q2015.47 311.938 2013.47 309.253 Q2011.48 306.544 2008.08 306.544 M2008.08 302.933 Q2013.64 302.933 2016.81 306.544 Q2019.98 310.155 2019.98 316.544 Q2019.98 322.91 2016.81 326.544 Q2013.64 330.155 2008.08 330.155 Q2002.5 330.155 1999.33 326.544 Q1996.18 322.91 1996.18 316.544 Q1996.18 310.155 1999.33 306.544 Q2002.5 302.933 2008.08 302.933 Z" fill="#000000" fill-rule="evenodd" fill-opacity="1" /><path clip-path="url(#clip580)" d="M 0 0 M2021.97 303.558 L2026.23 303.558 L2031.55 323.79 L2036.85 303.558 L2041.88 303.558 L2047.2 323.79 L2052.5 303.558 L2056.76 303.558 L2049.98 329.484 L2044.96 329.484 L2039.38 308.234 L2033.78 329.484 L2028.75 329.484 L2021.97 303.558 Z" fill="#000000" fill-rule="evenodd" fill-opacity="1" /><path clip-path="url(#clip580)" d="M 0 0 M2071.69 294.924 L2100.93 294.924 L2100.93 298.859 L2088.66 298.859 L2088.66 329.484 L2083.96 329.484 L2083.96 298.859 L2071.69 298.859 L2071.69 294.924 Z" fill="#000000" fill-rule="evenodd" fill-opacity="1" /><path clip-path="url(#clip580)" d="M 0 0 M2105.95 307.956 L2135.63 307.956 L2135.63 311.845 L2105.95 311.845 L2105.95 307.956 M2105.95 317.401 L2135.63 317.401 L2135.63 321.336 L2105.95 321.336 L2105.95 317.401 Z" fill="#000000" fill-rule="evenodd" fill-opacity="1" /><path clip-path="url(#clip580)" d="M 0 0 M2137.94 314.6 L2150.42 314.6 L2150.42 318.396 L2137.94 318.396 L2137.94 314.6 Z" fill="#000000" fill-rule="evenodd" fill-opacity="1" /><path clip-path="url(#clip580)" d="M 0 0 M2156.3 325.549 L2163.94 325.549 L2163.94 299.183 L2155.63 300.85 L2155.63 296.591 L2163.89 294.924 L2168.57 294.924 L2168.57 325.549 L2176.21 325.549 L2176.21 329.484 L2156.3 329.484 L2156.3 325.549 Z" fill="#000000" fill-rule="evenodd" fill-opacity="1" /><path clip-path="url(#clip580)" d="M 0 0 M2181.32 294.924 L2199.68 294.924 L2199.68 298.859 L2185.6 298.859 L2185.6 307.331 Q2186.62 306.984 2187.64 306.822 Q2188.66 306.637 2189.68 306.637 Q2195.46 306.637 2198.84 309.808 Q2202.22 312.98 2202.22 318.396 Q2202.22 323.975 2198.75 327.077 Q2195.28 330.155 2188.96 330.155 Q2186.78 330.155 2184.52 329.785 Q2182.27 329.415 2179.86 328.674 L2179.86 323.975 Q2181.95 325.109 2184.17 325.665 Q2186.39 326.22 2188.87 326.22 Q2192.87 326.22 2195.21 324.114 Q2197.55 322.007 2197.55 318.396 Q2197.55 314.785 2195.21 312.679 Q2192.87 310.572 2188.87 310.572 Q2186.99 310.572 2185.12 310.989 Q2183.27 311.405 2181.32 312.285 L2181.32 294.924 Z" fill="#000000" fill-rule="evenodd" fill-opacity="1" /><path clip-path="url(#clip580)" d="M 0 0 M2232.76 297.586 L2232.76 302.517 Q2230.39 300.318 2227.71 299.23 Q2225.05 298.142 2222.04 298.142 Q2216.11 298.142 2212.96 301.776 Q2209.82 305.387 2209.82 312.239 Q2209.82 319.067 2212.96 322.702 Q2216.11 326.313 2222.04 326.313 Q2225.05 326.313 2227.71 325.225 Q2230.39 324.137 2232.76 321.938 L2232.76 326.822 Q2230.3 328.489 2227.55 329.322 Q2224.82 330.155 2221.76 330.155 Q2213.91 330.155 2209.4 325.364 Q2204.89 320.549 2204.89 312.239 Q2204.89 303.906 2209.4 299.114 Q2213.91 294.299 2221.76 294.299 Q2224.86 294.299 2227.59 295.132 Q2230.35 295.943 2232.76 297.586 Z" fill="#000000" fill-rule="evenodd" fill-opacity="1" /><polyline clip-path="url(#clip580)" style="stroke:#c271d2; stroke-width:4; stroke-opacity:1; fill:none" points="
  1775.22,372.684 1919.22,372.684 
  "/>
<path clip-path="url(#clip580)" d="M 0 0 M1965.47 356.538 L1965.47 361.099 Q1962.8 359.825 1960.44 359.2 Q1958.08 358.575 1955.88 358.575 Q1952.06 358.575 1949.98 360.057 Q1947.92 361.538 1947.92 364.27 Q1947.92 366.561 1949.29 367.742 Q1950.67 368.899 1954.52 369.617 L1957.34 370.196 Q1962.57 371.191 1965.05 373.714 Q1967.55 376.214 1967.55 380.427 Q1967.55 385.45 1964.17 388.043 Q1960.81 390.635 1954.31 390.635 Q1951.85 390.635 1949.08 390.08 Q1946.32 389.524 1943.36 388.436 L1943.36 383.622 Q1946.21 385.219 1948.94 386.029 Q1951.67 386.839 1954.31 386.839 Q1958.31 386.839 1960.49 385.265 Q1962.66 383.691 1962.66 380.774 Q1962.66 378.228 1961.09 376.793 Q1959.54 375.358 1955.97 374.64 L1953.13 374.085 Q1947.9 373.043 1945.56 370.821 Q1943.22 368.598 1943.22 364.64 Q1943.22 360.057 1946.44 357.418 Q1949.68 354.779 1955.35 354.779 Q1957.78 354.779 1960.3 355.219 Q1962.83 355.659 1965.47 356.538 Z" fill="#000000" fill-rule="evenodd" fill-opacity="1" /><path clip-path="url(#clip580)" d="M 0 0 M1993.57 374.316 L1993.57 389.964 L1989.31 389.964 L1989.31 374.455 Q1989.31 370.774 1987.87 368.946 Q1986.44 367.117 1983.57 367.117 Q1980.12 367.117 1978.13 369.316 Q1976.14 371.515 1976.14 375.311 L1976.14 389.964 L1971.85 389.964 L1971.85 364.038 L1976.14 364.038 L1976.14 368.066 Q1977.66 365.728 1979.72 364.571 Q1981.81 363.413 1984.52 363.413 Q1988.98 363.413 1991.28 366.191 Q1993.57 368.946 1993.57 374.316 Z" fill="#000000" fill-rule="evenodd" fill-opacity="1" /><path clip-path="url(#clip580)" d="M 0 0 M2008.08 367.024 Q2004.66 367.024 2002.66 369.71 Q2000.67 372.372 2000.67 377.024 Q2000.67 381.677 2002.64 384.362 Q2004.63 387.024 2008.08 387.024 Q2011.48 387.024 2013.47 384.339 Q2015.47 381.654 2015.47 377.024 Q2015.47 372.418 2013.47 369.733 Q2011.48 367.024 2008.08 367.024 M2008.08 363.413 Q2013.64 363.413 2016.81 367.024 Q2019.98 370.635 2019.98 377.024 Q2019.98 383.39 2016.81 387.024 Q2013.64 390.635 2008.08 390.635 Q2002.5 390.635 1999.33 387.024 Q1996.18 383.39 1996.18 377.024 Q1996.18 370.635 1999.33 367.024 Q2002.5 363.413 2008.08 363.413 Z" fill="#000000" fill-rule="evenodd" fill-opacity="1" /><path clip-path="url(#clip580)" d="M 0 0 M2021.97 364.038 L2026.23 364.038 L2031.55 384.27 L2036.85 364.038 L2041.88 364.038 L2047.2 384.27 L2052.5 364.038 L2056.76 364.038 L2049.98 389.964 L2044.96 389.964 L2039.38 368.714 L2033.78 389.964 L2028.75 389.964 L2021.97 364.038 Z" fill="#000000" fill-rule="evenodd" fill-opacity="1" /><path clip-path="url(#clip580)" d="M 0 0 M2071.69 355.404 L2100.93 355.404 L2100.93 359.339 L2088.66 359.339 L2088.66 389.964 L2083.96 389.964 L2083.96 359.339 L2071.69 359.339 L2071.69 355.404 Z" fill="#000000" fill-rule="evenodd" fill-opacity="1" /><path clip-path="url(#clip580)" d="M 0 0 M2105.95 368.436 L2135.63 368.436 L2135.63 372.325 L2105.95 372.325 L2105.95 368.436 M2105.95 377.881 L2135.63 377.881 L2135.63 381.816 L2105.95 381.816 L2105.95 377.881 Z" fill="#000000" fill-rule="evenodd" fill-opacity="1" /><path clip-path="url(#clip580)" d="M 0 0 M2137.94 375.08 L2150.42 375.08 L2150.42 378.876 L2137.94 378.876 L2137.94 375.08 Z" fill="#000000" fill-rule="evenodd" fill-opacity="1" /><path clip-path="url(#clip580)" d="M 0 0 M2159.52 386.029 L2175.83 386.029 L2175.83 389.964 L2153.89 389.964 L2153.89 386.029 Q2156.55 383.274 2161.14 378.645 Q2165.74 373.992 2166.92 372.649 Q2169.17 370.126 2170.05 368.39 Q2170.95 366.631 2170.95 364.941 Q2170.95 362.186 2169.01 360.45 Q2167.08 358.714 2163.98 358.714 Q2161.78 358.714 2159.33 359.478 Q2156.9 360.242 2154.12 361.793 L2154.12 357.071 Q2156.95 355.936 2159.4 355.358 Q2161.85 354.779 2163.89 354.779 Q2169.26 354.779 2172.46 357.464 Q2175.65 360.149 2175.65 364.64 Q2175.65 366.77 2174.84 368.691 Q2174.05 370.589 2171.95 373.182 Q2171.37 373.853 2168.27 377.071 Q2165.16 380.265 2159.52 386.029 Z" fill="#000000" fill-rule="evenodd" fill-opacity="1" /><path clip-path="url(#clip580)" d="M 0 0 M2180.95 355.404 L2199.31 355.404 L2199.31 359.339 L2185.23 359.339 L2185.23 367.811 Q2186.25 367.464 2187.27 367.302 Q2188.29 367.117 2189.31 367.117 Q2195.09 367.117 2198.47 370.288 Q2201.85 373.46 2201.85 378.876 Q2201.85 384.455 2198.38 387.557 Q2194.91 390.635 2188.59 390.635 Q2186.41 390.635 2184.15 390.265 Q2181.9 389.895 2179.49 389.154 L2179.49 384.455 Q2181.58 385.589 2183.8 386.145 Q2186.02 386.7 2188.5 386.7 Q2192.5 386.7 2194.84 384.594 Q2197.18 382.487 2197.18 378.876 Q2197.18 375.265 2194.84 373.159 Q2192.5 371.052 2188.5 371.052 Q2186.62 371.052 2184.75 371.469 Q2182.9 371.885 2180.95 372.765 L2180.95 355.404 Z" fill="#000000" fill-rule="evenodd" fill-opacity="1" /><path clip-path="url(#clip580)" d="M 0 0 M2232.39 358.066 L2232.39 362.997 Q2230.02 360.798 2227.34 359.71 Q2224.68 358.622 2221.67 358.622 Q2215.74 358.622 2212.59 362.256 Q2209.45 365.867 2209.45 372.719 Q2209.45 379.547 2212.59 383.182 Q2215.74 386.793 2221.67 386.793 Q2224.68 386.793 2227.34 385.705 Q2230.02 384.617 2232.39 382.418 L2232.39 387.302 Q2229.93 388.969 2227.18 389.802 Q2224.45 390.635 2221.39 390.635 Q2213.54 390.635 2209.03 385.844 Q2204.52 381.029 2204.52 372.719 Q2204.52 364.386 2209.03 359.594 Q2213.54 354.779 2221.39 354.779 Q2224.49 354.779 2227.22 355.612 Q2229.98 356.423 2232.39 358.066 Z" fill="#000000" fill-rule="evenodd" fill-opacity="1" /></svg>
