<?xml version="1.0" encoding="utf-8"?>
<svg xmlns="http://www.w3.org/2000/svg" xmlns:xlink="http://www.w3.org/1999/xlink" width="600" height="400" viewBox="0 0 2400 1600">
<defs>
  <clipPath id="clip330">
    <rect x="0" y="0" width="2400" height="1600"/>
  </clipPath>
</defs>
<path clip-path="url(#clip330)" d="
M0 1600 L2400 1600 L2400 0 L0 0  Z
  " fill="#ffffff" fill-rule="evenodd" fill-opacity="1"/>
<defs>
  <clipPath id="clip331">
    <rect x="480" y="0" width="1681" height="1600"/>
  </clipPath>
</defs>
<path clip-path="url(#clip330)" d="
M175.445 1423.18 L2352.76 1423.18 L2352.76 47.2441 L175.445 47.2441  Z
  " fill="#ffffff" fill-rule="evenodd" fill-opacity="1"/>
<defs>
  <clipPath id="clip332">
    <rect x="175" y="47" width="2178" height="1377"/>
  </clipPath>
</defs>
<polyline clip-path="url(#clip332)" style="stroke:#000000; stroke-width:2; stroke-opacity:0.1; fill:none" points="
  237.063,1423.18 237.063,47.2441 
  "/>
<polyline clip-path="url(#clip332)" style="stroke:#000000; stroke-width:2; stroke-opacity:0.1; fill:none" points="
  647.877,1423.18 647.877,47.2441 
  "/>
<polyline clip-path="url(#clip332)" style="stroke:#000000; stroke-width:2; stroke-opacity:0.1; fill:none" points="
  1058.69,1423.18 1058.69,47.2441 
  "/>
<polyline clip-path="url(#clip332)" style="stroke:#000000; stroke-width:2; stroke-opacity:0.1; fill:none" points="
  1469.51,1423.18 1469.51,47.2441 
  "/>
<polyline clip-path="url(#clip332)" style="stroke:#000000; stroke-width:2; stroke-opacity:0.1; fill:none" points="
  1880.32,1423.18 1880.32,47.2441 
  "/>
<polyline clip-path="url(#clip332)" style="stroke:#000000; stroke-width:2; stroke-opacity:0.1; fill:none" points="
  2291.13,1423.18 2291.13,47.2441 
  "/>
<polyline clip-path="url(#clip332)" style="stroke:#000000; stroke-width:2; stroke-opacity:0.1; fill:none" points="
  175.445,1310.47 2352.76,1310.47 
  "/>
<polyline clip-path="url(#clip332)" style="stroke:#000000; stroke-width:2; stroke-opacity:0.1; fill:none" points="
  175.445,1115.59 2352.76,1115.59 
  "/>
<polyline clip-path="url(#clip332)" style="stroke:#000000; stroke-width:2; stroke-opacity:0.1; fill:none" points="
  175.445,920.705 2352.76,920.705 
  "/>
<polyline clip-path="url(#clip332)" style="stroke:#000000; stroke-width:2; stroke-opacity:0.1; fill:none" points="
  175.445,725.821 2352.76,725.821 
  "/>
<polyline clip-path="url(#clip332)" style="stroke:#000000; stroke-width:2; stroke-opacity:0.1; fill:none" points="
  175.445,530.937 2352.76,530.937 
  "/>
<polyline clip-path="url(#clip332)" style="stroke:#000000; stroke-width:2; stroke-opacity:0.1; fill:none" points="
  175.445,336.053 2352.76,336.053 
  "/>
<polyline clip-path="url(#clip332)" style="stroke:#000000; stroke-width:2; stroke-opacity:0.1; fill:none" points="
  175.445,141.169 2352.76,141.169 
  "/>
<polyline clip-path="url(#clip330)" style="stroke:#000000; stroke-width:4; stroke-opacity:1; fill:none" points="
  175.445,1423.18 2352.76,1423.18 
  "/>
<polyline clip-path="url(#clip330)" style="stroke:#000000; stroke-width:4; stroke-opacity:1; fill:none" points="
  175.445,1423.18 175.445,47.2441 
  "/>
<polyline clip-path="url(#clip330)" style="stroke:#000000; stroke-width:4; stroke-opacity:1; fill:none" points="
  237.063,1423.18 237.063,1406.67 
  "/>
<polyline clip-path="url(#clip330)" style="stroke:#000000; stroke-width:4; stroke-opacity:1; fill:none" points="
  647.877,1423.18 647.877,1406.67 
  "/>
<polyline clip-path="url(#clip330)" style="stroke:#000000; stroke-width:4; stroke-opacity:1; fill:none" points="
  1058.69,1423.18 1058.69,1406.67 
  "/>
<polyline clip-path="url(#clip330)" style="stroke:#000000; stroke-width:4; stroke-opacity:1; fill:none" points="
  1469.51,1423.18 1469.51,1406.67 
  "/>
<polyline clip-path="url(#clip330)" style="stroke:#000000; stroke-width:4; stroke-opacity:1; fill:none" points="
  1880.32,1423.18 1880.32,1406.67 
  "/>
<polyline clip-path="url(#clip330)" style="stroke:#000000; stroke-width:4; stroke-opacity:1; fill:none" points="
  2291.13,1423.18 2291.13,1406.67 
  "/>
<polyline clip-path="url(#clip330)" style="stroke:#000000; stroke-width:4; stroke-opacity:1; fill:none" points="
  175.445,1310.47 201.573,1310.47 
  "/>
<polyline clip-path="url(#clip330)" style="stroke:#000000; stroke-width:4; stroke-opacity:1; fill:none" points="
  175.445,1115.59 201.573,1115.59 
  "/>
<polyline clip-path="url(#clip330)" style="stroke:#000000; stroke-width:4; stroke-opacity:1; fill:none" points="
  175.445,920.705 201.573,920.705 
  "/>
<polyline clip-path="url(#clip330)" style="stroke:#000000; stroke-width:4; stroke-opacity:1; fill:none" points="
  175.445,725.821 201.573,725.821 
  "/>
<polyline clip-path="url(#clip330)" style="stroke:#000000; stroke-width:4; stroke-opacity:1; fill:none" points="
  175.445,530.937 201.573,530.937 
  "/>
<polyline clip-path="url(#clip330)" style="stroke:#000000; stroke-width:4; stroke-opacity:1; fill:none" points="
  175.445,336.053 201.573,336.053 
  "/>
<polyline clip-path="url(#clip330)" style="stroke:#000000; stroke-width:4; stroke-opacity:1; fill:none" points="
  175.445,141.169 201.573,141.169 
  "/>
<path clip-path="url(#clip330)" d="M 0 0 M237.063 1445.17 Q233.452 1445.17 231.623 1448.74 Q229.818 1452.28 229.818 1459.41 Q229.818 1466.51 231.623 1470.08 Q233.452 1473.62 237.063 1473.62 Q240.697 1473.62 242.503 1470.08 Q244.332 1466.51 244.332 1459.41 Q244.332 1452.28 242.503 1448.74 Q240.697 1445.17 237.063 1445.17 M237.063 1441.47 Q242.873 1441.47 245.929 1446.07 Q249.007 1450.66 249.007 1459.41 Q249.007 1468.13 245.929 1472.74 Q242.873 1477.32 237.063 1477.32 Q231.253 1477.32 228.174 1472.74 Q225.119 1468.13 225.119 1459.41 Q225.119 1450.66 228.174 1446.07 Q231.253 1441.47 237.063 1441.47 Z" fill="#000000" fill-rule="evenodd" fill-opacity="1" /><path clip-path="url(#clip330)" d="M 0 0 M638.259 1472.72 L645.898 1472.72 L645.898 1446.35 L637.588 1448.02 L637.588 1443.76 L645.852 1442.09 L650.528 1442.09 L650.528 1472.72 L658.167 1472.72 L658.167 1476.65 L638.259 1476.65 L638.259 1472.72 Z" fill="#000000" fill-rule="evenodd" fill-opacity="1" /><path clip-path="url(#clip330)" d="M 0 0 M1053.34 1472.72 L1069.66 1472.72 L1069.66 1476.65 L1047.72 1476.65 L1047.72 1472.72 Q1050.38 1469.96 1054.96 1465.33 Q1059.57 1460.68 1060.75 1459.34 Q1063 1456.81 1063.88 1455.08 Q1064.78 1453.32 1064.78 1451.63 Q1064.78 1448.87 1062.83 1447.14 Q1060.91 1445.4 1057.81 1445.4 Q1055.61 1445.4 1053.16 1446.17 Q1050.73 1446.93 1047.95 1448.48 L1047.95 1443.76 Q1050.77 1442.62 1053.23 1442.05 Q1055.68 1441.47 1057.72 1441.47 Q1063.09 1441.47 1066.28 1444.15 Q1069.48 1446.84 1069.48 1451.33 Q1069.48 1453.46 1068.67 1455.38 Q1067.88 1457.28 1065.77 1459.87 Q1065.2 1460.54 1062.09 1463.76 Q1058.99 1466.95 1053.34 1472.72 Z" fill="#000000" fill-rule="evenodd" fill-opacity="1" /><path clip-path="url(#clip330)" d="M 0 0 M1473.75 1458.02 Q1477.11 1458.74 1478.98 1461 Q1480.88 1463.27 1480.88 1466.61 Q1480.88 1471.72 1477.36 1474.52 Q1473.85 1477.32 1467.36 1477.32 Q1465.19 1477.32 1462.87 1476.88 Q1460.58 1476.47 1458.13 1475.61 L1458.13 1471.1 Q1460.07 1472.23 1462.39 1472.81 Q1464.7 1473.39 1467.23 1473.39 Q1471.62 1473.39 1473.92 1471.65 Q1476.23 1469.92 1476.23 1466.61 Q1476.23 1463.55 1474.08 1461.84 Q1471.95 1460.1 1468.13 1460.1 L1464.1 1460.1 L1464.1 1456.26 L1468.31 1456.26 Q1471.76 1456.26 1473.59 1454.89 Q1475.42 1453.5 1475.42 1450.91 Q1475.42 1448.25 1473.52 1446.84 Q1471.65 1445.4 1468.13 1445.4 Q1466.21 1445.4 1464.01 1445.82 Q1461.81 1446.24 1459.17 1447.11 L1459.17 1442.95 Q1461.83 1442.21 1464.15 1441.84 Q1466.48 1441.47 1468.54 1441.47 Q1473.87 1441.47 1476.97 1443.9 Q1480.07 1446.3 1480.07 1450.43 Q1480.07 1453.3 1478.43 1455.29 Q1476.79 1457.25 1473.75 1458.02 Z" fill="#000000" fill-rule="evenodd" fill-opacity="1" /><path clip-path="url(#clip330)" d="M 0 0 M1883.33 1446.17 L1871.52 1464.61 L1883.33 1464.61 L1883.33 1446.17 M1882.1 1442.09 L1887.98 1442.09 L1887.98 1464.61 L1892.91 1464.61 L1892.91 1468.5 L1887.98 1468.5 L1887.98 1476.65 L1883.33 1476.65 L1883.33 1468.5 L1867.73 1468.5 L1867.73 1463.99 L1882.1 1442.09 Z" fill="#000000" fill-rule="evenodd" fill-opacity="1" /><path clip-path="url(#clip330)" d="M 0 0 M2281.41 1442.09 L2299.77 1442.09 L2299.77 1446.03 L2285.69 1446.03 L2285.69 1454.5 Q2286.71 1454.15 2287.73 1453.99 Q2288.75 1453.8 2289.77 1453.8 Q2295.56 1453.8 2298.93 1456.98 Q2302.31 1460.15 2302.31 1465.56 Q2302.31 1471.14 2298.84 1474.24 Q2295.37 1477.32 2289.05 1477.32 Q2286.87 1477.32 2284.61 1476.95 Q2282.36 1476.58 2279.95 1475.84 L2279.95 1471.14 Q2282.04 1472.28 2284.26 1472.83 Q2286.48 1473.39 2288.96 1473.39 Q2292.96 1473.39 2295.3 1471.28 Q2297.64 1469.18 2297.64 1465.56 Q2297.64 1461.95 2295.3 1459.85 Q2292.96 1457.74 2288.96 1457.74 Q2287.08 1457.74 2285.21 1458.16 Q2283.36 1458.57 2281.41 1459.45 L2281.41 1442.09 Z" fill="#000000" fill-rule="evenodd" fill-opacity="1" /><path clip-path="url(#clip330)" d="M 0 0 M131.538 1323.82 L139.177 1323.82 L139.177 1297.45 L130.867 1299.12 L130.867 1294.86 L139.13 1293.19 L143.806 1293.19 L143.806 1323.82 L151.445 1323.82 L151.445 1327.75 L131.538 1327.75 L131.538 1323.82 Z" fill="#000000" fill-rule="evenodd" fill-opacity="1" /><path clip-path="url(#clip330)" d="M 0 0 M135.126 1128.93 L151.445 1128.93 L151.445 1132.87 L129.501 1132.87 L129.501 1128.93 Q132.163 1126.18 136.746 1121.55 Q141.353 1116.9 142.533 1115.55 Q144.779 1113.03 145.658 1111.29 Q146.561 1109.54 146.561 1107.85 Q146.561 1105.09 144.617 1103.35 Q142.695 1101.62 139.593 1101.62 Q137.394 1101.62 134.941 1102.38 Q132.51 1103.15 129.732 1104.7 L129.732 1099.98 Q132.556 1098.84 135.01 1098.26 Q137.464 1097.68 139.501 1097.68 Q144.871 1097.68 148.066 1100.37 Q151.26 1103.05 151.26 1107.54 Q151.26 1109.67 150.45 1111.6 Q149.663 1113.49 147.556 1116.09 Q146.978 1116.76 143.876 1119.97 Q140.774 1123.17 135.126 1128.93 Z" fill="#000000" fill-rule="evenodd" fill-opacity="1" /><path clip-path="url(#clip330)" d="M 0 0 M144.316 919.35 Q147.672 920.068 149.547 922.336 Q151.445 924.605 151.445 927.938 Q151.445 933.054 147.927 935.855 Q144.408 938.656 137.927 938.656 Q135.751 938.656 133.436 938.216 Q131.144 937.799 128.691 936.943 L128.691 932.429 Q130.635 933.563 132.95 934.142 Q135.265 934.721 137.788 934.721 Q142.186 934.721 144.478 932.985 Q146.792 931.248 146.792 927.938 Q146.792 924.883 144.64 923.17 Q142.51 921.434 138.691 921.434 L134.663 921.434 L134.663 917.591 L138.876 917.591 Q142.325 917.591 144.154 916.225 Q145.982 914.836 145.982 912.244 Q145.982 909.582 144.084 908.17 Q142.209 906.735 138.691 906.735 Q136.769 906.735 134.57 907.151 Q132.371 907.568 129.732 908.448 L129.732 904.281 Q132.394 903.54 134.709 903.17 Q137.047 902.8 139.107 902.8 Q144.431 902.8 147.533 905.23 Q150.635 907.637 150.635 911.758 Q150.635 914.628 148.992 916.619 Q147.348 918.586 144.316 919.35 Z" fill="#000000" fill-rule="evenodd" fill-opacity="1" /><path clip-path="url(#clip330)" d="M 0 0 M141.862 712.615 L130.056 731.064 L141.862 731.064 L141.862 712.615 M140.635 708.541 L146.515 708.541 L146.515 731.064 L151.445 731.064 L151.445 734.952 L146.515 734.952 L146.515 743.101 L141.862 743.101 L141.862 734.952 L126.26 734.952 L126.26 730.439 L140.635 708.541 Z" fill="#000000" fill-rule="evenodd" fill-opacity="1" /><path clip-path="url(#clip330)" d="M 0 0 M130.543 513.657 L148.899 513.657 L148.899 517.592 L134.825 517.592 L134.825 526.064 Q135.843 525.717 136.862 525.555 Q137.88 525.37 138.899 525.37 Q144.686 525.37 148.066 528.541 Q151.445 531.712 151.445 537.129 Q151.445 542.707 147.973 545.809 Q144.501 548.888 138.181 548.888 Q136.005 548.888 133.737 548.518 Q131.492 548.147 129.084 547.406 L129.084 542.707 Q131.168 543.842 133.39 544.397 Q135.612 544.953 138.089 544.953 Q142.093 544.953 144.431 542.846 Q146.769 540.74 146.769 537.129 Q146.769 533.518 144.431 531.411 Q142.093 529.305 138.089 529.305 Q136.214 529.305 134.339 529.721 Q132.487 530.138 130.543 531.018 L130.543 513.657 Z" fill="#000000" fill-rule="evenodd" fill-opacity="1" /><path clip-path="url(#clip330)" d="M 0 0 M139.917 334.189 Q136.769 334.189 134.918 336.342 Q133.089 338.495 133.089 342.245 Q133.089 345.972 134.918 348.148 Q136.769 350.3 139.917 350.3 Q143.066 350.3 144.894 348.148 Q146.746 345.972 146.746 342.245 Q146.746 338.495 144.894 336.342 Q143.066 334.189 139.917 334.189 M149.2 319.537 L149.2 323.796 Q147.441 322.962 145.635 322.523 Q143.853 322.083 142.093 322.083 Q137.464 322.083 135.01 325.208 Q132.58 328.333 132.232 334.652 Q133.598 332.638 135.658 331.574 Q137.718 330.486 140.195 330.486 Q145.404 330.486 148.413 333.657 Q151.445 336.805 151.445 342.245 Q151.445 347.569 148.297 350.786 Q145.149 354.004 139.917 354.004 Q133.922 354.004 130.751 349.421 Q127.58 344.814 127.58 336.087 Q127.58 327.893 131.468 323.032 Q135.357 318.148 141.908 318.148 Q143.667 318.148 145.45 318.495 Q147.255 318.842 149.2 319.537 Z" fill="#000000" fill-rule="evenodd" fill-opacity="1" /><path clip-path="url(#clip330)" d="M 0 0 M129.223 123.889 L151.445 123.889 L151.445 125.879 L138.899 158.449 L134.015 158.449 L145.82 127.824 L129.223 127.824 L129.223 123.889 Z" fill="#000000" fill-rule="evenodd" fill-opacity="1" /><path clip-path="url(#clip330)" d="M 0 0 M924.92 1538.25 Q924.92 1544.71 927.562 1548.4 Q930.235 1552.07 934.882 1552.07 Q939.529 1552.07 942.203 1548.4 Q944.876 1544.71 944.876 1538.25 Q944.876 1531.79 942.203 1528.13 Q939.529 1524.44 934.882 1524.44 Q930.235 1524.44 927.562 1528.13 Q924.92 1531.79 924.92 1538.25 M944.876 1550.7 Q943.03 1553.88 940.197 1555.44 Q937.397 1556.97 933.45 1556.97 Q926.989 1556.97 922.915 1551.81 Q918.872 1546.65 918.872 1538.25 Q918.872 1529.85 922.915 1524.69 Q926.989 1519.54 933.45 1519.54 Q937.397 1519.54 940.197 1521.1 Q943.03 1522.62 944.876 1525.81 L944.876 1520.4 L950.733 1520.4 L950.733 1569.6 L944.876 1569.6 L944.876 1550.7 Z" fill="#000000" fill-rule="evenodd" fill-opacity="1" /><path clip-path="url(#clip330)" d="M 0 0 M983.962 1566.87 L983.962 1571.42 L950.096 1571.42 L950.096 1566.87 L983.962 1566.87 Z" fill="#000000" fill-rule="evenodd" fill-opacity="1" /><path clip-path="url(#clip330)" d="M 0 0 M1010.76 1525.87 Q1009.77 1525.3 1008.6 1525.04 Q1007.45 1524.76 1006.05 1524.76 Q1001.09 1524.76 998.412 1528 Q995.77 1531.22 995.77 1537.27 L995.77 1556.04 L989.882 1556.04 L989.882 1520.4 L995.77 1520.4 L995.77 1525.93 Q997.616 1522.69 1000.58 1521.13 Q1003.54 1519.54 1007.77 1519.54 Q1008.37 1519.54 1009.11 1519.63 Q1009.84 1519.7 1010.73 1519.85 L1010.76 1525.87 Z" fill="#000000" fill-rule="evenodd" fill-opacity="1" /><path clip-path="url(#clip330)" d="M 0 0 M1033.1 1538.12 Q1026.01 1538.12 1023.27 1539.75 Q1020.53 1541.37 1020.53 1545.29 Q1020.53 1548.4 1022.57 1550.25 Q1024.64 1552.07 1028.17 1552.07 Q1033.04 1552.07 1035.97 1548.63 Q1038.93 1545.16 1038.93 1539.43 L1038.93 1538.12 L1033.1 1538.12 M1044.79 1535.71 L1044.79 1556.04 L1038.93 1556.04 L1038.93 1550.63 Q1036.92 1553.88 1033.93 1555.44 Q1030.94 1556.97 1026.61 1556.97 Q1021.14 1556.97 1017.89 1553.91 Q1014.68 1550.82 1014.68 1545.67 Q1014.68 1539.65 1018.69 1536.6 Q1022.73 1533.54 1030.72 1533.54 L1038.93 1533.54 L1038.93 1532.97 Q1038.93 1528.93 1036.26 1526.73 Q1033.61 1524.5 1028.81 1524.5 Q1025.75 1524.5 1022.86 1525.23 Q1019.96 1525.97 1017.29 1527.43 L1017.29 1522.02 Q1020.5 1520.78 1023.52 1520.17 Q1026.55 1519.54 1029.41 1519.54 Q1037.15 1519.54 1040.97 1523.55 Q1044.79 1527.56 1044.79 1535.71 Z" fill="#000000" fill-rule="evenodd" fill-opacity="1" /><path clip-path="url(#clip330)" d="M 0 0 M1050.93 1520.4 L1056.79 1520.4 L1056.79 1556.04 L1050.93 1556.04 L1050.93 1520.4 M1050.93 1506.52 L1056.79 1506.52 L1056.79 1513.93 L1050.93 1513.93 L1050.93 1506.52 Z" fill="#000000" fill-rule="evenodd" fill-opacity="1" /><path clip-path="url(#clip330)" d="M 0 0 M1092.56 1534.53 L1092.56 1556.04 L1086.7 1556.04 L1086.7 1534.72 Q1086.7 1529.66 1084.73 1527.14 Q1082.76 1524.63 1078.81 1524.63 Q1074.07 1524.63 1071.33 1527.65 Q1068.59 1530.68 1068.59 1535.9 L1068.59 1556.04 L1062.71 1556.04 L1062.71 1520.4 L1068.59 1520.4 L1068.59 1525.93 Q1070.69 1522.72 1073.53 1521.13 Q1076.39 1519.54 1080.12 1519.54 Q1086.26 1519.54 1089.41 1523.36 Q1092.56 1527.14 1092.56 1534.53 Z" fill="#000000" fill-rule="evenodd" fill-opacity="1" /><path clip-path="url(#clip330)" d="M 0 0 M1133.24 1524.5 Q1128.53 1524.5 1125.79 1528.19 Q1123.05 1531.85 1123.05 1538.25 Q1123.05 1544.65 1125.76 1548.34 Q1128.5 1552 1133.24 1552 Q1137.92 1552 1140.65 1548.31 Q1143.39 1544.62 1143.39 1538.25 Q1143.39 1531.92 1140.65 1528.23 Q1137.92 1524.5 1133.24 1524.5 M1133.24 1519.54 Q1140.88 1519.54 1145.24 1524.5 Q1149.6 1529.47 1149.6 1538.25 Q1149.6 1547 1145.24 1552 Q1140.88 1556.97 1133.24 1556.97 Q1125.57 1556.97 1121.21 1552 Q1116.88 1547 1116.88 1538.25 Q1116.88 1529.47 1121.21 1524.5 Q1125.57 1519.54 1133.24 1519.54 Z" fill="#000000" fill-rule="evenodd" fill-opacity="1" /><path clip-path="url(#clip330)" d="M 0 0 M1176.4 1525.87 Q1175.41 1525.3 1174.23 1525.04 Q1173.09 1524.76 1171.69 1524.76 Q1166.72 1524.76 1164.05 1528 Q1161.41 1531.22 1161.41 1537.27 L1161.41 1556.04 L1155.52 1556.04 L1155.52 1520.4 L1161.41 1520.4 L1161.41 1525.93 Q1163.25 1522.69 1166.21 1521.13 Q1169.17 1519.54 1173.41 1519.54 Q1174.01 1519.54 1174.74 1519.63 Q1175.47 1519.7 1176.37 1519.85 L1176.4 1525.87 Z" fill="#000000" fill-rule="evenodd" fill-opacity="1" /><path clip-path="url(#clip330)" d="M 0 0 M1206.76 1538.25 Q1206.76 1544.71 1209.4 1548.4 Q1212.08 1552.07 1216.72 1552.07 Q1221.37 1552.07 1224.04 1548.4 Q1226.72 1544.71 1226.72 1538.25 Q1226.72 1531.79 1224.04 1528.13 Q1221.37 1524.44 1216.72 1524.44 Q1212.08 1524.44 1209.4 1528.13 Q1206.76 1531.79 1206.76 1538.25 M1226.72 1550.7 Q1224.87 1553.88 1222.04 1555.44 Q1219.24 1556.97 1215.29 1556.97 Q1208.83 1556.97 1204.76 1551.81 Q1200.71 1546.65 1200.71 1538.25 Q1200.71 1529.85 1204.76 1524.69 Q1208.83 1519.54 1215.29 1519.54 Q1219.24 1519.54 1222.04 1521.1 Q1224.87 1522.62 1226.72 1525.81 L1226.72 1520.4 L1232.57 1520.4 L1232.57 1569.6 L1226.72 1569.6 L1226.72 1550.7 Z" fill="#000000" fill-rule="evenodd" fill-opacity="1" /><path clip-path="url(#clip330)" d="M 0 0 M1265.8 1566.87 L1265.8 1571.42 L1231.94 1571.42 L1231.94 1566.87 L1265.8 1566.87 Z" fill="#000000" fill-rule="evenodd" fill-opacity="1" /><path clip-path="url(#clip330)" d="M 0 0 M1294.67 1521.45 L1294.67 1526.98 Q1292.19 1525.71 1289.52 1525.07 Q1286.84 1524.44 1283.98 1524.44 Q1279.62 1524.44 1277.42 1525.77 Q1275.26 1527.11 1275.26 1529.79 Q1275.26 1531.82 1276.82 1533 Q1278.38 1534.15 1283.09 1535.2 L1285.09 1535.64 Q1291.33 1536.98 1293.94 1539.43 Q1296.58 1541.85 1296.58 1546.21 Q1296.58 1551.17 1292.63 1554.07 Q1288.72 1556.97 1281.84 1556.97 Q1278.98 1556.97 1275.86 1556.39 Q1272.77 1555.85 1269.34 1554.74 L1269.34 1548.69 Q1272.58 1550.38 1275.73 1551.24 Q1278.88 1552.07 1281.97 1552.07 Q1286.11 1552.07 1288.34 1550.66 Q1290.57 1549.23 1290.57 1546.65 Q1290.57 1544.27 1288.94 1542.99 Q1287.35 1541.72 1281.91 1540.54 L1279.87 1540.07 Q1274.43 1538.92 1272.01 1536.56 Q1269.59 1534.18 1269.59 1530.04 Q1269.59 1525.01 1273.16 1522.27 Q1276.72 1519.54 1283.28 1519.54 Q1286.52 1519.54 1289.39 1520.01 Q1292.25 1520.49 1294.67 1521.45 Z" fill="#000000" fill-rule="evenodd" fill-opacity="1" /><path clip-path="url(#clip330)" d="M 0 0 M1332.36 1534.53 L1332.36 1556.04 L1326.5 1556.04 L1326.5 1534.72 Q1326.5 1529.66 1324.53 1527.14 Q1322.55 1524.63 1318.61 1524.63 Q1313.86 1524.63 1311.13 1527.65 Q1308.39 1530.68 1308.39 1535.9 L1308.39 1556.04 L1302.5 1556.04 L1302.5 1520.4 L1308.39 1520.4 L1308.39 1525.93 Q1310.49 1522.72 1313.32 1521.13 Q1316.19 1519.54 1319.91 1519.54 Q1326.05 1519.54 1329.21 1523.36 Q1332.36 1527.14 1332.36 1534.53 Z" fill="#000000" fill-rule="evenodd" fill-opacity="1" /><path clip-path="url(#clip330)" d="M 0 0 M1352.31 1524.5 Q1347.6 1524.5 1344.87 1528.19 Q1342.13 1531.85 1342.13 1538.25 Q1342.13 1544.65 1344.83 1548.34 Q1347.57 1552 1352.31 1552 Q1356.99 1552 1359.73 1548.31 Q1362.47 1544.62 1362.47 1538.25 Q1362.47 1531.92 1359.73 1528.23 Q1356.99 1524.5 1352.31 1524.5 M1352.31 1519.54 Q1359.95 1519.54 1364.31 1524.5 Q1368.67 1529.47 1368.67 1538.25 Q1368.67 1547 1364.31 1552 Q1359.95 1556.97 1352.31 1556.97 Q1344.64 1556.97 1340.28 1552 Q1335.95 1547 1335.95 1538.25 Q1335.95 1529.47 1340.28 1524.5 Q1344.64 1519.54 1352.31 1519.54 Z" fill="#000000" fill-rule="evenodd" fill-opacity="1" /><path clip-path="url(#clip330)" d="M 0 0 M1371.41 1520.4 L1377.27 1520.4 L1384.59 1548.21 L1391.88 1520.4 L1398.78 1520.4 L1406.1 1548.21 L1413.39 1520.4 L1419.25 1520.4 L1409.92 1556.04 L1403.02 1556.04 L1395.35 1526.83 L1387.64 1556.04 L1380.74 1556.04 L1371.41 1520.4 Z" fill="#000000" fill-rule="evenodd" fill-opacity="1" /><path clip-path="url(#clip330)" d="M 0 0 M1445.57 1506.52 L1459.07 1506.52 L1459.07 1511.07 L1451.43 1511.07 L1451.43 1560.09 L1459.07 1560.09 L1459.07 1564.64 L1445.57 1564.64 L1445.57 1506.52 Z" fill="#000000" fill-rule="evenodd" fill-opacity="1" /><path clip-path="url(#clip330)" d="M 0 0 M1488.67 1537.81 Q1488.67 1531.44 1486.03 1527.94 Q1483.42 1524.44 1478.67 1524.44 Q1473.96 1524.44 1471.32 1527.94 Q1468.71 1531.44 1468.71 1537.81 Q1468.71 1544.14 1471.32 1547.64 Q1473.96 1551.14 1478.67 1551.14 Q1483.42 1551.14 1486.03 1547.64 Q1488.67 1544.14 1488.67 1537.81 M1494.52 1551.62 Q1494.52 1560.72 1490.48 1565.15 Q1486.44 1569.6 1478.1 1569.6 Q1475.01 1569.6 1472.28 1569.13 Q1469.54 1568.68 1466.96 1567.72 L1466.96 1562.03 Q1469.54 1563.43 1472.05 1564.1 Q1474.57 1564.76 1477.18 1564.76 Q1482.94 1564.76 1485.8 1561.74 Q1488.67 1558.75 1488.67 1552.67 L1488.67 1549.77 Q1486.85 1552.92 1484.02 1554.48 Q1481.19 1556.04 1477.24 1556.04 Q1470.68 1556.04 1466.67 1551.05 Q1462.66 1546.05 1462.66 1537.81 Q1462.66 1529.53 1466.67 1524.53 Q1470.68 1519.54 1477.24 1519.54 Q1481.19 1519.54 1484.02 1521.1 Q1486.85 1522.66 1488.67 1525.81 L1488.67 1520.4 L1494.52 1520.4 L1494.52 1551.62 Z" fill="#000000" fill-rule="evenodd" fill-opacity="1" /><path clip-path="url(#clip330)" d="M 0 0 M1511.07 1508.52 L1516.48 1508.52 L1499.93 1562.09 L1494.52 1562.09 L1511.07 1508.52 Z" fill="#000000" fill-rule="evenodd" fill-opacity="1" /><path clip-path="url(#clip330)" d="M 0 0 M1522.41 1506.52 L1528.29 1506.52 L1528.29 1535.77 L1545.77 1520.4 L1553.25 1520.4 L1534.34 1537.07 L1554.04 1556.04 L1546.4 1556.04 L1528.29 1538.63 L1528.29 1556.04 L1522.41 1556.04 L1522.41 1506.52 Z" fill="#000000" fill-rule="evenodd" fill-opacity="1" /><path clip-path="url(#clip330)" d="M 0 0 M1583.64 1537.81 Q1583.64 1531.44 1581 1527.94 Q1578.39 1524.44 1573.65 1524.44 Q1568.94 1524.44 1566.3 1527.94 Q1563.69 1531.44 1563.69 1537.81 Q1563.69 1544.14 1566.3 1547.64 Q1568.94 1551.14 1573.65 1551.14 Q1578.39 1551.14 1581 1547.64 Q1583.64 1544.14 1583.64 1537.81 M1589.5 1551.62 Q1589.5 1560.72 1585.46 1565.15 Q1581.42 1569.6 1573.08 1569.6 Q1569.99 1569.6 1567.25 1569.13 Q1564.51 1568.68 1561.94 1567.72 L1561.94 1562.03 Q1564.51 1563.43 1567.03 1564.1 Q1569.54 1564.76 1572.15 1564.76 Q1577.91 1564.76 1580.78 1561.74 Q1583.64 1558.75 1583.64 1552.67 L1583.64 1549.77 Q1581.83 1552.92 1579 1554.48 Q1576.16 1556.04 1572.22 1556.04 Q1565.66 1556.04 1561.65 1551.05 Q1557.64 1546.05 1557.64 1537.81 Q1557.64 1529.53 1561.65 1524.53 Q1565.66 1519.54 1572.22 1519.54 Q1576.16 1519.54 1579 1521.1 Q1581.83 1522.66 1583.64 1525.81 L1583.64 1520.4 L1589.5 1520.4 L1589.5 1551.62 Z" fill="#000000" fill-rule="evenodd" fill-opacity="1" /><path clip-path="url(#clip330)" d="M 0 0 M1609.33 1506.52 L1609.33 1564.64 L1595.83 1564.64 L1595.83 1560.09 L1603.44 1560.09 L1603.44 1511.07 L1595.83 1511.07 L1595.83 1506.52 L1609.33 1506.52 Z" fill="#000000" fill-rule="evenodd" fill-opacity="1" /><path clip-path="url(#clip330)" d="M 0 0 M42.2347 1051.71 L52.3562 1051.71 L52.3562 1039.65 L56.9077 1039.65 L56.9077 1051.71 L76.2594 1051.71 Q80.6199 1051.71 81.8613 1050.54 Q83.1026 1049.33 83.1026 1045.67 L83.1026 1039.65 L88.0042 1039.65 L88.0042 1045.67 Q88.0042 1052.45 85.4897 1055.03 Q82.9434 1057.6 76.2594 1057.6 L56.9077 1057.6 L56.9077 1061.9 L52.3562 1061.9 L52.3562 1057.6 L42.2347 1057.6 L42.2347 1051.71 Z" fill="#000000" fill-rule="evenodd" fill-opacity="1" /><path clip-path="url(#clip330)" d="M 0 0 M68.7161 1003.02 L71.5806 1003.02 L71.5806 1029.94 Q77.6281 1029.56 80.8109 1026.32 Q83.9619 1023.04 83.9619 1017.21 Q83.9619 1013.84 83.1344 1010.69 Q82.3069 1007.51 80.6518 1004.39 L86.1899 1004.39 Q87.5267 1007.54 88.227 1010.85 Q88.9272 1014.16 88.9272 1017.56 Q88.9272 1026.09 83.9619 1031.09 Q78.9967 1036.06 70.5303 1036.06 Q61.7774 1036.06 56.6531 1031.34 Q51.4968 1026.6 51.4968 1018.58 Q51.4968 1011.39 56.1438 1007.22 Q60.7589 1003.02 68.7161 1003.02 M66.9973 1008.87 Q62.1912 1008.94 59.3266 1011.58 Q56.4621 1014.19 56.4621 1018.52 Q56.4621 1023.42 59.2312 1026.38 Q62.0002 1029.31 67.0292 1029.75 L66.9973 1008.87 Z" fill="#000000" fill-rule="evenodd" fill-opacity="1" /><path clip-path="url(#clip330)" d="M 0 0 M57.8307 976.218 Q57.2578 977.204 57.0032 978.382 Q56.7167 979.528 56.7167 980.928 Q56.7167 985.893 59.9632 988.567 Q63.1779 991.209 69.2253 991.209 L88.0042 991.209 L88.0042 997.097 L52.3562 997.097 L52.3562 991.209 L57.8944 991.209 Q54.6479 989.363 53.0883 986.403 Q51.4968 983.443 51.4968 979.21 Q51.4968 978.605 51.5923 977.873 Q51.656 977.141 51.8151 976.249 L57.8307 976.218 Z" fill="#000000" fill-rule="evenodd" fill-opacity="1" /><path clip-path="url(#clip330)" d="M 0 0 M59.1993 943.466 Q55.2526 941.27 53.3747 938.214 Q51.4968 935.159 51.4968 931.021 Q51.4968 925.451 55.4117 922.427 Q59.2948 919.404 66.4881 919.404 L88.0042 919.404 L88.0042 925.292 L66.679 925.292 Q61.5546 925.292 59.072 927.106 Q56.5894 928.92 56.5894 932.644 Q56.5894 937.196 59.6131 939.838 Q62.6368 942.479 67.8567 942.479 L88.0042 942.479 L88.0042 948.368 L66.679 948.368 Q61.5228 948.368 59.072 950.182 Q56.5894 951.996 56.5894 955.784 Q56.5894 960.272 59.6449 962.913 Q62.6686 965.555 67.8567 965.555 L88.0042 965.555 L88.0042 971.443 L52.3562 971.443 L52.3562 965.555 L57.8944 965.555 Q54.616 963.55 53.0564 960.749 Q51.4968 957.948 51.4968 954.097 Q51.4968 950.214 53.4702 947.508 Q55.4436 944.771 59.1993 943.466 Z" fill="#000000" fill-rule="evenodd" fill-opacity="1" /><path clip-path="url(#clip330)" d="M 0 0 M52.3562 913.261 L52.3562 907.404 L88.0042 907.404 L88.0042 913.261 L52.3562 913.261 M38.479 913.261 L38.479 907.404 L45.895 907.404 L45.895 913.261 L38.479 913.261 Z" fill="#000000" fill-rule="evenodd" fill-opacity="1" /><path clip-path="url(#clip330)" d="M 0 0 M66.4881 871.629 L88.0042 871.629 L88.0042 877.486 L66.679 877.486 Q61.6183 877.486 59.1038 879.459 Q56.5894 881.432 56.5894 885.379 Q56.5894 890.121 59.6131 892.859 Q62.6368 895.596 67.8567 895.596 L88.0042 895.596 L88.0042 901.484 L52.3562 901.484 L52.3562 895.596 L57.8944 895.596 Q54.6797 893.495 53.0883 890.663 Q51.4968 887.798 51.4968 884.074 Q51.4968 877.931 55.3163 874.78 Q59.1038 871.629 66.4881 871.629 Z" fill="#000000" fill-rule="evenodd" fill-opacity="1" /><path clip-path="url(#clip330)" d="M 0 0 M70.0847 849.285 Q70.0847 856.383 71.7079 859.12 Q73.3312 861.858 77.2461 861.858 Q80.3653 861.858 82.2114 859.821 Q84.0256 857.752 84.0256 854.219 Q84.0256 849.349 80.5881 846.421 Q77.1188 843.461 71.3897 843.461 L70.0847 843.461 L70.0847 849.285 M67.6657 837.604 L88.0042 837.604 L88.0042 843.461 L82.5933 843.461 Q85.8398 845.466 87.3994 848.458 Q88.9272 851.45 88.9272 855.778 Q88.9272 861.253 85.8716 864.499 Q82.7843 867.714 77.6281 867.714 Q71.6125 867.714 68.5569 863.704 Q65.5014 859.662 65.5014 851.673 L65.5014 843.461 L64.9285 843.461 Q60.8862 843.461 58.6901 846.134 Q56.4621 848.776 56.4621 853.582 Q56.4621 856.638 57.1941 859.534 Q57.9262 862.431 59.3903 865.104 L53.9795 865.104 Q52.7381 861.89 52.1334 858.866 Q51.4968 855.842 51.4968 852.978 Q51.4968 845.243 55.5072 841.424 Q59.5176 837.604 67.6657 837.604 Z" fill="#000000" fill-rule="evenodd" fill-opacity="1" /><path clip-path="url(#clip330)" d="M 0 0 M38.479 831.461 L38.479 825.605 L88.0042 825.605 L88.0042 831.461 L38.479 831.461 Z" fill="#000000" fill-rule="evenodd" fill-opacity="1" /><path clip-path="url(#clip330)" d="M 0 0 M52.3562 802.943 L52.3562 796.737 L82.275 785.597 L52.3562 774.457 L52.3562 768.25 L88.0042 781.618 L88.0042 789.575 L52.3562 802.943 Z" fill="#000000" fill-rule="evenodd" fill-opacity="1" /><path clip-path="url(#clip330)" d="M 0 0 M68.7161 731.615 L71.5806 731.615 L71.5806 758.542 Q77.6281 758.16 80.8109 754.914 Q83.9619 751.635 83.9619 745.811 Q83.9619 742.437 83.1344 739.286 Q82.3069 736.103 80.6518 732.984 L86.1899 732.984 Q87.5267 736.135 88.227 739.445 Q88.9272 742.755 88.9272 746.161 Q88.9272 754.691 83.9619 759.688 Q78.9967 764.653 70.5303 764.653 Q61.7774 764.653 56.6531 759.943 Q51.4968 755.2 51.4968 747.179 Q51.4968 739.986 56.1438 735.817 Q60.7589 731.615 68.7161 731.615 M66.9973 737.472 Q62.1912 737.535 59.3266 740.177 Q56.4621 742.787 56.4621 747.116 Q56.4621 752.017 59.2312 754.977 Q62.0002 757.906 67.0292 758.351 L66.9973 737.472 Z" fill="#000000" fill-rule="evenodd" fill-opacity="1" /><path clip-path="url(#clip330)" d="M 0 0 M38.479 725.472 L38.479 719.616 L88.0042 719.616 L88.0042 725.472 L38.479 725.472 Z" fill="#000000" fill-rule="evenodd" fill-opacity="1" /><path clip-path="url(#clip330)" d="M 0 0 M56.4621 699.659 Q56.4621 704.37 60.1542 707.107 Q63.8145 709.845 70.212 709.845 Q76.6095 709.845 80.3017 707.139 Q83.9619 704.402 83.9619 699.659 Q83.9619 694.981 80.2698 692.243 Q76.5777 689.506 70.212 689.506 Q63.8781 689.506 60.186 692.243 Q56.4621 694.981 56.4621 699.659 M51.4968 699.659 Q51.4968 692.021 56.4621 687.66 Q61.4273 683.3 70.212 683.3 Q78.9649 683.3 83.9619 687.66 Q88.9272 692.021 88.9272 699.659 Q88.9272 707.33 83.9619 711.691 Q78.9649 716.019 70.212 716.019 Q61.4273 716.019 56.4621 711.691 Q51.4968 707.33 51.4968 699.659 Z" fill="#000000" fill-rule="evenodd" fill-opacity="1" /><path clip-path="url(#clip330)" d="M 0 0 M53.7248 651.503 L59.1993 651.503 Q57.8307 653.986 57.1623 656.5 Q56.4621 658.983 56.4621 661.529 Q56.4621 667.226 60.0905 670.377 Q63.6872 673.528 70.212 673.528 Q76.7369 673.528 80.3653 670.377 Q83.9619 667.226 83.9619 661.529 Q83.9619 658.983 83.2935 656.5 Q82.5933 653.986 81.2247 651.503 L86.6355 651.503 Q87.7814 653.954 88.3543 656.595 Q88.9272 659.205 88.9272 662.165 Q88.9272 670.218 83.8664 674.961 Q78.8057 679.703 70.212 679.703 Q61.491 679.703 56.4939 674.929 Q51.4968 670.123 51.4968 661.784 Q51.4968 659.078 52.0697 656.5 Q52.6108 653.922 53.7248 651.503 Z" fill="#000000" fill-rule="evenodd" fill-opacity="1" /><path clip-path="url(#clip330)" d="M 0 0 M52.3562 645.36 L52.3562 639.504 L88.0042 639.504 L88.0042 645.36 L52.3562 645.36 M38.479 645.36 L38.479 639.504 L45.895 639.504 L45.895 645.36 L38.479 645.36 Z" fill="#000000" fill-rule="evenodd" fill-opacity="1" /><path clip-path="url(#clip330)" d="M 0 0 M42.2347 627.568 L52.3562 627.568 L52.3562 615.505 L56.9077 615.505 L56.9077 627.568 L76.2594 627.568 Q80.6199 627.568 81.8613 626.39 Q83.1026 625.181 83.1026 621.52 L83.1026 615.505 L88.0042 615.505 L88.0042 621.52 Q88.0042 628.3 85.4897 630.878 Q82.9434 633.456 76.2594 633.456 L56.9077 633.456 L56.9077 637.753 L52.3562 637.753 L52.3562 633.456 L42.2347 633.456 L42.2347 627.568 Z" fill="#000000" fill-rule="evenodd" fill-opacity="1" /><path clip-path="url(#clip330)" d="M 0 0 M91.3143 594.53 Q97.68 597.012 99.6216 599.368 Q101.563 601.723 101.563 605.67 L101.563 610.349 L96.6615 610.349 L96.6615 606.911 Q96.6615 604.492 95.5157 603.155 Q94.3699 601.819 90.1048 600.195 L87.4312 599.145 L52.3562 613.563 L52.3562 607.357 L80.238 596.217 L52.3562 585.077 L52.3562 578.87 L91.3143 594.53 Z" fill="#000000" fill-rule="evenodd" fill-opacity="1" /><path clip-path="url(#clip330)" d="M 0 0 M38.479 552.548 L38.479 539.053 L43.0304 539.053 L43.0304 546.692 L92.0464 546.692 L92.0464 539.053 L96.5979 539.053 L96.5979 552.548 L38.479 552.548 Z" fill="#000000" fill-rule="evenodd" fill-opacity="1" /><path clip-path="url(#clip330)" d="M 0 0 M59.1993 505.155 Q55.2526 502.959 53.3747 499.904 Q51.4968 496.848 51.4968 492.71 Q51.4968 487.14 55.4117 484.117 Q59.2948 481.093 66.4881 481.093 L88.0042 481.093 L88.0042 486.981 L66.679 486.981 Q61.5546 486.981 59.072 488.795 Q56.5894 490.61 56.5894 494.334 Q56.5894 498.885 59.6131 501.527 Q62.6368 504.169 67.8567 504.169 L88.0042 504.169 L88.0042 510.057 L66.679 510.057 Q61.5228 510.057 59.072 511.871 Q56.5894 513.685 56.5894 517.473 Q56.5894 521.961 59.6449 524.603 Q62.6686 527.244 67.8567 527.244 L88.0042 527.244 L88.0042 533.133 L52.3562 533.133 L52.3562 527.244 L57.8944 527.244 Q54.616 525.239 53.0564 522.438 Q51.4968 519.637 51.4968 515.786 Q51.4968 511.903 53.4702 509.198 Q55.4436 506.46 59.1993 505.155 Z" fill="#000000" fill-rule="evenodd" fill-opacity="1" /><path clip-path="url(#clip330)" d="M 0 0 M40.4842 464.542 L40.4842 459.131 L94.0516 475.682 L94.0516 481.093 L40.4842 464.542 Z" fill="#000000" fill-rule="evenodd" fill-opacity="1" /><path clip-path="url(#clip330)" d="M 0 0 M53.4065 430.263 L58.9447 430.263 Q57.6716 432.745 57.035 435.419 Q56.3984 438.093 56.3984 440.957 Q56.3984 445.318 57.7352 447.514 Q59.072 449.678 61.7456 449.678 Q63.7826 449.678 64.9603 448.119 Q66.1061 446.559 67.1565 441.848 L67.6021 439.843 Q68.9389 433.605 71.3897 430.995 Q73.8086 428.353 78.1691 428.353 Q83.1344 428.353 86.0308 432.3 Q88.9272 436.215 88.9272 443.09 Q88.9272 445.954 88.3543 449.073 Q87.8132 452.161 86.6992 455.598 L80.6518 455.598 Q82.3387 452.352 83.198 449.201 Q84.0256 446.05 84.0256 442.962 Q84.0256 438.825 82.6251 436.597 Q81.1929 434.369 78.6147 434.369 Q76.2276 434.369 74.9545 435.992 Q73.6813 437.583 72.5037 443.026 L72.0262 445.063 Q70.8804 450.506 68.5251 452.925 Q66.138 455.344 62.0002 455.344 Q56.9713 455.344 54.2341 451.779 Q51.4968 448.214 51.4968 441.657 Q51.4968 438.411 51.9743 435.546 Q52.4517 432.682 53.4065 430.263 Z" fill="#000000" fill-rule="evenodd" fill-opacity="1" /><path clip-path="url(#clip330)" d="M 0 0 M38.479 408.524 L96.5979 408.524 L96.5979 422.019 L92.0464 422.019 L92.0464 414.412 L43.0304 414.412 L43.0304 422.019 L38.479 422.019 L38.479 408.524 Z" fill="#000000" fill-rule="evenodd" fill-opacity="1" /><polyline clip-path="url(#clip332)" style="stroke:#009af9; stroke-width:12; stroke-opacity:1; fill:none" points="
  237.067,1232.83 257.815,714.067 278.564,642.46 299.312,597.602 320.06,564.367 340.808,537.751 361.556,515.447 382.304,496.188 403.052,479.203 423.801,463.984 
  444.549,450.178 465.297,437.532 486.045,425.855 506.793,415 527.541,404.853 548.289,395.321 569.038,386.33 589.786,377.818 610.534,369.733 631.282,362.032 
  652.03,354.678 672.778,347.639 693.526,340.887 714.275,334.399 735.023,328.153 755.771,322.131 776.519,316.316 797.267,310.693 818.015,305.25 838.764,299.974 
  859.512,294.855 880.26,289.884 901.008,285.05 921.756,280.348 942.504,275.768 963.252,271.304 984.001,266.951 1004.75,262.703 1025.5,258.553 1046.24,254.498 
  1066.99,250.534 1087.74,246.654 1108.49,242.857 1129.24,239.138 1149.99,235.494 1170.73,231.922 1191.48,228.419 1212.23,224.982 1232.98,221.608 1253.73,218.295 
  1274.47,215.04 1295.22,211.842 1315.97,208.699 1336.72,205.608 1357.47,202.567 1378.22,199.576 1398.96,196.632 1419.71,193.733 1440.46,190.878 1461.21,188.067 
  1481.96,185.296 1502.7,182.566 1523.45,179.875 1544.2,177.221 1564.95,174.604 1585.7,172.022 1606.45,169.475 1627.19,166.962 1647.94,164.481 1668.69,162.032 
  1689.44,159.614 1710.19,157.225 1730.93,154.866 1751.68,152.536 1772.43,150.233 1793.18,147.958 1813.93,145.708 1834.67,143.485 1855.42,141.286 1876.17,139.113 
  1896.92,136.963 1917.67,134.836 1938.42,132.733 1959.16,130.651 1979.91,128.592 2000.66,126.554 2021.41,124.536 2042.16,122.539 2062.9,120.563 2083.65,118.605 
  2104.4,116.667 2125.15,114.748 2145.9,112.847 2166.65,110.964 2187.39,109.098 2208.14,107.25 2228.89,105.419 2249.64,103.604 2270.39,101.806 2291.13,100.024 
  
  "/>
<polyline clip-path="url(#clip332)" style="stroke:#e26f46; stroke-width:12; stroke-opacity:1; fill:none" points="
  237.067,1384.24 257.815,1347.81 278.564,1344.41 299.312,1342.39 320.06,1340.93 340.808,1339.8 361.556,1338.87 382.304,1338.07 403.052,1337.38 423.801,1336.77 
  444.549,1336.22 465.297,1335.73 486.045,1335.27 506.793,1334.85 527.541,1334.46 548.289,1334.1 569.038,1333.75 589.786,1333.43 610.534,1333.13 631.282,1332.84 
  652.03,1332.57 672.778,1332.31 693.526,1332.06 714.275,1331.82 735.023,1331.6 755.771,1331.38 776.519,1331.17 797.267,1330.96 818.015,1330.77 838.764,1330.58 
  859.512,1330.4 880.26,1330.22 901.008,1330.05 921.756,1329.88 942.504,1329.72 963.252,1329.56 984.001,1329.41 1004.75,1329.26 1025.5,1329.12 1046.24,1328.97 
  1066.99,1328.84 1087.74,1328.7 1108.49,1328.57 1129.24,1328.44 1149.99,1328.32 1170.73,1328.19 1191.48,1328.07 1212.23,1327.96 1232.98,1327.84 1253.73,1327.73 
  1274.47,1327.62 1295.22,1327.51 1315.97,1327.4 1336.72,1327.3 1357.47,1327.2 1378.22,1327.1 1398.96,1327 1419.71,1326.9 1440.46,1326.8 1461.21,1326.71 
  1481.96,1326.62 1502.7,1326.53 1523.45,1326.44 1544.2,1326.35 1564.95,1326.26 1585.7,1326.17 1606.45,1326.09 1627.19,1326.01 1647.94,1325.93 1668.69,1325.84 
  1689.44,1325.76 1710.19,1325.69 1730.93,1325.61 1751.68,1325.53 1772.43,1325.46 1793.18,1325.38 1813.93,1325.31 1834.67,1325.24 1855.42,1325.16 1876.17,1325.09 
  1896.92,1325.02 1917.67,1324.95 1938.42,1324.89 1959.16,1324.82 1979.91,1324.75 2000.66,1324.69 2021.41,1324.62 2042.16,1324.56 2062.9,1324.49 2083.65,1324.43 
  2104.4,1324.37 2125.15,1324.31 2145.9,1324.25 2166.65,1324.18 2187.39,1324.13 2208.14,1324.07 2228.89,1324.01 2249.64,1323.95 2270.39,1323.89 2291.13,1323.84 
  
  "/>
<polyline clip-path="url(#clip332)" style="stroke:#3da44d; stroke-width:12; stroke-opacity:1; fill:none" points="
  237.067,1262.72 257.815,740.758 278.564,666 299.312,618.922 320.06,583.927 340.808,555.833 361.556,532.244 382.304,511.843 403.052,493.825 423.801,477.661 
  444.549,462.983 465.297,449.525 486.045,437.087 506.793,425.516 527.541,414.691 548.289,404.515 569.038,394.911 589.786,385.812 610.534,377.166 631.282,368.926 
  652.03,361.053 672.778,353.513 693.526,346.278 714.275,339.323 735.023,332.624 755.771,326.162 776.519,319.921 797.267,313.884 818.015,308.037 838.764,302.369 
  859.512,296.867 880.26,291.521 901.008,286.323 921.756,281.264 942.504,276.335 963.252,271.53 984.001,266.843 1004.75,262.267 1025.5,257.797 1046.24,253.428 
  1066.99,249.154 1087.74,244.972 1108.49,240.877 1129.24,236.866 1149.99,232.935 1170.73,229.08 1191.48,225.299 1212.23,221.588 1232.98,217.945 1253.73,214.367 
  1274.47,210.852 1295.22,207.397 1315.97,204 1336.72,200.659 1357.47,197.372 1378.22,194.138 1398.96,190.954 1419.71,187.819 1440.46,184.731 1461.21,181.689 
  1481.96,178.691 1502.7,175.736 1523.45,172.823 1544.2,169.95 1564.95,167.116 1585.7,164.321 1606.45,161.562 1627.19,158.839 1647.94,156.152 1668.69,153.498 
  1689.44,150.877 1710.19,148.289 1730.93,145.731 1751.68,143.205 1772.43,140.708 1793.18,138.24 1813.93,135.801 1834.67,133.389 1855.42,131.004 1876.17,128.645 
  1896.92,126.313 1917.67,124.005 1938.42,121.721 1959.16,119.462 1979.91,117.226 2000.66,115.013 2021.41,112.823 2042.16,110.654 2062.9,108.507 2083.65,106.381 
  2104.4,104.276 2125.15,102.19 2145.9,100.125 2166.65,98.0782 2187.39,96.0508 2208.14,94.0421 2228.89,92.0515 2249.64,90.0788 2270.39,88.1237 2291.13,86.1857 
  
  "/>
<path clip-path="url(#clip330)" d="
M1750.48 372.684 L2280.76 372.684 L2280.76 130.764 L1750.48 130.764  Z
  " fill="#ffffff" fill-rule="evenodd" fill-opacity="1"/>
<polyline clip-path="url(#clip330)" style="stroke:#000000; stroke-width:4; stroke-opacity:1; fill:none" points="
  1750.48,372.684 2280.76,372.684 2280.76,130.764 1750.48,130.764 1750.48,372.684 
  "/>
<polyline clip-path="url(#clip330)" style="stroke:#009af9; stroke-width:4; stroke-opacity:1; fill:none" points="
  1774.48,191.244 1918.48,191.244 
  "/>
<path clip-path="url(#clip330)" d="M 0 0 M1958.87 192.32 Q1960.37 192.83 1961.79 194.496 Q1963.22 196.163 1964.66 199.08 L1969.4 208.524 L1964.38 208.524 L1959.96 199.658 Q1958.24 196.186 1956.62 195.052 Q1955.03 193.918 1952.25 193.918 L1947.16 193.918 L1947.16 208.524 L1942.48 208.524 L1942.48 173.964 L1953.04 173.964 Q1958.96 173.964 1961.88 176.441 Q1964.79 178.918 1964.79 183.918 Q1964.79 187.182 1963.27 189.334 Q1961.76 191.487 1958.87 192.32 M1947.16 177.807 L1947.16 190.075 L1953.04 190.075 Q1956.41 190.075 1958.13 188.524 Q1959.86 186.95 1959.86 183.918 Q1959.86 180.885 1958.13 179.358 Q1956.41 177.807 1953.04 177.807 L1947.16 177.807 Z" fill="#000000" fill-rule="evenodd" fill-opacity="1" /><path clip-path="url(#clip330)" d="M 0 0 M1984.61 195.492 Q1979.45 195.492 1977.46 196.672 Q1975.47 197.853 1975.47 200.7 Q1975.47 202.969 1976.95 204.311 Q1978.45 205.631 1981.02 205.631 Q1984.56 205.631 1986.69 203.131 Q1988.85 200.607 1988.85 196.441 L1988.85 195.492 L1984.61 195.492 M1993.1 193.733 L1993.1 208.524 L1988.85 208.524 L1988.85 204.589 Q1987.39 206.95 1985.21 208.084 Q1983.04 209.195 1979.89 209.195 Q1975.91 209.195 1973.54 206.973 Q1971.21 204.728 1971.21 200.978 Q1971.21 196.603 1974.12 194.381 Q1977.06 192.158 1982.87 192.158 L1988.85 192.158 L1988.85 191.742 Q1988.85 188.802 1986.9 187.205 Q1984.98 185.584 1981.48 185.584 Q1979.26 185.584 1977.16 186.117 Q1975.05 186.649 1973.1 187.714 L1973.1 183.779 Q1975.44 182.876 1977.64 182.436 Q1979.84 181.973 1981.92 181.973 Q1987.55 181.973 1990.33 184.89 Q1993.1 187.807 1993.1 193.733 Z" fill="#000000" fill-rule="evenodd" fill-opacity="1" /><path clip-path="url(#clip330)" d="M 0 0 M1997.57 182.598 L2001.83 182.598 L2001.83 208.524 L1997.57 208.524 L1997.57 182.598 M1997.57 172.506 L2001.83 172.506 L2001.83 177.899 L1997.57 177.899 L1997.57 172.506 Z" fill="#000000" fill-rule="evenodd" fill-opacity="1" /><path clip-path="url(#clip330)" d="M 0 0 M2027.85 192.876 L2027.85 208.524 L2023.59 208.524 L2023.59 193.015 Q2023.59 189.334 2022.16 187.506 Q2020.72 185.677 2017.85 185.677 Q2014.4 185.677 2012.41 187.876 Q2010.42 190.075 2010.42 193.871 L2010.42 208.524 L2006.14 208.524 L2006.14 182.598 L2010.42 182.598 L2010.42 186.626 Q2011.95 184.288 2014.01 183.131 Q2016.09 181.973 2018.8 181.973 Q2023.27 181.973 2025.56 184.751 Q2027.85 187.506 2027.85 192.876 Z" fill="#000000" fill-rule="evenodd" fill-opacity="1" /><path clip-path="url(#clip330)" d="M 0 0 M2030.16 193.64 L2042.64 193.64 L2042.64 197.436 L2030.16 197.436 L2030.16 193.64 Z" fill="#000000" fill-rule="evenodd" fill-opacity="1" /><path clip-path="url(#clip330)" d="M 0 0 M2073.17 176.626 L2073.17 181.557 Q2070.81 179.358 2068.13 178.27 Q2065.47 177.182 2062.46 177.182 Q2056.53 177.182 2053.38 180.816 Q2050.23 184.427 2050.23 191.279 Q2050.23 198.107 2053.38 201.742 Q2056.53 205.353 2062.46 205.353 Q2065.47 205.353 2068.13 204.265 Q2070.81 203.177 2073.17 200.978 L2073.17 205.862 Q2070.72 207.529 2067.97 208.362 Q2065.23 209.195 2062.18 209.195 Q2054.33 209.195 2049.82 204.404 Q2045.3 199.589 2045.3 191.279 Q2045.3 182.946 2049.82 178.154 Q2054.33 173.339 2062.18 173.339 Q2065.28 173.339 2068.01 174.172 Q2070.77 174.983 2073.17 176.626 Z" fill="#000000" fill-rule="evenodd" fill-opacity="1" /><path clip-path="url(#clip330)" d="M 0 0 M2077.83 173.964 L2082.5 173.964 L2082.5 204.589 L2099.33 204.589 L2099.33 208.524 L2077.83 208.524 L2077.83 173.964 Z" fill="#000000" fill-rule="evenodd" fill-opacity="1" /><path clip-path="url(#clip330)" d="M 0 0 M2103.98 173.964 L2108.66 173.964 L2108.66 208.524 L2103.98 208.524 L2103.98 173.964 Z" fill="#000000" fill-rule="evenodd" fill-opacity="1" /><path clip-path="url(#clip330)" d="M 0 0 M2113.31 173.964 L2120.28 173.964 L2129.1 197.482 L2137.96 173.964 L2144.93 173.964 L2144.93 208.524 L2140.37 208.524 L2140.37 178.177 L2131.46 201.881 L2126.76 201.881 L2117.85 178.177 L2117.85 208.524 L2113.31 208.524 L2113.31 173.964 Z" fill="#000000" fill-rule="evenodd" fill-opacity="1" /><path clip-path="url(#clip330)" d="M 0 0 M2161.14 178.571 L2154.79 195.77 L2167.5 195.77 L2161.14 178.571 M2158.5 173.964 L2163.8 173.964 L2176.97 208.524 L2172.11 208.524 L2168.96 199.658 L2153.38 199.658 L2150.23 208.524 L2145.3 208.524 L2158.5 173.964 Z" fill="#000000" fill-rule="evenodd" fill-opacity="1" /><polyline clip-path="url(#clip330)" style="stroke:#e26f46; stroke-width:4; stroke-opacity:1; fill:none" points="
  1774.48,251.724 1918.48,251.724 
  "/>
<path clip-path="url(#clip330)" d="M 0 0 M1964.72 235.578 L1964.72 240.139 Q1962.06 238.865 1959.7 238.24 Q1957.34 237.615 1955.14 237.615 Q1951.32 237.615 1949.24 239.097 Q1947.18 240.578 1947.18 243.31 Q1947.18 245.601 1948.54 246.782 Q1949.93 247.939 1953.78 248.657 L1956.6 249.236 Q1961.83 250.231 1964.31 252.754 Q1966.81 255.254 1966.81 259.467 Q1966.81 264.49 1963.43 267.083 Q1960.07 269.675 1953.57 269.675 Q1951.11 269.675 1948.34 269.12 Q1945.58 268.564 1942.62 267.476 L1942.62 262.662 Q1945.47 264.259 1948.2 265.069 Q1950.93 265.879 1953.57 265.879 Q1957.57 265.879 1959.75 264.305 Q1961.92 262.731 1961.92 259.814 Q1961.92 257.268 1960.35 255.833 Q1958.8 254.398 1955.23 253.68 L1952.39 253.125 Q1947.16 252.083 1944.82 249.861 Q1942.48 247.638 1942.48 243.68 Q1942.48 239.097 1945.7 236.458 Q1948.94 233.819 1954.61 233.819 Q1957.04 233.819 1959.56 234.259 Q1962.09 234.699 1964.72 235.578 Z" fill="#000000" fill-rule="evenodd" fill-opacity="1" /><path clip-path="url(#clip330)" d="M 0 0 M1992.83 253.356 L1992.83 269.004 L1988.57 269.004 L1988.57 253.495 Q1988.57 249.814 1987.13 247.986 Q1985.7 246.157 1982.83 246.157 Q1979.38 246.157 1977.39 248.356 Q1975.4 250.555 1975.4 254.351 L1975.4 269.004 L1971.11 269.004 L1971.11 243.078 L1975.4 243.078 L1975.4 247.106 Q1976.92 244.768 1978.98 243.611 Q1981.07 242.453 1983.78 242.453 Q1988.24 242.453 1990.53 245.231 Q1992.83 247.986 1992.83 253.356 Z" fill="#000000" fill-rule="evenodd" fill-opacity="1" /><path clip-path="url(#clip330)" d="M 0 0 M2007.34 246.064 Q2003.91 246.064 2001.92 248.75 Q1999.93 251.412 1999.93 256.064 Q1999.93 260.717 2001.9 263.402 Q2003.89 266.064 2007.34 266.064 Q2010.74 266.064 2012.73 263.379 Q2014.72 260.694 2014.72 256.064 Q2014.72 251.458 2012.73 248.773 Q2010.74 246.064 2007.34 246.064 M2007.34 242.453 Q2012.9 242.453 2016.07 246.064 Q2019.24 249.675 2019.24 256.064 Q2019.24 262.43 2016.07 266.064 Q2012.9 269.675 2007.34 269.675 Q2001.76 269.675 1998.59 266.064 Q1995.44 262.43 1995.44 256.064 Q1995.44 249.675 1998.59 246.064 Q2001.76 242.453 2007.34 242.453 Z" fill="#000000" fill-rule="evenodd" fill-opacity="1" /><path clip-path="url(#clip330)" d="M 0 0 M2021.23 243.078 L2025.49 243.078 L2030.81 263.31 L2036.11 243.078 L2041.14 243.078 L2046.46 263.31 L2051.76 243.078 L2056.02 243.078 L2049.24 269.004 L2044.22 269.004 L2038.64 247.754 L2033.03 269.004 L2028.01 269.004 L2021.23 243.078 Z" fill="#000000" fill-rule="evenodd" fill-opacity="1" /><path clip-path="url(#clip330)" d="M 0 0 M2058.34 254.12 L2070.81 254.12 L2070.81 257.916 L2058.34 257.916 L2058.34 254.12 Z" fill="#000000" fill-rule="evenodd" fill-opacity="1" /><path clip-path="url(#clip330)" d="M 0 0 M2101.34 237.106 L2101.34 242.037 Q2098.98 239.838 2096.3 238.75 Q2093.64 237.662 2090.63 237.662 Q2084.7 237.662 2081.55 241.296 Q2078.4 244.907 2078.4 251.759 Q2078.4 258.587 2081.55 262.222 Q2084.7 265.833 2090.63 265.833 Q2093.64 265.833 2096.3 264.745 Q2098.98 263.657 2101.34 261.458 L2101.34 266.342 Q2098.89 268.009 2096.14 268.842 Q2093.4 269.675 2090.35 269.675 Q2082.5 269.675 2077.99 264.884 Q2073.47 260.069 2073.47 251.759 Q2073.47 243.426 2077.99 238.634 Q2082.5 233.819 2090.35 233.819 Q2093.45 233.819 2096.18 234.652 Q2098.94 235.463 2101.34 237.106 Z" fill="#000000" fill-rule="evenodd" fill-opacity="1" /><path clip-path="url(#clip330)" d="M 0 0 M2106 234.444 L2110.67 234.444 L2110.67 265.069 L2127.5 265.069 L2127.5 269.004 L2106 269.004 L2106 234.444 Z" fill="#000000" fill-rule="evenodd" fill-opacity="1" /><path clip-path="url(#clip330)" d="M 0 0 M2132.15 234.444 L2136.83 234.444 L2136.83 269.004 L2132.15 269.004 L2132.15 234.444 Z" fill="#000000" fill-rule="evenodd" fill-opacity="1" /><path clip-path="url(#clip330)" d="M 0 0 M2141.48 234.444 L2148.45 234.444 L2157.27 257.962 L2166.14 234.444 L2173.1 234.444 L2173.1 269.004 L2168.54 269.004 L2168.54 238.657 L2159.63 262.361 L2154.93 262.361 L2146.02 238.657 L2146.02 269.004 L2141.48 269.004 L2141.48 234.444 Z" fill="#000000" fill-rule="evenodd" fill-opacity="1" /><path clip-path="url(#clip330)" d="M 0 0 M2189.31 239.051 L2182.96 256.25 L2195.67 256.25 L2189.31 239.051 M2186.67 234.444 L2191.97 234.444 L2205.14 269.004 L2200.28 269.004 L2197.13 260.138 L2181.55 260.138 L2178.4 269.004 L2173.47 269.004 L2186.67 234.444 Z" fill="#000000" fill-rule="evenodd" fill-opacity="1" /><polyline clip-path="url(#clip330)" style="stroke:#3da44d; stroke-width:4; stroke-opacity:1; fill:none" points="
  1774.48,312.204 1918.48,312.204 
  "/>
<path clip-path="url(#clip330)" d="M 0 0 M1958.87 313.28 Q1960.37 313.79 1961.79 315.456 Q1963.22 317.123 1964.66 320.04 L1969.4 329.484 L1964.38 329.484 L1959.96 320.618 Q1958.24 317.146 1956.62 316.012 Q1955.03 314.878 1952.25 314.878 L1947.16 314.878 L1947.16 329.484 L1942.48 329.484 L1942.48 294.924 L1953.04 294.924 Q1958.96 294.924 1961.88 297.401 Q1964.79 299.878 1964.79 304.878 Q1964.79 308.142 1963.27 310.294 Q1961.76 312.447 1958.87 313.28 M1947.16 298.767 L1947.16 311.035 L1953.04 311.035 Q1956.41 311.035 1958.13 309.484 Q1959.86 307.91 1959.86 304.878 Q1959.86 301.845 1958.13 300.318 Q1956.41 298.767 1953.04 298.767 L1947.16 298.767 Z" fill="#000000" fill-rule="evenodd" fill-opacity="1" /><path clip-path="url(#clip330)" d="M 0 0 M1984.61 316.452 Q1979.45 316.452 1977.46 317.632 Q1975.47 318.813 1975.47 321.66 Q1975.47 323.929 1976.95 325.271 Q1978.45 326.591 1981.02 326.591 Q1984.56 326.591 1986.69 324.091 Q1988.85 321.567 1988.85 317.401 L1988.85 316.452 L1984.61 316.452 M1993.1 314.693 L1993.1 329.484 L1988.85 329.484 L1988.85 325.549 Q1987.39 327.91 1985.21 329.044 Q1983.04 330.155 1979.89 330.155 Q1975.91 330.155 1973.54 327.933 Q1971.21 325.688 1971.21 321.938 Q1971.21 317.563 1974.12 315.341 Q1977.06 313.118 1982.87 313.118 L1988.85 313.118 L1988.85 312.702 Q1988.85 309.762 1986.9 308.165 Q1984.98 306.544 1981.48 306.544 Q1979.26 306.544 1977.16 307.077 Q1975.05 307.609 1973.1 308.674 L1973.1 304.739 Q1975.44 303.836 1977.64 303.396 Q1979.84 302.933 1981.92 302.933 Q1987.55 302.933 1990.33 305.85 Q1993.1 308.767 1993.1 314.693 Z" fill="#000000" fill-rule="evenodd" fill-opacity="1" /><path clip-path="url(#clip330)" d="M 0 0 M1997.57 303.558 L2001.83 303.558 L2001.83 329.484 L1997.57 329.484 L1997.57 303.558 M1997.57 293.466 L2001.83 293.466 L2001.83 298.859 L1997.57 298.859 L1997.57 293.466 Z" fill="#000000" fill-rule="evenodd" fill-opacity="1" /><path clip-path="url(#clip330)" d="M 0 0 M2027.85 313.836 L2027.85 329.484 L2023.59 329.484 L2023.59 313.975 Q2023.59 310.294 2022.16 308.466 Q2020.72 306.637 2017.85 306.637 Q2014.4 306.637 2012.41 308.836 Q2010.42 311.035 2010.42 314.831 L2010.42 329.484 L2006.14 329.484 L2006.14 303.558 L2010.42 303.558 L2010.42 307.586 Q2011.95 305.248 2014.01 304.091 Q2016.09 302.933 2018.8 302.933 Q2023.27 302.933 2025.56 305.711 Q2027.85 308.466 2027.85 313.836 Z" fill="#000000" fill-rule="evenodd" fill-opacity="1" /><path clip-path="url(#clip330)" d="M 0 0 M2030.16 314.6 L2042.64 314.6 L2042.64 318.396 L2030.16 318.396 L2030.16 314.6 Z" fill="#000000" fill-rule="evenodd" fill-opacity="1" /><path clip-path="url(#clip330)" d="M 0 0 M2047.29 294.924 L2069.15 294.924 L2069.15 298.859 L2051.97 298.859 L2051.97 309.091 L2068.43 309.091 L2068.43 313.026 L2051.97 313.026 L2051.97 325.549 L2069.56 325.549 L2069.56 329.484 L2047.29 329.484 L2047.29 294.924 Z" fill="#000000" fill-rule="evenodd" fill-opacity="1" /><path clip-path="url(#clip330)" d="M 0 0 M2094.21 308.535 Q2095.81 305.665 2098.03 304.299 Q2100.26 302.933 2103.27 302.933 Q2107.32 302.933 2109.52 305.781 Q2111.71 308.605 2111.71 313.836 L2111.71 329.484 L2107.43 329.484 L2107.43 313.975 Q2107.43 310.248 2106.11 308.443 Q2104.79 306.637 2102.09 306.637 Q2098.78 306.637 2096.85 308.836 Q2094.93 311.035 2094.93 314.831 L2094.93 329.484 L2090.65 329.484 L2090.65 313.975 Q2090.65 310.225 2089.33 308.443 Q2088.01 306.637 2085.26 306.637 Q2081.99 306.637 2080.07 308.859 Q2078.15 311.058 2078.15 314.831 L2078.15 329.484 L2073.87 329.484 L2073.87 303.558 L2078.15 303.558 L2078.15 307.586 Q2079.61 305.202 2081.65 304.068 Q2083.68 302.933 2086.48 302.933 Q2089.31 302.933 2091.28 304.368 Q2093.27 305.804 2094.21 308.535 Z" fill="#000000" fill-rule="evenodd" fill-opacity="1" /><path clip-path="url(#clip330)" d="M 0 0 M2120.3 325.595 L2120.3 339.345 L2116.02 339.345 L2116.02 303.558 L2120.3 303.558 L2120.3 307.493 Q2121.65 305.179 2123.68 304.068 Q2125.74 302.933 2128.59 302.933 Q2133.31 302.933 2136.25 306.683 Q2139.21 310.433 2139.21 316.544 Q2139.21 322.655 2136.25 326.405 Q2133.31 330.155 2128.59 330.155 Q2125.74 330.155 2123.68 329.044 Q2121.65 327.91 2120.3 325.595 M2134.79 316.544 Q2134.79 311.845 2132.85 309.183 Q2130.93 306.498 2127.55 306.498 Q2124.17 306.498 2122.22 309.183 Q2120.3 311.845 2120.3 316.544 Q2120.3 321.243 2122.22 323.929 Q2124.17 326.591 2127.55 326.591 Q2130.93 326.591 2132.85 323.929 Q2134.79 321.243 2134.79 316.544 Z" fill="#000000" fill-rule="evenodd" fill-opacity="1" /><path clip-path="url(#clip330)" d="M 0 0 M2143.68 303.558 L2147.94 303.558 L2147.94 329.484 L2143.68 329.484 L2143.68 303.558 M2143.68 293.466 L2147.94 293.466 L2147.94 298.859 L2143.68 298.859 L2143.68 293.466 Z" fill="#000000" fill-rule="evenodd" fill-opacity="1" /><path clip-path="url(#clip330)" d="M 0 0 M2167.43 307.54 Q2166.71 307.123 2165.86 306.938 Q2165.02 306.73 2164.01 306.73 Q2160.4 306.73 2158.45 309.091 Q2156.53 311.429 2156.53 315.827 L2156.53 329.484 L2152.25 329.484 L2152.25 303.558 L2156.53 303.558 L2156.53 307.586 Q2157.87 305.225 2160.02 304.091 Q2162.18 302.933 2165.26 302.933 Q2165.7 302.933 2166.23 303.003 Q2166.76 303.049 2167.41 303.165 L2167.43 307.54 Z" fill="#000000" fill-rule="evenodd" fill-opacity="1" /><path clip-path="url(#clip330)" d="M 0 0 M2171.9 303.558 L2176.16 303.558 L2176.16 329.484 L2171.9 329.484 L2171.9 303.558 M2171.9 293.466 L2176.16 293.466 L2176.16 298.859 L2171.9 298.859 L2171.9 293.466 Z" fill="#000000" fill-rule="evenodd" fill-opacity="1" /><path clip-path="url(#clip330)" d="M 0 0 M2199.28 304.554 L2199.28 308.535 Q2197.48 307.54 2195.65 307.054 Q2193.84 306.544 2191.99 306.544 Q2187.85 306.544 2185.56 309.183 Q2183.27 311.799 2183.27 316.544 Q2183.27 321.29 2185.56 323.929 Q2187.85 326.544 2191.99 326.544 Q2193.84 326.544 2195.65 326.058 Q2197.48 325.549 2199.28 324.554 L2199.28 328.489 Q2197.5 329.322 2195.58 329.739 Q2193.68 330.155 2191.53 330.155 Q2185.67 330.155 2182.22 326.475 Q2178.77 322.794 2178.77 316.544 Q2178.77 310.202 2182.25 306.568 Q2185.74 302.933 2191.81 302.933 Q2193.77 302.933 2195.65 303.35 Q2197.52 303.743 2199.28 304.554 Z" fill="#000000" fill-rule="evenodd" fill-opacity="1" /><path clip-path="url(#clip330)" d="M 0 0 M2215.53 316.452 Q2210.37 316.452 2208.38 317.632 Q2206.39 318.813 2206.39 321.66 Q2206.39 323.929 2207.87 325.271 Q2209.38 326.591 2211.95 326.591 Q2215.49 326.591 2217.62 324.091 Q2219.77 321.567 2219.77 317.401 L2219.77 316.452 L2215.53 316.452 M2224.03 314.693 L2224.03 329.484 L2219.77 329.484 L2219.77 325.549 Q2218.31 327.91 2216.14 329.044 Q2213.96 330.155 2210.81 330.155 Q2206.83 330.155 2204.47 327.933 Q2202.13 325.688 2202.13 321.938 Q2202.13 317.563 2205.05 315.341 Q2207.99 313.118 2213.8 313.118 L2219.77 313.118 L2219.77 312.702 Q2219.77 309.762 2217.83 308.165 Q2215.9 306.544 2212.41 306.544 Q2210.19 306.544 2208.08 307.077 Q2205.97 307.609 2204.03 308.674 L2204.03 304.739 Q2206.37 303.836 2208.57 303.396 Q2210.77 302.933 2212.85 302.933 Q2218.47 302.933 2221.25 305.85 Q2224.03 308.767 2224.03 314.693 Z" fill="#000000" fill-rule="evenodd" fill-opacity="1" /><path clip-path="url(#clip330)" d="M 0 0 M2228.5 293.466 L2232.76 293.466 L2232.76 329.484 L2228.5 329.484 L2228.5 293.466 Z" fill="#000000" fill-rule="evenodd" fill-opacity="1" /></svg>
