<?xml version="1.0" encoding="utf-8"?>
<svg xmlns="http://www.w3.org/2000/svg" xmlns:xlink="http://www.w3.org/1999/xlink" width="600" height="400" viewBox="0 0 2400 1600">
<defs>
  <clipPath id="clip590">
    <rect x="0" y="0" width="2400" height="1600"/>
  </clipPath>
</defs>
<path clip-path="url(#clip590)" d="
M0 1600 L2400 1600 L2400 0 L0 0  Z
  " fill="#ffffff" fill-rule="evenodd" fill-opacity="1"/>
<defs>
  <clipPath id="clip591">
    <rect x="480" y="0" width="1681" height="1600"/>
  </clipPath>
</defs>
<path clip-path="url(#clip590)" d="
M319.171 1423.18 L2352.76 1423.18 L2352.76 47.2441 L319.171 47.2441  Z
  " fill="#ffffff" fill-rule="evenodd" fill-opacity="1"/>
<defs>
  <clipPath id="clip592">
    <rect x="319" y="47" width="2035" height="1377"/>
  </clipPath>
</defs>
<polyline clip-path="url(#clip592)" style="stroke:#000000; stroke-width:2; stroke-opacity:0.1; fill:none" points="
  376.722,1423.18 376.722,47.2441 
  "/>
<polyline clip-path="url(#clip592)" style="stroke:#000000; stroke-width:2; stroke-opacity:0.1; fill:none" points="
  760.418,1423.18 760.418,47.2441 
  "/>
<polyline clip-path="url(#clip592)" style="stroke:#000000; stroke-width:2; stroke-opacity:0.1; fill:none" points="
  1144.11,1423.18 1144.11,47.2441 
  "/>
<polyline clip-path="url(#clip592)" style="stroke:#000000; stroke-width:2; stroke-opacity:0.1; fill:none" points="
  1527.81,1423.18 1527.81,47.2441 
  "/>
<polyline clip-path="url(#clip592)" style="stroke:#000000; stroke-width:2; stroke-opacity:0.1; fill:none" points="
  1911.51,1423.18 1911.51,47.2441 
  "/>
<polyline clip-path="url(#clip592)" style="stroke:#000000; stroke-width:2; stroke-opacity:0.1; fill:none" points="
  2295.2,1423.18 2295.2,47.2441 
  "/>
<polyline clip-path="url(#clip592)" style="stroke:#000000; stroke-width:2; stroke-opacity:0.1; fill:none" points="
  319.171,1384.24 2352.76,1384.24 
  "/>
<polyline clip-path="url(#clip592)" style="stroke:#000000; stroke-width:2; stroke-opacity:0.1; fill:none" points="
  319.171,989.829 2352.76,989.829 
  "/>
<polyline clip-path="url(#clip592)" style="stroke:#000000; stroke-width:2; stroke-opacity:0.1; fill:none" points="
  319.171,595.42 2352.76,595.42 
  "/>
<polyline clip-path="url(#clip592)" style="stroke:#000000; stroke-width:2; stroke-opacity:0.1; fill:none" points="
  319.171,201.011 2352.76,201.011 
  "/>
<polyline clip-path="url(#clip590)" style="stroke:#000000; stroke-width:4; stroke-opacity:1; fill:none" points="
  319.171,1423.18 2352.76,1423.18 
  "/>
<polyline clip-path="url(#clip590)" style="stroke:#000000; stroke-width:4; stroke-opacity:1; fill:none" points="
  319.171,1423.18 319.171,47.2441 
  "/>
<polyline clip-path="url(#clip590)" style="stroke:#000000; stroke-width:4; stroke-opacity:1; fill:none" points="
  376.722,1423.18 376.722,1406.67 
  "/>
<polyline clip-path="url(#clip590)" style="stroke:#000000; stroke-width:4; stroke-opacity:1; fill:none" points="
  760.418,1423.18 760.418,1406.67 
  "/>
<polyline clip-path="url(#clip590)" style="stroke:#000000; stroke-width:4; stroke-opacity:1; fill:none" points="
  1144.11,1423.18 1144.11,1406.67 
  "/>
<polyline clip-path="url(#clip590)" style="stroke:#000000; stroke-width:4; stroke-opacity:1; fill:none" points="
  1527.81,1423.18 1527.81,1406.67 
  "/>
<polyline clip-path="url(#clip590)" style="stroke:#000000; stroke-width:4; stroke-opacity:1; fill:none" points="
  1911.51,1423.18 1911.51,1406.67 
  "/>
<polyline clip-path="url(#clip590)" style="stroke:#000000; stroke-width:4; stroke-opacity:1; fill:none" points="
  2295.2,1423.18 2295.2,1406.67 
  "/>
<polyline clip-path="url(#clip590)" style="stroke:#000000; stroke-width:4; stroke-opacity:1; fill:none" points="
  319.171,1384.24 343.574,1384.24 
  "/>
<polyline clip-path="url(#clip590)" style="stroke:#000000; stroke-width:4; stroke-opacity:1; fill:none" points="
  319.171,989.829 343.574,989.829 
  "/>
<polyline clip-path="url(#clip590)" style="stroke:#000000; stroke-width:4; stroke-opacity:1; fill:none" points="
  319.171,595.42 343.574,595.42 
  "/>
<polyline clip-path="url(#clip590)" style="stroke:#000000; stroke-width:4; stroke-opacity:1; fill:none" points="
  319.171,201.011 343.574,201.011 
  "/>
<path clip-path="url(#clip590)" d="M 0 0 M376.722 1445.17 Q373.111 1445.17 371.282 1448.74 Q369.476 1452.28 369.476 1459.41 Q369.476 1466.51 371.282 1470.08 Q373.111 1473.62 376.722 1473.62 Q380.356 1473.62 382.162 1470.08 Q383.99 1466.51 383.99 1459.41 Q383.99 1452.28 382.162 1448.74 Q380.356 1445.17 376.722 1445.17 M376.722 1441.47 Q382.532 1441.47 385.587 1446.07 Q388.666 1450.66 388.666 1459.41 Q388.666 1468.13 385.587 1472.74 Q382.532 1477.32 376.722 1477.32 Q370.912 1477.32 367.833 1472.74 Q364.777 1468.13 364.777 1459.41 Q364.777 1450.66 367.833 1446.07 Q370.912 1441.47 376.722 1441.47 Z" fill="#000000" fill-rule="evenodd" fill-opacity="1" /><path clip-path="url(#clip590)" d="M 0 0 M750.8 1472.72 L758.439 1472.72 L758.439 1446.35 L750.128 1448.02 L750.128 1443.76 L758.392 1442.09 L763.068 1442.09 L763.068 1472.72 L770.707 1472.72 L770.707 1476.65 L750.8 1476.65 L750.8 1472.72 Z" fill="#000000" fill-rule="evenodd" fill-opacity="1" /><path clip-path="url(#clip590)" d="M 0 0 M1138.77 1472.72 L1155.09 1472.72 L1155.09 1476.65 L1133.14 1476.65 L1133.14 1472.72 Q1135.8 1469.96 1140.39 1465.33 Q1144.99 1460.68 1146.17 1459.34 Q1148.42 1456.81 1149.3 1455.08 Q1150.2 1453.32 1150.2 1451.63 Q1150.2 1448.87 1148.26 1447.14 Q1146.34 1445.4 1143.23 1445.4 Q1141.04 1445.4 1138.58 1446.17 Q1136.15 1446.93 1133.37 1448.48 L1133.37 1443.76 Q1136.2 1442.62 1138.65 1442.05 Q1141.1 1441.47 1143.14 1441.47 Q1148.51 1441.47 1151.71 1444.15 Q1154.9 1446.84 1154.9 1451.33 Q1154.9 1453.46 1154.09 1455.38 Q1153.3 1457.28 1151.2 1459.87 Q1150.62 1460.54 1147.52 1463.76 Q1144.41 1466.95 1138.77 1472.72 Z" fill="#000000" fill-rule="evenodd" fill-opacity="1" /><path clip-path="url(#clip590)" d="M 0 0 M1532.06 1458.02 Q1535.41 1458.74 1537.29 1461 Q1539.19 1463.27 1539.19 1466.61 Q1539.19 1471.72 1535.67 1474.52 Q1532.15 1477.32 1525.67 1477.32 Q1523.49 1477.32 1521.18 1476.88 Q1518.89 1476.47 1516.43 1475.61 L1516.43 1471.1 Q1518.38 1472.23 1520.69 1472.81 Q1523.01 1473.39 1525.53 1473.39 Q1529.93 1473.39 1532.22 1471.65 Q1534.53 1469.92 1534.53 1466.61 Q1534.53 1463.55 1532.38 1461.84 Q1530.25 1460.1 1526.43 1460.1 L1522.4 1460.1 L1522.4 1456.26 L1526.62 1456.26 Q1530.07 1456.26 1531.9 1454.89 Q1533.72 1453.5 1533.72 1450.91 Q1533.72 1448.25 1531.83 1446.84 Q1529.95 1445.4 1526.43 1445.4 Q1524.51 1445.4 1522.31 1445.82 Q1520.11 1446.24 1517.47 1447.11 L1517.47 1442.95 Q1520.14 1442.21 1522.45 1441.84 Q1524.79 1441.47 1526.85 1441.47 Q1532.17 1441.47 1535.27 1443.9 Q1538.38 1446.3 1538.38 1450.43 Q1538.38 1453.3 1536.73 1455.29 Q1535.09 1457.25 1532.06 1458.02 Z" fill="#000000" fill-rule="evenodd" fill-opacity="1" /><path clip-path="url(#clip590)" d="M 0 0 M1914.51 1446.17 L1902.71 1464.61 L1914.51 1464.61 L1914.51 1446.17 M1913.29 1442.09 L1919.17 1442.09 L1919.17 1464.61 L1924.1 1464.61 L1924.1 1468.5 L1919.17 1468.5 L1919.17 1476.65 L1914.51 1476.65 L1914.51 1468.5 L1898.91 1468.5 L1898.91 1463.99 L1913.29 1442.09 Z" fill="#000000" fill-rule="evenodd" fill-opacity="1" /><path clip-path="url(#clip590)" d="M 0 0 M2285.48 1442.09 L2303.84 1442.09 L2303.84 1446.03 L2289.76 1446.03 L2289.76 1454.5 Q2290.78 1454.15 2291.8 1453.99 Q2292.82 1453.8 2293.84 1453.8 Q2299.62 1453.8 2303 1456.98 Q2306.38 1460.15 2306.38 1465.56 Q2306.38 1471.14 2302.91 1474.24 Q2299.44 1477.32 2293.12 1477.32 Q2290.94 1477.32 2288.67 1476.95 Q2286.43 1476.58 2284.02 1475.84 L2284.02 1471.14 Q2286.1 1472.28 2288.33 1472.83 Q2290.55 1473.39 2293.03 1473.39 Q2297.03 1473.39 2299.37 1471.28 Q2301.71 1469.18 2301.71 1465.56 Q2301.71 1461.95 2299.37 1459.85 Q2297.03 1457.74 2293.03 1457.74 Q2291.15 1457.74 2289.28 1458.16 Q2287.42 1458.57 2285.48 1459.45 L2285.48 1442.09 Z" fill="#000000" fill-rule="evenodd" fill-opacity="1" /><path clip-path="url(#clip590)" d="M 0 0 M138.205 1370.04 Q134.593 1370.04 132.765 1373.6 Q130.959 1377.14 130.959 1384.27 Q130.959 1391.38 132.765 1394.94 Q134.593 1398.49 138.205 1398.49 Q141.839 1398.49 143.644 1394.94 Q145.473 1391.38 145.473 1384.27 Q145.473 1377.14 143.644 1373.6 Q141.839 1370.04 138.205 1370.04 M138.205 1366.33 Q144.015 1366.33 147.07 1370.94 Q150.149 1375.52 150.149 1384.27 Q150.149 1393 147.07 1397.61 Q144.015 1402.19 138.205 1402.19 Q132.394 1402.19 129.316 1397.61 Q126.26 1393 126.26 1384.27 Q126.26 1375.52 129.316 1370.94 Q132.394 1366.33 138.205 1366.33 Z" fill="#000000" fill-rule="evenodd" fill-opacity="1" /><path clip-path="url(#clip590)" d="M 0 0 M155.218 1395.64 L160.103 1395.64 L160.103 1401.52 L155.218 1401.52 L155.218 1395.64 Z" fill="#000000" fill-rule="evenodd" fill-opacity="1" /><path clip-path="url(#clip590)" d="M 0 0 M175.172 1370.04 Q171.561 1370.04 169.732 1373.6 Q167.927 1377.14 167.927 1384.27 Q167.927 1391.38 169.732 1394.94 Q171.561 1398.49 175.172 1398.49 Q178.806 1398.49 180.612 1394.94 Q182.44 1391.38 182.44 1384.27 Q182.44 1377.14 180.612 1373.6 Q178.806 1370.04 175.172 1370.04 M175.172 1366.33 Q180.982 1366.33 184.038 1370.94 Q187.116 1375.52 187.116 1384.27 Q187.116 1393 184.038 1397.61 Q180.982 1402.19 175.172 1402.19 Q169.362 1402.19 166.283 1397.61 Q163.228 1393 163.228 1384.27 Q163.228 1375.52 166.283 1370.94 Q169.362 1366.33 175.172 1366.33 Z" fill="#000000" fill-rule="evenodd" fill-opacity="1" /><path clip-path="url(#clip590)" d="M 0 0 M202.186 1370.04 Q198.575 1370.04 196.746 1373.6 Q194.94 1377.14 194.94 1384.27 Q194.94 1391.38 196.746 1394.94 Q198.575 1398.49 202.186 1398.49 Q205.82 1398.49 207.625 1394.94 Q209.454 1391.38 209.454 1384.27 Q209.454 1377.14 207.625 1373.6 Q205.82 1370.04 202.186 1370.04 M202.186 1366.33 Q207.996 1366.33 211.051 1370.94 Q214.13 1375.52 214.13 1384.27 Q214.13 1393 211.051 1397.61 Q207.996 1402.19 202.186 1402.19 Q196.376 1402.19 193.297 1397.61 Q190.241 1393 190.241 1384.27 Q190.241 1375.52 193.297 1370.94 Q196.376 1366.33 202.186 1366.33 Z" fill="#000000" fill-rule="evenodd" fill-opacity="1" /><path clip-path="url(#clip590)" d="M 0 0 M229.199 1370.04 Q225.588 1370.04 223.76 1373.6 Q221.954 1377.14 221.954 1384.27 Q221.954 1391.38 223.76 1394.94 Q225.588 1398.49 229.199 1398.49 Q232.834 1398.49 234.639 1394.94 Q236.468 1391.38 236.468 1384.27 Q236.468 1377.14 234.639 1373.6 Q232.834 1370.04 229.199 1370.04 M229.199 1366.33 Q235.01 1366.33 238.065 1370.94 Q241.144 1375.52 241.144 1384.27 Q241.144 1393 238.065 1397.61 Q235.01 1402.19 229.199 1402.19 Q223.389 1402.19 220.311 1397.61 Q217.255 1393 217.255 1384.27 Q217.255 1375.52 220.311 1370.94 Q223.389 1366.33 229.199 1366.33 Z" fill="#000000" fill-rule="evenodd" fill-opacity="1" /><path clip-path="url(#clip590)" d="M 0 0 M256.213 1370.04 Q252.602 1370.04 250.773 1373.6 Q248.968 1377.14 248.968 1384.27 Q248.968 1391.38 250.773 1394.94 Q252.602 1398.49 256.213 1398.49 Q259.847 1398.49 261.653 1394.94 Q263.482 1391.38 263.482 1384.27 Q263.482 1377.14 261.653 1373.6 Q259.847 1370.04 256.213 1370.04 M256.213 1366.33 Q262.023 1366.33 265.079 1370.94 Q268.158 1375.52 268.158 1384.27 Q268.158 1393 265.079 1397.61 Q262.023 1402.19 256.213 1402.19 Q250.403 1402.19 247.324 1397.61 Q244.269 1393 244.269 1384.27 Q244.269 1375.52 247.324 1370.94 Q250.403 1366.33 256.213 1366.33 Z" fill="#000000" fill-rule="evenodd" fill-opacity="1" /><path clip-path="url(#clip590)" d="M 0 0 M283.227 1370.04 Q279.616 1370.04 277.787 1373.6 Q275.982 1377.14 275.982 1384.27 Q275.982 1391.38 277.787 1394.94 Q279.616 1398.49 283.227 1398.49 Q286.861 1398.49 288.667 1394.94 Q290.495 1391.38 290.495 1384.27 Q290.495 1377.14 288.667 1373.6 Q286.861 1370.04 283.227 1370.04 M283.227 1366.33 Q289.037 1366.33 292.093 1370.94 Q295.171 1375.52 295.171 1384.27 Q295.171 1393 292.093 1397.61 Q289.037 1402.19 283.227 1402.19 Q277.417 1402.19 274.338 1397.61 Q271.283 1393 271.283 1384.27 Q271.283 1375.52 274.338 1370.94 Q277.417 1366.33 283.227 1366.33 Z" fill="#000000" fill-rule="evenodd" fill-opacity="1" /><path clip-path="url(#clip590)" d="M 0 0 M139.2 975.628 Q135.589 975.628 133.76 979.193 Q131.955 982.734 131.955 989.864 Q131.955 996.97 133.76 1000.54 Q135.589 1004.08 139.2 1004.08 Q142.834 1004.08 144.64 1000.54 Q146.468 996.97 146.468 989.864 Q146.468 982.734 144.64 979.193 Q142.834 975.628 139.2 975.628 M139.2 971.924 Q145.01 971.924 148.066 976.531 Q151.144 981.114 151.144 989.864 Q151.144 998.591 148.066 1003.2 Q145.01 1007.78 139.2 1007.78 Q133.39 1007.78 130.311 1003.2 Q127.256 998.591 127.256 989.864 Q127.256 981.114 130.311 976.531 Q133.39 971.924 139.2 971.924 Z" fill="#000000" fill-rule="evenodd" fill-opacity="1" /><path clip-path="url(#clip590)" d="M 0 0 M156.214 1001.23 L161.098 1001.23 L161.098 1007.11 L156.214 1007.11 L156.214 1001.23 Z" fill="#000000" fill-rule="evenodd" fill-opacity="1" /><path clip-path="url(#clip590)" d="M 0 0 M176.167 975.628 Q172.556 975.628 170.728 979.193 Q168.922 982.734 168.922 989.864 Q168.922 996.97 170.728 1000.54 Q172.556 1004.08 176.167 1004.08 Q179.802 1004.08 181.607 1000.54 Q183.436 996.97 183.436 989.864 Q183.436 982.734 181.607 979.193 Q179.802 975.628 176.167 975.628 M176.167 971.924 Q181.977 971.924 185.033 976.531 Q188.112 981.114 188.112 989.864 Q188.112 998.591 185.033 1003.2 Q181.977 1007.78 176.167 1007.78 Q170.357 1007.78 167.278 1003.2 Q164.223 998.591 164.223 989.864 Q164.223 981.114 167.278 976.531 Q170.357 971.924 176.167 971.924 Z" fill="#000000" fill-rule="evenodd" fill-opacity="1" /><path clip-path="url(#clip590)" d="M 0 0 M203.181 975.628 Q199.57 975.628 197.741 979.193 Q195.936 982.734 195.936 989.864 Q195.936 996.97 197.741 1000.54 Q199.57 1004.08 203.181 1004.08 Q206.815 1004.08 208.621 1000.54 Q210.45 996.97 210.45 989.864 Q210.45 982.734 208.621 979.193 Q206.815 975.628 203.181 975.628 M203.181 971.924 Q208.991 971.924 212.047 976.531 Q215.125 981.114 215.125 989.864 Q215.125 998.591 212.047 1003.2 Q208.991 1007.78 203.181 1007.78 Q197.371 1007.78 194.292 1003.2 Q191.237 998.591 191.237 989.864 Q191.237 981.114 194.292 976.531 Q197.371 971.924 203.181 971.924 Z" fill="#000000" fill-rule="evenodd" fill-opacity="1" /><path clip-path="url(#clip590)" d="M 0 0 M230.195 975.628 Q226.584 975.628 224.755 979.193 Q222.949 982.734 222.949 989.864 Q222.949 996.97 224.755 1000.54 Q226.584 1004.08 230.195 1004.08 Q233.829 1004.08 235.635 1000.54 Q237.463 996.97 237.463 989.864 Q237.463 982.734 235.635 979.193 Q233.829 975.628 230.195 975.628 M230.195 971.924 Q236.005 971.924 239.06 976.531 Q242.139 981.114 242.139 989.864 Q242.139 998.591 239.06 1003.2 Q236.005 1007.78 230.195 1007.78 Q224.385 1007.78 221.306 1003.2 Q218.25 998.591 218.25 989.864 Q218.25 981.114 221.306 976.531 Q224.385 971.924 230.195 971.924 Z" fill="#000000" fill-rule="evenodd" fill-opacity="1" /><path clip-path="url(#clip590)" d="M 0 0 M257.209 975.628 Q253.597 975.628 251.769 979.193 Q249.963 982.734 249.963 989.864 Q249.963 996.97 251.769 1000.54 Q253.597 1004.08 257.209 1004.08 Q260.843 1004.08 262.648 1000.54 Q264.477 996.97 264.477 989.864 Q264.477 982.734 262.648 979.193 Q260.843 975.628 257.209 975.628 M257.209 971.924 Q263.019 971.924 266.074 976.531 Q269.153 981.114 269.153 989.864 Q269.153 998.591 266.074 1003.2 Q263.019 1007.78 257.209 1007.78 Q251.398 1007.78 248.32 1003.2 Q245.264 998.591 245.264 989.864 Q245.264 981.114 248.32 976.531 Q251.398 971.924 257.209 971.924 Z" fill="#000000" fill-rule="evenodd" fill-opacity="1" /><path clip-path="url(#clip590)" d="M 0 0 M274.269 972.549 L292.625 972.549 L292.625 976.484 L278.551 976.484 L278.551 984.956 Q279.57 984.609 280.588 984.447 Q281.607 984.262 282.625 984.262 Q288.412 984.262 291.792 987.433 Q295.171 990.605 295.171 996.021 Q295.171 1001.6 291.699 1004.7 Q288.227 1007.78 281.907 1007.78 Q279.732 1007.78 277.463 1007.41 Q275.218 1007.04 272.81 1006.3 L272.81 1001.6 Q274.894 1002.73 277.116 1003.29 Q279.338 1003.85 281.815 1003.85 Q285.819 1003.85 288.157 1001.74 Q290.495 999.632 290.495 996.021 Q290.495 992.41 288.157 990.304 Q285.819 988.197 281.815 988.197 Q279.94 988.197 278.065 988.614 Q276.213 989.03 274.269 989.91 L274.269 972.549 Z" fill="#000000" fill-rule="evenodd" fill-opacity="1" /><path clip-path="url(#clip590)" d="M 0 0 M139.431 581.219 Q135.82 581.219 133.992 584.783 Q132.186 588.325 132.186 595.455 Q132.186 602.561 133.992 606.126 Q135.82 609.668 139.431 609.668 Q143.066 609.668 144.871 606.126 Q146.7 602.561 146.7 595.455 Q146.7 588.325 144.871 584.783 Q143.066 581.219 139.431 581.219 M139.431 577.515 Q145.242 577.515 148.297 582.121 Q151.376 586.705 151.376 595.455 Q151.376 604.181 148.297 608.788 Q145.242 613.371 139.431 613.371 Q133.621 613.371 130.543 608.788 Q127.487 604.181 127.487 595.455 Q127.487 586.705 130.543 582.121 Q133.621 577.515 139.431 577.515 Z" fill="#000000" fill-rule="evenodd" fill-opacity="1" /><path clip-path="url(#clip590)" d="M 0 0 M156.445 606.82 L161.329 606.82 L161.329 612.7 L156.445 612.7 L156.445 606.82 Z" fill="#000000" fill-rule="evenodd" fill-opacity="1" /><path clip-path="url(#clip590)" d="M 0 0 M176.399 581.219 Q172.788 581.219 170.959 584.783 Q169.153 588.325 169.153 595.455 Q169.153 602.561 170.959 606.126 Q172.788 609.668 176.399 609.668 Q180.033 609.668 181.839 606.126 Q183.667 602.561 183.667 595.455 Q183.667 588.325 181.839 584.783 Q180.033 581.219 176.399 581.219 M176.399 577.515 Q182.209 577.515 185.264 582.121 Q188.343 586.705 188.343 595.455 Q188.343 604.181 185.264 608.788 Q182.209 613.371 176.399 613.371 Q170.589 613.371 167.51 608.788 Q164.454 604.181 164.454 595.455 Q164.454 586.705 167.51 582.121 Q170.589 577.515 176.399 577.515 Z" fill="#000000" fill-rule="evenodd" fill-opacity="1" /><path clip-path="url(#clip590)" d="M 0 0 M203.413 581.219 Q199.801 581.219 197.973 584.783 Q196.167 588.325 196.167 595.455 Q196.167 602.561 197.973 606.126 Q199.801 609.668 203.413 609.668 Q207.047 609.668 208.852 606.126 Q210.681 602.561 210.681 595.455 Q210.681 588.325 208.852 584.783 Q207.047 581.219 203.413 581.219 M203.413 577.515 Q209.223 577.515 212.278 582.121 Q215.357 586.705 215.357 595.455 Q215.357 604.181 212.278 608.788 Q209.223 613.371 203.413 613.371 Q197.602 613.371 194.524 608.788 Q191.468 604.181 191.468 595.455 Q191.468 586.705 194.524 582.121 Q197.602 577.515 203.413 577.515 Z" fill="#000000" fill-rule="evenodd" fill-opacity="1" /><path clip-path="url(#clip590)" d="M 0 0 M230.426 581.219 Q226.815 581.219 224.986 584.783 Q223.181 588.325 223.181 595.455 Q223.181 602.561 224.986 606.126 Q226.815 609.668 230.426 609.668 Q234.061 609.668 235.866 606.126 Q237.695 602.561 237.695 595.455 Q237.695 588.325 235.866 584.783 Q234.061 581.219 230.426 581.219 M230.426 577.515 Q236.236 577.515 239.292 582.121 Q242.371 586.705 242.371 595.455 Q242.371 604.181 239.292 608.788 Q236.236 613.371 230.426 613.371 Q224.616 613.371 221.537 608.788 Q218.482 604.181 218.482 595.455 Q218.482 586.705 221.537 582.121 Q224.616 577.515 230.426 577.515 Z" fill="#000000" fill-rule="evenodd" fill-opacity="1" /><path clip-path="url(#clip590)" d="M 0 0 M248.25 608.765 L255.889 608.765 L255.889 582.399 L247.579 584.066 L247.579 579.807 L255.843 578.14 L260.519 578.14 L260.519 608.765 L268.158 608.765 L268.158 612.7 L248.25 612.7 L248.25 608.765 Z" fill="#000000" fill-rule="evenodd" fill-opacity="1" /><path clip-path="url(#clip590)" d="M 0 0 M283.227 581.219 Q279.616 581.219 277.787 584.783 Q275.982 588.325 275.982 595.455 Q275.982 602.561 277.787 606.126 Q279.616 609.668 283.227 609.668 Q286.861 609.668 288.667 606.126 Q290.495 602.561 290.495 595.455 Q290.495 588.325 288.667 584.783 Q286.861 581.219 283.227 581.219 M283.227 577.515 Q289.037 577.515 292.093 582.121 Q295.171 586.705 295.171 595.455 Q295.171 604.181 292.093 608.788 Q289.037 613.371 283.227 613.371 Q277.417 613.371 274.338 608.788 Q271.283 604.181 271.283 595.455 Q271.283 586.705 274.338 582.121 Q277.417 577.515 283.227 577.515 Z" fill="#000000" fill-rule="evenodd" fill-opacity="1" /><path clip-path="url(#clip590)" d="M 0 0 M140.427 186.809 Q136.816 186.809 134.987 190.374 Q133.181 193.916 133.181 201.045 Q133.181 208.152 134.987 211.717 Q136.816 215.258 140.427 215.258 Q144.061 215.258 145.867 211.717 Q147.695 208.152 147.695 201.045 Q147.695 193.916 145.867 190.374 Q144.061 186.809 140.427 186.809 M140.427 183.106 Q146.237 183.106 149.292 187.712 Q152.371 192.295 152.371 201.045 Q152.371 209.772 149.292 214.379 Q146.237 218.962 140.427 218.962 Q134.617 218.962 131.538 214.379 Q128.482 209.772 128.482 201.045 Q128.482 192.295 131.538 187.712 Q134.617 183.106 140.427 183.106 Z" fill="#000000" fill-rule="evenodd" fill-opacity="1" /><path clip-path="url(#clip590)" d="M 0 0 M157.441 212.411 L162.325 212.411 L162.325 218.291 L157.441 218.291 L157.441 212.411 Z" fill="#000000" fill-rule="evenodd" fill-opacity="1" /><path clip-path="url(#clip590)" d="M 0 0 M177.394 186.809 Q173.783 186.809 171.954 190.374 Q170.149 193.916 170.149 201.045 Q170.149 208.152 171.954 211.717 Q173.783 215.258 177.394 215.258 Q181.028 215.258 182.834 211.717 Q184.663 208.152 184.663 201.045 Q184.663 193.916 182.834 190.374 Q181.028 186.809 177.394 186.809 M177.394 183.106 Q183.204 183.106 186.26 187.712 Q189.339 192.295 189.339 201.045 Q189.339 209.772 186.26 214.379 Q183.204 218.962 177.394 218.962 Q171.584 218.962 168.505 214.379 Q165.45 209.772 165.45 201.045 Q165.45 192.295 168.505 187.712 Q171.584 183.106 177.394 183.106 Z" fill="#000000" fill-rule="evenodd" fill-opacity="1" /><path clip-path="url(#clip590)" d="M 0 0 M204.408 186.809 Q200.797 186.809 198.968 190.374 Q197.163 193.916 197.163 201.045 Q197.163 208.152 198.968 211.717 Q200.797 215.258 204.408 215.258 Q208.042 215.258 209.848 211.717 Q211.676 208.152 211.676 201.045 Q211.676 193.916 209.848 190.374 Q208.042 186.809 204.408 186.809 M204.408 183.106 Q210.218 183.106 213.274 187.712 Q216.352 192.295 216.352 201.045 Q216.352 209.772 213.274 214.379 Q210.218 218.962 204.408 218.962 Q198.598 218.962 195.519 214.379 Q192.464 209.772 192.464 201.045 Q192.464 192.295 195.519 187.712 Q198.598 183.106 204.408 183.106 Z" fill="#000000" fill-rule="evenodd" fill-opacity="1" /><path clip-path="url(#clip590)" d="M 0 0 M231.422 186.809 Q227.811 186.809 225.982 190.374 Q224.176 193.916 224.176 201.045 Q224.176 208.152 225.982 211.717 Q227.811 215.258 231.422 215.258 Q235.056 215.258 236.861 211.717 Q238.69 208.152 238.69 201.045 Q238.69 193.916 236.861 190.374 Q235.056 186.809 231.422 186.809 M231.422 183.106 Q237.232 183.106 240.287 187.712 Q243.366 192.295 243.366 201.045 Q243.366 209.772 240.287 214.379 Q237.232 218.962 231.422 218.962 Q225.611 218.962 222.533 214.379 Q219.477 209.772 219.477 201.045 Q219.477 192.295 222.533 187.712 Q225.611 183.106 231.422 183.106 Z" fill="#000000" fill-rule="evenodd" fill-opacity="1" /><path clip-path="url(#clip590)" d="M 0 0 M249.246 214.356 L256.884 214.356 L256.884 187.99 L248.574 189.657 L248.574 185.397 L256.838 183.731 L261.514 183.731 L261.514 214.356 L269.153 214.356 L269.153 218.291 L249.246 218.291 L249.246 214.356 Z" fill="#000000" fill-rule="evenodd" fill-opacity="1" /><path clip-path="url(#clip590)" d="M 0 0 M274.269 183.731 L292.625 183.731 L292.625 187.666 L278.551 187.666 L278.551 196.138 Q279.57 195.791 280.588 195.629 Q281.607 195.444 282.625 195.444 Q288.412 195.444 291.792 198.615 Q295.171 201.786 295.171 207.203 Q295.171 212.781 291.699 215.883 Q288.227 218.962 281.907 218.962 Q279.732 218.962 277.463 218.592 Q275.218 218.221 272.81 217.481 L272.81 212.781 Q274.894 213.916 277.116 214.471 Q279.338 215.027 281.815 215.027 Q285.819 215.027 288.157 212.92 Q290.495 210.814 290.495 207.203 Q290.495 203.592 288.157 201.485 Q285.819 199.379 281.815 199.379 Q279.94 199.379 278.065 199.795 Q276.213 200.212 274.269 201.092 L274.269 183.731 Z" fill="#000000" fill-rule="evenodd" fill-opacity="1" /><path clip-path="url(#clip590)" d="M 0 0 M1137.7 1538.25 Q1137.7 1544.71 1140.35 1548.4 Q1143.02 1552.07 1147.67 1552.07 Q1152.31 1552.07 1154.99 1548.4 Q1157.66 1544.71 1157.66 1538.25 Q1157.66 1531.79 1154.99 1528.13 Q1152.31 1524.44 1147.67 1524.44 Q1143.02 1524.44 1140.35 1528.13 Q1137.7 1531.79 1137.7 1538.25 M1157.66 1550.7 Q1155.81 1553.88 1152.98 1555.44 Q1150.18 1556.97 1146.23 1556.97 Q1139.77 1556.97 1135.7 1551.81 Q1131.66 1546.65 1131.66 1538.25 Q1131.66 1529.85 1135.7 1524.69 Q1139.77 1519.54 1146.23 1519.54 Q1150.18 1519.54 1152.98 1521.1 Q1155.81 1522.62 1157.66 1525.81 L1157.66 1520.4 L1163.52 1520.4 L1163.52 1569.6 L1157.66 1569.6 L1157.66 1550.7 Z" fill="#000000" fill-rule="evenodd" fill-opacity="1" /><path clip-path="url(#clip590)" d="M 0 0 M1196.75 1566.87 L1196.75 1571.42 L1162.88 1571.42 L1162.88 1566.87 L1196.75 1566.87 Z" fill="#000000" fill-rule="evenodd" fill-opacity="1" /><path clip-path="url(#clip590)" d="M 0 0 M1225.61 1521.45 L1225.61 1526.98 Q1223.13 1525.71 1220.46 1525.07 Q1217.78 1524.44 1214.92 1524.44 Q1210.56 1524.44 1208.36 1525.77 Q1206.2 1527.11 1206.2 1529.79 Q1206.2 1531.82 1207.76 1533 Q1209.32 1534.15 1214.03 1535.2 L1216.03 1535.64 Q1222.27 1536.98 1224.88 1539.43 Q1227.52 1541.85 1227.52 1546.21 Q1227.52 1551.17 1223.58 1554.07 Q1219.66 1556.97 1212.79 1556.97 Q1209.92 1556.97 1206.8 1556.39 Q1203.72 1555.85 1200.28 1554.74 L1200.28 1548.69 Q1203.53 1550.38 1206.68 1551.24 Q1209.83 1552.07 1212.91 1552.07 Q1217.05 1552.07 1219.28 1550.66 Q1221.51 1549.23 1221.51 1546.65 Q1221.51 1544.27 1219.88 1542.99 Q1218.29 1541.72 1212.85 1540.54 L1210.81 1540.07 Q1205.37 1538.92 1202.95 1536.56 Q1200.53 1534.18 1200.53 1530.04 Q1200.53 1525.01 1204.1 1522.27 Q1207.66 1519.54 1214.22 1519.54 Q1217.47 1519.54 1220.33 1520.01 Q1223.2 1520.49 1225.61 1521.45 Z" fill="#000000" fill-rule="evenodd" fill-opacity="1" /><path clip-path="url(#clip590)" d="M 0 0 M1263.3 1534.53 L1263.3 1556.04 L1257.44 1556.04 L1257.44 1534.72 Q1257.44 1529.66 1255.47 1527.14 Q1253.5 1524.63 1249.55 1524.63 Q1244.81 1524.63 1242.07 1527.65 Q1239.33 1530.68 1239.33 1535.9 L1239.33 1556.04 L1233.44 1556.04 L1233.44 1520.4 L1239.33 1520.4 L1239.33 1525.93 Q1241.43 1522.72 1244.27 1521.13 Q1247.13 1519.54 1250.85 1519.54 Q1257 1519.54 1260.15 1523.36 Q1263.3 1527.14 1263.3 1534.53 Z" fill="#000000" fill-rule="evenodd" fill-opacity="1" /><path clip-path="url(#clip590)" d="M 0 0 M1283.26 1524.5 Q1278.54 1524.5 1275.81 1528.19 Q1273.07 1531.85 1273.07 1538.25 Q1273.07 1544.65 1275.78 1548.34 Q1278.51 1552 1283.26 1552 Q1287.93 1552 1290.67 1548.31 Q1293.41 1544.62 1293.41 1538.25 Q1293.41 1531.92 1290.67 1528.23 Q1287.93 1524.5 1283.26 1524.5 M1283.26 1519.54 Q1290.89 1519.54 1295.25 1524.5 Q1299.62 1529.47 1299.62 1538.25 Q1299.62 1547 1295.25 1552 Q1290.89 1556.97 1283.26 1556.97 Q1275.58 1556.97 1271.22 1552 Q1266.9 1547 1266.9 1538.25 Q1266.9 1529.47 1271.22 1524.5 Q1275.58 1519.54 1283.26 1519.54 Z" fill="#000000" fill-rule="evenodd" fill-opacity="1" /><path clip-path="url(#clip590)" d="M 0 0 M1302.35 1520.4 L1308.21 1520.4 L1315.53 1548.21 L1322.82 1520.4 L1329.73 1520.4 L1337.05 1548.21 L1344.33 1520.4 L1350.19 1520.4 L1340.87 1556.04 L1333.96 1556.04 L1326.29 1526.83 L1318.59 1556.04 L1311.68 1556.04 L1302.35 1520.4 Z" fill="#000000" fill-rule="evenodd" fill-opacity="1" /><path clip-path="url(#clip590)" d="M 0 0 M1376.51 1506.52 L1390.01 1506.52 L1390.01 1511.07 L1382.37 1511.07 L1382.37 1560.09 L1390.01 1560.09 L1390.01 1564.64 L1376.51 1564.64 L1376.51 1506.52 Z" fill="#000000" fill-rule="evenodd" fill-opacity="1" /><path clip-path="url(#clip590)" d="M 0 0 M1419.61 1537.81 Q1419.61 1531.44 1416.97 1527.94 Q1414.36 1524.44 1409.61 1524.44 Q1404.9 1524.44 1402.26 1527.94 Q1399.65 1531.44 1399.65 1537.81 Q1399.65 1544.14 1402.26 1547.64 Q1404.9 1551.14 1409.61 1551.14 Q1414.36 1551.14 1416.97 1547.64 Q1419.61 1544.14 1419.61 1537.81 M1425.47 1551.62 Q1425.47 1560.72 1421.42 1565.15 Q1417.38 1569.6 1409.04 1569.6 Q1405.95 1569.6 1403.22 1569.13 Q1400.48 1568.68 1397.9 1567.72 L1397.9 1562.03 Q1400.48 1563.43 1402.99 1564.1 Q1405.51 1564.76 1408.12 1564.76 Q1413.88 1564.76 1416.74 1561.74 Q1419.61 1558.75 1419.61 1552.67 L1419.61 1549.77 Q1417.79 1552.92 1414.96 1554.48 Q1412.13 1556.04 1408.18 1556.04 Q1401.63 1556.04 1397.62 1551.05 Q1393.61 1546.05 1393.61 1537.81 Q1393.61 1529.53 1397.62 1524.53 Q1401.63 1519.54 1408.18 1519.54 Q1412.13 1519.54 1414.96 1521.1 Q1417.79 1522.66 1419.61 1525.81 L1419.61 1520.4 L1425.47 1520.4 L1425.47 1551.62 Z" fill="#000000" fill-rule="evenodd" fill-opacity="1" /><path clip-path="url(#clip590)" d="M 0 0 M1442.02 1508.52 L1447.43 1508.52 L1430.88 1562.09 L1425.47 1562.09 L1442.02 1508.52 Z" fill="#000000" fill-rule="evenodd" fill-opacity="1" /><path clip-path="url(#clip590)" d="M 0 0 M1453.35 1506.52 L1459.24 1506.52 L1459.24 1535.77 L1476.71 1520.4 L1484.19 1520.4 L1465.28 1537.07 L1484.98 1556.04 L1477.35 1556.04 L1459.24 1538.63 L1459.24 1556.04 L1453.35 1556.04 L1453.35 1506.52 Z" fill="#000000" fill-rule="evenodd" fill-opacity="1" /><path clip-path="url(#clip590)" d="M 0 0 M1514.59 1537.81 Q1514.59 1531.44 1511.94 1527.94 Q1509.33 1524.44 1504.59 1524.44 Q1499.88 1524.44 1497.24 1527.94 Q1494.63 1531.44 1494.63 1537.81 Q1494.63 1544.14 1497.24 1547.64 Q1499.88 1551.14 1504.59 1551.14 Q1509.33 1551.14 1511.94 1547.64 Q1514.59 1544.14 1514.59 1537.81 M1520.44 1551.62 Q1520.44 1560.72 1516.4 1565.15 Q1512.36 1569.6 1504.02 1569.6 Q1500.93 1569.6 1498.19 1569.13 Q1495.46 1568.68 1492.88 1567.72 L1492.88 1562.03 Q1495.46 1563.43 1497.97 1564.1 Q1500.49 1564.76 1503.1 1564.76 Q1508.86 1564.76 1511.72 1561.74 Q1514.59 1558.75 1514.59 1552.67 L1514.59 1549.77 Q1512.77 1552.92 1509.94 1554.48 Q1507.11 1556.04 1503.16 1556.04 Q1496.6 1556.04 1492.59 1551.05 Q1488.58 1546.05 1488.58 1537.81 Q1488.58 1529.53 1492.59 1524.53 Q1496.6 1519.54 1503.16 1519.54 Q1507.11 1519.54 1509.94 1521.1 Q1512.77 1522.66 1514.59 1525.81 L1514.59 1520.4 L1520.44 1520.4 L1520.44 1551.62 Z" fill="#000000" fill-rule="evenodd" fill-opacity="1" /><path clip-path="url(#clip590)" d="M 0 0 M1540.27 1506.52 L1540.27 1564.64 L1526.78 1564.64 L1526.78 1560.09 L1534.38 1560.09 L1534.38 1511.07 L1526.78 1511.07 L1526.78 1506.52 L1540.27 1506.52 Z" fill="#000000" fill-rule="evenodd" fill-opacity="1" /><path clip-path="url(#clip590)" d="M 0 0 M53.4065 1211.32 L58.9447 1211.32 Q57.6716 1213.8 57.035 1216.48 Q56.3984 1219.15 56.3984 1222.01 Q56.3984 1226.37 57.7352 1228.57 Q59.072 1230.73 61.7456 1230.73 Q63.7826 1230.73 64.9603 1229.17 Q66.1061 1227.62 67.1565 1222.9 L67.6021 1220.9 Q68.9389 1214.66 71.3897 1212.05 Q73.8086 1209.41 78.1691 1209.41 Q83.1344 1209.41 86.0308 1213.36 Q88.9272 1217.27 88.9272 1224.15 Q88.9272 1227.01 88.3543 1230.13 Q87.8132 1233.22 86.6992 1236.65 L80.6518 1236.65 Q82.3387 1233.41 83.198 1230.26 Q84.0256 1227.11 84.0256 1224.02 Q84.0256 1219.88 82.6251 1217.65 Q81.1929 1215.42 78.6147 1215.42 Q76.2276 1215.42 74.9545 1217.05 Q73.6813 1218.64 72.5037 1224.08 L72.0262 1226.12 Q70.8804 1231.56 68.5251 1233.98 Q66.138 1236.4 62.0002 1236.4 Q56.9713 1236.4 54.2341 1232.84 Q51.4968 1229.27 51.4968 1222.71 Q51.4968 1219.47 51.9743 1216.6 Q52.4517 1213.74 53.4065 1211.32 Z" fill="#000000" fill-rule="evenodd" fill-opacity="1" /><path clip-path="url(#clip590)" d="M 0 0 M66.4881 1173.63 L88.0042 1173.63 L88.0042 1179.49 L66.679 1179.49 Q61.6183 1179.49 59.1038 1181.46 Q56.5894 1183.44 56.5894 1187.38 Q56.5894 1192.13 59.6131 1194.86 Q62.6368 1197.6 67.8567 1197.6 L88.0042 1197.6 L88.0042 1203.49 L52.3562 1203.49 L52.3562 1197.6 L57.8944 1197.6 Q54.6797 1195.5 53.0883 1192.67 Q51.4968 1189.8 51.4968 1186.08 Q51.4968 1179.94 55.3163 1176.79 Q59.1038 1173.63 66.4881 1173.63 Z" fill="#000000" fill-rule="evenodd" fill-opacity="1" /><path clip-path="url(#clip590)" d="M 0 0 M56.4621 1153.68 Q56.4621 1158.39 60.1542 1161.13 Q63.8145 1163.86 70.212 1163.86 Q76.6095 1163.86 80.3017 1161.16 Q83.9619 1158.42 83.9619 1153.68 Q83.9619 1149 80.2698 1146.26 Q76.5777 1143.52 70.212 1143.52 Q63.8781 1143.52 60.186 1146.26 Q56.4621 1149 56.4621 1153.68 M51.4968 1153.68 Q51.4968 1146.04 56.4621 1141.68 Q61.4273 1137.32 70.212 1137.32 Q78.9649 1137.32 83.9619 1141.68 Q88.9272 1146.04 88.9272 1153.68 Q88.9272 1161.35 83.9619 1165.71 Q78.9649 1170.04 70.212 1170.04 Q61.4273 1170.04 56.4621 1165.71 Q51.4968 1161.35 51.4968 1153.68 Z" fill="#000000" fill-rule="evenodd" fill-opacity="1" /><path clip-path="url(#clip590)" d="M 0 0 M52.3562 1134.58 L52.3562 1128.72 L80.1743 1121.4 L52.3562 1114.11 L52.3562 1107.21 L80.1743 1099.89 L52.3562 1092.6 L52.3562 1086.74 L88.0042 1096.07 L88.0042 1102.97 L58.7856 1110.65 L88.0042 1118.35 L88.0042 1125.25 L52.3562 1134.58 Z" fill="#000000" fill-rule="evenodd" fill-opacity="1" /><path clip-path="url(#clip590)" d="M 0 0 M67.5384 1083.56 L67.5384 1066.4 L72.7583 1066.4 L72.7583 1083.56 L67.5384 1083.56 Z" fill="#000000" fill-rule="evenodd" fill-opacity="1" /><path clip-path="url(#clip590)" d="M 0 0 M57.8307 1039.6 Q57.2578 1040.59 57.0032 1041.77 Q56.7167 1042.91 56.7167 1044.31 Q56.7167 1049.28 59.9632 1051.95 Q63.1779 1054.6 69.2253 1054.6 L88.0042 1054.6 L88.0042 1060.48 L52.3562 1060.48 L52.3562 1054.6 L57.8944 1054.6 Q54.6479 1052.75 53.0883 1049.79 Q51.4968 1046.83 51.4968 1042.6 Q51.4968 1041.99 51.5923 1041.26 Q51.656 1040.53 51.8151 1039.64 L57.8307 1039.6 Z" fill="#000000" fill-rule="evenodd" fill-opacity="1" /><path clip-path="url(#clip590)" d="M 0 0 M70.0847 1017.26 Q70.0847 1024.36 71.7079 1027.1 Q73.3312 1029.83 77.2461 1029.83 Q80.3653 1029.83 82.2114 1027.8 Q84.0256 1025.73 84.0256 1022.19 Q84.0256 1017.32 80.5881 1014.4 Q77.1188 1011.44 71.3897 1011.44 L70.0847 1011.44 L70.0847 1017.26 M67.6657 1005.58 L88.0042 1005.58 L88.0042 1011.44 L82.5933 1011.44 Q85.8398 1013.44 87.3994 1016.43 Q88.9272 1019.42 88.9272 1023.75 Q88.9272 1029.23 85.8716 1032.47 Q82.7843 1035.69 77.6281 1035.69 Q71.6125 1035.69 68.5569 1031.68 Q65.5014 1027.64 65.5014 1019.65 L65.5014 1011.44 L64.9285 1011.44 Q60.8862 1011.44 58.6901 1014.11 Q56.4621 1016.75 56.4621 1021.56 Q56.4621 1024.61 57.1941 1027.51 Q57.9262 1030.41 59.3903 1033.08 L53.9795 1033.08 Q52.7381 1029.86 52.1334 1026.84 Q51.4968 1023.82 51.4968 1020.95 Q51.4968 1013.22 55.5072 1009.4 Q59.5176 1005.58 67.6657 1005.58 Z" fill="#000000" fill-rule="evenodd" fill-opacity="1" /><path clip-path="url(#clip590)" d="M 0 0 M52.3562 999.437 L52.3562 993.58 L88.0042 993.58 L88.0042 999.437 L52.3562 999.437 M38.479 999.437 L38.479 993.58 L45.895 993.58 L45.895 999.437 L38.479 999.437 Z" fill="#000000" fill-rule="evenodd" fill-opacity="1" /><path clip-path="url(#clip590)" d="M 0 0 M66.4881 957.805 L88.0042 957.805 L88.0042 963.661 L66.679 963.661 Q61.6183 963.661 59.1038 965.635 Q56.5894 967.608 56.5894 971.555 Q56.5894 976.297 59.6131 979.034 Q62.6368 981.772 67.8567 981.772 L88.0042 981.772 L88.0042 987.66 L52.3562 987.66 L52.3562 981.772 L57.8944 981.772 Q54.6797 979.671 53.0883 976.838 Q51.4968 973.974 51.4968 970.25 Q51.4968 964.107 55.3163 960.956 Q59.1038 957.805 66.4881 957.805 Z" fill="#000000" fill-rule="evenodd" fill-opacity="1" /><path clip-path="url(#clip590)" d="M 0 0 M70.0847 914.741 Q70.0847 921.839 71.7079 924.576 Q73.3312 927.313 77.2461 927.313 Q80.3653 927.313 82.2114 925.276 Q84.0256 923.207 84.0256 919.674 Q84.0256 914.804 80.5881 911.876 Q77.1188 908.916 71.3897 908.916 L70.0847 908.916 L70.0847 914.741 M67.6657 903.06 L88.0042 903.06 L88.0042 908.916 L82.5933 908.916 Q85.8398 910.921 87.3994 913.913 Q88.9272 916.905 88.9272 921.234 Q88.9272 926.708 85.8716 929.955 Q82.7843 933.17 77.6281 933.17 Q71.6125 933.17 68.5569 929.159 Q65.5014 925.117 65.5014 917.128 L65.5014 908.916 L64.9285 908.916 Q60.8862 908.916 58.6901 911.59 Q56.4621 914.232 56.4621 919.038 Q56.4621 922.093 57.1941 924.99 Q57.9262 927.886 59.3903 930.56 L53.9795 930.56 Q52.7381 927.345 52.1334 924.321 Q51.4968 921.297 51.4968 918.433 Q51.4968 910.699 55.5072 906.879 Q59.5176 903.06 67.6657 903.06 Z" fill="#000000" fill-rule="evenodd" fill-opacity="1" /><path clip-path="url(#clip590)" d="M 0 0 M53.7248 871.263 L59.1993 871.263 Q57.8307 873.746 57.1623 876.26 Q56.4621 878.743 56.4621 881.289 Q56.4621 886.986 60.0905 890.137 Q63.6872 893.288 70.212 893.288 Q76.7369 893.288 80.3653 890.137 Q83.9619 886.986 83.9619 881.289 Q83.9619 878.743 83.2935 876.26 Q82.5933 873.746 81.2247 871.263 L86.6355 871.263 Q87.7814 873.714 88.3543 876.356 Q88.9272 878.966 88.9272 881.926 Q88.9272 889.978 83.8664 894.721 Q78.8057 899.463 70.212 899.463 Q61.491 899.463 56.4939 894.689 Q51.4968 889.883 51.4968 881.544 Q51.4968 878.838 52.0697 876.26 Q52.6108 873.682 53.7248 871.263 Z" fill="#000000" fill-rule="evenodd" fill-opacity="1" /><path clip-path="url(#clip590)" d="M 0 0 M53.7248 839.466 L59.1993 839.466 Q57.8307 841.949 57.1623 844.463 Q56.4621 846.946 56.4621 849.492 Q56.4621 855.19 60.0905 858.341 Q63.6872 861.492 70.212 861.492 Q76.7369 861.492 80.3653 858.341 Q83.9619 855.19 83.9619 849.492 Q83.9619 846.946 83.2935 844.463 Q82.5933 841.949 81.2247 839.466 L86.6355 839.466 Q87.7814 841.917 88.3543 844.559 Q88.9272 847.169 88.9272 850.129 Q88.9272 858.182 83.8664 862.924 Q78.8057 867.666 70.212 867.666 Q61.491 867.666 56.4939 862.892 Q51.4968 858.086 51.4968 849.747 Q51.4968 847.042 52.0697 844.463 Q52.6108 841.885 53.7248 839.466 Z" fill="#000000" fill-rule="evenodd" fill-opacity="1" /><path clip-path="url(#clip590)" d="M 0 0 M57.8307 812.667 Q57.2578 813.653 57.0032 814.831 Q56.7167 815.977 56.7167 817.377 Q56.7167 822.343 59.9632 825.016 Q63.1779 827.658 69.2253 827.658 L88.0042 827.658 L88.0042 833.546 L52.3562 833.546 L52.3562 827.658 L57.8944 827.658 Q54.6479 825.812 53.0883 822.852 Q51.4968 819.892 51.4968 815.659 Q51.4968 815.054 51.5923 814.322 Q51.656 813.59 51.8151 812.699 L57.8307 812.667 Z" fill="#000000" fill-rule="evenodd" fill-opacity="1" /><path clip-path="url(#clip590)" d="M 0 0 M68.7161 777.464 L71.5806 777.464 L71.5806 804.391 Q77.6281 804.009 80.8109 800.763 Q83.9619 797.484 83.9619 791.66 Q83.9619 788.286 83.1344 785.135 Q82.3069 781.952 80.6518 778.833 L86.1899 778.833 Q87.5267 781.984 88.227 785.294 Q88.9272 788.604 88.9272 792.01 Q88.9272 800.54 83.9619 805.537 Q78.9967 810.502 70.5303 810.502 Q61.7774 810.502 56.6531 805.792 Q51.4968 801.049 51.4968 793.028 Q51.4968 785.835 56.1438 781.666 Q60.7589 777.464 68.7161 777.464 M66.9973 783.321 Q62.1912 783.384 59.3266 786.026 Q56.4621 788.636 56.4621 792.965 Q56.4621 797.866 59.2312 800.826 Q62.0002 803.755 67.0292 804.2 L66.9973 783.321 Z" fill="#000000" fill-rule="evenodd" fill-opacity="1" /><path clip-path="url(#clip590)" d="M 0 0 M42.2347 765.529 L52.3562 765.529 L52.3562 753.466 L56.9077 753.466 L56.9077 765.529 L76.2594 765.529 Q80.6199 765.529 81.8613 764.351 Q83.1026 763.142 83.1026 759.481 L83.1026 753.466 L88.0042 753.466 L88.0042 759.481 Q88.0042 766.261 85.4897 768.839 Q82.9434 771.417 76.2594 771.417 L56.9077 771.417 L56.9077 775.714 L52.3562 775.714 L52.3562 771.417 L42.2347 771.417 L42.2347 765.529 Z" fill="#000000" fill-rule="evenodd" fill-opacity="1" /><path clip-path="url(#clip590)" d="M 0 0 M52.3562 747.323 L52.3562 741.466 L88.0042 741.466 L88.0042 747.323 L52.3562 747.323 M38.479 747.323 L38.479 741.466 L45.895 741.466 L45.895 747.323 L38.479 747.323 Z" fill="#000000" fill-rule="evenodd" fill-opacity="1" /><path clip-path="url(#clip590)" d="M 0 0 M56.4621 721.51 Q56.4621 726.22 60.1542 728.958 Q63.8145 731.695 70.212 731.695 Q76.6095 731.695 80.3017 728.989 Q83.9619 726.252 83.9619 721.51 Q83.9619 716.831 80.2698 714.094 Q76.5777 711.356 70.212 711.356 Q63.8781 711.356 60.186 714.094 Q56.4621 716.831 56.4621 721.51 M51.4968 721.51 Q51.4968 713.871 56.4621 709.51 Q61.4273 705.15 70.212 705.15 Q78.9649 705.15 83.9619 709.51 Q88.9272 713.871 88.9272 721.51 Q88.9272 729.18 83.9619 733.541 Q78.9649 737.87 70.212 737.87 Q61.4273 737.87 56.4621 733.541 Q51.4968 729.18 51.4968 721.51 Z" fill="#000000" fill-rule="evenodd" fill-opacity="1" /><path clip-path="url(#clip590)" d="M 0 0 M66.4881 669.375 L88.0042 669.375 L88.0042 675.231 L66.679 675.231 Q61.6183 675.231 59.1038 677.204 Q56.5894 679.178 56.5894 683.125 Q56.5894 687.867 59.6131 690.604 Q62.6368 693.342 67.8567 693.342 L88.0042 693.342 L88.0042 699.23 L52.3562 699.23 L52.3562 693.342 L57.8944 693.342 Q54.6797 691.241 53.0883 688.408 Q51.4968 685.544 51.4968 681.82 Q51.4968 675.677 55.3163 672.526 Q59.1038 669.375 66.4881 669.375 Z" fill="#000000" fill-rule="evenodd" fill-opacity="1" /><path clip-path="url(#clip590)" d="M 0 0 M57.8307 621.855 Q57.2578 622.841 57.0032 624.019 Q56.7167 625.165 56.7167 626.565 Q56.7167 631.531 59.9632 634.204 Q63.1779 636.846 69.2253 636.846 L88.0042 636.846 L88.0042 642.734 L52.3562 642.734 L52.3562 636.846 L57.8944 636.846 Q54.6479 635 53.0883 632.04 Q51.4968 629.08 51.4968 624.847 Q51.4968 624.242 51.5923 623.51 Q51.656 622.778 51.8151 621.886 L57.8307 621.855 Z" fill="#000000" fill-rule="evenodd" fill-opacity="1" /><path clip-path="url(#clip590)" d="M 0 0 M70.0847 599.511 Q70.0847 606.609 71.7079 609.346 Q73.3312 612.083 77.2461 612.083 Q80.3653 612.083 82.2114 610.046 Q84.0256 607.977 84.0256 604.444 Q84.0256 599.575 80.5881 596.646 Q77.1188 593.686 71.3897 593.686 L70.0847 593.686 L70.0847 599.511 M67.6657 587.83 L88.0042 587.83 L88.0042 593.686 L82.5933 593.686 Q85.8398 595.692 87.3994 598.683 Q88.9272 601.675 88.9272 606.004 Q88.9272 611.479 85.8716 614.725 Q82.7843 617.94 77.6281 617.94 Q71.6125 617.94 68.5569 613.929 Q65.5014 609.887 65.5014 601.898 L65.5014 593.686 L64.9285 593.686 Q60.8862 593.686 58.6901 596.36 Q56.4621 599.002 56.4621 603.808 Q56.4621 606.863 57.1941 609.76 Q57.9262 612.656 59.3903 615.33 L53.9795 615.33 Q52.7381 612.115 52.1334 609.091 Q51.4968 606.068 51.4968 603.203 Q51.4968 595.469 55.5072 591.649 Q59.5176 587.83 67.6657 587.83 Z" fill="#000000" fill-rule="evenodd" fill-opacity="1" /><path clip-path="url(#clip590)" d="M 0 0 M42.2347 575.894 L52.3562 575.894 L52.3562 563.831 L56.9077 563.831 L56.9077 575.894 L76.2594 575.894 Q80.6199 575.894 81.8613 574.717 Q83.1026 573.507 83.1026 569.847 L83.1026 563.831 L88.0042 563.831 L88.0042 569.847 Q88.0042 576.626 85.4897 579.204 Q82.9434 581.783 76.2594 581.783 L56.9077 581.783 L56.9077 586.079 L52.3562 586.079 L52.3562 581.783 L42.2347 581.783 L42.2347 575.894 Z" fill="#000000" fill-rule="evenodd" fill-opacity="1" /><path clip-path="url(#clip590)" d="M 0 0 M68.7161 527.197 L71.5806 527.197 L71.5806 554.124 Q77.6281 553.742 80.8109 550.495 Q83.9619 547.217 83.9619 541.392 Q83.9619 538.018 83.1344 534.867 Q82.3069 531.684 80.6518 528.565 L86.1899 528.565 Q87.5267 531.716 88.227 535.026 Q88.9272 538.337 88.9272 541.742 Q88.9272 550.272 83.9619 555.269 Q78.9967 560.235 70.5303 560.235 Q61.7774 560.235 56.6531 555.524 Q51.4968 550.782 51.4968 542.761 Q51.4968 535.567 56.1438 531.398 Q60.7589 527.197 68.7161 527.197 M66.9973 533.053 Q62.1912 533.117 59.3266 535.758 Q56.4621 538.368 56.4621 542.697 Q56.4621 547.599 59.2312 550.559 Q62.0002 553.487 67.0292 553.933 L66.9973 533.053 Z" fill="#000000" fill-rule="evenodd" fill-opacity="1" /><path clip-path="url(#clip590)" d="M 0 0 M38.479 500.874 L38.479 487.379 L43.0304 487.379 L43.0304 495.018 L92.0464 495.018 L92.0464 487.379 L96.5979 487.379 L96.5979 500.874 L38.479 500.874 Z" fill="#000000" fill-rule="evenodd" fill-opacity="1" /><path clip-path="url(#clip590)" d="M 0 0 M82.5933 479.295 L82.5933 468.791 L46.3406 468.791 L48.6323 480.218 L42.7758 480.218 L40.4842 468.855 L40.4842 462.426 L82.5933 462.426 L82.5933 451.922 L88.0042 451.922 L88.0042 479.295 L82.5933 479.295 Z" fill="#000000" fill-rule="evenodd" fill-opacity="1" /><path clip-path="url(#clip590)" d="M 0 0 M40.4842 435.371 L40.4842 429.96 L94.0516 446.511 L94.0516 451.922 L40.4842 435.371 Z" fill="#000000" fill-rule="evenodd" fill-opacity="1" /><path clip-path="url(#clip590)" d="M 0 0 M53.4065 401.092 L58.9447 401.092 Q57.6716 403.575 57.035 406.248 Q56.3984 408.922 56.3984 411.786 Q56.3984 416.147 57.7352 418.343 Q59.072 420.507 61.7456 420.507 Q63.7826 420.507 64.9603 418.948 Q66.1061 417.388 67.1565 412.678 L67.6021 410.672 Q68.9389 404.434 71.3897 401.824 Q73.8086 399.182 78.1691 399.182 Q83.1344 399.182 86.0308 403.129 Q88.9272 407.044 88.9272 413.919 Q88.9272 416.783 88.3543 419.903 Q87.8132 422.99 86.6992 426.427 L80.6518 426.427 Q82.3387 423.181 83.198 420.03 Q84.0256 416.879 84.0256 413.792 Q84.0256 409.654 82.6251 407.426 Q81.1929 405.198 78.6147 405.198 Q76.2276 405.198 74.9545 406.821 Q73.6813 408.413 72.5037 413.855 L72.0262 415.892 Q70.8804 421.335 68.5251 423.754 Q66.138 426.173 62.0002 426.173 Q56.9713 426.173 54.2341 422.608 Q51.4968 419.043 51.4968 412.487 Q51.4968 409.24 51.9743 406.375 Q52.4517 403.511 53.4065 401.092 Z" fill="#000000" fill-rule="evenodd" fill-opacity="1" /><path clip-path="url(#clip590)" d="M 0 0 M38.479 379.353 L96.5979 379.353 L96.5979 392.848 L92.0464 392.848 L92.0464 385.241 L43.0304 385.241 L43.0304 392.848 L38.479 392.848 L38.479 379.353 Z" fill="#000000" fill-rule="evenodd" fill-opacity="1" /><path clip-path="url(#clip590)" d="M 0 0 M40.4842 358.824 L40.4842 318.624 L45.895 318.624 L45.895 335.493 L88.0042 335.493 L88.0042 341.955 L45.895 341.955 L45.895 358.824 L40.4842 358.824 Z" fill="#000000" fill-rule="evenodd" fill-opacity="1" /><path clip-path="url(#clip590)" d="M 0 0 M55.921 270.913 L67.6021 303.76 L79.2195 270.913 L85.0123 270.913 L70.212 311.717 L64.9285 311.717 L50.1282 270.913 L55.921 270.913 Z" fill="#000000" fill-rule="evenodd" fill-opacity="1" /><path clip-path="url(#clip590)" d="M 0 0 M44.7174 250.193 Q44.7174 255.158 49.6189 257.673 Q54.4887 260.155 64.2919 260.155 Q74.0633 260.155 78.9649 257.673 Q83.8346 255.158 83.8346 250.193 Q83.8346 245.196 78.9649 242.713 Q74.0633 240.199 64.2919 240.199 Q54.4887 240.199 49.6189 242.713 Q44.7174 245.196 44.7174 250.193 M39.6248 250.193 Q39.6248 242.204 45.9587 238.003 Q52.2607 233.769 64.2919 233.769 Q76.2913 233.769 82.6251 238.003 Q88.9272 242.204 88.9272 250.193 Q88.9272 258.182 82.6251 262.415 Q76.2913 266.616 64.2919 266.616 Q52.2607 266.616 45.9587 262.415 Q39.6248 258.182 39.6248 250.193 Z" fill="#000000" fill-rule="evenodd" fill-opacity="1" /><polyline clip-path="url(#clip592)" style="stroke:#009af9; stroke-width:12; stroke-opacity:1; fill:none" points="
  376.726,1384.24 396.104,1384.2 415.483,1384.16 434.861,1384.12 454.24,1384.08 473.618,1384.05 492.997,1384.01 512.375,1383.98 531.754,1383.94 551.132,1383.91 
  570.511,1383.88 589.89,1383.84 609.268,1383.81 628.647,1383.77 648.025,1383.74 667.404,1383.71 686.782,1383.67 706.161,1383.64 725.539,1383.61 744.918,1383.58 
  764.296,1383.54 783.675,1383.51 803.054,1383.48 822.432,1383.45 841.811,1383.41 861.189,1383.38 880.568,1383.35 899.946,1383.32 919.325,1383.29 938.703,1383.25 
  958.082,1383.22 977.46,1383.19 996.839,1383.16 1016.22,1383.13 1035.6,1383.09 1054.97,1383.06 1074.35,1383.03 1093.73,1383 1113.11,1382.97 1132.49,1382.94 
  1151.87,1382.91 1171.25,1382.87 1190.62,1382.84 1210,1382.81 1229.38,1382.78 1248.76,1382.75 1268.14,1382.72 1287.52,1382.69 1306.9,1382.66 1326.27,1382.62 
  1345.65,1382.59 1365.03,1382.56 1384.41,1382.53 1403.79,1382.5 1423.17,1382.47 1442.55,1382.44 1461.92,1382.41 1481.3,1382.38 1500.68,1382.35 1520.06,1382.32 
  1539.44,1382.29 1558.82,1382.25 1578.2,1382.22 1597.57,1382.19 1616.95,1382.16 1636.33,1382.13 1655.71,1382.1 1675.09,1382.07 1694.47,1382.04 1713.85,1382.01 
  1733.22,1381.98 1752.6,1381.95 1771.98,1381.92 1791.36,1381.89 1810.74,1381.86 1830.12,1381.83 1849.5,1381.8 1868.87,1381.77 1888.25,1381.74 1907.63,1381.71 
  1927.01,1381.68 1946.39,1381.65 1965.77,1381.62 1985.14,1381.59 2004.52,1381.56 2023.9,1381.53 2043.28,1381.5 2062.66,1381.47 2082.04,1381.44 2101.42,1381.41 
  2120.79,1381.38 2140.17,1381.35 2159.55,1381.32 2178.93,1381.29 2198.31,1381.26 2217.69,1381.23 2237.07,1381.2 2256.44,1381.17 2275.82,1381.14 2295.2,1381.11 
  
  "/>
<polyline clip-path="url(#clip592)" style="stroke:#e26f46; stroke-width:12; stroke-opacity:1; fill:none" points="
  376.726,1384.24 396.104,1383.3 415.483,1382.5 434.861,1381.74 454.24,1381 473.618,1380.28 492.997,1379.58 512.375,1378.88 531.754,1378.19 551.132,1377.51 
  570.511,1376.83 589.89,1376.16 609.268,1375.5 628.647,1374.84 648.025,1374.18 667.404,1373.53 686.782,1372.88 706.161,1372.23 725.539,1371.59 744.918,1370.95 
  764.296,1370.31 783.675,1369.68 803.054,1369.05 822.432,1368.42 841.811,1367.79 861.189,1367.16 880.568,1366.54 899.946,1365.92 919.325,1365.3 938.703,1364.68 
  958.082,1364.06 977.46,1363.45 996.839,1362.83 1016.22,1362.22 1035.6,1361.61 1054.97,1361 1074.35,1360.39 1093.73,1359.79 1113.11,1359.18 1132.49,1358.58 
  1151.87,1357.97 1171.25,1357.37 1190.62,1356.77 1210,1356.17 1229.38,1355.57 1248.76,1354.97 1268.14,1354.37 1287.52,1353.78 1306.9,1353.18 1326.27,1352.59 
  1345.65,1352 1365.03,1351.4 1384.41,1350.81 1403.79,1350.22 1423.17,1349.63 1442.55,1349.04 1461.92,1348.45 1481.3,1347.86 1500.68,1347.28 1520.06,1346.69 
  1539.44,1346.11 1558.82,1345.52 1578.2,1344.94 1597.57,1344.35 1616.95,1343.77 1636.33,1343.19 1655.71,1342.61 1675.09,1342.02 1694.47,1341.44 1713.85,1340.86 
  1733.22,1340.29 1752.6,1339.71 1771.98,1339.13 1791.36,1338.55 1810.74,1337.97 1830.12,1337.4 1849.5,1336.82 1868.87,1336.25 1888.25,1335.67 1907.63,1335.1 
  1927.01,1334.52 1946.39,1333.95 1965.77,1333.38 1985.14,1332.81 2004.52,1332.24 2023.9,1331.66 2043.28,1331.09 2062.66,1330.52 2082.04,1329.95 2101.42,1329.38 
  2120.79,1328.81 2140.17,1328.25 2159.55,1327.68 2178.93,1327.11 2198.31,1326.54 2217.69,1325.98 2237.07,1325.41 2256.44,1324.84 2275.82,1324.28 2295.2,1323.71 
  
  "/>
<polyline clip-path="url(#clip592)" style="stroke:#3da44d; stroke-width:12; stroke-opacity:1; fill:none" points="
  376.726,1384.22 396.104,1360.39 415.483,1341.18 434.861,1323.28 454.24,1306.17 473.618,1289.6 492.997,1273.44 512.375,1257.62 531.754,1242.08 551.132,1226.77 
  570.511,1211.66 589.89,1196.74 609.268,1181.97 628.647,1167.35 648.025,1152.86 667.404,1138.49 686.782,1124.24 706.161,1110.08 725.539,1096.02 744.918,1082.05 
  764.296,1068.17 783.675,1054.36 803.054,1040.63 822.432,1026.96 841.811,1013.37 861.189,999.836 880.568,986.363 899.946,972.949 919.325,959.589 938.703,946.282 
  958.082,933.025 977.46,919.817 996.839,906.656 1016.22,893.539 1035.6,880.466 1054.97,867.435 1074.35,854.445 1093.73,841.493 1113.11,828.579 1132.49,815.702 
  1151.87,802.861 1171.25,790.054 1190.62,777.28 1210,764.539 1229.38,751.83 1248.76,739.152 1268.14,726.503 1287.52,713.884 1306.9,701.293 1326.27,688.73 
  1345.65,676.195 1365.03,663.685 1384.41,651.202 1403.79,638.743 1423.17,626.31 1442.55,613.901 1461.92,601.515 1481.3,589.152 1500.68,576.812 1520.06,564.495 
  1539.44,552.199 1558.82,539.924 1578.2,527.671 1597.57,515.437 1616.95,503.224 1636.33,491.031 1655.71,478.857 1675.09,466.702 1694.47,454.566 1713.85,442.448 
  1733.22,430.349 1752.6,418.267 1771.98,406.202 1791.36,394.155 1810.74,382.125 1830.12,370.111 1849.5,358.114 1868.87,346.132 1888.25,334.167 1907.63,322.217 
  1927.01,310.283 1946.39,298.364 1965.77,286.46 1985.14,274.57 2004.52,262.695 2023.9,250.834 2043.28,238.988 2062.66,227.155 2082.04,215.336 2101.42,203.531 
  2120.79,191.739 2140.17,179.96 2159.55,168.195 2178.93,156.442 2198.31,144.702 2217.69,132.974 2237.07,121.259 2256.44,109.556 2275.82,97.8647 2295.2,86.1857 
  
  "/>
<path clip-path="url(#clip590)" d="
M1785.02 372.684 L2280.76 372.684 L2280.76 130.764 L1785.02 130.764  Z
  " fill="#ffffff" fill-rule="evenodd" fill-opacity="1"/>
<polyline clip-path="url(#clip590)" style="stroke:#000000; stroke-width:4; stroke-opacity:1; fill:none" points="
  1785.02,372.684 2280.76,372.684 2280.76,130.764 1785.02,130.764 1785.02,372.684 
  "/>
<polyline clip-path="url(#clip590)" style="stroke:#009af9; stroke-width:4; stroke-opacity:1; fill:none" points="
  1809.02,191.244 1953.02,191.244 
  "/>
<path clip-path="url(#clip590)" d="M 0 0 M1981.41 195.584 Q1981.41 200.283 1983.34 202.969 Q1985.28 205.631 1988.66 205.631 Q1992.04 205.631 1993.98 202.969 Q1995.93 200.283 1995.93 195.584 Q1995.93 190.885 1993.98 188.223 Q1992.04 185.538 1988.66 185.538 Q1985.28 185.538 1983.34 188.223 Q1981.41 190.885 1981.41 195.584 M1995.93 204.635 Q1994.59 206.95 1992.53 208.084 Q1990.49 209.195 1987.62 209.195 Q1982.92 209.195 1979.96 205.445 Q1977.02 201.695 1977.02 195.584 Q1977.02 189.473 1979.96 185.723 Q1982.92 181.973 1987.62 181.973 Q1990.49 181.973 1992.53 183.108 Q1994.59 184.219 1995.93 186.533 L1995.93 182.598 L2000.19 182.598 L2000.19 218.385 L1995.93 218.385 L1995.93 204.635 Z" fill="#000000" fill-rule="evenodd" fill-opacity="1" /><path clip-path="url(#clip590)" d="M 0 0 M2024.35 216.394 L2024.35 219.705 L1999.72 219.705 L1999.72 216.394 L2024.35 216.394 Z" fill="#000000" fill-rule="evenodd" fill-opacity="1" /><path clip-path="url(#clip590)" d="M 0 0 M2043.84 186.58 Q2043.13 186.163 2042.27 185.978 Q2041.44 185.77 2040.42 185.77 Q2036.81 185.77 2034.86 188.131 Q2032.94 190.469 2032.94 194.867 L2032.94 208.524 L2028.66 208.524 L2028.66 182.598 L2032.94 182.598 L2032.94 186.626 Q2034.28 184.265 2036.44 183.131 Q2038.59 181.973 2041.67 181.973 Q2042.11 181.973 2042.64 182.043 Q2043.17 182.089 2043.82 182.205 L2043.84 186.58 Z" fill="#000000" fill-rule="evenodd" fill-opacity="1" /><path clip-path="url(#clip590)" d="M 0 0 M2060.09 195.492 Q2054.93 195.492 2052.94 196.672 Q2050.95 197.853 2050.95 200.7 Q2050.95 202.969 2052.43 204.311 Q2053.94 205.631 2056.51 205.631 Q2060.05 205.631 2062.18 203.131 Q2064.33 200.607 2064.33 196.441 L2064.33 195.492 L2060.09 195.492 M2068.59 193.733 L2068.59 208.524 L2064.33 208.524 L2064.33 204.589 Q2062.87 206.95 2060.7 208.084 Q2058.52 209.195 2055.37 209.195 Q2051.39 209.195 2049.03 206.973 Q2046.69 204.728 2046.69 200.978 Q2046.69 196.603 2049.61 194.381 Q2052.55 192.158 2058.36 192.158 L2064.33 192.158 L2064.33 191.742 Q2064.33 188.802 2062.39 187.205 Q2060.47 185.584 2056.97 185.584 Q2054.75 185.584 2052.64 186.117 Q2050.53 186.649 2048.59 187.714 L2048.59 183.779 Q2050.93 182.876 2053.13 182.436 Q2055.33 181.973 2057.41 181.973 Q2063.03 181.973 2065.81 184.89 Q2068.59 187.807 2068.59 193.733 Z" fill="#000000" fill-rule="evenodd" fill-opacity="1" /><path clip-path="url(#clip590)" d="M 0 0 M2073.06 182.598 L2077.32 182.598 L2077.32 208.524 L2073.06 208.524 L2073.06 182.598 M2073.06 172.506 L2077.32 172.506 L2077.32 177.899 L2073.06 177.899 L2073.06 172.506 Z" fill="#000000" fill-rule="evenodd" fill-opacity="1" /><path clip-path="url(#clip590)" d="M 0 0 M2103.34 192.876 L2103.34 208.524 L2099.08 208.524 L2099.08 193.015 Q2099.08 189.334 2097.64 187.506 Q2096.21 185.677 2093.34 185.677 Q2089.89 185.677 2087.9 187.876 Q2085.9 190.075 2085.9 193.871 L2085.9 208.524 L2081.62 208.524 L2081.62 182.598 L2085.9 182.598 L2085.9 186.626 Q2087.43 184.288 2089.49 183.131 Q2091.58 181.973 2094.28 181.973 Q2098.75 181.973 2101.04 184.751 Q2103.34 187.506 2103.34 192.876 Z" fill="#000000" fill-rule="evenodd" fill-opacity="1" /><path clip-path="url(#clip590)" d="M 0 0 M2108.36 186.996 L2138.03 186.996 L2138.03 190.885 L2108.36 190.885 L2108.36 186.996 M2108.36 196.441 L2138.03 196.441 L2138.03 200.376 L2108.36 200.376 L2108.36 196.441 Z" fill="#000000" fill-rule="evenodd" fill-opacity="1" /><path clip-path="url(#clip590)" d="M 0 0 M2143.91 204.589 L2151.55 204.589 L2151.55 178.223 L2143.24 179.89 L2143.24 175.631 L2151.51 173.964 L2156.18 173.964 L2156.18 204.589 L2163.82 204.589 L2163.82 208.524 L2143.91 208.524 L2143.91 204.589 Z" fill="#000000" fill-rule="evenodd" fill-opacity="1" /><path clip-path="url(#clip590)" d="M 0 0 M2190.46 194.496 L2190.46 196.58 L2170.88 196.58 Q2171.16 200.978 2173.52 203.293 Q2175.9 205.584 2180.14 205.584 Q2182.59 205.584 2184.89 204.982 Q2187.2 204.381 2189.47 203.177 L2189.47 207.205 Q2187.18 208.177 2184.77 208.686 Q2182.36 209.195 2179.89 209.195 Q2173.68 209.195 2170.05 205.584 Q2166.44 201.973 2166.44 195.816 Q2166.44 189.45 2169.86 185.723 Q2173.31 181.973 2179.15 181.973 Q2184.38 181.973 2187.41 185.353 Q2190.46 188.709 2190.46 194.496 M2186.21 193.246 Q2186.16 189.751 2184.24 187.668 Q2182.34 185.584 2179.19 185.584 Q2175.63 185.584 2173.47 187.598 Q2171.34 189.612 2171.02 193.27 L2186.21 193.246 Z" fill="#000000" fill-rule="evenodd" fill-opacity="1" /><path clip-path="url(#clip590)" d="M 0 0 M2192.78 193.64 L2205.26 193.64 L2205.26 197.436 L2192.78 197.436 L2192.78 193.64 Z" fill="#000000" fill-rule="evenodd" fill-opacity="1" /><path clip-path="url(#clip590)" d="M 0 0 M2220.9 189.381 Q2217.76 189.381 2215.9 191.533 Q2214.08 193.686 2214.08 197.436 Q2214.08 201.163 2215.9 203.339 Q2217.76 205.492 2220.9 205.492 Q2224.05 205.492 2225.88 203.339 Q2227.73 201.163 2227.73 197.436 Q2227.73 193.686 2225.88 191.533 Q2224.05 189.381 2220.9 189.381 M2230.19 174.728 L2230.19 178.987 Q2228.43 178.154 2226.62 177.714 Q2224.84 177.274 2223.08 177.274 Q2218.45 177.274 2216 180.399 Q2213.57 183.524 2213.22 189.844 Q2214.58 187.83 2216.64 186.765 Q2218.71 185.677 2221.18 185.677 Q2226.39 185.677 2229.4 188.848 Q2232.43 191.996 2232.43 197.436 Q2232.43 202.76 2229.28 205.978 Q2226.14 209.195 2220.9 209.195 Q2214.91 209.195 2211.74 204.612 Q2208.57 200.006 2208.57 191.279 Q2208.57 183.084 2212.46 178.223 Q2216.34 173.339 2222.89 173.339 Q2224.65 173.339 2226.44 173.686 Q2228.24 174.034 2230.19 174.728 Z" fill="#000000" fill-rule="evenodd" fill-opacity="1" /><polyline clip-path="url(#clip590)" style="stroke:#e26f46; stroke-width:4; stroke-opacity:1; fill:none" points="
  1809.02,251.724 1953.02,251.724 
  "/>
<path clip-path="url(#clip590)" d="M 0 0 M1981.41 256.064 Q1981.41 260.763 1983.34 263.449 Q1985.28 266.111 1988.66 266.111 Q1992.04 266.111 1993.98 263.449 Q1995.93 260.763 1995.93 256.064 Q1995.93 251.365 1993.98 248.703 Q1992.04 246.018 1988.66 246.018 Q1985.28 246.018 1983.34 248.703 Q1981.41 251.365 1981.41 256.064 M1995.93 265.115 Q1994.59 267.43 1992.53 268.564 Q1990.49 269.675 1987.62 269.675 Q1982.92 269.675 1979.96 265.925 Q1977.02 262.175 1977.02 256.064 Q1977.02 249.953 1979.96 246.203 Q1982.92 242.453 1987.62 242.453 Q1990.49 242.453 1992.53 243.588 Q1994.59 244.699 1995.93 247.013 L1995.93 243.078 L2000.19 243.078 L2000.19 278.865 L1995.93 278.865 L1995.93 265.115 Z" fill="#000000" fill-rule="evenodd" fill-opacity="1" /><path clip-path="url(#clip590)" d="M 0 0 M2024.35 276.874 L2024.35 280.185 L1999.72 280.185 L1999.72 276.874 L2024.35 276.874 Z" fill="#000000" fill-rule="evenodd" fill-opacity="1" /><path clip-path="url(#clip590)" d="M 0 0 M2043.84 247.06 Q2043.13 246.643 2042.27 246.458 Q2041.44 246.25 2040.42 246.25 Q2036.81 246.25 2034.86 248.611 Q2032.94 250.949 2032.94 255.347 L2032.94 269.004 L2028.66 269.004 L2028.66 243.078 L2032.94 243.078 L2032.94 247.106 Q2034.28 244.745 2036.44 243.611 Q2038.59 242.453 2041.67 242.453 Q2042.11 242.453 2042.64 242.523 Q2043.17 242.569 2043.82 242.685 L2043.84 247.06 Z" fill="#000000" fill-rule="evenodd" fill-opacity="1" /><path clip-path="url(#clip590)" d="M 0 0 M2060.09 255.972 Q2054.93 255.972 2052.94 257.152 Q2050.95 258.333 2050.95 261.18 Q2050.95 263.449 2052.43 264.791 Q2053.94 266.111 2056.51 266.111 Q2060.05 266.111 2062.18 263.611 Q2064.33 261.087 2064.33 256.921 L2064.33 255.972 L2060.09 255.972 M2068.59 254.213 L2068.59 269.004 L2064.33 269.004 L2064.33 265.069 Q2062.87 267.43 2060.7 268.564 Q2058.52 269.675 2055.37 269.675 Q2051.39 269.675 2049.03 267.453 Q2046.69 265.208 2046.69 261.458 Q2046.69 257.083 2049.61 254.861 Q2052.55 252.638 2058.36 252.638 L2064.33 252.638 L2064.33 252.222 Q2064.33 249.282 2062.39 247.685 Q2060.47 246.064 2056.97 246.064 Q2054.75 246.064 2052.64 246.597 Q2050.53 247.129 2048.59 248.194 L2048.59 244.259 Q2050.93 243.356 2053.13 242.916 Q2055.33 242.453 2057.41 242.453 Q2063.03 242.453 2065.81 245.37 Q2068.59 248.287 2068.59 254.213 Z" fill="#000000" fill-rule="evenodd" fill-opacity="1" /><path clip-path="url(#clip590)" d="M 0 0 M2073.06 243.078 L2077.32 243.078 L2077.32 269.004 L2073.06 269.004 L2073.06 243.078 M2073.06 232.986 L2077.32 232.986 L2077.32 238.379 L2073.06 238.379 L2073.06 232.986 Z" fill="#000000" fill-rule="evenodd" fill-opacity="1" /><path clip-path="url(#clip590)" d="M 0 0 M2103.34 253.356 L2103.34 269.004 L2099.08 269.004 L2099.08 253.495 Q2099.08 249.814 2097.64 247.986 Q2096.21 246.157 2093.34 246.157 Q2089.89 246.157 2087.9 248.356 Q2085.9 250.555 2085.9 254.351 L2085.9 269.004 L2081.62 269.004 L2081.62 243.078 L2085.9 243.078 L2085.9 247.106 Q2087.43 244.768 2089.49 243.611 Q2091.58 242.453 2094.28 242.453 Q2098.75 242.453 2101.04 245.231 Q2103.34 247.986 2103.34 253.356 Z" fill="#000000" fill-rule="evenodd" fill-opacity="1" /><path clip-path="url(#clip590)" d="M 0 0 M2108.36 247.476 L2138.03 247.476 L2138.03 251.365 L2108.36 251.365 L2108.36 247.476 M2108.36 256.921 L2138.03 256.921 L2138.03 260.856 L2108.36 260.856 L2108.36 256.921 Z" fill="#000000" fill-rule="evenodd" fill-opacity="1" /><path clip-path="url(#clip590)" d="M 0 0 M2143.91 265.069 L2151.55 265.069 L2151.55 238.703 L2143.24 240.37 L2143.24 236.111 L2151.51 234.444 L2156.18 234.444 L2156.18 265.069 L2163.82 265.069 L2163.82 269.004 L2143.91 269.004 L2143.91 265.069 Z" fill="#000000" fill-rule="evenodd" fill-opacity="1" /><path clip-path="url(#clip590)" d="M 0 0 M2190.46 254.976 L2190.46 257.06 L2170.88 257.06 Q2171.16 261.458 2173.52 263.773 Q2175.9 266.064 2180.14 266.064 Q2182.59 266.064 2184.89 265.462 Q2187.2 264.861 2189.47 263.657 L2189.47 267.685 Q2187.18 268.657 2184.77 269.166 Q2182.36 269.675 2179.89 269.675 Q2173.68 269.675 2170.05 266.064 Q2166.44 262.453 2166.44 256.296 Q2166.44 249.93 2169.86 246.203 Q2173.31 242.453 2179.15 242.453 Q2184.38 242.453 2187.41 245.833 Q2190.46 249.189 2190.46 254.976 M2186.21 253.726 Q2186.16 250.231 2184.24 248.148 Q2182.34 246.064 2179.19 246.064 Q2175.63 246.064 2173.47 248.078 Q2171.34 250.092 2171.02 253.75 L2186.21 253.726 Z" fill="#000000" fill-rule="evenodd" fill-opacity="1" /><path clip-path="url(#clip590)" d="M 0 0 M2192.78 254.12 L2205.26 254.12 L2205.26 257.916 L2192.78 257.916 L2192.78 254.12 Z" fill="#000000" fill-rule="evenodd" fill-opacity="1" /><path clip-path="url(#clip590)" d="M 0 0 M2210.37 234.444 L2228.73 234.444 L2228.73 238.379 L2214.65 238.379 L2214.65 246.851 Q2215.67 246.504 2216.69 246.342 Q2217.71 246.157 2218.73 246.157 Q2224.52 246.157 2227.89 249.328 Q2231.27 252.5 2231.27 257.916 Q2231.27 263.495 2227.8 266.597 Q2224.33 269.675 2218.01 269.675 Q2215.83 269.675 2213.57 269.305 Q2211.32 268.935 2208.91 268.194 L2208.91 263.495 Q2211 264.629 2213.22 265.185 Q2215.44 265.74 2217.92 265.74 Q2221.92 265.74 2224.26 263.634 Q2226.6 261.527 2226.6 257.916 Q2226.6 254.305 2224.26 252.199 Q2221.92 250.092 2217.92 250.092 Q2216.04 250.092 2214.17 250.509 Q2212.32 250.925 2210.37 251.805 L2210.37 234.444 Z" fill="#000000" fill-rule="evenodd" fill-opacity="1" /><polyline clip-path="url(#clip590)" style="stroke:#3da44d; stroke-width:4; stroke-opacity:1; fill:none" points="
  1809.02,312.204 1953.02,312.204 
  "/>
<path clip-path="url(#clip590)" d="M 0 0 M1981.41 316.544 Q1981.41 321.243 1983.34 323.929 Q1985.28 326.591 1988.66 326.591 Q1992.04 326.591 1993.98 323.929 Q1995.93 321.243 1995.93 316.544 Q1995.93 311.845 1993.98 309.183 Q1992.04 306.498 1988.66 306.498 Q1985.28 306.498 1983.34 309.183 Q1981.41 311.845 1981.41 316.544 M1995.93 325.595 Q1994.59 327.91 1992.53 329.044 Q1990.49 330.155 1987.62 330.155 Q1982.92 330.155 1979.96 326.405 Q1977.02 322.655 1977.02 316.544 Q1977.02 310.433 1979.96 306.683 Q1982.92 302.933 1987.62 302.933 Q1990.49 302.933 1992.53 304.068 Q1994.59 305.179 1995.93 307.493 L1995.93 303.558 L2000.19 303.558 L2000.19 339.345 L1995.93 339.345 L1995.93 325.595 Z" fill="#000000" fill-rule="evenodd" fill-opacity="1" /><path clip-path="url(#clip590)" d="M 0 0 M2024.35 337.354 L2024.35 340.665 L1999.72 340.665 L1999.72 337.354 L2024.35 337.354 Z" fill="#000000" fill-rule="evenodd" fill-opacity="1" /><path clip-path="url(#clip590)" d="M 0 0 M2043.84 307.54 Q2043.13 307.123 2042.27 306.938 Q2041.44 306.73 2040.42 306.73 Q2036.81 306.73 2034.86 309.091 Q2032.94 311.429 2032.94 315.827 L2032.94 329.484 L2028.66 329.484 L2028.66 303.558 L2032.94 303.558 L2032.94 307.586 Q2034.28 305.225 2036.44 304.091 Q2038.59 302.933 2041.67 302.933 Q2042.11 302.933 2042.64 303.003 Q2043.17 303.049 2043.82 303.165 L2043.84 307.54 Z" fill="#000000" fill-rule="evenodd" fill-opacity="1" /><path clip-path="url(#clip590)" d="M 0 0 M2060.09 316.452 Q2054.93 316.452 2052.94 317.632 Q2050.95 318.813 2050.95 321.66 Q2050.95 323.929 2052.43 325.271 Q2053.94 326.591 2056.51 326.591 Q2060.05 326.591 2062.18 324.091 Q2064.33 321.567 2064.33 317.401 L2064.33 316.452 L2060.09 316.452 M2068.59 314.693 L2068.59 329.484 L2064.33 329.484 L2064.33 325.549 Q2062.87 327.91 2060.7 329.044 Q2058.52 330.155 2055.37 330.155 Q2051.39 330.155 2049.03 327.933 Q2046.69 325.688 2046.69 321.938 Q2046.69 317.563 2049.61 315.341 Q2052.55 313.118 2058.36 313.118 L2064.33 313.118 L2064.33 312.702 Q2064.33 309.762 2062.39 308.165 Q2060.47 306.544 2056.97 306.544 Q2054.75 306.544 2052.64 307.077 Q2050.53 307.609 2048.59 308.674 L2048.59 304.739 Q2050.93 303.836 2053.13 303.396 Q2055.33 302.933 2057.41 302.933 Q2063.03 302.933 2065.81 305.85 Q2068.59 308.767 2068.59 314.693 Z" fill="#000000" fill-rule="evenodd" fill-opacity="1" /><path clip-path="url(#clip590)" d="M 0 0 M2073.06 303.558 L2077.32 303.558 L2077.32 329.484 L2073.06 329.484 L2073.06 303.558 M2073.06 293.466 L2077.32 293.466 L2077.32 298.859 L2073.06 298.859 L2073.06 293.466 Z" fill="#000000" fill-rule="evenodd" fill-opacity="1" /><path clip-path="url(#clip590)" d="M 0 0 M2103.34 313.836 L2103.34 329.484 L2099.08 329.484 L2099.08 313.975 Q2099.08 310.294 2097.64 308.466 Q2096.21 306.637 2093.34 306.637 Q2089.89 306.637 2087.9 308.836 Q2085.9 311.035 2085.9 314.831 L2085.9 329.484 L2081.62 329.484 L2081.62 303.558 L2085.9 303.558 L2085.9 307.586 Q2087.43 305.248 2089.49 304.091 Q2091.58 302.933 2094.28 302.933 Q2098.75 302.933 2101.04 305.711 Q2103.34 308.466 2103.34 313.836 Z" fill="#000000" fill-rule="evenodd" fill-opacity="1" /><path clip-path="url(#clip590)" d="M 0 0 M2108.36 307.956 L2138.03 307.956 L2138.03 311.845 L2108.36 311.845 L2108.36 307.956 M2108.36 317.401 L2138.03 317.401 L2138.03 321.336 L2108.36 321.336 L2108.36 317.401 Z" fill="#000000" fill-rule="evenodd" fill-opacity="1" /><path clip-path="url(#clip590)" d="M 0 0 M2143.91 325.549 L2151.55 325.549 L2151.55 299.183 L2143.24 300.85 L2143.24 296.591 L2151.51 294.924 L2156.18 294.924 L2156.18 325.549 L2163.82 325.549 L2163.82 329.484 L2143.91 329.484 L2143.91 325.549 Z" fill="#000000" fill-rule="evenodd" fill-opacity="1" /><path clip-path="url(#clip590)" d="M 0 0 M2190.46 315.456 L2190.46 317.54 L2170.88 317.54 Q2171.16 321.938 2173.52 324.253 Q2175.9 326.544 2180.14 326.544 Q2182.59 326.544 2184.89 325.942 Q2187.2 325.341 2189.47 324.137 L2189.47 328.165 Q2187.18 329.137 2184.77 329.646 Q2182.36 330.155 2179.89 330.155 Q2173.68 330.155 2170.05 326.544 Q2166.44 322.933 2166.44 316.776 Q2166.44 310.41 2169.86 306.683 Q2173.31 302.933 2179.15 302.933 Q2184.38 302.933 2187.41 306.313 Q2190.46 309.669 2190.46 315.456 M2186.21 314.206 Q2186.16 310.711 2184.24 308.628 Q2182.34 306.544 2179.19 306.544 Q2175.63 306.544 2173.47 308.558 Q2171.34 310.572 2171.02 314.23 L2186.21 314.206 Z" fill="#000000" fill-rule="evenodd" fill-opacity="1" /><path clip-path="url(#clip590)" d="M 0 0 M2192.78 314.6 L2205.26 314.6 L2205.26 318.396 L2192.78 318.396 L2192.78 314.6 Z" fill="#000000" fill-rule="evenodd" fill-opacity="1" /><path clip-path="url(#clip590)" d="M 0 0 M2223.17 298.998 L2211.37 317.447 L2223.17 317.447 L2223.17 298.998 M2221.95 294.924 L2227.83 294.924 L2227.83 317.447 L2232.76 317.447 L2232.76 321.336 L2227.83 321.336 L2227.83 329.484 L2223.17 329.484 L2223.17 321.336 L2207.57 321.336 L2207.57 316.822 L2221.95 294.924 Z" fill="#000000" fill-rule="evenodd" fill-opacity="1" /></svg>
