<?xml version="1.0" encoding="utf-8"?>
<svg xmlns="http://www.w3.org/2000/svg" xmlns:xlink="http://www.w3.org/1999/xlink" width="600" height="400" viewBox="0 0 2400 1600">
<defs>
  <clipPath id="clip640">
    <rect x="0" y="0" width="2400" height="1600"/>
  </clipPath>
</defs>
<path clip-path="url(#clip640)" d="
M0 1600 L2400 1600 L2400 0 L0 0  Z
  " fill="#ffffff" fill-rule="evenodd" fill-opacity="1"/>
<defs>
  <clipPath id="clip641">
    <rect x="480" y="0" width="1681" height="1600"/>
  </clipPath>
</defs>
<path clip-path="url(#clip640)" d="
M337.782 1423.18 L2352.76 1423.18 L2352.76 47.2441 L337.782 47.2441  Z
  " fill="#ffffff" fill-rule="evenodd" fill-opacity="1"/>
<defs>
  <clipPath id="clip642">
    <rect x="337" y="47" width="2016" height="1377"/>
  </clipPath>
</defs>
<polyline clip-path="url(#clip642)" style="stroke:#000000; stroke-width:2; stroke-opacity:0.1; fill:none" points="
  394.806,1423.18 394.806,47.2441 
  "/>
<polyline clip-path="url(#clip642)" style="stroke:#000000; stroke-width:2; stroke-opacity:0.1; fill:none" points="
  774.991,1423.18 774.991,47.2441 
  "/>
<polyline clip-path="url(#clip642)" style="stroke:#000000; stroke-width:2; stroke-opacity:0.1; fill:none" points="
  1155.17,1423.18 1155.17,47.2441 
  "/>
<polyline clip-path="url(#clip642)" style="stroke:#000000; stroke-width:2; stroke-opacity:0.1; fill:none" points="
  1535.36,1423.18 1535.36,47.2441 
  "/>
<polyline clip-path="url(#clip642)" style="stroke:#000000; stroke-width:2; stroke-opacity:0.1; fill:none" points="
  1915.54,1423.18 1915.54,47.2441 
  "/>
<polyline clip-path="url(#clip642)" style="stroke:#000000; stroke-width:2; stroke-opacity:0.1; fill:none" points="
  2295.73,1423.18 2295.73,47.2441 
  "/>
<polyline clip-path="url(#clip642)" style="stroke:#000000; stroke-width:2; stroke-opacity:0.1; fill:none" points="
  337.782,1384.24 2352.76,1384.24 
  "/>
<polyline clip-path="url(#clip642)" style="stroke:#000000; stroke-width:2; stroke-opacity:0.1; fill:none" points="
  337.782,1188.51 2352.76,1188.51 
  "/>
<polyline clip-path="url(#clip642)" style="stroke:#000000; stroke-width:2; stroke-opacity:0.1; fill:none" points="
  337.782,992.783 2352.76,992.783 
  "/>
<polyline clip-path="url(#clip642)" style="stroke:#000000; stroke-width:2; stroke-opacity:0.1; fill:none" points="
  337.782,797.055 2352.76,797.055 
  "/>
<polyline clip-path="url(#clip642)" style="stroke:#000000; stroke-width:2; stroke-opacity:0.1; fill:none" points="
  337.782,601.327 2352.76,601.327 
  "/>
<polyline clip-path="url(#clip642)" style="stroke:#000000; stroke-width:2; stroke-opacity:0.1; fill:none" points="
  337.782,405.599 2352.76,405.599 
  "/>
<polyline clip-path="url(#clip642)" style="stroke:#000000; stroke-width:2; stroke-opacity:0.1; fill:none" points="
  337.782,209.871 2352.76,209.871 
  "/>
<polyline clip-path="url(#clip640)" style="stroke:#000000; stroke-width:4; stroke-opacity:1; fill:none" points="
  337.782,1423.18 2352.76,1423.18 
  "/>
<polyline clip-path="url(#clip640)" style="stroke:#000000; stroke-width:4; stroke-opacity:1; fill:none" points="
  337.782,1423.18 337.782,47.2441 
  "/>
<polyline clip-path="url(#clip640)" style="stroke:#000000; stroke-width:4; stroke-opacity:1; fill:none" points="
  394.806,1423.18 394.806,1406.67 
  "/>
<polyline clip-path="url(#clip640)" style="stroke:#000000; stroke-width:4; stroke-opacity:1; fill:none" points="
  774.991,1423.18 774.991,1406.67 
  "/>
<polyline clip-path="url(#clip640)" style="stroke:#000000; stroke-width:4; stroke-opacity:1; fill:none" points="
  1155.17,1423.18 1155.17,1406.67 
  "/>
<polyline clip-path="url(#clip640)" style="stroke:#000000; stroke-width:4; stroke-opacity:1; fill:none" points="
  1535.36,1423.18 1535.36,1406.67 
  "/>
<polyline clip-path="url(#clip640)" style="stroke:#000000; stroke-width:4; stroke-opacity:1; fill:none" points="
  1915.54,1423.18 1915.54,1406.67 
  "/>
<polyline clip-path="url(#clip640)" style="stroke:#000000; stroke-width:4; stroke-opacity:1; fill:none" points="
  2295.73,1423.18 2295.73,1406.67 
  "/>
<polyline clip-path="url(#clip640)" style="stroke:#000000; stroke-width:4; stroke-opacity:1; fill:none" points="
  337.782,1384.24 361.962,1384.24 
  "/>
<polyline clip-path="url(#clip640)" style="stroke:#000000; stroke-width:4; stroke-opacity:1; fill:none" points="
  337.782,1188.51 361.962,1188.51 
  "/>
<polyline clip-path="url(#clip640)" style="stroke:#000000; stroke-width:4; stroke-opacity:1; fill:none" points="
  337.782,992.783 361.962,992.783 
  "/>
<polyline clip-path="url(#clip640)" style="stroke:#000000; stroke-width:4; stroke-opacity:1; fill:none" points="
  337.782,797.055 361.962,797.055 
  "/>
<polyline clip-path="url(#clip640)" style="stroke:#000000; stroke-width:4; stroke-opacity:1; fill:none" points="
  337.782,601.327 361.962,601.327 
  "/>
<polyline clip-path="url(#clip640)" style="stroke:#000000; stroke-width:4; stroke-opacity:1; fill:none" points="
  337.782,405.599 361.962,405.599 
  "/>
<polyline clip-path="url(#clip640)" style="stroke:#000000; stroke-width:4; stroke-opacity:1; fill:none" points="
  337.782,209.871 361.962,209.871 
  "/>
<path clip-path="url(#clip640)" d="M 0 0 M394.806 1445.17 Q391.195 1445.17 389.366 1448.74 Q387.561 1452.28 387.561 1459.41 Q387.561 1466.51 389.366 1470.08 Q391.195 1473.62 394.806 1473.62 Q398.44 1473.62 400.246 1470.08 Q402.075 1466.51 402.075 1459.41 Q402.075 1452.28 400.246 1448.74 Q398.44 1445.17 394.806 1445.17 M394.806 1441.47 Q400.616 1441.47 403.672 1446.07 Q406.75 1450.66 406.75 1459.41 Q406.75 1468.13 403.672 1472.74 Q400.616 1477.32 394.806 1477.32 Q388.996 1477.32 385.917 1472.74 Q382.862 1468.13 382.862 1459.41 Q382.862 1450.66 385.917 1446.07 Q388.996 1441.47 394.806 1441.47 Z" fill="#000000" fill-rule="evenodd" fill-opacity="1" /><path clip-path="url(#clip640)" d="M 0 0 M765.373 1472.72 L773.011 1472.72 L773.011 1446.35 L764.701 1448.02 L764.701 1443.76 L772.965 1442.09 L777.641 1442.09 L777.641 1472.72 L785.28 1472.72 L785.28 1476.65 L765.373 1476.65 L765.373 1472.72 Z" fill="#000000" fill-rule="evenodd" fill-opacity="1" /><path clip-path="url(#clip640)" d="M 0 0 M1149.83 1472.72 L1166.15 1472.72 L1166.15 1476.65 L1144.2 1476.65 L1144.2 1472.72 Q1146.86 1469.96 1151.45 1465.33 Q1156.05 1460.68 1157.24 1459.34 Q1159.48 1456.81 1160.36 1455.08 Q1161.26 1453.32 1161.26 1451.63 Q1161.26 1448.87 1159.32 1447.14 Q1157.4 1445.4 1154.3 1445.4 Q1152.1 1445.4 1149.64 1446.17 Q1147.21 1446.93 1144.43 1448.48 L1144.43 1443.76 Q1147.26 1442.62 1149.71 1442.05 Q1152.17 1441.47 1154.2 1441.47 Q1159.57 1441.47 1162.77 1444.15 Q1165.96 1446.84 1165.96 1451.33 Q1165.96 1453.46 1165.15 1455.38 Q1164.36 1457.28 1162.26 1459.87 Q1161.68 1460.54 1158.58 1463.76 Q1155.48 1466.95 1149.83 1472.72 Z" fill="#000000" fill-rule="evenodd" fill-opacity="1" /><path clip-path="url(#clip640)" d="M 0 0 M1539.61 1458.02 Q1542.96 1458.74 1544.84 1461 Q1546.74 1463.27 1546.74 1466.61 Q1546.74 1471.72 1543.22 1474.52 Q1539.7 1477.32 1533.22 1477.32 Q1531.04 1477.32 1528.73 1476.88 Q1526.44 1476.47 1523.98 1475.61 L1523.98 1471.1 Q1525.93 1472.23 1528.24 1472.81 Q1530.56 1473.39 1533.08 1473.39 Q1537.48 1473.39 1539.77 1471.65 Q1542.08 1469.92 1542.08 1466.61 Q1542.08 1463.55 1539.93 1461.84 Q1537.8 1460.1 1533.98 1460.1 L1529.95 1460.1 L1529.95 1456.26 L1534.17 1456.26 Q1537.62 1456.26 1539.45 1454.89 Q1541.27 1453.5 1541.27 1450.91 Q1541.27 1448.25 1539.38 1446.84 Q1537.5 1445.4 1533.98 1445.4 Q1532.06 1445.4 1529.86 1445.82 Q1527.66 1446.24 1525.02 1447.11 L1525.02 1442.95 Q1527.69 1442.21 1530 1441.84 Q1532.34 1441.47 1534.4 1441.47 Q1539.72 1441.47 1542.82 1443.9 Q1545.93 1446.3 1545.93 1450.43 Q1545.93 1453.3 1544.28 1455.29 Q1542.64 1457.25 1539.61 1458.02 Z" fill="#000000" fill-rule="evenodd" fill-opacity="1" /><path clip-path="url(#clip640)" d="M 0 0 M1918.55 1446.17 L1906.75 1464.61 L1918.55 1464.61 L1918.55 1446.17 M1917.33 1442.09 L1923.21 1442.09 L1923.21 1464.61 L1928.14 1464.61 L1928.14 1468.5 L1923.21 1468.5 L1923.21 1476.65 L1918.55 1476.65 L1918.55 1468.5 L1902.95 1468.5 L1902.95 1463.99 L1917.33 1442.09 Z" fill="#000000" fill-rule="evenodd" fill-opacity="1" /><path clip-path="url(#clip640)" d="M 0 0 M2286.01 1442.09 L2304.36 1442.09 L2304.36 1446.03 L2290.29 1446.03 L2290.29 1454.5 Q2291.31 1454.15 2292.33 1453.99 Q2293.34 1453.8 2294.36 1453.8 Q2300.15 1453.8 2303.53 1456.98 Q2306.91 1460.15 2306.91 1465.56 Q2306.91 1471.14 2303.44 1474.24 Q2299.96 1477.32 2293.65 1477.32 Q2291.47 1477.32 2289.2 1476.95 Q2286.96 1476.58 2284.55 1475.84 L2284.55 1471.14 Q2286.63 1472.28 2288.85 1472.83 Q2291.08 1473.39 2293.55 1473.39 Q2297.56 1473.39 2299.89 1471.28 Q2302.23 1469.18 2302.23 1465.56 Q2302.23 1461.95 2299.89 1459.85 Q2297.56 1457.74 2293.55 1457.74 Q2291.68 1457.74 2289.8 1458.16 Q2287.95 1458.57 2286.01 1459.45 L2286.01 1442.09 Z" fill="#000000" fill-rule="evenodd" fill-opacity="1" /><path clip-path="url(#clip640)" d="M 0 0 M301.838 1370.04 Q298.227 1370.04 296.398 1373.6 Q294.593 1377.14 294.593 1384.27 Q294.593 1391.38 296.398 1394.94 Q298.227 1398.49 301.838 1398.49 Q305.472 1398.49 307.278 1394.94 Q309.106 1391.38 309.106 1384.27 Q309.106 1377.14 307.278 1373.6 Q305.472 1370.04 301.838 1370.04 M301.838 1366.33 Q307.648 1366.33 310.704 1370.94 Q313.782 1375.52 313.782 1384.27 Q313.782 1393 310.704 1397.61 Q307.648 1402.19 301.838 1402.19 Q296.028 1402.19 292.949 1397.61 Q289.894 1393 289.894 1384.27 Q289.894 1375.52 292.949 1370.94 Q296.028 1366.33 301.838 1366.33 Z" fill="#000000" fill-rule="evenodd" fill-opacity="1" /><path clip-path="url(#clip640)" d="M 0 0 M145.077 1208.3 L161.396 1208.3 L161.396 1212.24 L139.452 1212.24 L139.452 1208.3 Q142.114 1205.55 146.697 1200.92 Q151.303 1196.27 152.484 1194.92 Q154.729 1192.4 155.609 1190.66 Q156.512 1188.91 156.512 1187.22 Q156.512 1184.46 154.567 1182.72 Q152.646 1180.99 149.544 1180.99 Q147.345 1180.99 144.891 1181.75 Q142.461 1182.52 139.683 1184.07 L139.683 1179.34 Q142.507 1178.21 144.961 1177.63 Q147.415 1177.05 149.452 1177.05 Q154.822 1177.05 158.016 1179.74 Q161.211 1182.42 161.211 1186.91 Q161.211 1189.04 160.401 1190.97 Q159.614 1192.86 157.507 1195.46 Q156.928 1196.13 153.827 1199.34 Q150.725 1202.54 145.077 1208.3 Z" fill="#000000" fill-rule="evenodd" fill-opacity="1" /><path clip-path="url(#clip640)" d="M 0 0 M166.465 1206.36 L171.35 1206.36 L171.35 1212.24 L166.465 1212.24 L166.465 1206.36 Z" fill="#000000" fill-rule="evenodd" fill-opacity="1" /><path clip-path="url(#clip640)" d="M 0 0 M186.419 1180.76 Q182.808 1180.76 180.979 1184.32 Q179.174 1187.86 179.174 1194.99 Q179.174 1202.1 180.979 1205.66 Q182.808 1209.21 186.419 1209.21 Q190.053 1209.21 191.859 1205.66 Q193.687 1202.1 193.687 1194.99 Q193.687 1187.86 191.859 1184.32 Q190.053 1180.76 186.419 1180.76 M186.419 1177.05 Q192.229 1177.05 195.285 1181.66 Q198.363 1186.24 198.363 1194.99 Q198.363 1203.72 195.285 1208.33 Q192.229 1212.91 186.419 1212.91 Q180.609 1212.91 177.53 1208.33 Q174.475 1203.72 174.475 1194.99 Q174.475 1186.24 177.53 1181.66 Q180.609 1177.05 186.419 1177.05 Z" fill="#000000" fill-rule="evenodd" fill-opacity="1" /><path clip-path="url(#clip640)" d="M 0 0 M231.604 1186.78 L221.025 1197.4 L231.604 1207.98 L228.849 1210.78 L218.224 1200.16 L207.599 1210.78 L204.868 1207.98 L215.423 1197.4 L204.868 1186.78 L207.599 1183.97 L218.224 1194.6 L228.849 1183.97 L231.604 1186.78 Z" fill="#000000" fill-rule="evenodd" fill-opacity="1" /><path clip-path="url(#clip640)" d="M 0 0 M237.484 1208.3 L245.122 1208.3 L245.122 1181.94 L236.812 1183.6 L236.812 1179.34 L245.076 1177.68 L249.752 1177.68 L249.752 1208.3 L257.391 1208.3 L257.391 1212.24 L237.484 1212.24 L237.484 1208.3 Z" fill="#000000" fill-rule="evenodd" fill-opacity="1" /><path clip-path="url(#clip640)" d="M 0 0 M272.46 1180.76 Q268.849 1180.76 267.02 1184.32 Q265.215 1187.86 265.215 1194.99 Q265.215 1202.1 267.02 1205.66 Q268.849 1209.21 272.46 1209.21 Q276.094 1209.21 277.9 1205.66 Q279.729 1202.1 279.729 1194.99 Q279.729 1187.86 277.9 1184.32 Q276.094 1180.76 272.46 1180.76 M272.46 1177.05 Q278.27 1177.05 281.326 1181.66 Q284.405 1186.24 284.405 1194.99 Q284.405 1203.72 281.326 1208.33 Q278.27 1212.91 272.46 1212.91 Q266.65 1212.91 263.571 1208.33 Q260.516 1203.72 260.516 1194.99 Q260.516 1186.24 263.571 1181.66 Q266.65 1177.05 272.46 1177.05 Z" fill="#000000" fill-rule="evenodd" fill-opacity="1" /><path clip-path="url(#clip640)" d="M 0 0 M284.405 1164.61 L299.582 1164.61 L299.582 1166.4 L284.405 1166.4 L284.405 1164.61 Z" fill="#000000" fill-rule="evenodd" fill-opacity="1" /><path clip-path="url(#clip640)" d="M 0 0 M307.764 1163.52 Q306.109 1163.52 305.15 1164.5 Q304.19 1165.49 304.19 1167.21 Q304.19 1168.9 305.15 1169.88 Q306.109 1170.87 307.764 1170.87 Q309.4 1170.87 310.359 1169.88 Q311.318 1168.9 311.318 1167.21 Q311.318 1165.49 310.359 1164.5 Q309.4 1163.52 307.764 1163.52 M312.616 1156.86 L312.616 1158.8 Q311.695 1158.42 310.754 1158.23 Q309.814 1158.03 308.892 1158.03 Q306.485 1158.03 305.206 1159.44 Q303.927 1160.87 303.739 1163.74 Q304.454 1162.82 305.526 1162.33 Q306.617 1161.84 307.895 1161.84 Q310.623 1161.84 312.202 1163.27 Q313.782 1164.72 313.782 1167.21 Q313.782 1169.59 312.127 1171.08 Q310.491 1172.55 307.764 1172.55 Q304.623 1172.55 302.968 1170.46 Q301.313 1168.37 301.313 1164.38 Q301.313 1160.66 303.344 1158.46 Q305.375 1156.24 308.798 1156.24 Q309.72 1156.24 310.66 1156.39 Q311.601 1156.56 312.616 1156.86 Z" fill="#000000" fill-rule="evenodd" fill-opacity="1" /><path clip-path="url(#clip640)" d="M 0 0 M151.813 986.025 L140.007 1004.47 L151.813 1004.47 L151.813 986.025 M150.586 981.95 L156.465 981.95 L156.465 1004.47 L161.396 1004.47 L161.396 1008.36 L156.465 1008.36 L156.465 1016.51 L151.813 1016.51 L151.813 1008.36 L136.211 1008.36 L136.211 1003.85 L150.586 981.95 Z" fill="#000000" fill-rule="evenodd" fill-opacity="1" /><path clip-path="url(#clip640)" d="M 0 0 M166.465 1010.63 L171.35 1010.63 L171.35 1016.51 L166.465 1016.51 L166.465 1010.63 Z" fill="#000000" fill-rule="evenodd" fill-opacity="1" /><path clip-path="url(#clip640)" d="M 0 0 M186.419 985.029 Q182.808 985.029 180.979 988.594 Q179.174 992.136 179.174 999.265 Q179.174 1006.37 180.979 1009.94 Q182.808 1013.48 186.419 1013.48 Q190.053 1013.48 191.859 1009.94 Q193.687 1006.37 193.687 999.265 Q193.687 992.136 191.859 988.594 Q190.053 985.029 186.419 985.029 M186.419 981.325 Q192.229 981.325 195.285 985.932 Q198.363 990.515 198.363 999.265 Q198.363 1007.99 195.285 1012.6 Q192.229 1017.18 186.419 1017.18 Q180.609 1017.18 177.53 1012.6 Q174.475 1007.99 174.475 999.265 Q174.475 990.515 177.53 985.932 Q180.609 981.325 186.419 981.325 Z" fill="#000000" fill-rule="evenodd" fill-opacity="1" /><path clip-path="url(#clip640)" d="M 0 0 M231.604 991.048 L221.025 1001.67 L231.604 1012.25 L228.849 1015.05 L218.224 1004.43 L207.599 1015.05 L204.868 1012.25 L215.423 1001.67 L204.868 991.048 L207.599 988.247 L218.224 998.872 L228.849 988.247 L231.604 991.048 Z" fill="#000000" fill-rule="evenodd" fill-opacity="1" /><path clip-path="url(#clip640)" d="M 0 0 M237.484 1012.58 L245.122 1012.58 L245.122 986.21 L236.812 987.876 L236.812 983.617 L245.076 981.95 L249.752 981.95 L249.752 1012.58 L257.391 1012.58 L257.391 1016.51 L237.484 1016.51 L237.484 1012.58 Z" fill="#000000" fill-rule="evenodd" fill-opacity="1" /><path clip-path="url(#clip640)" d="M 0 0 M272.46 985.029 Q268.849 985.029 267.02 988.594 Q265.215 992.136 265.215 999.265 Q265.215 1006.37 267.02 1009.94 Q268.849 1013.48 272.46 1013.48 Q276.094 1013.48 277.9 1009.94 Q279.729 1006.37 279.729 999.265 Q279.729 992.136 277.9 988.594 Q276.094 985.029 272.46 985.029 M272.46 981.325 Q278.27 981.325 281.326 985.932 Q284.405 990.515 284.405 999.265 Q284.405 1007.99 281.326 1012.6 Q278.27 1017.18 272.46 1017.18 Q266.65 1017.18 263.571 1012.6 Q260.516 1007.99 260.516 999.265 Q260.516 990.515 263.571 985.932 Q266.65 981.325 272.46 981.325 Z" fill="#000000" fill-rule="evenodd" fill-opacity="1" /><path clip-path="url(#clip640)" d="M 0 0 M284.405 968.882 L299.582 968.882 L299.582 970.668 L284.405 970.668 L284.405 968.882 Z" fill="#000000" fill-rule="evenodd" fill-opacity="1" /><path clip-path="url(#clip640)" d="M 0 0 M307.764 967.791 Q306.109 967.791 305.15 968.769 Q304.19 969.766 304.19 971.477 Q304.19 973.17 305.15 974.148 Q306.109 975.145 307.764 975.145 Q309.4 975.145 310.359 974.148 Q311.318 973.17 311.318 971.477 Q311.318 969.766 310.359 968.769 Q309.4 967.791 307.764 967.791 M312.616 961.133 L312.616 963.07 Q311.695 962.694 310.754 962.506 Q309.814 962.299 308.892 962.299 Q306.485 962.299 305.206 963.71 Q303.927 965.139 303.739 968.017 Q304.454 967.095 305.526 966.606 Q306.617 966.117 307.895 966.117 Q310.623 966.117 312.202 967.546 Q313.782 968.995 313.782 971.477 Q313.782 973.866 312.127 975.352 Q310.491 976.819 307.764 976.819 Q304.623 976.819 302.968 974.731 Q301.313 972.643 301.313 968.656 Q301.313 964.932 303.344 962.732 Q305.375 960.512 308.798 960.512 Q309.72 960.512 310.66 960.663 Q311.601 960.832 312.616 961.133 Z" fill="#000000" fill-rule="evenodd" fill-opacity="1" /><path clip-path="url(#clip640)" d="M 0 0 M149.868 801.639 Q146.72 801.639 144.868 803.792 Q143.04 805.945 143.04 809.695 Q143.04 813.422 144.868 815.597 Q146.72 817.75 149.868 817.75 Q153.016 817.75 154.845 815.597 Q156.697 813.422 156.697 809.695 Q156.697 805.945 154.845 803.792 Q153.016 801.639 149.868 801.639 M159.151 786.986 L159.151 791.246 Q157.391 790.412 155.586 789.973 Q153.803 789.533 152.044 789.533 Q147.415 789.533 144.961 792.658 Q142.53 795.783 142.183 802.102 Q143.549 800.088 145.609 799.023 Q147.669 797.935 150.146 797.935 Q155.354 797.935 158.364 801.107 Q161.396 804.255 161.396 809.695 Q161.396 815.019 158.248 818.236 Q155.1 821.454 149.868 821.454 Q143.873 821.454 140.702 816.871 Q137.53 812.264 137.53 803.537 Q137.53 795.343 141.419 790.482 Q145.308 785.598 151.859 785.598 Q153.618 785.598 155.401 785.945 Q157.206 786.292 159.151 786.986 Z" fill="#000000" fill-rule="evenodd" fill-opacity="1" /><path clip-path="url(#clip640)" d="M 0 0 M166.465 814.903 L171.35 814.903 L171.35 820.783 L166.465 820.783 L166.465 814.903 Z" fill="#000000" fill-rule="evenodd" fill-opacity="1" /><path clip-path="url(#clip640)" d="M 0 0 M186.419 789.301 Q182.808 789.301 180.979 792.866 Q179.174 796.408 179.174 803.537 Q179.174 810.644 180.979 814.209 Q182.808 817.75 186.419 817.75 Q190.053 817.75 191.859 814.209 Q193.687 810.644 193.687 803.537 Q193.687 796.408 191.859 792.866 Q190.053 789.301 186.419 789.301 M186.419 785.598 Q192.229 785.598 195.285 790.204 Q198.363 794.787 198.363 803.537 Q198.363 812.264 195.285 816.871 Q192.229 821.454 186.419 821.454 Q180.609 821.454 177.53 816.871 Q174.475 812.264 174.475 803.537 Q174.475 794.787 177.53 790.204 Q180.609 785.598 186.419 785.598 Z" fill="#000000" fill-rule="evenodd" fill-opacity="1" /><path clip-path="url(#clip640)" d="M 0 0 M231.604 795.32 L221.025 805.945 L231.604 816.523 L228.849 819.324 L218.224 808.699 L207.599 819.324 L204.868 816.523 L215.423 805.945 L204.868 795.32 L207.599 792.519 L218.224 803.144 L228.849 792.519 L231.604 795.32 Z" fill="#000000" fill-rule="evenodd" fill-opacity="1" /><path clip-path="url(#clip640)" d="M 0 0 M237.484 816.847 L245.122 816.847 L245.122 790.482 L236.812 792.148 L236.812 787.889 L245.076 786.223 L249.752 786.223 L249.752 816.847 L257.391 816.847 L257.391 820.783 L237.484 820.783 L237.484 816.847 Z" fill="#000000" fill-rule="evenodd" fill-opacity="1" /><path clip-path="url(#clip640)" d="M 0 0 M272.46 789.301 Q268.849 789.301 267.02 792.866 Q265.215 796.408 265.215 803.537 Q265.215 810.644 267.02 814.209 Q268.849 817.75 272.46 817.75 Q276.094 817.75 277.9 814.209 Q279.729 810.644 279.729 803.537 Q279.729 796.408 277.9 792.866 Q276.094 789.301 272.46 789.301 M272.46 785.598 Q278.27 785.598 281.326 790.204 Q284.405 794.787 284.405 803.537 Q284.405 812.264 281.326 816.871 Q278.27 821.454 272.46 821.454 Q266.65 821.454 263.571 816.871 Q260.516 812.264 260.516 803.537 Q260.516 794.787 263.571 790.204 Q266.65 785.598 272.46 785.598 Z" fill="#000000" fill-rule="evenodd" fill-opacity="1" /><path clip-path="url(#clip640)" d="M 0 0 M284.405 773.154 L299.582 773.154 L299.582 774.941 L284.405 774.941 L284.405 773.154 Z" fill="#000000" fill-rule="evenodd" fill-opacity="1" /><path clip-path="url(#clip640)" d="M 0 0 M307.764 772.063 Q306.109 772.063 305.15 773.041 Q304.19 774.038 304.19 775.749 Q304.19 777.442 305.15 778.42 Q306.109 779.417 307.764 779.417 Q309.4 779.417 310.359 778.42 Q311.318 777.442 311.318 775.749 Q311.318 774.038 310.359 773.041 Q309.4 772.063 307.764 772.063 M312.616 765.405 L312.616 767.342 Q311.695 766.966 310.754 766.778 Q309.814 766.571 308.892 766.571 Q306.485 766.571 305.206 767.982 Q303.927 769.411 303.739 772.289 Q304.454 771.367 305.526 770.878 Q306.617 770.389 307.895 770.389 Q310.623 770.389 312.202 771.818 Q313.782 773.267 313.782 775.749 Q313.782 778.138 312.127 779.624 Q310.491 781.091 307.764 781.091 Q304.623 781.091 302.968 779.003 Q301.313 776.915 301.313 772.928 Q301.313 769.204 303.344 767.004 Q305.375 764.784 308.798 764.784 Q309.72 764.784 310.66 764.935 Q311.601 765.104 312.616 765.405 Z" fill="#000000" fill-rule="evenodd" fill-opacity="1" /><path clip-path="url(#clip640)" d="M 0 0 M149.544 608.643 Q146.211 608.643 144.29 610.425 Q142.391 612.208 142.391 615.333 Q142.391 618.458 144.29 620.24 Q146.211 622.022 149.544 622.022 Q152.877 622.022 154.799 620.24 Q156.72 618.434 156.72 615.333 Q156.72 612.208 154.799 610.425 Q152.901 608.643 149.544 608.643 M144.868 606.652 Q141.859 605.911 140.169 603.851 Q138.503 601.791 138.503 598.828 Q138.503 594.685 141.442 592.277 Q144.405 589.87 149.544 589.87 Q154.706 589.87 157.646 592.277 Q160.586 594.685 160.586 598.828 Q160.586 601.791 158.896 603.851 Q157.229 605.911 154.243 606.652 Q157.623 607.439 159.498 609.731 Q161.396 612.022 161.396 615.333 Q161.396 620.356 158.317 623.041 Q155.262 625.726 149.544 625.726 Q143.827 625.726 140.748 623.041 Q137.692 620.356 137.692 615.333 Q137.692 612.022 139.591 609.731 Q141.489 607.439 144.868 606.652 M143.155 599.268 Q143.155 601.953 144.822 603.458 Q146.512 604.962 149.544 604.962 Q152.553 604.962 154.243 603.458 Q155.956 601.953 155.956 599.268 Q155.956 596.583 154.243 595.078 Q152.553 593.573 149.544 593.573 Q146.512 593.573 144.822 595.078 Q143.155 596.583 143.155 599.268 Z" fill="#000000" fill-rule="evenodd" fill-opacity="1" /><path clip-path="url(#clip640)" d="M 0 0 M166.465 619.175 L171.35 619.175 L171.35 625.055 L166.465 625.055 L166.465 619.175 Z" fill="#000000" fill-rule="evenodd" fill-opacity="1" /><path clip-path="url(#clip640)" d="M 0 0 M186.419 593.573 Q182.808 593.573 180.979 597.138 Q179.174 600.68 179.174 607.809 Q179.174 614.916 180.979 618.481 Q182.808 622.022 186.419 622.022 Q190.053 622.022 191.859 618.481 Q193.687 614.916 193.687 607.809 Q193.687 600.68 191.859 597.138 Q190.053 593.573 186.419 593.573 M186.419 589.87 Q192.229 589.87 195.285 594.476 Q198.363 599.059 198.363 607.809 Q198.363 616.536 195.285 621.143 Q192.229 625.726 186.419 625.726 Q180.609 625.726 177.53 621.143 Q174.475 616.536 174.475 607.809 Q174.475 599.059 177.53 594.476 Q180.609 589.87 186.419 589.87 Z" fill="#000000" fill-rule="evenodd" fill-opacity="1" /><path clip-path="url(#clip640)" d="M 0 0 M231.604 599.592 L221.025 610.217 L231.604 620.795 L228.849 623.596 L218.224 612.971 L207.599 623.596 L204.868 620.795 L215.423 610.217 L204.868 599.592 L207.599 596.791 L218.224 607.416 L228.849 596.791 L231.604 599.592 Z" fill="#000000" fill-rule="evenodd" fill-opacity="1" /><path clip-path="url(#clip640)" d="M 0 0 M237.484 621.12 L245.122 621.12 L245.122 594.754 L236.812 596.421 L236.812 592.161 L245.076 590.495 L249.752 590.495 L249.752 621.12 L257.391 621.12 L257.391 625.055 L237.484 625.055 L237.484 621.12 Z" fill="#000000" fill-rule="evenodd" fill-opacity="1" /><path clip-path="url(#clip640)" d="M 0 0 M272.46 593.573 Q268.849 593.573 267.02 597.138 Q265.215 600.68 265.215 607.809 Q265.215 614.916 267.02 618.481 Q268.849 622.022 272.46 622.022 Q276.094 622.022 277.9 618.481 Q279.729 614.916 279.729 607.809 Q279.729 600.68 277.9 597.138 Q276.094 593.573 272.46 593.573 M272.46 589.87 Q278.27 589.87 281.326 594.476 Q284.405 599.059 284.405 607.809 Q284.405 616.536 281.326 621.143 Q278.27 625.726 272.46 625.726 Q266.65 625.726 263.571 621.143 Q260.516 616.536 260.516 607.809 Q260.516 599.059 263.571 594.476 Q266.65 589.87 272.46 589.87 Z" fill="#000000" fill-rule="evenodd" fill-opacity="1" /><path clip-path="url(#clip640)" d="M 0 0 M284.405 577.426 L299.582 577.426 L299.582 579.213 L284.405 579.213 L284.405 577.426 Z" fill="#000000" fill-rule="evenodd" fill-opacity="1" /><path clip-path="url(#clip640)" d="M 0 0 M307.764 576.335 Q306.109 576.335 305.15 577.313 Q304.19 578.31 304.19 580.021 Q304.19 581.714 305.15 582.692 Q306.109 583.689 307.764 583.689 Q309.4 583.689 310.359 582.692 Q311.318 581.714 311.318 580.021 Q311.318 578.31 310.359 577.313 Q309.4 576.335 307.764 576.335 M312.616 569.677 L312.616 571.614 Q311.695 571.238 310.754 571.05 Q309.814 570.843 308.892 570.843 Q306.485 570.843 305.206 572.254 Q303.927 573.683 303.739 576.561 Q304.454 575.639 305.526 575.15 Q306.617 574.661 307.895 574.661 Q310.623 574.661 312.202 576.091 Q313.782 577.539 313.782 580.021 Q313.782 582.41 312.127 583.896 Q310.491 585.363 307.764 585.363 Q304.623 585.363 302.968 583.275 Q301.313 581.188 301.313 577.2 Q301.313 573.476 303.344 571.276 Q305.375 569.056 308.798 569.056 Q309.72 569.056 310.66 569.207 Q311.601 569.376 312.616 569.677 Z" fill="#000000" fill-rule="evenodd" fill-opacity="1" /><path clip-path="url(#clip640)" d="M 0 0 M142.091 425.392 L149.729 425.392 L149.729 399.026 L141.419 400.693 L141.419 396.433 L149.683 394.767 L154.359 394.767 L154.359 425.392 L161.998 425.392 L161.998 429.327 L142.091 429.327 L142.091 425.392 Z" fill="#000000" fill-rule="evenodd" fill-opacity="1" /><path clip-path="url(#clip640)" d="M 0 0 M167.067 423.447 L171.951 423.447 L171.951 429.327 L167.067 429.327 L167.067 423.447 Z" fill="#000000" fill-rule="evenodd" fill-opacity="1" /><path clip-path="url(#clip640)" d="M 0 0 M187.021 397.846 Q183.41 397.846 181.581 401.41 Q179.775 404.952 179.775 412.082 Q179.775 419.188 181.581 422.753 Q183.41 426.294 187.021 426.294 Q190.655 426.294 192.461 422.753 Q194.289 419.188 194.289 412.082 Q194.289 404.952 192.461 401.41 Q190.655 397.846 187.021 397.846 M187.021 394.142 Q192.831 394.142 195.887 398.748 Q198.965 403.332 198.965 412.082 Q198.965 420.808 195.887 425.415 Q192.831 429.998 187.021 429.998 Q181.211 429.998 178.132 425.415 Q175.076 420.808 175.076 412.082 Q175.076 403.332 178.132 398.748 Q181.211 394.142 187.021 394.142 Z" fill="#000000" fill-rule="evenodd" fill-opacity="1" /><path clip-path="url(#clip640)" d="M 0 0 M232.206 403.864 L221.627 414.489 L232.206 425.068 L229.451 427.869 L218.826 417.244 L208.201 427.869 L205.47 425.068 L216.025 414.489 L205.47 403.864 L208.201 401.063 L218.826 411.688 L229.451 401.063 L232.206 403.864 Z" fill="#000000" fill-rule="evenodd" fill-opacity="1" /><path clip-path="url(#clip640)" d="M 0 0 M238.085 425.392 L245.724 425.392 L245.724 399.026 L237.414 400.693 L237.414 396.433 L245.678 394.767 L250.354 394.767 L250.354 425.392 L257.993 425.392 L257.993 429.327 L238.085 429.327 L238.085 425.392 Z" fill="#000000" fill-rule="evenodd" fill-opacity="1" /><path clip-path="url(#clip640)" d="M 0 0 M273.062 397.846 Q269.451 397.846 267.622 401.41 Q265.817 404.952 265.817 412.082 Q265.817 419.188 267.622 422.753 Q269.451 426.294 273.062 426.294 Q276.696 426.294 278.502 422.753 Q280.331 419.188 280.331 412.082 Q280.331 404.952 278.502 401.41 Q276.696 397.846 273.062 397.846 M273.062 394.142 Q278.872 394.142 281.928 398.748 Q285.006 403.332 285.006 412.082 Q285.006 420.808 281.928 425.415 Q278.872 429.998 273.062 429.998 Q267.252 429.998 264.173 425.415 Q261.118 420.808 261.118 412.082 Q261.118 403.332 264.173 398.748 Q267.252 394.142 273.062 394.142 Z" fill="#000000" fill-rule="evenodd" fill-opacity="1" /><path clip-path="url(#clip640)" d="M 0 0 M285.006 381.698 L300.184 381.698 L300.184 383.485 L285.006 383.485 L285.006 381.698 Z" fill="#000000" fill-rule="evenodd" fill-opacity="1" /><path clip-path="url(#clip640)" d="M 0 0 M302.855 373.648 L312.447 373.648 L312.447 375.435 L305.093 375.435 L305.093 379.272 Q305.62 379.103 306.165 379.027 Q306.692 378.952 307.218 378.952 Q310.246 378.952 312.014 380.4 Q313.782 381.83 313.782 384.294 Q313.782 386.833 311.958 388.243 Q310.152 389.635 306.842 389.635 Q305.714 389.635 304.529 389.466 Q303.344 389.296 302.103 388.958 L302.103 386.833 Q303.175 387.34 304.341 387.604 Q305.507 387.848 306.805 387.848 Q308.892 387.848 310.115 386.889 Q311.337 385.93 311.337 384.294 Q311.337 382.657 310.115 381.698 Q308.892 380.739 306.805 380.739 Q305.827 380.739 304.849 380.927 Q303.871 381.115 302.855 381.51 L302.855 373.648 Z" fill="#000000" fill-rule="evenodd" fill-opacity="1" /><path clip-path="url(#clip640)" d="M 0 0 M143.688 229.664 L151.327 229.664 L151.327 203.298 L143.016 204.965 L143.016 200.706 L151.28 199.039 L155.956 199.039 L155.956 229.664 L163.595 229.664 L163.595 233.599 L143.688 233.599 L143.688 229.664 Z" fill="#000000" fill-rule="evenodd" fill-opacity="1" /><path clip-path="url(#clip640)" d="M 0 0 M168.664 227.719 L173.549 227.719 L173.549 233.599 L168.664 233.599 L168.664 227.719 Z" fill="#000000" fill-rule="evenodd" fill-opacity="1" /><path clip-path="url(#clip640)" d="M 0 0 M182.646 229.664 L198.965 229.664 L198.965 233.599 L177.021 233.599 L177.021 229.664 Q179.683 226.909 184.266 222.28 Q188.873 217.627 190.053 216.284 Q192.299 213.761 193.178 212.025 Q194.081 210.266 194.081 208.576 Q194.081 205.821 192.137 204.085 Q190.215 202.349 187.113 202.349 Q184.914 202.349 182.461 203.113 Q180.03 203.877 177.252 205.428 L177.252 200.706 Q180.076 199.571 182.53 198.993 Q184.984 198.414 187.021 198.414 Q192.391 198.414 195.586 201.099 Q198.78 203.784 198.78 208.275 Q198.78 210.405 197.97 212.326 Q197.183 214.224 195.076 216.817 Q194.498 217.488 191.396 220.706 Q188.294 223.9 182.646 229.664 Z" fill="#000000" fill-rule="evenodd" fill-opacity="1" /><path clip-path="url(#clip640)" d="M 0 0 M232.206 208.136 L221.627 218.761 L232.206 229.34 L229.451 232.141 L218.826 221.516 L208.201 232.141 L205.47 229.34 L216.025 218.761 L205.47 208.136 L208.201 205.335 L218.826 215.96 L229.451 205.335 L232.206 208.136 Z" fill="#000000" fill-rule="evenodd" fill-opacity="1" /><path clip-path="url(#clip640)" d="M 0 0 M238.085 229.664 L245.724 229.664 L245.724 203.298 L237.414 204.965 L237.414 200.706 L245.678 199.039 L250.354 199.039 L250.354 229.664 L257.993 229.664 L257.993 233.599 L238.085 233.599 L238.085 229.664 Z" fill="#000000" fill-rule="evenodd" fill-opacity="1" /><path clip-path="url(#clip640)" d="M 0 0 M273.062 202.118 Q269.451 202.118 267.622 205.682 Q265.817 209.224 265.817 216.354 Q265.817 223.46 267.622 227.025 Q269.451 230.567 273.062 230.567 Q276.696 230.567 278.502 227.025 Q280.331 223.46 280.331 216.354 Q280.331 209.224 278.502 205.682 Q276.696 202.118 273.062 202.118 M273.062 198.414 Q278.872 198.414 281.928 203.02 Q285.006 207.604 285.006 216.354 Q285.006 225.08 281.928 229.687 Q278.872 234.27 273.062 234.27 Q267.252 234.27 264.173 229.687 Q261.118 225.08 261.118 216.354 Q261.118 207.604 264.173 203.02 Q267.252 198.414 273.062 198.414 Z" fill="#000000" fill-rule="evenodd" fill-opacity="1" /><path clip-path="url(#clip640)" d="M 0 0 M285.006 185.97 L300.184 185.97 L300.184 187.757 L285.006 187.757 L285.006 185.97 Z" fill="#000000" fill-rule="evenodd" fill-opacity="1" /><path clip-path="url(#clip640)" d="M 0 0 M302.855 177.92 L312.447 177.92 L312.447 179.707 L305.093 179.707 L305.093 183.544 Q305.62 183.375 306.165 183.3 Q306.692 183.224 307.218 183.224 Q310.246 183.224 312.014 184.672 Q313.782 186.102 313.782 188.566 Q313.782 191.105 311.958 192.515 Q310.152 193.907 306.842 193.907 Q305.714 193.907 304.529 193.738 Q303.344 193.569 302.103 193.23 L302.103 191.105 Q303.175 191.613 304.341 191.876 Q305.507 192.12 306.805 192.12 Q308.892 192.12 310.115 191.161 Q311.337 190.202 311.337 188.566 Q311.337 186.929 310.115 185.97 Q308.892 185.011 306.805 185.011 Q305.827 185.011 304.849 185.199 Q303.871 185.387 302.855 185.782 L302.855 177.92 Z" fill="#000000" fill-rule="evenodd" fill-opacity="1" /><path clip-path="url(#clip640)" d="M 0 0 M1006.09 1538.25 Q1006.09 1544.71 1008.73 1548.4 Q1011.4 1552.07 1016.05 1552.07 Q1020.7 1552.07 1023.37 1548.4 Q1026.04 1544.71 1026.04 1538.25 Q1026.04 1531.79 1023.37 1528.13 Q1020.7 1524.44 1016.05 1524.44 Q1011.4 1524.44 1008.73 1528.13 Q1006.09 1531.79 1006.09 1538.25 M1026.04 1550.7 Q1024.2 1553.88 1021.37 1555.44 Q1018.57 1556.97 1014.62 1556.97 Q1008.16 1556.97 1004.08 1551.81 Q1000.04 1546.65 1000.04 1538.25 Q1000.04 1529.85 1004.08 1524.69 Q1008.16 1519.54 1014.62 1519.54 Q1018.57 1519.54 1021.37 1521.1 Q1024.2 1522.62 1026.04 1525.81 L1026.04 1520.4 L1031.9 1520.4 L1031.9 1569.6 L1026.04 1569.6 L1026.04 1550.7 Z" fill="#000000" fill-rule="evenodd" fill-opacity="1" /><path clip-path="url(#clip640)" d="M 0 0 M1065.13 1566.87 L1065.13 1571.42 L1031.26 1571.42 L1031.26 1566.87 L1065.13 1566.87 Z" fill="#000000" fill-rule="evenodd" fill-opacity="1" /><path clip-path="url(#clip640)" d="M 0 0 M1091.93 1525.87 Q1090.94 1525.3 1089.77 1525.04 Q1088.62 1524.76 1087.22 1524.76 Q1082.25 1524.76 1079.58 1528 Q1076.94 1531.22 1076.94 1537.27 L1076.94 1556.04 L1071.05 1556.04 L1071.05 1520.4 L1076.94 1520.4 L1076.94 1525.93 Q1078.78 1522.69 1081.74 1521.13 Q1084.7 1519.54 1088.94 1519.54 Q1089.54 1519.54 1090.27 1519.63 Q1091.01 1519.7 1091.9 1519.85 L1091.93 1525.87 Z" fill="#000000" fill-rule="evenodd" fill-opacity="1" /><path clip-path="url(#clip640)" d="M 0 0 M1114.27 1538.12 Q1107.18 1538.12 1104.44 1539.75 Q1101.7 1541.37 1101.7 1545.29 Q1101.7 1548.4 1103.74 1550.25 Q1105.81 1552.07 1109.34 1552.07 Q1114.21 1552.07 1117.14 1548.63 Q1120.1 1545.16 1120.1 1539.43 L1120.1 1538.12 L1114.27 1538.12 M1125.95 1535.71 L1125.95 1556.04 L1120.1 1556.04 L1120.1 1550.63 Q1118.09 1553.88 1115.1 1555.44 Q1112.11 1556.97 1107.78 1556.97 Q1102.31 1556.97 1099.06 1553.91 Q1095.84 1550.82 1095.84 1545.67 Q1095.84 1539.65 1099.86 1536.6 Q1103.9 1533.54 1111.89 1533.54 L1120.1 1533.54 L1120.1 1532.97 Q1120.1 1528.93 1117.42 1526.73 Q1114.78 1524.5 1109.98 1524.5 Q1106.92 1524.5 1104.02 1525.23 Q1101.13 1525.97 1098.45 1527.43 L1098.45 1522.02 Q1101.67 1520.78 1104.69 1520.17 Q1107.72 1519.54 1110.58 1519.54 Q1118.32 1519.54 1122.14 1523.55 Q1125.95 1527.56 1125.95 1535.71 Z" fill="#000000" fill-rule="evenodd" fill-opacity="1" /><path clip-path="url(#clip640)" d="M 0 0 M1132.1 1520.4 L1137.95 1520.4 L1137.95 1556.04 L1132.1 1556.04 L1132.1 1520.4 M1132.1 1506.52 L1137.95 1506.52 L1137.95 1513.93 L1132.1 1513.93 L1132.1 1506.52 Z" fill="#000000" fill-rule="evenodd" fill-opacity="1" /><path clip-path="url(#clip640)" d="M 0 0 M1173.73 1534.53 L1173.73 1556.04 L1167.87 1556.04 L1167.87 1534.72 Q1167.87 1529.66 1165.9 1527.14 Q1163.93 1524.63 1159.98 1524.63 Q1155.24 1524.63 1152.5 1527.65 Q1149.76 1530.68 1149.76 1535.9 L1149.76 1556.04 L1143.87 1556.04 L1143.87 1520.4 L1149.76 1520.4 L1149.76 1525.93 Q1151.86 1522.72 1154.7 1521.13 Q1157.56 1519.54 1161.28 1519.54 Q1167.43 1519.54 1170.58 1523.36 Q1173.73 1527.14 1173.73 1534.53 Z" fill="#000000" fill-rule="evenodd" fill-opacity="1" /><path clip-path="url(#clip640)" d="M 0 0 M1214.41 1524.5 Q1209.7 1524.5 1206.96 1528.19 Q1204.22 1531.85 1204.22 1538.25 Q1204.22 1544.65 1206.93 1548.34 Q1209.66 1552 1214.41 1552 Q1219.08 1552 1221.82 1548.31 Q1224.56 1544.62 1224.56 1538.25 Q1224.56 1531.92 1221.82 1528.23 Q1219.08 1524.5 1214.41 1524.5 M1214.41 1519.54 Q1222.04 1519.54 1226.41 1524.5 Q1230.77 1529.47 1230.77 1538.25 Q1230.77 1547 1226.41 1552 Q1222.04 1556.97 1214.41 1556.97 Q1206.74 1556.97 1202.37 1552 Q1198.05 1547 1198.05 1538.25 Q1198.05 1529.47 1202.37 1524.5 Q1206.74 1519.54 1214.41 1519.54 Z" fill="#000000" fill-rule="evenodd" fill-opacity="1" /><path clip-path="url(#clip640)" d="M 0 0 M1257.57 1525.87 Q1256.58 1525.3 1255.4 1525.04 Q1254.26 1524.76 1252.85 1524.76 Q1247.89 1524.76 1245.22 1528 Q1242.57 1531.22 1242.57 1537.27 L1242.57 1556.04 L1236.69 1556.04 L1236.69 1520.4 L1242.57 1520.4 L1242.57 1525.93 Q1244.42 1522.69 1247.38 1521.13 Q1250.34 1519.54 1254.57 1519.54 Q1255.18 1519.54 1255.91 1519.63 Q1256.64 1519.7 1257.53 1519.85 L1257.57 1525.87 Z" fill="#000000" fill-rule="evenodd" fill-opacity="1" /><path clip-path="url(#clip640)" d="M 0 0 M1287.93 1538.25 Q1287.93 1544.71 1290.57 1548.4 Q1293.25 1552.07 1297.89 1552.07 Q1302.54 1552.07 1305.21 1548.4 Q1307.89 1544.71 1307.89 1538.25 Q1307.89 1531.79 1305.21 1528.13 Q1302.54 1524.44 1297.89 1524.44 Q1293.25 1524.44 1290.57 1528.13 Q1287.93 1531.79 1287.93 1538.25 M1307.89 1550.7 Q1306.04 1553.88 1303.21 1555.44 Q1300.41 1556.97 1296.46 1556.97 Q1290 1556.97 1285.92 1551.81 Q1281.88 1546.65 1281.88 1538.25 Q1281.88 1529.85 1285.92 1524.69 Q1290 1519.54 1296.46 1519.54 Q1300.41 1519.54 1303.21 1521.1 Q1306.04 1522.62 1307.89 1525.81 L1307.89 1520.4 L1313.74 1520.4 L1313.74 1569.6 L1307.89 1569.6 L1307.89 1550.7 Z" fill="#000000" fill-rule="evenodd" fill-opacity="1" /><path clip-path="url(#clip640)" d="M 0 0 M1346.97 1566.87 L1346.97 1571.42 L1313.11 1571.42 L1313.11 1566.87 L1346.97 1566.87 Z" fill="#000000" fill-rule="evenodd" fill-opacity="1" /><path clip-path="url(#clip640)" d="M 0 0 M1375.84 1521.45 L1375.84 1526.98 Q1373.36 1525.71 1370.68 1525.07 Q1368.01 1524.44 1365.15 1524.44 Q1360.79 1524.44 1358.59 1525.77 Q1356.43 1527.11 1356.43 1529.79 Q1356.43 1531.82 1357.98 1533 Q1359.54 1534.15 1364.25 1535.2 L1366.26 1535.64 Q1372.5 1536.98 1375.11 1539.43 Q1377.75 1541.85 1377.75 1546.21 Q1377.75 1551.17 1373.8 1554.07 Q1369.89 1556.97 1363.01 1556.97 Q1360.15 1556.97 1357.03 1556.39 Q1353.94 1555.85 1350.5 1554.74 L1350.5 1548.69 Q1353.75 1550.38 1356.9 1551.24 Q1360.05 1552.07 1363.14 1552.07 Q1367.28 1552.07 1369.51 1550.66 Q1371.73 1549.23 1371.73 1546.65 Q1371.73 1544.27 1370.11 1542.99 Q1368.52 1541.72 1363.08 1540.54 L1361.04 1540.07 Q1355.6 1538.92 1353.18 1536.56 Q1350.76 1534.18 1350.76 1530.04 Q1350.76 1525.01 1354.32 1522.27 Q1357.89 1519.54 1364.45 1519.54 Q1367.69 1519.54 1370.56 1520.01 Q1373.42 1520.49 1375.84 1521.45 Z" fill="#000000" fill-rule="evenodd" fill-opacity="1" /><path clip-path="url(#clip640)" d="M 0 0 M1413.53 1534.53 L1413.53 1556.04 L1407.67 1556.04 L1407.67 1534.72 Q1407.67 1529.66 1405.7 1527.14 Q1403.72 1524.63 1399.78 1524.63 Q1395.03 1524.63 1392.3 1527.65 Q1389.56 1530.68 1389.56 1535.9 L1389.56 1556.04 L1383.67 1556.04 L1383.67 1520.4 L1389.56 1520.4 L1389.56 1525.93 Q1391.66 1522.72 1394.49 1521.13 Q1397.36 1519.54 1401.08 1519.54 Q1407.22 1519.54 1410.37 1523.36 Q1413.53 1527.14 1413.53 1534.53 Z" fill="#000000" fill-rule="evenodd" fill-opacity="1" /><path clip-path="url(#clip640)" d="M 0 0 M1433.48 1524.5 Q1428.77 1524.5 1426.03 1528.19 Q1423.3 1531.85 1423.3 1538.25 Q1423.3 1544.65 1426 1548.34 Q1428.74 1552 1433.48 1552 Q1438.16 1552 1440.9 1548.31 Q1443.64 1544.62 1443.64 1538.25 Q1443.64 1531.92 1440.9 1528.23 Q1438.16 1524.5 1433.48 1524.5 M1433.48 1519.54 Q1441.12 1519.54 1445.48 1524.5 Q1449.84 1529.47 1449.84 1538.25 Q1449.84 1547 1445.48 1552 Q1441.12 1556.97 1433.48 1556.97 Q1425.81 1556.97 1421.45 1552 Q1417.12 1547 1417.12 1538.25 Q1417.12 1529.47 1421.45 1524.5 Q1425.81 1519.54 1433.48 1519.54 Z" fill="#000000" fill-rule="evenodd" fill-opacity="1" /><path clip-path="url(#clip640)" d="M 0 0 M1452.58 1520.4 L1458.44 1520.4 L1465.76 1548.21 L1473.04 1520.4 L1479.95 1520.4 L1487.27 1548.21 L1494.56 1520.4 L1500.42 1520.4 L1491.09 1556.04 L1484.18 1556.04 L1476.51 1526.83 L1468.81 1556.04 L1461.9 1556.04 L1452.58 1520.4 Z" fill="#000000" fill-rule="evenodd" fill-opacity="1" /><path clip-path="url(#clip640)" d="M 0 0 M1526.74 1506.52 L1540.23 1506.52 L1540.23 1511.07 L1532.6 1511.07 L1532.6 1560.09 L1540.23 1560.09 L1540.23 1564.64 L1526.74 1564.64 L1526.74 1506.52 Z" fill="#000000" fill-rule="evenodd" fill-opacity="1" /><path clip-path="url(#clip640)" d="M 0 0 M1569.84 1537.81 Q1569.84 1531.44 1567.19 1527.94 Q1564.58 1524.44 1559.84 1524.44 Q1555.13 1524.44 1552.49 1527.94 Q1549.88 1531.44 1549.88 1537.81 Q1549.88 1544.14 1552.49 1547.64 Q1555.13 1551.14 1559.84 1551.14 Q1564.58 1551.14 1567.19 1547.64 Q1569.84 1544.14 1569.84 1537.81 M1575.69 1551.62 Q1575.69 1560.72 1571.65 1565.15 Q1567.61 1569.6 1559.27 1569.6 Q1556.18 1569.6 1553.44 1569.13 Q1550.71 1568.68 1548.13 1567.72 L1548.13 1562.03 Q1550.71 1563.43 1553.22 1564.1 Q1555.74 1564.76 1558.35 1564.76 Q1564.11 1564.76 1566.97 1561.74 Q1569.84 1558.75 1569.84 1552.67 L1569.84 1549.77 Q1568.02 1552.92 1565.19 1554.48 Q1562.36 1556.04 1558.41 1556.04 Q1551.85 1556.04 1547.84 1551.05 Q1543.83 1546.05 1543.83 1537.81 Q1543.83 1529.53 1547.84 1524.53 Q1551.85 1519.54 1558.41 1519.54 Q1562.36 1519.54 1565.19 1521.1 Q1568.02 1522.66 1569.84 1525.81 L1569.84 1520.4 L1575.69 1520.4 L1575.69 1551.62 Z" fill="#000000" fill-rule="evenodd" fill-opacity="1" /><path clip-path="url(#clip640)" d="M 0 0 M1592.24 1508.52 L1597.65 1508.52 L1581.1 1562.09 L1575.69 1562.09 L1592.24 1508.52 Z" fill="#000000" fill-rule="evenodd" fill-opacity="1" /><path clip-path="url(#clip640)" d="M 0 0 M1603.57 1506.52 L1609.46 1506.52 L1609.46 1535.77 L1626.94 1520.4 L1634.42 1520.4 L1615.51 1537.07 L1635.21 1556.04 L1627.57 1556.04 L1609.46 1538.63 L1609.46 1556.04 L1603.57 1556.04 L1603.57 1506.52 Z" fill="#000000" fill-rule="evenodd" fill-opacity="1" /><path clip-path="url(#clip640)" d="M 0 0 M1664.81 1537.81 Q1664.81 1531.44 1662.17 1527.94 Q1659.56 1524.44 1654.82 1524.44 Q1650.11 1524.44 1647.47 1527.94 Q1644.86 1531.44 1644.86 1537.81 Q1644.86 1544.14 1647.47 1547.64 Q1650.11 1551.14 1654.82 1551.14 Q1659.56 1551.14 1662.17 1547.64 Q1664.81 1544.14 1664.81 1537.81 M1670.67 1551.62 Q1670.67 1560.72 1666.63 1565.15 Q1662.58 1569.6 1654.24 1569.6 Q1651.16 1569.6 1648.42 1569.13 Q1645.68 1568.68 1643.1 1567.72 L1643.1 1562.03 Q1645.68 1563.43 1648.2 1564.1 Q1650.71 1564.76 1653.32 1564.76 Q1659.08 1564.76 1661.95 1561.74 Q1664.81 1558.75 1664.81 1552.67 L1664.81 1549.77 Q1663 1552.92 1660.16 1554.48 Q1657.33 1556.04 1653.39 1556.04 Q1646.83 1556.04 1642.82 1551.05 Q1638.81 1546.05 1638.81 1537.81 Q1638.81 1529.53 1642.82 1524.53 Q1646.83 1519.54 1653.39 1519.54 Q1657.33 1519.54 1660.16 1521.1 Q1663 1522.66 1664.81 1525.81 L1664.81 1520.4 L1670.67 1520.4 L1670.67 1551.62 Z" fill="#000000" fill-rule="evenodd" fill-opacity="1" /><path clip-path="url(#clip640)" d="M 0 0 M1690.5 1506.52 L1690.5 1564.64 L1677 1564.64 L1677 1560.09 L1684.61 1560.09 L1684.61 1511.07 L1677 1511.07 L1677 1506.52 L1690.5 1506.52 Z" fill="#000000" fill-rule="evenodd" fill-opacity="1" /><path clip-path="url(#clip640)" d="M 0 0 M70.0847 993.691 Q70.0847 1000.79 71.7079 1003.53 Q73.3312 1006.26 77.2461 1006.26 Q80.3653 1006.26 82.2114 1004.23 Q84.0256 1002.16 84.0256 998.625 Q84.0256 993.755 80.5881 990.827 Q77.1188 987.867 71.3897 987.867 L70.0847 987.867 L70.0847 993.691 M67.6657 982.01 L88.0042 982.01 L88.0042 987.867 L82.5933 987.867 Q85.8398 989.872 87.3994 992.864 Q88.9272 995.856 88.9272 1000.18 Q88.9272 1005.66 85.8716 1008.91 Q82.7843 1012.12 77.6281 1012.12 Q71.6125 1012.12 68.5569 1008.11 Q65.5014 1004.07 65.5014 996.079 L65.5014 987.867 L64.9285 987.867 Q60.8862 987.867 58.6901 990.54 Q56.4621 993.182 56.4621 997.988 Q56.4621 1001.04 57.1941 1003.94 Q57.9262 1006.84 59.3903 1009.51 L53.9795 1009.51 Q52.7381 1006.3 52.1334 1003.27 Q51.4968 1000.25 51.4968 997.384 Q51.4968 989.649 55.5072 985.83 Q59.5176 982.01 67.6657 982.01 Z" fill="#000000" fill-rule="evenodd" fill-opacity="1" /><path clip-path="url(#clip640)" d="M 0 0 M53.7248 950.214 L59.1993 950.214 Q57.8307 952.696 57.1623 955.211 Q56.4621 957.693 56.4621 960.24 Q56.4621 965.937 60.0905 969.088 Q63.6872 972.239 70.212 972.239 Q76.7369 972.239 80.3653 969.088 Q83.9619 965.937 83.9619 960.24 Q83.9619 957.693 83.2935 955.211 Q82.5933 952.696 81.2247 950.214 L86.6355 950.214 Q87.7814 952.665 88.3543 955.306 Q88.9272 957.916 88.9272 960.876 Q88.9272 968.929 83.8664 973.671 Q78.8057 978.414 70.212 978.414 Q61.491 978.414 56.4939 973.64 Q51.4968 968.833 51.4968 960.494 Q51.4968 957.789 52.0697 955.211 Q52.6108 952.633 53.7248 950.214 Z" fill="#000000" fill-rule="evenodd" fill-opacity="1" /><path clip-path="url(#clip640)" d="M 0 0 M53.7248 918.417 L59.1993 918.417 Q57.8307 920.9 57.1623 923.414 Q56.4621 925.897 56.4621 928.443 Q56.4621 934.14 60.0905 937.291 Q63.6872 940.442 70.212 940.442 Q76.7369 940.442 80.3653 937.291 Q83.9619 934.14 83.9619 928.443 Q83.9619 925.897 83.2935 923.414 Q82.5933 920.9 81.2247 918.417 L86.6355 918.417 Q87.7814 920.868 88.3543 923.51 Q88.9272 926.12 88.9272 929.08 Q88.9272 937.132 83.8664 941.875 Q78.8057 946.617 70.212 946.617 Q61.491 946.617 56.4939 941.843 Q51.4968 937.037 51.4968 928.698 Q51.4968 925.992 52.0697 923.414 Q52.6108 920.836 53.7248 918.417 Z" fill="#000000" fill-rule="evenodd" fill-opacity="1" /><path clip-path="url(#clip640)" d="M 0 0 M57.8307 891.617 Q57.2578 892.604 57.0032 893.782 Q56.7167 894.928 56.7167 896.328 Q56.7167 901.293 59.9632 903.967 Q63.1779 906.609 69.2253 906.609 L88.0042 906.609 L88.0042 912.497 L52.3562 912.497 L52.3562 906.609 L57.8944 906.609 Q54.6479 904.763 53.0883 901.803 Q51.4968 898.842 51.4968 894.609 Q51.4968 894.005 51.5923 893.272 Q51.656 892.54 51.8151 891.649 L57.8307 891.617 Z" fill="#000000" fill-rule="evenodd" fill-opacity="1" /><path clip-path="url(#clip640)" d="M 0 0 M68.7161 856.415 L71.5806 856.415 L71.5806 883.342 Q77.6281 882.96 80.8109 879.714 Q83.9619 876.435 83.9619 870.611 Q83.9619 867.237 83.1344 864.086 Q82.3069 860.903 80.6518 857.784 L86.1899 857.784 Q87.5267 860.935 88.227 864.245 Q88.9272 867.555 88.9272 870.961 Q88.9272 879.491 83.9619 884.488 Q78.9967 889.453 70.5303 889.453 Q61.7774 889.453 56.6531 884.742 Q51.4968 880 51.4968 871.979 Q51.4968 864.786 56.1438 860.616 Q60.7589 856.415 68.7161 856.415 M66.9973 862.271 Q62.1912 862.335 59.3266 864.977 Q56.4621 867.587 56.4621 871.916 Q56.4621 876.817 59.2312 879.777 Q62.0002 882.705 67.0292 883.151 L66.9973 862.271 Z" fill="#000000" fill-rule="evenodd" fill-opacity="1" /><path clip-path="url(#clip640)" d="M 0 0 M42.2347 844.479 L52.3562 844.479 L52.3562 832.416 L56.9077 832.416 L56.9077 844.479 L76.2594 844.479 Q80.6199 844.479 81.8613 843.302 Q83.1026 842.092 83.1026 838.432 L83.1026 832.416 L88.0042 832.416 L88.0042 838.432 Q88.0042 845.211 85.4897 847.789 Q82.9434 850.368 76.2594 850.368 L56.9077 850.368 L56.9077 854.664 L52.3562 854.664 L52.3562 850.368 L42.2347 850.368 L42.2347 844.479 Z" fill="#000000" fill-rule="evenodd" fill-opacity="1" /><path clip-path="url(#clip640)" d="M 0 0 M52.3562 826.273 L52.3562 820.417 L88.0042 820.417 L88.0042 826.273 L52.3562 826.273 M38.479 826.273 L38.479 820.417 L45.895 820.417 L45.895 826.273 L38.479 826.273 Z" fill="#000000" fill-rule="evenodd" fill-opacity="1" /><path clip-path="url(#clip640)" d="M 0 0 M56.4621 800.46 Q56.4621 805.171 60.1542 807.908 Q63.8145 810.646 70.212 810.646 Q76.6095 810.646 80.3017 807.94 Q83.9619 805.203 83.9619 800.46 Q83.9619 795.782 80.2698 793.044 Q76.5777 790.307 70.212 790.307 Q63.8781 790.307 60.186 793.044 Q56.4621 795.782 56.4621 800.46 M51.4968 800.46 Q51.4968 792.822 56.4621 788.461 Q61.4273 784.101 70.212 784.101 Q78.9649 784.101 83.9619 788.461 Q88.9272 792.822 88.9272 800.46 Q88.9272 808.131 83.9619 812.492 Q78.9649 816.82 70.212 816.82 Q61.4273 816.82 56.4621 812.492 Q51.4968 808.131 51.4968 800.46 Z" fill="#000000" fill-rule="evenodd" fill-opacity="1" /><path clip-path="url(#clip640)" d="M 0 0 M66.4881 748.325 L88.0042 748.325 L88.0042 754.182 L66.679 754.182 Q61.6183 754.182 59.1038 756.155 Q56.5894 758.129 56.5894 762.075 Q56.5894 766.818 59.6131 769.555 Q62.6368 772.292 67.8567 772.292 L88.0042 772.292 L88.0042 778.18 L52.3562 778.18 L52.3562 772.292 L57.8944 772.292 Q54.6797 770.192 53.0883 767.359 Q51.4968 764.494 51.4968 760.77 Q51.4968 754.627 55.3163 751.476 Q59.1038 748.325 66.4881 748.325 Z" fill="#000000" fill-rule="evenodd" fill-opacity="1" /><path clip-path="url(#clip640)" d="M 0 0 M57.8307 700.805 Q57.2578 701.792 57.0032 702.97 Q56.7167 704.115 56.7167 705.516 Q56.7167 710.481 59.9632 713.155 Q63.1779 715.797 69.2253 715.797 L88.0042 715.797 L88.0042 721.685 L52.3562 721.685 L52.3562 715.797 L57.8944 715.797 Q54.6479 713.951 53.0883 710.99 Q51.4968 708.03 51.4968 703.797 Q51.4968 703.192 51.5923 702.46 Q51.656 701.728 51.8151 700.837 L57.8307 700.805 Z" fill="#000000" fill-rule="evenodd" fill-opacity="1" /><path clip-path="url(#clip640)" d="M 0 0 M70.0847 678.462 Q70.0847 685.559 71.7079 688.297 Q73.3312 691.034 77.2461 691.034 Q80.3653 691.034 82.2114 688.997 Q84.0256 686.928 84.0256 683.395 Q84.0256 678.525 80.5881 675.597 Q77.1188 672.637 71.3897 672.637 L70.0847 672.637 L70.0847 678.462 M67.6657 666.781 L88.0042 666.781 L88.0042 672.637 L82.5933 672.637 Q85.8398 674.642 87.3994 677.634 Q88.9272 680.626 88.9272 684.955 Q88.9272 690.429 85.8716 693.676 Q82.7843 696.89 77.6281 696.89 Q71.6125 696.89 68.5569 692.88 Q65.5014 688.838 65.5014 680.849 L65.5014 672.637 L64.9285 672.637 Q60.8862 672.637 58.6901 675.311 Q56.4621 677.952 56.4621 682.759 Q56.4621 685.814 57.1941 688.71 Q57.9262 691.607 59.3903 694.28 L53.9795 694.28 Q52.7381 691.066 52.1334 688.042 Q51.4968 685.018 51.4968 682.154 Q51.4968 674.419 55.5072 670.6 Q59.5176 666.781 67.6657 666.781 Z" fill="#000000" fill-rule="evenodd" fill-opacity="1" /><path clip-path="url(#clip640)" d="M 0 0 M42.2347 654.845 L52.3562 654.845 L52.3562 642.782 L56.9077 642.782 L56.9077 654.845 L76.2594 654.845 Q80.6199 654.845 81.8613 653.667 Q83.1026 652.458 83.1026 648.798 L83.1026 642.782 L88.0042 642.782 L88.0042 648.798 Q88.0042 655.577 85.4897 658.155 Q82.9434 660.733 76.2594 660.733 L56.9077 660.733 L56.9077 665.03 L52.3562 665.03 L52.3562 660.733 L42.2347 660.733 L42.2347 654.845 Z" fill="#000000" fill-rule="evenodd" fill-opacity="1" /><path clip-path="url(#clip640)" d="M 0 0 M68.7161 606.147 L71.5806 606.147 L71.5806 633.074 Q77.6281 632.692 80.8109 629.446 Q83.9619 626.167 83.9619 620.343 Q83.9619 616.969 83.1344 613.818 Q82.3069 610.635 80.6518 607.516 L86.1899 607.516 Q87.5267 610.667 88.227 613.977 Q88.9272 617.287 88.9272 620.693 Q88.9272 629.223 83.9619 634.22 Q78.9967 639.185 70.5303 639.185 Q61.7774 639.185 56.6531 634.475 Q51.4968 629.732 51.4968 621.711 Q51.4968 614.518 56.1438 610.349 Q60.7589 606.147 68.7161 606.147 M66.9973 612.004 Q62.1912 612.067 59.3266 614.709 Q56.4621 617.319 56.4621 621.648 Q56.4621 626.549 59.2312 629.509 Q62.0002 632.438 67.0292 632.883 L66.9973 612.004 Z" fill="#000000" fill-rule="evenodd" fill-opacity="1" /><path clip-path="url(#clip640)" d="M 0 0 M38.479 579.825 L38.479 566.33 L43.0304 566.33 L43.0304 573.969 L92.0464 573.969 L92.0464 566.33 L96.5979 566.33 L96.5979 579.825 L38.479 579.825 Z" fill="#000000" fill-rule="evenodd" fill-opacity="1" /><path clip-path="url(#clip640)" d="M 0 0 M82.5933 558.245 L82.5933 547.742 L46.3406 547.742 L48.6323 559.168 L42.7758 559.168 L40.4842 547.806 L40.4842 541.376 L82.5933 541.376 L82.5933 530.873 L88.0042 530.873 L88.0042 558.245 L82.5933 558.245 Z" fill="#000000" fill-rule="evenodd" fill-opacity="1" /><path clip-path="url(#clip640)" d="M 0 0 M40.4842 514.322 L40.4842 508.911 L94.0516 525.462 L94.0516 530.873 L40.4842 514.322 Z" fill="#000000" fill-rule="evenodd" fill-opacity="1" /><path clip-path="url(#clip640)" d="M 0 0 M53.4065 480.043 L58.9447 480.043 Q57.6716 482.525 57.035 485.199 Q56.3984 487.872 56.3984 490.737 Q56.3984 495.098 57.7352 497.294 Q59.072 499.458 61.7456 499.458 Q63.7826 499.458 64.9603 497.898 Q66.1061 496.339 67.1565 491.628 L67.6021 489.623 Q68.9389 483.385 71.3897 480.775 Q73.8086 478.133 78.1691 478.133 Q83.1344 478.133 86.0308 482.08 Q88.9272 485.995 88.9272 492.87 Q88.9272 495.734 88.3543 498.853 Q87.8132 501.941 86.6992 505.378 L80.6518 505.378 Q82.3387 502.132 83.198 498.981 Q84.0256 495.83 84.0256 492.742 Q84.0256 488.604 82.6251 486.376 Q81.1929 484.148 78.6147 484.148 Q76.2276 484.148 74.9545 485.772 Q73.6813 487.363 72.5037 492.806 L72.0262 494.843 Q70.8804 500.286 68.5251 502.705 Q66.138 505.124 62.0002 505.124 Q56.9713 505.124 54.2341 501.559 Q51.4968 497.994 51.4968 491.437 Q51.4968 488.191 51.9743 485.326 Q52.4517 482.462 53.4065 480.043 Z" fill="#000000" fill-rule="evenodd" fill-opacity="1" /><path clip-path="url(#clip640)" d="M 0 0 M38.479 458.304 L96.5979 458.304 L96.5979 471.799 L92.0464 471.799 L92.0464 464.192 L43.0304 464.192 L43.0304 471.799 L38.479 471.799 L38.479 458.304 Z" fill="#000000" fill-rule="evenodd" fill-opacity="1" /><polyline clip-path="url(#clip642)" style="stroke:#009af9; stroke-width:12; stroke-opacity:1; fill:none" points="
  394.81,1384.23 414.011,1365.61 433.212,1350.07 452.413,1335.52 471.615,1321.57 490.816,1308.06 510.017,1294.89 529.218,1281.99 548.419,1269.31 567.621,1256.84 
  586.822,1244.53 606.023,1232.38 625.224,1220.37 644.425,1208.48 663.627,1196.71 682.828,1185.04 702.029,1173.47 721.23,1161.99 740.431,1150.59 759.633,1139.27 
  778.834,1128.02 798.035,1116.85 817.236,1105.74 836.437,1094.69 855.639,1083.71 874.84,1072.78 894.041,1061.91 913.242,1051.08 932.443,1040.31 951.645,1029.59 
  970.846,1018.91 990.047,1008.28 1009.25,997.685 1028.45,987.136 1047.65,976.626 1066.85,966.156 1086.05,955.722 1105.25,945.325 1124.46,934.962 1143.66,924.634 
  1162.86,914.339 1182.06,904.076 1201.26,893.844 1220.46,883.642 1239.66,873.471 1258.86,863.328 1278.06,853.213 1297.27,843.125 1316.47,833.065 1335.67,823.03 
  1354.87,813.022 1374.07,803.038 1393.27,793.078 1412.47,783.143 1431.67,773.231 1450.88,763.342 1470.08,753.475 1489.28,743.63 1508.48,733.807 1527.68,724.005 
  1546.88,714.224 1566.08,704.463 1585.28,694.722 1604.49,685.001 1623.69,675.299 1642.89,665.615 1662.09,655.951 1681.29,646.305 1700.49,636.677 1719.69,627.066 
  1738.89,617.473 1758.09,607.897 1777.3,598.338 1796.5,588.795 1815.7,579.269 1834.9,569.759 1854.1,560.264 1873.3,550.785 1892.5,541.322 1911.7,531.874 
  1930.91,522.441 1950.11,513.022 1969.31,503.618 1988.51,494.228 2007.71,484.853 2026.91,475.491 2046.11,466.143 2065.31,456.809 2084.52,447.488 2103.72,438.18 
  2122.92,428.886 2142.12,419.604 2161.32,410.335 2180.52,401.079 2199.72,391.835 2218.92,382.603 2238.12,373.383 2257.33,364.176 2276.53,354.98 2295.73,345.796 
  
  "/>
<polyline clip-path="url(#clip642)" style="stroke:#e26f46; stroke-width:12; stroke-opacity:1; fill:none" points="
  394.81,1384.23 414.011,1360.95 433.212,1341.53 452.413,1323.34 471.615,1305.91 490.816,1289.02 510.017,1272.55 529.218,1256.42 548.419,1240.58 567.621,1224.99 
  586.822,1209.61 606.023,1194.42 625.224,1179.41 644.425,1164.55 663.627,1149.83 682.828,1135.24 702.029,1120.78 721.23,1106.42 740.431,1092.17 759.633,1078.03 
  778.834,1063.97 798.035,1050 817.236,1036.11 836.437,1022.31 855.639,1008.58 874.84,994.914 894.041,981.322 913.242,967.794 932.443,954.329 951.645,940.924 
  970.846,927.577 990.047,914.285 1009.25,901.047 1028.45,887.86 1047.65,874.723 1066.85,861.635 1086.05,848.593 1105.25,835.596 1124.46,822.643 1143.66,809.733 
  1162.86,796.864 1182.06,784.035 1201.26,771.245 1220.46,758.493 1239.66,745.779 1258.86,733.1 1278.06,720.456 1297.27,707.847 1316.47,695.271 1335.67,682.728 
  1354.87,670.217 1374.07,657.738 1393.27,645.288 1412.47,632.869 1431.67,620.479 1450.88,608.117 1470.08,595.784 1489.28,583.478 1508.48,571.199 1527.68,558.947 
  1546.88,546.72 1566.08,534.519 1585.28,522.343 1604.49,510.191 1623.69,498.064 1642.89,485.96 1662.09,473.879 1681.29,461.821 1700.49,449.786 1719.69,437.773 
  1738.89,425.781 1758.09,413.811 1777.3,401.862 1796.5,389.934 1815.7,378.026 1834.9,366.139 1854.1,354.271 1873.3,342.422 1892.5,330.593 1911.7,318.783 
  1930.91,306.991 1950.11,295.218 1969.31,283.463 1988.51,271.726 2007.71,260.006 2026.91,248.304 2046.11,236.619 2065.31,224.951 2084.52,213.3 2103.72,201.666 
  2122.92,190.047 2142.12,178.445 2161.32,166.859 2180.52,155.289 2199.72,143.734 2218.92,132.194 2238.12,120.67 2257.33,109.16 2276.53,97.6656 2295.73,86.1857 
  
  "/>
<polyline clip-path="url(#clip642)" style="stroke:#3da44d; stroke-width:12; stroke-opacity:1; fill:none" points="
  394.81,1384.24 414.011,1381.98 433.212,1379.62 452.413,1377.23 471.615,1374.81 490.816,1372.37 510.017,1369.91 529.218,1367.44 548.419,1364.97 567.621,1362.48 
  586.822,1359.98 606.023,1357.48 625.224,1354.97 644.425,1352.45 663.627,1349.92 682.828,1347.4 702.029,1344.86 721.23,1342.32 740.431,1339.78 759.633,1337.23 
  778.834,1334.68 798.035,1332.12 817.236,1329.56 836.437,1327 855.639,1324.43 874.84,1321.86 894.041,1319.29 913.242,1316.71 932.443,1314.13 951.645,1311.55 
  970.846,1308.96 990.047,1306.37 1009.25,1303.78 1028.45,1301.19 1047.65,1298.59 1066.85,1296 1086.05,1293.4 1105.25,1290.79 1124.46,1288.19 1143.66,1285.58 
  1162.86,1282.97 1182.06,1280.36 1201.26,1277.75 1220.46,1275.14 1239.66,1272.52 1258.86,1269.9 1278.06,1267.28 1297.27,1264.66 1316.47,1262.04 1335.67,1259.41 
  1354.87,1256.78 1374.07,1254.16 1393.27,1251.53 1412.47,1248.89 1431.67,1246.26 1450.88,1243.63 1470.08,1240.99 1489.28,1238.35 1508.48,1235.71 1527.68,1233.07 
  1546.88,1230.43 1566.08,1227.79 1585.28,1225.14 1604.49,1222.5 1623.69,1219.85 1642.89,1217.2 1662.09,1214.55 1681.29,1211.9 1700.49,1209.25 1719.69,1206.6 
  1738.89,1203.94 1758.09,1201.29 1777.3,1198.63 1796.5,1195.97 1815.7,1193.31 1834.9,1190.65 1854.1,1187.99 1873.3,1185.33 1892.5,1182.67 1911.7,1180 
  1930.91,1177.34 1950.11,1174.67 1969.31,1172 1988.51,1169.33 2007.71,1166.66 2026.91,1163.99 2046.11,1161.32 2065.31,1158.65 2084.52,1155.98 2103.72,1153.3 
  2122.92,1150.63 2142.12,1147.95 2161.32,1145.27 2180.52,1142.59 2199.72,1139.92 2218.92,1137.24 2238.12,1134.55 2257.33,1131.87 2276.53,1129.19 2295.73,1126.51 
  
  "/>
<polyline clip-path="url(#clip642)" style="stroke:#c271d2; stroke-width:16; stroke-opacity:1; fill:none" stroke-dasharray="64, 40" points="
  394.81,1384.24 414.011,1381.98 433.212,1379.62 452.413,1377.23 471.615,1374.81 490.816,1372.37 510.017,1369.91 529.218,1367.44 548.419,1364.97 567.621,1362.48 
  586.822,1359.98 606.023,1357.48 625.224,1354.97 644.425,1352.45 663.627,1349.92 682.828,1347.4 702.029,1344.86 721.23,1342.32 740.431,1339.78 759.633,1337.23 
  778.834,1334.68 798.035,1332.12 817.236,1329.56 836.437,1327 855.639,1324.43 874.84,1321.86 894.041,1319.29 913.242,1316.71 932.443,1314.13 951.645,1311.55 
  970.846,1308.96 990.047,1306.37 1009.25,1303.78 1028.45,1301.19 1047.65,1298.59 1066.85,1296 1086.05,1293.4 1105.25,1290.79 1124.46,1288.19 1143.66,1285.58 
  1162.86,1282.97 1182.06,1280.36 1201.26,1277.75 1220.46,1275.14 1239.66,1272.52 1258.86,1269.9 1278.06,1267.28 1297.27,1264.66 1316.47,1262.04 1335.67,1259.41 
  1354.87,1256.78 1374.07,1254.16 1393.27,1251.53 1412.47,1248.89 1431.67,1246.26 1450.88,1243.63 1470.08,1240.99 1489.28,1238.35 1508.48,1235.71 1527.68,1233.07 
  1546.88,1230.43 1566.08,1227.79 1585.28,1225.14 1604.49,1222.5 1623.69,1219.85 1642.89,1217.2 1662.09,1214.55 1681.29,1211.9 1700.49,1209.25 1719.69,1206.6 
  1738.89,1203.94 1758.09,1201.29 1777.3,1198.63 1796.5,1195.97 1815.7,1193.31 1834.9,1190.65 1854.1,1187.99 1873.3,1185.33 1892.5,1182.67 1911.7,1180 
  1930.91,1177.34 1950.11,1174.67 1969.31,1172 1988.51,1169.33 2007.71,1166.66 2026.91,1163.99 2046.11,1161.32 2065.31,1158.65 2084.52,1155.98 2103.72,1153.3 
  2122.92,1150.63 2142.12,1147.95 2161.32,1145.27 2180.52,1142.59 2199.72,1139.92 2218.92,1137.24 2238.12,1134.55 2257.33,1131.87 2276.53,1129.19 2295.73,1126.51 
  
  "/>
<polyline clip-path="url(#clip642)" style="stroke:#ac8d18; stroke-width:12; stroke-opacity:1; fill:none" points="
  394.81,1384.23 414.011,1364.79 433.212,1348.57 452.413,1333.38 471.615,1318.82 490.816,1304.71 510.017,1290.96 529.218,1277.49 548.419,1264.26 567.621,1251.24 
  586.822,1238.39 606.023,1225.71 625.224,1213.17 644.425,1200.76 663.627,1188.47 682.828,1176.28 702.029,1164.2 721.23,1152.22 740.431,1140.32 759.633,1128.5 
  778.834,1116.76 798.035,1105.09 817.236,1093.5 836.437,1081.97 855.639,1070.5 874.84,1059.09 894.041,1047.74 913.242,1036.44 932.443,1025.19 951.645,1014 
  970.846,1002.85 990.047,991.75 1009.25,980.693 1028.45,969.68 1047.65,958.709 1066.85,947.778 1086.05,936.886 1105.25,926.031 1124.46,915.213 1143.66,904.431 
  1162.86,893.683 1182.06,882.969 1201.26,872.287 1220.46,861.638 1239.66,851.019 1258.86,840.43 1278.06,829.87 1297.27,819.339 1316.47,808.837 1335.67,798.361 
  1354.87,787.912 1374.07,777.49 1393.27,767.092 1412.47,756.72 1431.67,746.372 1450.88,736.049 1470.08,725.748 1489.28,715.471 1508.48,705.216 1527.68,694.983 
  1546.88,684.772 1566.08,674.582 1585.28,664.412 1604.49,654.264 1623.69,644.135 1642.89,634.027 1662.09,623.937 1681.29,613.867 1700.49,603.816 1719.69,593.783 
  1738.89,583.768 1758.09,573.771 1777.3,563.791 1796.5,553.829 1815.7,543.884 1834.9,533.956 1854.1,524.044 1873.3,514.149 1892.5,504.27 1911.7,494.406 
  1930.91,484.558 1950.11,474.725 1969.31,464.908 1988.51,455.106 2007.71,445.318 2026.91,435.545 2046.11,425.786 2065.31,416.041 2084.52,406.311 2103.72,396.594 
  2122.92,386.891 2142.12,377.201 2161.32,367.525 2180.52,357.861 2199.72,348.211 2218.92,338.573 2238.12,328.949 2257.33,319.336 2276.53,309.737 2295.73,300.149 
  
  "/>
<path clip-path="url(#clip640)" d="
M1676.06 455.989 L2285.59 455.989 L2285.59 93.1086 L1676.06 93.1086  Z
  " fill="#ffffff" fill-rule="evenodd" fill-opacity="1"/>
<polyline clip-path="url(#clip640)" style="stroke:#000000; stroke-width:4; stroke-opacity:1; fill:none" points="
  1676.06,455.989 2285.59,455.989 2285.59,93.1086 1676.06,93.1086 1676.06,455.989 
  "/>
<polyline clip-path="url(#clip640)" style="stroke:#009af9; stroke-width:4; stroke-opacity:1; fill:none" points="
  1698.45,153.589 1832.78,153.589 
  "/>
<path clip-path="url(#clip640)" d="M 0 0 M1855.17 136.309 L1859.84 136.309 L1859.84 166.933 L1876.67 166.933 L1876.67 170.869 L1855.17 170.869 L1855.17 136.309 Z" fill="#000000" fill-rule="evenodd" fill-opacity="1" /><path clip-path="url(#clip640)" d="M 0 0 M1881.14 144.943 L1885.4 144.943 L1885.4 170.869 L1881.14 170.869 L1881.14 144.943 M1881.14 134.85 L1885.4 134.85 L1885.4 140.244 L1881.14 140.244 L1881.14 134.85 Z" fill="#000000" fill-rule="evenodd" fill-opacity="1" /><path clip-path="url(#clip640)" d="M 0 0 M1892.41 157.929 Q1892.41 162.628 1894.33 165.313 Q1896.28 167.975 1899.66 167.975 Q1903.04 167.975 1904.98 165.313 Q1906.93 162.628 1906.93 157.929 Q1906.93 153.23 1904.98 150.568 Q1903.04 147.883 1899.66 147.883 Q1896.28 147.883 1894.33 150.568 Q1892.41 153.23 1892.41 157.929 M1906.93 166.98 Q1905.58 169.295 1903.52 170.429 Q1901.49 171.54 1898.62 171.54 Q1893.92 171.54 1890.95 167.79 Q1888.01 164.04 1888.01 157.929 Q1888.01 151.818 1890.95 148.068 Q1893.92 144.318 1898.62 144.318 Q1901.49 144.318 1903.52 145.452 Q1905.58 146.563 1906.93 148.878 L1906.93 144.943 L1911.19 144.943 L1911.19 180.73 L1906.93 180.73 L1906.93 166.98 Z" fill="#000000" fill-rule="evenodd" fill-opacity="1" /><path clip-path="url(#clip640)" d="M 0 0 M1932.99 141.147 L1932.99 154.04 L1945.88 154.04 L1945.88 157.975 L1932.99 157.975 L1932.99 170.869 L1929.1 170.869 L1929.1 157.975 L1916.21 157.975 L1916.21 154.04 L1929.1 154.04 L1929.1 141.147 L1932.99 141.147 Z" fill="#000000" fill-rule="evenodd" fill-opacity="1" /><path clip-path="url(#clip640)" d="M 0 0 M1966.93 154.665 Q1968.43 155.174 1969.84 156.841 Q1971.28 158.508 1972.71 161.424 L1977.46 170.869 L1972.43 170.869 L1968.01 162.003 Q1966.3 158.531 1964.68 157.396 Q1963.08 156.262 1960.31 156.262 L1955.21 156.262 L1955.21 170.869 L1950.54 170.869 L1950.54 136.309 L1961.09 136.309 Q1967.02 136.309 1969.93 138.785 Q1972.85 141.262 1972.85 146.262 Q1972.85 149.526 1971.32 151.679 Q1969.82 153.832 1966.93 154.665 M1955.21 140.151 L1955.21 152.42 L1961.09 152.42 Q1964.47 152.42 1966.18 150.869 Q1967.92 149.295 1967.92 146.262 Q1967.92 143.23 1966.18 141.702 Q1964.47 140.151 1961.09 140.151 L1955.21 140.151 Z" fill="#000000" fill-rule="evenodd" fill-opacity="1" /><path clip-path="url(#clip640)" d="M 0 0 M1992.67 157.836 Q1987.5 157.836 1985.51 159.017 Q1983.52 160.197 1983.52 163.045 Q1983.52 165.313 1985 166.656 Q1986.51 167.975 1989.08 167.975 Q1992.62 167.975 1994.75 165.475 Q1996.9 162.952 1996.9 158.785 L1996.9 157.836 L1992.67 157.836 M2001.16 156.077 L2001.16 170.869 L1996.9 170.869 L1996.9 166.933 Q1995.44 169.295 1993.27 170.429 Q1991.09 171.54 1987.94 171.54 Q1983.96 171.54 1981.6 169.318 Q1979.26 167.072 1979.26 163.322 Q1979.26 158.947 1982.18 156.725 Q1985.12 154.503 1990.93 154.503 L1996.9 154.503 L1996.9 154.086 Q1996.9 151.147 1994.96 149.549 Q1993.04 147.929 1989.54 147.929 Q1987.32 147.929 1985.21 148.461 Q1983.11 148.994 1981.16 150.059 L1981.16 146.123 Q1983.5 145.221 1985.7 144.781 Q1987.9 144.318 1989.98 144.318 Q1995.61 144.318 1998.38 147.234 Q2001.16 150.151 2001.16 156.077 Z" fill="#000000" fill-rule="evenodd" fill-opacity="1" /><path clip-path="url(#clip640)" d="M 0 0 M2005.63 144.943 L2009.89 144.943 L2009.89 170.869 L2005.63 170.869 L2005.63 144.943 M2005.63 134.85 L2009.89 134.85 L2009.89 140.244 L2005.63 140.244 L2005.63 134.85 Z" fill="#000000" fill-rule="evenodd" fill-opacity="1" /><path clip-path="url(#clip640)" d="M 0 0 M2035.91 155.221 L2035.91 170.869 L2031.65 170.869 L2031.65 155.359 Q2031.65 151.679 2030.21 149.85 Q2028.78 148.022 2025.91 148.022 Q2022.46 148.022 2020.47 150.221 Q2018.48 152.42 2018.48 156.216 L2018.48 170.869 L2014.19 170.869 L2014.19 144.943 L2018.48 144.943 L2018.48 148.971 Q2020 146.633 2022.06 145.475 Q2024.15 144.318 2026.86 144.318 Q2031.32 144.318 2033.61 147.096 Q2035.91 149.85 2035.91 155.221 Z" fill="#000000" fill-rule="evenodd" fill-opacity="1" /><path clip-path="url(#clip640)" d="M 0 0 M2038.22 155.984 L2050.7 155.984 L2050.7 159.781 L2038.22 159.781 L2038.22 155.984 Z" fill="#000000" fill-rule="evenodd" fill-opacity="1" /><path clip-path="url(#clip640)" d="M 0 0 M2081.23 138.971 L2081.23 143.901 Q2078.87 141.702 2076.18 140.614 Q2073.52 139.526 2070.51 139.526 Q2064.59 139.526 2061.44 143.16 Q2058.29 146.772 2058.29 153.623 Q2058.29 160.452 2061.44 164.086 Q2064.59 167.697 2070.51 167.697 Q2073.52 167.697 2076.18 166.609 Q2078.87 165.521 2081.23 163.322 L2081.23 168.207 Q2078.78 169.873 2076.02 170.707 Q2073.29 171.54 2070.24 171.54 Q2062.39 171.54 2057.87 166.748 Q2053.36 161.933 2053.36 153.623 Q2053.36 145.29 2057.87 140.498 Q2062.39 135.684 2070.24 135.684 Q2073.34 135.684 2076.07 136.517 Q2078.82 137.327 2081.23 138.971 Z" fill="#000000" fill-rule="evenodd" fill-opacity="1" /><path clip-path="url(#clip640)" d="M 0 0 M2085.88 136.309 L2090.56 136.309 L2090.56 166.933 L2107.39 166.933 L2107.39 170.869 L2085.88 170.869 L2085.88 136.309 Z" fill="#000000" fill-rule="evenodd" fill-opacity="1" /><path clip-path="url(#clip640)" d="M 0 0 M2112.04 136.309 L2116.72 136.309 L2116.72 170.869 L2112.04 170.869 L2112.04 136.309 Z" fill="#000000" fill-rule="evenodd" fill-opacity="1" /><path clip-path="url(#clip640)" d="M 0 0 M2121.37 136.309 L2128.34 136.309 L2137.16 159.827 L2146.02 136.309 L2152.99 136.309 L2152.99 170.869 L2148.43 170.869 L2148.43 140.522 L2139.52 164.225 L2134.82 164.225 L2125.91 140.522 L2125.91 170.869 L2121.37 170.869 L2121.37 136.309 Z" fill="#000000" fill-rule="evenodd" fill-opacity="1" /><path clip-path="url(#clip640)" d="M 0 0 M2169.19 140.915 L2162.85 158.114 L2175.56 158.114 L2169.19 140.915 M2166.55 136.309 L2171.85 136.309 L2185.03 170.869 L2180.17 170.869 L2177.02 162.003 L2161.44 162.003 L2158.29 170.869 L2153.36 170.869 L2166.55 136.309 Z" fill="#000000" fill-rule="evenodd" fill-opacity="1" /><polyline clip-path="url(#clip640)" style="stroke:#e26f46; stroke-width:4; stroke-opacity:1; fill:none" points="
  1698.45,214.069 1832.78,214.069 
  "/>
<path clip-path="url(#clip640)" d="M 0 0 M1855.17 196.789 L1859.84 196.789 L1859.84 231.349 L1855.17 231.349 L1855.17 196.789 Z" fill="#000000" fill-rule="evenodd" fill-opacity="1" /><path clip-path="url(#clip640)" d="M 0 0 M1882.97 206.418 L1882.97 210.4 Q1881.16 209.404 1879.33 208.918 Q1877.53 208.409 1875.68 208.409 Q1871.53 208.409 1869.24 211.048 Q1866.95 213.664 1866.95 218.409 Q1866.95 223.154 1869.24 225.793 Q1871.53 228.409 1875.68 228.409 Q1877.53 228.409 1879.33 227.923 Q1881.16 227.413 1882.97 226.418 L1882.97 230.353 Q1881.19 231.187 1879.26 231.603 Q1877.37 232.02 1875.21 232.02 Q1869.36 232.02 1865.91 228.339 Q1862.46 224.659 1862.46 218.409 Q1862.46 212.066 1865.93 208.432 Q1869.43 204.798 1875.49 204.798 Q1877.46 204.798 1879.33 205.215 Q1881.21 205.608 1882.97 206.418 Z" fill="#000000" fill-rule="evenodd" fill-opacity="1" /><path clip-path="url(#clip640)" d="M 0 0 M1909.61 217.321 L1909.61 219.404 L1890.03 219.404 Q1890.31 223.802 1892.67 226.117 Q1895.05 228.409 1899.29 228.409 Q1901.74 228.409 1904.03 227.807 Q1906.35 227.205 1908.62 226.001 L1908.62 230.029 Q1906.32 231.001 1903.92 231.511 Q1901.51 232.02 1899.03 232.02 Q1892.83 232.02 1889.19 228.409 Q1885.58 224.798 1885.58 218.64 Q1885.58 212.275 1889.01 208.548 Q1892.46 204.798 1898.29 204.798 Q1903.52 204.798 1906.56 208.177 Q1909.61 211.534 1909.61 217.321 M1905.35 216.071 Q1905.31 212.576 1903.38 210.492 Q1901.49 208.409 1898.34 208.409 Q1894.77 208.409 1892.62 210.423 Q1890.49 212.437 1890.17 216.094 L1905.35 216.071 Z" fill="#000000" fill-rule="evenodd" fill-opacity="1" /><path clip-path="url(#clip640)" d="M 0 0 M1931.42 201.627 L1931.42 214.52 L1944.31 214.52 L1944.31 218.455 L1931.42 218.455 L1931.42 231.349 L1927.53 231.349 L1927.53 218.455 L1914.63 218.455 L1914.63 214.52 L1927.53 214.52 L1927.53 201.627 L1931.42 201.627 Z" fill="#000000" fill-rule="evenodd" fill-opacity="1" /><path clip-path="url(#clip640)" d="M 0 0 M1965.35 215.145 Q1966.86 215.654 1968.27 217.321 Q1969.7 218.988 1971.14 221.904 L1975.88 231.349 L1970.86 231.349 L1966.44 222.483 Q1964.73 219.011 1963.11 217.876 Q1961.51 216.742 1958.73 216.742 L1953.64 216.742 L1953.64 231.349 L1948.96 231.349 L1948.96 196.789 L1959.52 196.789 Q1965.44 196.789 1968.36 199.265 Q1971.28 201.742 1971.28 206.742 Q1971.28 210.006 1969.75 212.159 Q1968.24 214.312 1965.35 215.145 M1953.64 200.631 L1953.64 212.9 L1959.52 212.9 Q1962.9 212.9 1964.61 211.349 Q1966.35 209.775 1966.35 206.742 Q1966.35 203.71 1964.61 202.182 Q1962.9 200.631 1959.52 200.631 L1953.64 200.631 Z" fill="#000000" fill-rule="evenodd" fill-opacity="1" /><path clip-path="url(#clip640)" d="M 0 0 M1991.09 218.316 Q1985.93 218.316 1983.94 219.497 Q1981.95 220.677 1981.95 223.525 Q1981.95 225.793 1983.43 227.136 Q1984.93 228.455 1987.5 228.455 Q1991.05 228.455 1993.18 225.955 Q1995.33 223.432 1995.33 219.265 L1995.33 218.316 L1991.09 218.316 M1999.59 216.557 L1999.59 231.349 L1995.33 231.349 L1995.33 227.413 Q1993.87 229.775 1991.69 230.909 Q1989.52 232.02 1986.37 232.02 Q1982.39 232.02 1980.03 229.798 Q1977.69 227.552 1977.69 223.802 Q1977.69 219.427 1980.61 217.205 Q1983.55 214.983 1989.36 214.983 L1995.33 214.983 L1995.33 214.566 Q1995.33 211.627 1993.38 210.029 Q1991.46 208.409 1987.97 208.409 Q1985.74 208.409 1983.64 208.941 Q1981.53 209.474 1979.59 210.539 L1979.59 206.603 Q1981.93 205.701 1984.12 205.261 Q1986.32 204.798 1988.41 204.798 Q1994.03 204.798 1996.81 207.714 Q1999.59 210.631 1999.59 216.557 Z" fill="#000000" fill-rule="evenodd" fill-opacity="1" /><path clip-path="url(#clip640)" d="M 0 0 M2004.05 205.423 L2008.31 205.423 L2008.31 231.349 L2004.05 231.349 L2004.05 205.423 M2004.05 195.33 L2008.31 195.33 L2008.31 200.724 L2004.05 200.724 L2004.05 195.33 Z" fill="#000000" fill-rule="evenodd" fill-opacity="1" /><path clip-path="url(#clip640)" d="M 0 0 M2034.33 215.701 L2034.33 231.349 L2030.07 231.349 L2030.07 215.839 Q2030.07 212.159 2028.64 210.33 Q2027.2 208.502 2024.33 208.502 Q2020.88 208.502 2018.89 210.701 Q2016.9 212.9 2016.9 216.696 L2016.9 231.349 L2012.62 231.349 L2012.62 205.423 L2016.9 205.423 L2016.9 209.451 Q2018.43 207.113 2020.49 205.955 Q2022.57 204.798 2025.28 204.798 Q2029.75 204.798 2032.04 207.576 Q2034.33 210.33 2034.33 215.701 Z" fill="#000000" fill-rule="evenodd" fill-opacity="1" /><path clip-path="url(#clip640)" d="M 0 0 M2036.65 216.464 L2049.12 216.464 L2049.12 220.261 L2036.65 220.261 L2036.65 216.464 Z" fill="#000000" fill-rule="evenodd" fill-opacity="1" /><path clip-path="url(#clip640)" d="M 0 0 M2079.66 199.451 L2079.66 204.381 Q2077.3 202.182 2074.61 201.094 Q2071.95 200.006 2068.94 200.006 Q2063.01 200.006 2059.86 203.64 Q2056.72 207.252 2056.72 214.103 Q2056.72 220.932 2059.86 224.566 Q2063.01 228.177 2068.94 228.177 Q2071.95 228.177 2074.61 227.089 Q2077.3 226.001 2079.66 223.802 L2079.66 228.687 Q2077.2 230.353 2074.45 231.187 Q2071.72 232.02 2068.66 232.02 Q2060.81 232.02 2056.3 227.228 Q2051.79 222.413 2051.79 214.103 Q2051.79 205.77 2056.3 200.978 Q2060.81 196.164 2068.66 196.164 Q2071.76 196.164 2074.49 196.997 Q2077.25 197.807 2079.66 199.451 Z" fill="#000000" fill-rule="evenodd" fill-opacity="1" /><path clip-path="url(#clip640)" d="M 0 0 M2084.31 196.789 L2088.99 196.789 L2088.99 227.413 L2105.81 227.413 L2105.81 231.349 L2084.31 231.349 L2084.31 196.789 Z" fill="#000000" fill-rule="evenodd" fill-opacity="1" /><path clip-path="url(#clip640)" d="M 0 0 M2110.47 196.789 L2115.14 196.789 L2115.14 231.349 L2110.47 231.349 L2110.47 196.789 Z" fill="#000000" fill-rule="evenodd" fill-opacity="1" /><path clip-path="url(#clip640)" d="M 0 0 M2119.8 196.789 L2126.76 196.789 L2135.58 220.307 L2144.45 196.789 L2151.42 196.789 L2151.42 231.349 L2146.86 231.349 L2146.86 201.002 L2137.94 224.705 L2133.24 224.705 L2124.33 201.002 L2124.33 231.349 L2119.8 231.349 L2119.8 196.789 Z" fill="#000000" fill-rule="evenodd" fill-opacity="1" /><path clip-path="url(#clip640)" d="M 0 0 M2167.62 201.395 L2161.28 218.594 L2173.98 218.594 L2167.62 201.395 M2164.98 196.789 L2170.28 196.789 L2183.45 231.349 L2178.59 231.349 L2175.44 222.483 L2159.86 222.483 L2156.72 231.349 L2151.79 231.349 L2164.98 196.789 Z" fill="#000000" fill-rule="evenodd" fill-opacity="1" /><polyline clip-path="url(#clip640)" style="stroke:#3da44d; stroke-width:4; stroke-opacity:1; fill:none" points="
  1698.45,274.549 1832.78,274.549 
  "/>
<path clip-path="url(#clip640)" d="M 0 0 M1855.17 257.269 L1859.84 257.269 L1859.84 287.893 L1876.67 287.893 L1876.67 291.829 L1855.17 291.829 L1855.17 257.269 Z" fill="#000000" fill-rule="evenodd" fill-opacity="1" /><path clip-path="url(#clip640)" d="M 0 0 M1881.14 265.903 L1885.4 265.903 L1885.4 291.829 L1881.14 291.829 L1881.14 265.903 M1881.14 255.81 L1885.4 255.81 L1885.4 261.204 L1881.14 261.204 L1881.14 255.81 Z" fill="#000000" fill-rule="evenodd" fill-opacity="1" /><path clip-path="url(#clip640)" d="M 0 0 M1892.41 278.889 Q1892.41 283.588 1894.33 286.273 Q1896.28 288.935 1899.66 288.935 Q1903.04 288.935 1904.98 286.273 Q1906.93 283.588 1906.93 278.889 Q1906.93 274.19 1904.98 271.528 Q1903.04 268.843 1899.66 268.843 Q1896.28 268.843 1894.33 271.528 Q1892.41 274.19 1892.41 278.889 M1906.93 287.94 Q1905.58 290.255 1903.52 291.389 Q1901.49 292.5 1898.62 292.5 Q1893.92 292.5 1890.95 288.75 Q1888.01 285 1888.01 278.889 Q1888.01 272.778 1890.95 269.028 Q1893.92 265.278 1898.62 265.278 Q1901.49 265.278 1903.52 266.412 Q1905.58 267.523 1906.93 269.838 L1906.93 265.903 L1911.19 265.903 L1911.19 301.69 L1906.93 301.69 L1906.93 287.94 Z" fill="#000000" fill-rule="evenodd" fill-opacity="1" /><path clip-path="url(#clip640)" d="M 0 0 M1932.99 262.107 L1932.99 275 L1945.88 275 L1945.88 278.935 L1932.99 278.935 L1932.99 291.829 L1929.1 291.829 L1929.1 278.935 L1916.21 278.935 L1916.21 275 L1929.1 275 L1929.1 262.107 L1932.99 262.107 Z" fill="#000000" fill-rule="evenodd" fill-opacity="1" /><path clip-path="url(#clip640)" d="M 0 0 M1971.25 258.403 L1971.25 262.963 Q1968.59 261.69 1966.23 261.065 Q1963.87 260.44 1961.67 260.44 Q1957.85 260.44 1955.77 261.921 Q1953.71 263.403 1953.71 266.134 Q1953.71 268.426 1955.07 269.607 Q1956.46 270.764 1960.31 271.482 L1963.13 272.06 Q1968.36 273.056 1970.84 275.579 Q1973.34 278.079 1973.34 282.292 Q1973.34 287.315 1969.96 289.907 Q1966.6 292.5 1960.1 292.5 Q1957.64 292.5 1954.87 291.944 Q1952.11 291.389 1949.15 290.301 L1949.15 285.486 Q1952 287.083 1954.73 287.893 Q1957.46 288.704 1960.1 288.704 Q1964.1 288.704 1966.28 287.13 Q1968.45 285.556 1968.45 282.639 Q1968.45 280.093 1966.88 278.657 Q1965.33 277.222 1961.76 276.505 L1958.92 275.949 Q1953.68 274.907 1951.35 272.685 Q1949.01 270.463 1949.01 266.505 Q1949.01 261.921 1952.23 259.282 Q1955.47 256.644 1961.14 256.644 Q1963.57 256.644 1966.09 257.083 Q1968.62 257.523 1971.25 258.403 Z" fill="#000000" fill-rule="evenodd" fill-opacity="1" /><path clip-path="url(#clip640)" d="M 0 0 M1999.36 276.181 L1999.36 291.829 L1995.1 291.829 L1995.1 276.319 Q1995.1 272.639 1993.66 270.81 Q1992.23 268.982 1989.36 268.982 Q1985.91 268.982 1983.92 271.181 Q1981.93 273.38 1981.93 277.176 L1981.93 291.829 L1977.64 291.829 L1977.64 265.903 L1981.93 265.903 L1981.93 269.931 Q1983.45 267.593 1985.51 266.435 Q1987.6 265.278 1990.31 265.278 Q1994.77 265.278 1997.06 268.056 Q1999.36 270.81 1999.36 276.181 Z" fill="#000000" fill-rule="evenodd" fill-opacity="1" /><path clip-path="url(#clip640)" d="M 0 0 M2013.87 268.889 Q2010.44 268.889 2008.45 271.574 Q2006.46 274.236 2006.46 278.889 Q2006.46 283.542 2008.43 286.227 Q2010.42 288.889 2013.87 288.889 Q2017.27 288.889 2019.26 286.204 Q2021.25 283.518 2021.25 278.889 Q2021.25 274.282 2019.26 271.597 Q2017.27 268.889 2013.87 268.889 M2013.87 265.278 Q2019.43 265.278 2022.6 268.889 Q2025.77 272.5 2025.77 278.889 Q2025.77 285.255 2022.6 288.889 Q2019.43 292.5 2013.87 292.5 Q2008.29 292.5 2005.12 288.889 Q2001.97 285.255 2001.97 278.889 Q2001.97 272.5 2005.12 268.889 Q2008.29 265.278 2013.87 265.278 Z" fill="#000000" fill-rule="evenodd" fill-opacity="1" /><path clip-path="url(#clip640)" d="M 0 0 M2027.76 265.903 L2032.02 265.903 L2037.34 286.134 L2042.64 265.903 L2047.67 265.903 L2052.99 286.134 L2058.29 265.903 L2062.55 265.903 L2055.77 291.829 L2050.74 291.829 L2045.17 270.579 L2039.56 291.829 L2034.54 291.829 L2027.76 265.903 Z" fill="#000000" fill-rule="evenodd" fill-opacity="1" /><path clip-path="url(#clip640)" d="M 0 0 M2064.86 276.944 L2077.34 276.944 L2077.34 280.741 L2064.86 280.741 L2064.86 276.944 Z" fill="#000000" fill-rule="evenodd" fill-opacity="1" /><path clip-path="url(#clip640)" d="M 0 0 M2107.87 259.931 L2107.87 264.861 Q2105.51 262.662 2102.83 261.574 Q2100.17 260.486 2097.16 260.486 Q2091.23 260.486 2088.08 264.12 Q2084.93 267.732 2084.93 274.583 Q2084.93 281.412 2088.08 285.046 Q2091.23 288.657 2097.16 288.657 Q2100.17 288.657 2102.83 287.569 Q2105.51 286.481 2107.87 284.282 L2107.87 289.167 Q2105.42 290.833 2102.67 291.667 Q2099.93 292.5 2096.88 292.5 Q2089.03 292.5 2084.52 287.708 Q2080 282.893 2080 274.583 Q2080 266.25 2084.52 261.458 Q2089.03 256.644 2096.88 256.644 Q2099.98 256.644 2102.71 257.477 Q2105.47 258.287 2107.87 259.931 Z" fill="#000000" fill-rule="evenodd" fill-opacity="1" /><path clip-path="url(#clip640)" d="M 0 0 M2112.53 257.269 L2117.2 257.269 L2117.2 287.893 L2134.03 287.893 L2134.03 291.829 L2112.53 291.829 L2112.53 257.269 Z" fill="#000000" fill-rule="evenodd" fill-opacity="1" /><path clip-path="url(#clip640)" d="M 0 0 M2138.68 257.269 L2143.36 257.269 L2143.36 291.829 L2138.68 291.829 L2138.68 257.269 Z" fill="#000000" fill-rule="evenodd" fill-opacity="1" /><path clip-path="url(#clip640)" d="M 0 0 M2148.01 257.269 L2154.98 257.269 L2163.8 280.787 L2172.67 257.269 L2179.63 257.269 L2179.63 291.829 L2175.07 291.829 L2175.07 261.482 L2166.16 285.185 L2161.46 285.185 L2152.55 261.482 L2152.55 291.829 L2148.01 291.829 L2148.01 257.269 Z" fill="#000000" fill-rule="evenodd" fill-opacity="1" /><path clip-path="url(#clip640)" d="M 0 0 M2195.84 261.875 L2189.49 279.074 L2202.2 279.074 L2195.84 261.875 M2193.2 257.269 L2198.5 257.269 L2211.67 291.829 L2206.81 291.829 L2203.66 282.963 L2188.08 282.963 L2184.93 291.829 L2180 291.829 L2193.2 257.269 Z" fill="#000000" fill-rule="evenodd" fill-opacity="1" /><polyline clip-path="url(#clip640)" style="stroke:#c271d2; stroke-width:4; stroke-opacity:1; fill:none" stroke-dasharray="16, 10" points="
  1698.45,335.029 1832.78,335.029 
  "/>
<path clip-path="url(#clip640)" d="M 0 0 M1855.17 317.749 L1859.84 317.749 L1859.84 352.309 L1855.17 352.309 L1855.17 317.749 Z" fill="#000000" fill-rule="evenodd" fill-opacity="1" /><path clip-path="url(#clip640)" d="M 0 0 M1882.97 327.378 L1882.97 331.36 Q1881.16 330.364 1879.33 329.878 Q1877.53 329.369 1875.68 329.369 Q1871.53 329.369 1869.24 332.008 Q1866.95 334.624 1866.95 339.369 Q1866.95 344.114 1869.24 346.753 Q1871.53 349.369 1875.68 349.369 Q1877.53 349.369 1879.33 348.883 Q1881.16 348.373 1882.97 347.378 L1882.97 351.313 Q1881.19 352.147 1879.26 352.563 Q1877.37 352.98 1875.21 352.98 Q1869.36 352.98 1865.91 349.299 Q1862.46 345.619 1862.46 339.369 Q1862.46 333.026 1865.93 329.392 Q1869.43 325.758 1875.49 325.758 Q1877.46 325.758 1879.33 326.175 Q1881.21 326.568 1882.97 327.378 Z" fill="#000000" fill-rule="evenodd" fill-opacity="1" /><path clip-path="url(#clip640)" d="M 0 0 M1909.61 338.281 L1909.61 340.364 L1890.03 340.364 Q1890.31 344.762 1892.67 347.077 Q1895.05 349.369 1899.29 349.369 Q1901.74 349.369 1904.03 348.767 Q1906.35 348.165 1908.62 346.961 L1908.62 350.989 Q1906.32 351.961 1903.92 352.471 Q1901.51 352.98 1899.03 352.98 Q1892.83 352.98 1889.19 349.369 Q1885.58 345.758 1885.58 339.6 Q1885.58 333.235 1889.01 329.508 Q1892.46 325.758 1898.29 325.758 Q1903.52 325.758 1906.56 329.137 Q1909.61 332.494 1909.61 338.281 M1905.35 337.031 Q1905.31 333.536 1903.38 331.452 Q1901.49 329.369 1898.34 329.369 Q1894.77 329.369 1892.62 331.383 Q1890.49 333.397 1890.17 337.054 L1905.35 337.031 Z" fill="#000000" fill-rule="evenodd" fill-opacity="1" /><path clip-path="url(#clip640)" d="M 0 0 M1931.42 322.587 L1931.42 335.48 L1944.31 335.48 L1944.31 339.415 L1931.42 339.415 L1931.42 352.309 L1927.53 352.309 L1927.53 339.415 L1914.63 339.415 L1914.63 335.48 L1927.53 335.48 L1927.53 322.587 L1931.42 322.587 Z" fill="#000000" fill-rule="evenodd" fill-opacity="1" /><path clip-path="url(#clip640)" d="M 0 0 M1969.68 318.883 L1969.68 323.443 Q1967.02 322.17 1964.66 321.545 Q1962.3 320.92 1960.1 320.92 Q1956.28 320.92 1954.19 322.401 Q1952.13 323.883 1952.13 326.614 Q1952.13 328.906 1953.5 330.087 Q1954.89 331.244 1958.73 331.962 L1961.56 332.54 Q1966.79 333.536 1969.26 336.059 Q1971.76 338.559 1971.76 342.772 Q1971.76 347.795 1968.38 350.387 Q1965.03 352.98 1958.52 352.98 Q1956.07 352.98 1953.29 352.424 Q1950.54 351.869 1947.57 350.781 L1947.57 345.966 Q1950.42 347.563 1953.15 348.373 Q1955.88 349.184 1958.52 349.184 Q1962.53 349.184 1964.7 347.61 Q1966.88 346.036 1966.88 343.119 Q1966.88 340.573 1965.31 339.137 Q1963.75 337.702 1960.19 336.985 L1957.34 336.429 Q1952.11 335.387 1949.77 333.165 Q1947.43 330.943 1947.43 326.985 Q1947.43 322.401 1950.65 319.762 Q1953.89 317.124 1959.56 317.124 Q1961.99 317.124 1964.52 317.563 Q1967.04 318.003 1969.68 318.883 Z" fill="#000000" fill-rule="evenodd" fill-opacity="1" /><path clip-path="url(#clip640)" d="M 0 0 M1997.78 336.661 L1997.78 352.309 L1993.52 352.309 L1993.52 336.799 Q1993.52 333.119 1992.09 331.29 Q1990.65 329.462 1987.78 329.462 Q1984.33 329.462 1982.34 331.661 Q1980.35 333.86 1980.35 337.656 L1980.35 352.309 L1976.07 352.309 L1976.07 326.383 L1980.35 326.383 L1980.35 330.411 Q1981.88 328.073 1983.94 326.915 Q1986.02 325.758 1988.73 325.758 Q1993.2 325.758 1995.49 328.536 Q1997.78 331.29 1997.78 336.661 Z" fill="#000000" fill-rule="evenodd" fill-opacity="1" /><path clip-path="url(#clip640)" d="M 0 0 M2012.3 329.369 Q2008.87 329.369 2006.88 332.054 Q2004.89 334.716 2004.89 339.369 Q2004.89 344.022 2006.86 346.707 Q2008.85 349.369 2012.3 349.369 Q2015.7 349.369 2017.69 346.684 Q2019.68 343.998 2019.68 339.369 Q2019.68 334.762 2017.69 332.077 Q2015.7 329.369 2012.3 329.369 M2012.3 325.758 Q2017.85 325.758 2021.02 329.369 Q2024.19 332.98 2024.19 339.369 Q2024.19 345.735 2021.02 349.369 Q2017.85 352.98 2012.3 352.98 Q2006.72 352.98 2003.55 349.369 Q2000.4 345.735 2000.4 339.369 Q2000.4 332.98 2003.55 329.369 Q2006.72 325.758 2012.3 325.758 Z" fill="#000000" fill-rule="evenodd" fill-opacity="1" /><path clip-path="url(#clip640)" d="M 0 0 M2026.18 326.383 L2030.44 326.383 L2035.77 346.614 L2041.07 326.383 L2046.09 326.383 L2051.42 346.614 L2056.72 326.383 L2060.98 326.383 L2054.19 352.309 L2049.17 352.309 L2043.59 331.059 L2037.99 352.309 L2032.97 352.309 L2026.18 326.383 Z" fill="#000000" fill-rule="evenodd" fill-opacity="1" /><path clip-path="url(#clip640)" d="M 0 0 M2063.29 337.424 L2075.77 337.424 L2075.77 341.221 L2063.29 341.221 L2063.29 337.424 Z" fill="#000000" fill-rule="evenodd" fill-opacity="1" /><path clip-path="url(#clip640)" d="M 0 0 M2106.3 320.411 L2106.3 325.341 Q2103.94 323.142 2101.25 322.054 Q2098.59 320.966 2095.58 320.966 Q2089.66 320.966 2086.51 324.6 Q2083.36 328.212 2083.36 335.063 Q2083.36 341.892 2086.51 345.526 Q2089.66 349.137 2095.58 349.137 Q2098.59 349.137 2101.25 348.049 Q2103.94 346.961 2106.3 344.762 L2106.3 349.647 Q2103.85 351.313 2101.09 352.147 Q2098.36 352.98 2095.3 352.98 Q2087.46 352.98 2082.94 348.188 Q2078.43 343.373 2078.43 335.063 Q2078.43 326.73 2082.94 321.938 Q2087.46 317.124 2095.3 317.124 Q2098.41 317.124 2101.14 317.957 Q2103.89 318.767 2106.3 320.411 Z" fill="#000000" fill-rule="evenodd" fill-opacity="1" /><path clip-path="url(#clip640)" d="M 0 0 M2110.95 317.749 L2115.63 317.749 L2115.63 348.373 L2132.46 348.373 L2132.46 352.309 L2110.95 352.309 L2110.95 317.749 Z" fill="#000000" fill-rule="evenodd" fill-opacity="1" /><path clip-path="url(#clip640)" d="M 0 0 M2137.11 317.749 L2141.79 317.749 L2141.79 352.309 L2137.11 352.309 L2137.11 317.749 Z" fill="#000000" fill-rule="evenodd" fill-opacity="1" /><path clip-path="url(#clip640)" d="M 0 0 M2146.44 317.749 L2153.41 317.749 L2162.23 341.267 L2171.09 317.749 L2178.06 317.749 L2178.06 352.309 L2173.5 352.309 L2173.5 321.962 L2164.59 345.665 L2159.89 345.665 L2150.98 321.962 L2150.98 352.309 L2146.44 352.309 L2146.44 317.749 Z" fill="#000000" fill-rule="evenodd" fill-opacity="1" /><path clip-path="url(#clip640)" d="M 0 0 M2194.26 322.355 L2187.92 339.554 L2200.63 339.554 L2194.26 322.355 M2191.62 317.749 L2196.92 317.749 L2210.1 352.309 L2205.23 352.309 L2202.09 343.443 L2186.51 343.443 L2183.36 352.309 L2178.43 352.309 L2191.62 317.749 Z" fill="#000000" fill-rule="evenodd" fill-opacity="1" /><polyline clip-path="url(#clip640)" style="stroke:#ac8d18; stroke-width:4; stroke-opacity:1; fill:none" points="
  1698.45,395.509 1832.78,395.509 
  "/>
<path clip-path="url(#clip640)" d="M 0 0 M1855.17 378.229 L1859.84 378.229 L1859.84 408.853 L1876.67 408.853 L1876.67 412.789 L1855.17 412.789 L1855.17 378.229 Z" fill="#000000" fill-rule="evenodd" fill-opacity="1" /><path clip-path="url(#clip640)" d="M 0 0 M1881.14 386.863 L1885.4 386.863 L1885.4 412.789 L1881.14 412.789 L1881.14 386.863 M1881.14 376.77 L1885.4 376.77 L1885.4 382.164 L1881.14 382.164 L1881.14 376.77 Z" fill="#000000" fill-rule="evenodd" fill-opacity="1" /><path clip-path="url(#clip640)" d="M 0 0 M1892.41 399.849 Q1892.41 404.548 1894.33 407.233 Q1896.28 409.895 1899.66 409.895 Q1903.04 409.895 1904.98 407.233 Q1906.93 404.548 1906.93 399.849 Q1906.93 395.15 1904.98 392.488 Q1903.04 389.803 1899.66 389.803 Q1896.28 389.803 1894.33 392.488 Q1892.41 395.15 1892.41 399.849 M1906.93 408.9 Q1905.58 411.215 1903.52 412.349 Q1901.49 413.46 1898.62 413.46 Q1893.92 413.46 1890.95 409.71 Q1888.01 405.96 1888.01 399.849 Q1888.01 393.738 1890.95 389.988 Q1893.92 386.238 1898.62 386.238 Q1901.49 386.238 1903.52 387.372 Q1905.58 388.483 1906.93 390.798 L1906.93 386.863 L1911.19 386.863 L1911.19 422.65 L1906.93 422.65 L1906.93 408.9 Z" fill="#000000" fill-rule="evenodd" fill-opacity="1" /><path clip-path="url(#clip640)" d="M 0 0 M1932.99 383.067 L1932.99 395.96 L1945.88 395.96 L1945.88 399.895 L1932.99 399.895 L1932.99 412.789 L1929.1 412.789 L1929.1 399.895 L1916.21 399.895 L1916.21 395.96 L1929.1 395.96 L1929.1 383.067 L1932.99 383.067 Z" fill="#000000" fill-rule="evenodd" fill-opacity="1" /><path clip-path="url(#clip640)" d="M 0 0 M1966.93 396.585 Q1968.43 397.094 1969.84 398.761 Q1971.28 400.428 1972.71 403.344 L1977.46 412.789 L1972.43 412.789 L1968.01 403.923 Q1966.3 400.451 1964.68 399.316 Q1963.08 398.182 1960.31 398.182 L1955.21 398.182 L1955.21 412.789 L1950.54 412.789 L1950.54 378.229 L1961.09 378.229 Q1967.02 378.229 1969.93 380.705 Q1972.85 383.182 1972.85 388.182 Q1972.85 391.446 1971.32 393.599 Q1969.82 395.752 1966.93 396.585 M1955.21 382.071 L1955.21 394.34 L1961.09 394.34 Q1964.47 394.34 1966.18 392.789 Q1967.92 391.215 1967.92 388.182 Q1967.92 385.15 1966.18 383.622 Q1964.47 382.071 1961.09 382.071 L1955.21 382.071 Z" fill="#000000" fill-rule="evenodd" fill-opacity="1" /><path clip-path="url(#clip640)" d="M 0 0 M1992.67 399.756 Q1987.5 399.756 1985.51 400.937 Q1983.52 402.117 1983.52 404.965 Q1983.52 407.233 1985 408.576 Q1986.51 409.895 1989.08 409.895 Q1992.62 409.895 1994.75 407.395 Q1996.9 404.872 1996.9 400.705 L1996.9 399.756 L1992.67 399.756 M2001.16 397.997 L2001.16 412.789 L1996.9 412.789 L1996.9 408.853 Q1995.44 411.215 1993.27 412.349 Q1991.09 413.46 1987.94 413.46 Q1983.96 413.46 1981.6 411.238 Q1979.26 408.992 1979.26 405.242 Q1979.26 400.867 1982.18 398.645 Q1985.12 396.423 1990.93 396.423 L1996.9 396.423 L1996.9 396.006 Q1996.9 393.067 1994.96 391.469 Q1993.04 389.849 1989.54 389.849 Q1987.32 389.849 1985.21 390.381 Q1983.11 390.914 1981.16 391.979 L1981.16 388.043 Q1983.5 387.141 1985.7 386.701 Q1987.9 386.238 1989.98 386.238 Q1995.61 386.238 1998.38 389.154 Q2001.16 392.071 2001.16 397.997 Z" fill="#000000" fill-rule="evenodd" fill-opacity="1" /><path clip-path="url(#clip640)" d="M 0 0 M2005.63 386.863 L2009.89 386.863 L2009.89 412.789 L2005.63 412.789 L2005.63 386.863 M2005.63 376.77 L2009.89 376.77 L2009.89 382.164 L2005.63 382.164 L2005.63 376.77 Z" fill="#000000" fill-rule="evenodd" fill-opacity="1" /><path clip-path="url(#clip640)" d="M 0 0 M2035.91 397.141 L2035.91 412.789 L2031.65 412.789 L2031.65 397.279 Q2031.65 393.599 2030.21 391.77 Q2028.78 389.942 2025.91 389.942 Q2022.46 389.942 2020.47 392.141 Q2018.48 394.34 2018.48 398.136 L2018.48 412.789 L2014.19 412.789 L2014.19 386.863 L2018.48 386.863 L2018.48 390.891 Q2020 388.553 2022.06 387.395 Q2024.15 386.238 2026.86 386.238 Q2031.32 386.238 2033.61 389.016 Q2035.91 391.77 2035.91 397.141 Z" fill="#000000" fill-rule="evenodd" fill-opacity="1" /><path clip-path="url(#clip640)" d="M 0 0 M2038.22 397.904 L2050.7 397.904 L2050.7 401.701 L2038.22 401.701 L2038.22 397.904 Z" fill="#000000" fill-rule="evenodd" fill-opacity="1" /><path clip-path="url(#clip640)" d="M 0 0 M2055.35 378.229 L2077.2 378.229 L2077.2 382.164 L2060.03 382.164 L2060.03 392.395 L2076.49 392.395 L2076.49 396.33 L2060.03 396.33 L2060.03 408.853 L2077.62 408.853 L2077.62 412.789 L2055.35 412.789 L2055.35 378.229 Z" fill="#000000" fill-rule="evenodd" fill-opacity="1" /><path clip-path="url(#clip640)" d="M 0 0 M2102.27 391.84 Q2103.87 388.969 2106.09 387.604 Q2108.31 386.238 2111.32 386.238 Q2115.37 386.238 2117.57 389.085 Q2119.77 391.909 2119.77 397.141 L2119.77 412.789 L2115.49 412.789 L2115.49 397.279 Q2115.49 393.553 2114.17 391.747 Q2112.85 389.942 2110.14 389.942 Q2106.83 389.942 2104.91 392.141 Q2102.99 394.34 2102.99 398.136 L2102.99 412.789 L2098.71 412.789 L2098.71 397.279 Q2098.71 393.529 2097.39 391.747 Q2096.07 389.942 2093.31 389.942 Q2090.05 389.942 2088.13 392.164 Q2086.21 394.363 2086.21 398.136 L2086.21 412.789 L2081.92 412.789 L2081.92 386.863 L2086.21 386.863 L2086.21 390.891 Q2087.67 388.506 2089.7 387.372 Q2091.74 386.238 2094.54 386.238 Q2097.36 386.238 2099.33 387.673 Q2101.32 389.108 2102.27 391.84 Z" fill="#000000" fill-rule="evenodd" fill-opacity="1" /><path clip-path="url(#clip640)" d="M 0 0 M2128.36 408.9 L2128.36 422.65 L2124.08 422.65 L2124.08 386.863 L2128.36 386.863 L2128.36 390.798 Q2129.7 388.483 2131.74 387.372 Q2133.8 386.238 2136.65 386.238 Q2141.37 386.238 2144.31 389.988 Q2147.27 393.738 2147.27 399.849 Q2147.27 405.96 2144.31 409.71 Q2141.37 413.46 2136.65 413.46 Q2133.8 413.46 2131.74 412.349 Q2129.7 411.215 2128.36 408.9 M2142.85 399.849 Q2142.85 395.15 2140.91 392.488 Q2138.98 389.803 2135.61 389.803 Q2132.23 389.803 2130.28 392.488 Q2128.36 395.15 2128.36 399.849 Q2128.36 404.548 2130.28 407.233 Q2132.23 409.895 2135.61 409.895 Q2138.98 409.895 2140.91 407.233 Q2142.85 404.548 2142.85 399.849 Z" fill="#000000" fill-rule="evenodd" fill-opacity="1" /><path clip-path="url(#clip640)" d="M 0 0 M2151.74 386.863 L2156 386.863 L2156 412.789 L2151.74 412.789 L2151.74 386.863 M2151.74 376.77 L2156 376.77 L2156 382.164 L2151.74 382.164 L2151.74 376.77 Z" fill="#000000" fill-rule="evenodd" fill-opacity="1" /><path clip-path="url(#clip640)" d="M 0 0 M2175.49 390.844 Q2174.77 390.428 2173.92 390.242 Q2173.08 390.034 2172.06 390.034 Q2168.45 390.034 2166.51 392.395 Q2164.59 394.733 2164.59 399.131 L2164.59 412.789 L2160.3 412.789 L2160.3 386.863 L2164.59 386.863 L2164.59 390.891 Q2165.93 388.529 2168.08 387.395 Q2170.23 386.238 2173.31 386.238 Q2173.75 386.238 2174.29 386.307 Q2174.82 386.354 2175.47 386.469 L2175.49 390.844 Z" fill="#000000" fill-rule="evenodd" fill-opacity="1" /><path clip-path="url(#clip640)" d="M 0 0 M2179.96 386.863 L2184.22 386.863 L2184.22 412.789 L2179.96 412.789 L2179.96 386.863 M2179.96 376.77 L2184.22 376.77 L2184.22 382.164 L2179.96 382.164 L2179.96 376.77 Z" fill="#000000" fill-rule="evenodd" fill-opacity="1" /><path clip-path="url(#clip640)" d="M 0 0 M2207.34 387.858 L2207.34 391.84 Q2205.54 390.844 2203.71 390.358 Q2201.9 389.849 2200.05 389.849 Q2195.91 389.849 2193.61 392.488 Q2191.32 395.104 2191.32 399.849 Q2191.32 404.594 2193.61 407.233 Q2195.91 409.849 2200.05 409.849 Q2201.9 409.849 2203.71 409.363 Q2205.54 408.853 2207.34 407.858 L2207.34 411.793 Q2205.56 412.627 2203.64 413.043 Q2201.74 413.46 2199.59 413.46 Q2193.73 413.46 2190.28 409.779 Q2186.83 406.099 2186.83 399.849 Q2186.83 393.506 2190.3 389.872 Q2193.8 386.238 2199.86 386.238 Q2201.83 386.238 2203.71 386.655 Q2205.58 387.048 2207.34 387.858 Z" fill="#000000" fill-rule="evenodd" fill-opacity="1" /><path clip-path="url(#clip640)" d="M 0 0 M2223.59 399.756 Q2218.43 399.756 2216.44 400.937 Q2214.45 402.117 2214.45 404.965 Q2214.45 407.233 2215.93 408.576 Q2217.43 409.895 2220 409.895 Q2223.54 409.895 2225.67 407.395 Q2227.83 404.872 2227.83 400.705 L2227.83 399.756 L2223.59 399.756 M2232.09 397.997 L2232.09 412.789 L2227.83 412.789 L2227.83 408.853 Q2226.37 411.215 2224.19 412.349 Q2222.02 413.46 2218.87 413.46 Q2214.89 413.46 2212.53 411.238 Q2210.19 408.992 2210.19 405.242 Q2210.19 400.867 2213.1 398.645 Q2216.04 396.423 2221.85 396.423 L2227.83 396.423 L2227.83 396.006 Q2227.83 393.067 2225.88 391.469 Q2223.96 389.849 2220.47 389.849 Q2218.24 389.849 2216.14 390.381 Q2214.03 390.914 2212.09 391.979 L2212.09 388.043 Q2214.42 387.141 2216.62 386.701 Q2218.82 386.238 2220.91 386.238 Q2226.53 386.238 2229.31 389.154 Q2232.09 392.071 2232.09 397.997 Z" fill="#000000" fill-rule="evenodd" fill-opacity="1" /><path clip-path="url(#clip640)" d="M 0 0 M2236.55 376.77 L2240.81 376.77 L2240.81 412.789 L2236.55 412.789 L2236.55 376.77 Z" fill="#000000" fill-rule="evenodd" fill-opacity="1" /></svg>
