<?xml version="1.0" encoding="utf-8"?>
<svg xmlns="http://www.w3.org/2000/svg" xmlns:xlink="http://www.w3.org/1999/xlink" width="600" height="400" viewBox="0 0 2400 1600">
<defs>
  <clipPath id="clip630">
    <rect x="0" y="0" width="2400" height="1600"/>
  </clipPath>
</defs>
<path clip-path="url(#clip630)" d="
M0 1600 L2400 1600 L2400 0 L0 0  Z
  " fill="#ffffff" fill-rule="evenodd" fill-opacity="1"/>
<defs>
  <clipPath id="clip631">
    <rect x="480" y="0" width="1681" height="1600"/>
  </clipPath>
</defs>
<path clip-path="url(#clip630)" d="
M334.958 1423.18 L2352.76 1423.18 L2352.76 47.2441 L334.958 47.2441  Z
  " fill="#ffffff" fill-rule="evenodd" fill-opacity="1"/>
<defs>
  <clipPath id="clip632">
    <rect x="334" y="47" width="2019" height="1377"/>
  </clipPath>
</defs>
<polyline clip-path="url(#clip632)" style="stroke:#000000; stroke-width:2; stroke-opacity:0.1; fill:none" points="
  392.062,1423.18 392.062,47.2441 
  "/>
<polyline clip-path="url(#clip632)" style="stroke:#000000; stroke-width:2; stroke-opacity:0.1; fill:none" points="
  772.779,1423.18 772.779,47.2441 
  "/>
<polyline clip-path="url(#clip632)" style="stroke:#000000; stroke-width:2; stroke-opacity:0.1; fill:none" points="
  1153.5,1423.18 1153.5,47.2441 
  "/>
<polyline clip-path="url(#clip632)" style="stroke:#000000; stroke-width:2; stroke-opacity:0.1; fill:none" points="
  1534.21,1423.18 1534.21,47.2441 
  "/>
<polyline clip-path="url(#clip632)" style="stroke:#000000; stroke-width:2; stroke-opacity:0.1; fill:none" points="
  1914.93,1423.18 1914.93,47.2441 
  "/>
<polyline clip-path="url(#clip632)" style="stroke:#000000; stroke-width:2; stroke-opacity:0.1; fill:none" points="
  2295.65,1423.18 2295.65,47.2441 
  "/>
<polyline clip-path="url(#clip632)" style="stroke:#000000; stroke-width:2; stroke-opacity:0.1; fill:none" points="
  334.958,1384.25 2352.76,1384.25 
  "/>
<polyline clip-path="url(#clip632)" style="stroke:#000000; stroke-width:2; stroke-opacity:0.1; fill:none" points="
  334.958,1141.49 2352.76,1141.49 
  "/>
<polyline clip-path="url(#clip632)" style="stroke:#000000; stroke-width:2; stroke-opacity:0.1; fill:none" points="
  334.958,898.726 2352.76,898.726 
  "/>
<polyline clip-path="url(#clip632)" style="stroke:#000000; stroke-width:2; stroke-opacity:0.1; fill:none" points="
  334.958,655.964 2352.76,655.964 
  "/>
<polyline clip-path="url(#clip632)" style="stroke:#000000; stroke-width:2; stroke-opacity:0.1; fill:none" points="
  334.958,413.203 2352.76,413.203 
  "/>
<polyline clip-path="url(#clip632)" style="stroke:#000000; stroke-width:2; stroke-opacity:0.1; fill:none" points="
  334.958,170.441 2352.76,170.441 
  "/>
<polyline clip-path="url(#clip630)" style="stroke:#000000; stroke-width:4; stroke-opacity:1; fill:none" points="
  334.958,1423.18 2352.76,1423.18 
  "/>
<polyline clip-path="url(#clip630)" style="stroke:#000000; stroke-width:4; stroke-opacity:1; fill:none" points="
  334.958,1423.18 334.958,47.2441 
  "/>
<polyline clip-path="url(#clip630)" style="stroke:#000000; stroke-width:4; stroke-opacity:1; fill:none" points="
  392.062,1423.18 392.062,1406.67 
  "/>
<polyline clip-path="url(#clip630)" style="stroke:#000000; stroke-width:4; stroke-opacity:1; fill:none" points="
  772.779,1423.18 772.779,1406.67 
  "/>
<polyline clip-path="url(#clip630)" style="stroke:#000000; stroke-width:4; stroke-opacity:1; fill:none" points="
  1153.5,1423.18 1153.5,1406.67 
  "/>
<polyline clip-path="url(#clip630)" style="stroke:#000000; stroke-width:4; stroke-opacity:1; fill:none" points="
  1534.21,1423.18 1534.21,1406.67 
  "/>
<polyline clip-path="url(#clip630)" style="stroke:#000000; stroke-width:4; stroke-opacity:1; fill:none" points="
  1914.93,1423.18 1914.93,1406.67 
  "/>
<polyline clip-path="url(#clip630)" style="stroke:#000000; stroke-width:4; stroke-opacity:1; fill:none" points="
  2295.65,1423.18 2295.65,1406.67 
  "/>
<polyline clip-path="url(#clip630)" style="stroke:#000000; stroke-width:4; stroke-opacity:1; fill:none" points="
  334.958,1384.25 359.172,1384.25 
  "/>
<polyline clip-path="url(#clip630)" style="stroke:#000000; stroke-width:4; stroke-opacity:1; fill:none" points="
  334.958,1141.49 359.172,1141.49 
  "/>
<polyline clip-path="url(#clip630)" style="stroke:#000000; stroke-width:4; stroke-opacity:1; fill:none" points="
  334.958,898.726 359.172,898.726 
  "/>
<polyline clip-path="url(#clip630)" style="stroke:#000000; stroke-width:4; stroke-opacity:1; fill:none" points="
  334.958,655.964 359.172,655.964 
  "/>
<polyline clip-path="url(#clip630)" style="stroke:#000000; stroke-width:4; stroke-opacity:1; fill:none" points="
  334.958,413.203 359.172,413.203 
  "/>
<polyline clip-path="url(#clip630)" style="stroke:#000000; stroke-width:4; stroke-opacity:1; fill:none" points="
  334.958,170.441 359.172,170.441 
  "/>
<path clip-path="url(#clip630)" d="M 0 0 M392.062 1445.17 Q388.451 1445.17 386.622 1448.74 Q384.817 1452.28 384.817 1459.41 Q384.817 1466.51 386.622 1470.08 Q388.451 1473.62 392.062 1473.62 Q395.696 1473.62 397.502 1470.08 Q399.33 1466.51 399.33 1459.41 Q399.33 1452.28 397.502 1448.74 Q395.696 1445.17 392.062 1445.17 M392.062 1441.47 Q397.872 1441.47 400.928 1446.07 Q404.006 1450.66 404.006 1459.41 Q404.006 1468.13 400.928 1472.74 Q397.872 1477.32 392.062 1477.32 Q386.252 1477.32 383.173 1472.74 Q380.118 1468.13 380.118 1459.41 Q380.118 1450.66 383.173 1446.07 Q386.252 1441.47 392.062 1441.47 Z" fill="#000000" fill-rule="evenodd" fill-opacity="1" /><path clip-path="url(#clip630)" d="M 0 0 M763.161 1472.72 L770.8 1472.72 L770.8 1446.35 L762.49 1448.02 L762.49 1443.76 L770.754 1442.09 L775.43 1442.09 L775.43 1472.72 L783.069 1472.72 L783.069 1476.65 L763.161 1476.65 L763.161 1472.72 Z" fill="#000000" fill-rule="evenodd" fill-opacity="1" /><path clip-path="url(#clip630)" d="M 0 0 M1148.15 1472.72 L1164.47 1472.72 L1164.47 1476.65 L1142.52 1476.65 L1142.52 1472.72 Q1145.19 1469.96 1149.77 1465.33 Q1154.38 1460.68 1155.56 1459.34 Q1157.8 1456.81 1158.68 1455.08 Q1159.58 1453.32 1159.58 1451.63 Q1159.58 1448.87 1157.64 1447.14 Q1155.72 1445.4 1152.62 1445.4 Q1150.42 1445.4 1147.96 1446.17 Q1145.53 1446.93 1142.76 1448.48 L1142.76 1443.76 Q1145.58 1442.62 1148.03 1442.05 Q1150.49 1441.47 1152.52 1441.47 Q1157.89 1441.47 1161.09 1444.15 Q1164.28 1446.84 1164.28 1451.33 Q1164.28 1453.46 1163.47 1455.38 Q1162.69 1457.28 1160.58 1459.87 Q1160 1460.54 1156.9 1463.76 Q1153.8 1466.95 1148.15 1472.72 Z" fill="#000000" fill-rule="evenodd" fill-opacity="1" /><path clip-path="url(#clip630)" d="M 0 0 M1538.46 1458.02 Q1541.82 1458.74 1543.69 1461 Q1545.59 1463.27 1545.59 1466.61 Q1545.59 1471.72 1542.07 1474.52 Q1538.55 1477.32 1532.07 1477.32 Q1529.9 1477.32 1527.58 1476.88 Q1525.29 1476.47 1522.84 1475.61 L1522.84 1471.1 Q1524.78 1472.23 1527.1 1472.81 Q1529.41 1473.39 1531.93 1473.39 Q1536.33 1473.39 1538.62 1471.65 Q1540.94 1469.92 1540.94 1466.61 Q1540.94 1463.55 1538.79 1461.84 Q1536.66 1460.1 1532.84 1460.1 L1528.81 1460.1 L1528.81 1456.26 L1533.02 1456.26 Q1536.47 1456.26 1538.3 1454.89 Q1540.13 1453.5 1540.13 1450.91 Q1540.13 1448.25 1538.23 1446.84 Q1536.36 1445.4 1532.84 1445.4 Q1530.92 1445.4 1528.72 1445.82 Q1526.52 1446.24 1523.88 1447.11 L1523.88 1442.95 Q1526.54 1442.21 1528.86 1441.84 Q1531.19 1441.47 1533.25 1441.47 Q1538.58 1441.47 1541.68 1443.9 Q1544.78 1446.3 1544.78 1450.43 Q1544.78 1453.3 1543.14 1455.29 Q1541.49 1457.25 1538.46 1458.02 Z" fill="#000000" fill-rule="evenodd" fill-opacity="1" /><path clip-path="url(#clip630)" d="M 0 0 M1917.94 1446.17 L1906.13 1464.61 L1917.94 1464.61 L1917.94 1446.17 M1916.71 1442.09 L1922.59 1442.09 L1922.59 1464.61 L1927.52 1464.61 L1927.52 1468.5 L1922.59 1468.5 L1922.59 1476.65 L1917.94 1476.65 L1917.94 1468.5 L1902.34 1468.5 L1902.34 1463.99 L1916.71 1442.09 Z" fill="#000000" fill-rule="evenodd" fill-opacity="1" /><path clip-path="url(#clip630)" d="M 0 0 M2285.93 1442.09 L2304.28 1442.09 L2304.28 1446.03 L2290.21 1446.03 L2290.21 1454.5 Q2291.23 1454.15 2292.25 1453.99 Q2293.26 1453.8 2294.28 1453.8 Q2300.07 1453.8 2303.45 1456.98 Q2306.83 1460.15 2306.83 1465.56 Q2306.83 1471.14 2303.36 1474.24 Q2299.88 1477.32 2293.57 1477.32 Q2291.39 1477.32 2289.12 1476.95 Q2286.88 1476.58 2284.47 1475.84 L2284.47 1471.14 Q2286.55 1472.28 2288.77 1472.83 Q2291 1473.39 2293.47 1473.39 Q2297.48 1473.39 2299.82 1471.28 Q2302.15 1469.18 2302.15 1465.56 Q2302.15 1461.95 2299.82 1459.85 Q2297.48 1457.74 2293.47 1457.74 Q2291.6 1457.74 2289.72 1458.16 Q2287.87 1458.57 2285.93 1459.45 L2285.93 1442.09 Z" fill="#000000" fill-rule="evenodd" fill-opacity="1" /><path clip-path="url(#clip630)" d="M 0 0 M299.014 1370.05 Q295.403 1370.05 293.574 1373.61 Q291.769 1377.15 291.769 1384.28 Q291.769 1391.39 293.574 1394.95 Q295.403 1398.5 299.014 1398.5 Q302.648 1398.5 304.454 1394.95 Q306.282 1391.39 306.282 1384.28 Q306.282 1377.15 304.454 1373.61 Q302.648 1370.05 299.014 1370.05 M299.014 1366.34 Q304.824 1366.34 307.88 1370.95 Q310.958 1375.53 310.958 1384.28 Q310.958 1393.01 307.88 1397.62 Q304.824 1402.2 299.014 1402.2 Q293.204 1402.2 290.125 1397.62 Q287.069 1393.01 287.069 1384.28 Q287.069 1375.53 290.125 1370.95 Q293.204 1366.34 299.014 1366.34 Z" fill="#000000" fill-rule="evenodd" fill-opacity="1" /><path clip-path="url(#clip630)" d="M 0 0 M137.669 1130.65 L156.026 1130.65 L156.026 1134.59 L141.952 1134.59 L141.952 1143.06 Q142.97 1142.71 143.989 1142.55 Q145.007 1142.37 146.026 1142.37 Q151.813 1142.37 155.192 1145.54 Q158.572 1148.71 158.572 1154.13 Q158.572 1159.71 155.1 1162.81 Q151.627 1165.89 145.308 1165.89 Q143.132 1165.89 140.864 1165.52 Q138.618 1165.15 136.211 1164.4 L136.211 1159.71 Q138.294 1160.84 140.516 1161.4 Q142.739 1161.95 145.215 1161.95 Q149.22 1161.95 151.558 1159.84 Q153.896 1157.74 153.896 1154.13 Q153.896 1150.52 151.558 1148.41 Q149.22 1146.3 145.215 1146.3 Q143.341 1146.3 141.466 1146.72 Q139.614 1147.14 137.669 1148.02 L137.669 1130.65 Z" fill="#000000" fill-rule="evenodd" fill-opacity="1" /><path clip-path="url(#clip630)" d="M 0 0 M163.641 1159.34 L168.526 1159.34 L168.526 1165.21 L163.641 1165.21 L163.641 1159.34 Z" fill="#000000" fill-rule="evenodd" fill-opacity="1" /><path clip-path="url(#clip630)" d="M 0 0 M183.595 1133.73 Q179.984 1133.73 178.155 1137.3 Q176.35 1140.84 176.35 1147.97 Q176.35 1155.08 178.155 1158.64 Q179.984 1162.18 183.595 1162.18 Q187.229 1162.18 189.035 1158.64 Q190.863 1155.08 190.863 1147.97 Q190.863 1140.84 189.035 1137.3 Q187.229 1133.73 183.595 1133.73 M183.595 1130.03 Q189.405 1130.03 192.461 1134.64 Q195.539 1139.22 195.539 1147.97 Q195.539 1156.7 192.461 1161.3 Q189.405 1165.89 183.595 1165.89 Q177.785 1165.89 174.706 1161.3 Q171.651 1156.7 171.651 1147.97 Q171.651 1139.22 174.706 1134.64 Q177.785 1130.03 183.595 1130.03 Z" fill="#000000" fill-rule="evenodd" fill-opacity="1" /><path clip-path="url(#clip630)" d="M 0 0 M228.78 1139.75 L218.201 1150.38 L228.78 1160.96 L226.025 1163.76 L215.4 1153.13 L204.775 1163.76 L202.044 1160.96 L212.599 1150.38 L202.044 1139.75 L204.775 1136.95 L215.4 1147.58 L226.025 1136.95 L228.78 1139.75 Z" fill="#000000" fill-rule="evenodd" fill-opacity="1" /><path clip-path="url(#clip630)" d="M 0 0 M234.659 1161.28 L242.298 1161.28 L242.298 1134.91 L233.988 1136.58 L233.988 1132.32 L242.252 1130.65 L246.928 1130.65 L246.928 1161.28 L254.567 1161.28 L254.567 1165.21 L234.659 1165.21 L234.659 1161.28 Z" fill="#000000" fill-rule="evenodd" fill-opacity="1" /><path clip-path="url(#clip630)" d="M 0 0 M269.636 1133.73 Q266.025 1133.73 264.196 1137.3 Q262.391 1140.84 262.391 1147.97 Q262.391 1155.08 264.196 1158.64 Q266.025 1162.18 269.636 1162.18 Q273.27 1162.18 275.076 1158.64 Q276.905 1155.08 276.905 1147.97 Q276.905 1140.84 275.076 1137.3 Q273.27 1133.73 269.636 1133.73 M269.636 1130.03 Q275.446 1130.03 278.502 1134.64 Q281.581 1139.22 281.581 1147.97 Q281.581 1156.7 278.502 1161.3 Q275.446 1165.89 269.636 1165.89 Q263.826 1165.89 260.747 1161.3 Q257.692 1156.7 257.692 1147.97 Q257.692 1139.22 260.747 1134.64 Q263.826 1130.03 269.636 1130.03 Z" fill="#000000" fill-rule="evenodd" fill-opacity="1" /><path clip-path="url(#clip630)" d="M 0 0 M281.581 1117.59 L296.758 1117.59 L296.758 1119.37 L281.581 1119.37 L281.581 1117.59 Z" fill="#000000" fill-rule="evenodd" fill-opacity="1" /><path clip-path="url(#clip630)" d="M 0 0 M304.94 1116.5 Q303.285 1116.5 302.325 1117.47 Q301.366 1118.47 301.366 1120.18 Q301.366 1121.87 302.325 1122.85 Q303.285 1123.85 304.94 1123.85 Q306.576 1123.85 307.535 1122.85 Q308.494 1121.87 308.494 1120.18 Q308.494 1118.47 307.535 1117.47 Q306.576 1116.5 304.94 1116.5 M309.792 1109.84 L309.792 1111.77 Q308.871 1111.4 307.93 1111.21 Q306.99 1111 306.068 1111 Q303.661 1111 302.382 1112.41 Q301.103 1113.84 300.915 1116.72 Q301.63 1115.8 302.702 1115.31 Q303.792 1114.82 305.071 1114.82 Q307.799 1114.82 309.378 1116.25 Q310.958 1117.7 310.958 1120.18 Q310.958 1122.57 309.303 1124.06 Q307.667 1125.52 304.94 1125.52 Q301.799 1125.52 300.144 1123.44 Q298.489 1121.35 298.489 1117.36 Q298.489 1113.64 300.52 1111.44 Q302.551 1109.22 305.974 1109.22 Q306.896 1109.22 307.836 1109.37 Q308.777 1109.54 309.792 1109.84 Z" fill="#000000" fill-rule="evenodd" fill-opacity="1" /><path clip-path="url(#clip630)" d="M 0 0 M139.266 918.518 L146.905 918.518 L146.905 892.152 L138.595 893.819 L138.595 889.56 L146.859 887.893 L151.535 887.893 L151.535 918.518 L159.174 918.518 L159.174 922.453 L139.266 922.453 L139.266 918.518 Z" fill="#000000" fill-rule="evenodd" fill-opacity="1" /><path clip-path="url(#clip630)" d="M 0 0 M164.243 916.574 L169.127 916.574 L169.127 922.453 L164.243 922.453 L164.243 916.574 Z" fill="#000000" fill-rule="evenodd" fill-opacity="1" /><path clip-path="url(#clip630)" d="M 0 0 M184.197 890.972 Q180.586 890.972 178.757 894.537 Q176.951 898.078 176.951 905.208 Q176.951 912.314 178.757 915.879 Q180.586 919.421 184.197 919.421 Q187.831 919.421 189.637 915.879 Q191.465 912.314 191.465 905.208 Q191.465 898.078 189.637 894.537 Q187.831 890.972 184.197 890.972 M184.197 887.268 Q190.007 887.268 193.062 891.875 Q196.141 896.458 196.141 905.208 Q196.141 913.935 193.062 918.541 Q190.007 923.124 184.197 923.124 Q178.387 923.124 175.308 918.541 Q172.252 913.935 172.252 905.208 Q172.252 896.458 175.308 891.875 Q178.387 887.268 184.197 887.268 Z" fill="#000000" fill-rule="evenodd" fill-opacity="1" /><path clip-path="url(#clip630)" d="M 0 0 M229.382 896.99 L218.803 907.615 L229.382 918.194 L226.627 920.995 L216.002 910.37 L205.377 920.995 L202.646 918.194 L213.201 907.615 L202.646 896.99 L205.377 894.189 L216.002 904.814 L226.627 894.189 L229.382 896.99 Z" fill="#000000" fill-rule="evenodd" fill-opacity="1" /><path clip-path="url(#clip630)" d="M 0 0 M235.261 918.518 L242.9 918.518 L242.9 892.152 L234.59 893.819 L234.59 889.56 L242.854 887.893 L247.53 887.893 L247.53 918.518 L255.169 918.518 L255.169 922.453 L235.261 922.453 L235.261 918.518 Z" fill="#000000" fill-rule="evenodd" fill-opacity="1" /><path clip-path="url(#clip630)" d="M 0 0 M270.238 890.972 Q266.627 890.972 264.798 894.537 Q262.993 898.078 262.993 905.208 Q262.993 912.314 264.798 915.879 Q266.627 919.421 270.238 919.421 Q273.872 919.421 275.678 915.879 Q277.506 912.314 277.506 905.208 Q277.506 898.078 275.678 894.537 Q273.872 890.972 270.238 890.972 M270.238 887.268 Q276.048 887.268 279.104 891.875 Q282.182 896.458 282.182 905.208 Q282.182 913.935 279.104 918.541 Q276.048 923.124 270.238 923.124 Q264.428 923.124 261.349 918.541 Q258.294 913.935 258.294 905.208 Q258.294 896.458 261.349 891.875 Q264.428 887.268 270.238 887.268 Z" fill="#000000" fill-rule="evenodd" fill-opacity="1" /><path clip-path="url(#clip630)" d="M 0 0 M282.182 874.824 L297.36 874.824 L297.36 876.611 L282.182 876.611 L282.182 874.824 Z" fill="#000000" fill-rule="evenodd" fill-opacity="1" /><path clip-path="url(#clip630)" d="M 0 0 M300.031 866.775 L309.623 866.775 L309.623 868.561 L302.269 868.561 L302.269 872.398 Q302.796 872.229 303.341 872.154 Q303.868 872.078 304.394 872.078 Q307.422 872.078 309.19 873.527 Q310.958 874.956 310.958 877.42 Q310.958 879.959 309.134 881.37 Q307.328 882.761 304.018 882.761 Q302.89 882.761 301.705 882.592 Q300.52 882.423 299.279 882.084 L299.279 879.959 Q300.351 880.467 301.517 880.73 Q302.683 880.975 303.981 880.975 Q306.068 880.975 307.291 880.015 Q308.513 879.056 308.513 877.42 Q308.513 875.784 307.291 874.824 Q306.068 873.865 303.981 873.865 Q303.003 873.865 302.025 874.053 Q301.047 874.241 300.031 874.636 L300.031 866.775 Z" fill="#000000" fill-rule="evenodd" fill-opacity="1" /><path clip-path="url(#clip630)" d="M 0 0 M140.262 675.757 L147.901 675.757 L147.901 649.391 L139.591 651.058 L139.591 646.798 L147.854 645.132 L152.53 645.132 L152.53 675.757 L160.169 675.757 L160.169 679.692 L140.262 679.692 L140.262 675.757 Z" fill="#000000" fill-rule="evenodd" fill-opacity="1" /><path clip-path="url(#clip630)" d="M 0 0 M165.239 673.812 L170.123 673.812 L170.123 679.692 L165.239 679.692 L165.239 673.812 Z" fill="#000000" fill-rule="evenodd" fill-opacity="1" /><path clip-path="url(#clip630)" d="M 0 0 M175.238 645.132 L193.595 645.132 L193.595 649.067 L179.521 649.067 L179.521 657.539 Q180.539 657.192 181.558 657.03 Q182.576 656.845 183.595 656.845 Q189.382 656.845 192.762 660.016 Q196.141 663.187 196.141 668.604 Q196.141 674.182 192.669 677.284 Q189.197 680.363 182.877 680.363 Q180.701 680.363 178.433 679.993 Q176.188 679.622 173.78 678.881 L173.78 674.182 Q175.863 675.317 178.086 675.872 Q180.308 676.428 182.785 676.428 Q186.789 676.428 189.127 674.321 Q191.465 672.215 191.465 668.604 Q191.465 664.993 189.127 662.886 Q186.789 660.78 182.785 660.78 Q180.91 660.78 179.035 661.196 Q177.183 661.613 175.238 662.493 L175.238 645.132 Z" fill="#000000" fill-rule="evenodd" fill-opacity="1" /><path clip-path="url(#clip630)" d="M 0 0 M229.382 654.229 L218.803 664.854 L229.382 675.432 L226.627 678.233 L216.002 667.608 L205.377 678.233 L202.646 675.432 L213.201 664.854 L202.646 654.229 L205.377 651.428 L216.002 662.053 L226.627 651.428 L229.382 654.229 Z" fill="#000000" fill-rule="evenodd" fill-opacity="1" /><path clip-path="url(#clip630)" d="M 0 0 M235.261 675.757 L242.9 675.757 L242.9 649.391 L234.59 651.058 L234.59 646.798 L242.854 645.132 L247.53 645.132 L247.53 675.757 L255.169 675.757 L255.169 679.692 L235.261 679.692 L235.261 675.757 Z" fill="#000000" fill-rule="evenodd" fill-opacity="1" /><path clip-path="url(#clip630)" d="M 0 0 M270.238 648.21 Q266.627 648.21 264.798 651.775 Q262.993 655.317 262.993 662.446 Q262.993 669.553 264.798 673.118 Q266.627 676.659 270.238 676.659 Q273.872 676.659 275.678 673.118 Q277.506 669.553 277.506 662.446 Q277.506 655.317 275.678 651.775 Q273.872 648.21 270.238 648.21 M270.238 644.507 Q276.048 644.507 279.104 649.113 Q282.182 653.696 282.182 662.446 Q282.182 671.173 279.104 675.78 Q276.048 680.363 270.238 680.363 Q264.428 680.363 261.349 675.78 Q258.294 671.173 258.294 662.446 Q258.294 653.696 261.349 649.113 Q264.428 644.507 270.238 644.507 Z" fill="#000000" fill-rule="evenodd" fill-opacity="1" /><path clip-path="url(#clip630)" d="M 0 0 M282.182 632.063 L297.36 632.063 L297.36 633.85 L282.182 633.85 L282.182 632.063 Z" fill="#000000" fill-rule="evenodd" fill-opacity="1" /><path clip-path="url(#clip630)" d="M 0 0 M300.031 624.013 L309.623 624.013 L309.623 625.8 L302.269 625.8 L302.269 629.637 Q302.796 629.467 303.341 629.392 Q303.868 629.317 304.394 629.317 Q307.422 629.317 309.19 630.765 Q310.958 632.195 310.958 634.658 Q310.958 637.197 309.134 638.608 Q307.328 640 304.018 640 Q302.89 640 301.705 639.831 Q300.52 639.661 299.279 639.323 L299.279 637.197 Q300.351 637.705 301.517 637.969 Q302.683 638.213 303.981 638.213 Q306.068 638.213 307.291 637.254 Q308.513 636.295 308.513 634.658 Q308.513 633.022 307.291 632.063 Q306.068 631.104 303.981 631.104 Q303.003 631.104 302.025 631.292 Q301.047 631.48 300.031 631.875 L300.031 624.013 Z" fill="#000000" fill-rule="evenodd" fill-opacity="1" /><path clip-path="url(#clip630)" d="M 0 0 M142.854 432.995 L159.174 432.995 L159.174 436.93 L137.229 436.93 L137.229 432.995 Q139.891 430.24 144.475 425.611 Q149.081 420.958 150.262 419.615 Q152.507 417.092 153.387 415.356 Q154.29 413.597 154.29 411.907 Q154.29 409.153 152.345 407.416 Q150.424 405.68 147.322 405.68 Q145.123 405.68 142.669 406.444 Q140.239 407.208 137.461 408.759 L137.461 404.037 Q140.285 402.903 142.739 402.324 Q145.192 401.745 147.229 401.745 Q152.6 401.745 155.794 404.43 Q158.989 407.116 158.989 411.606 Q158.989 413.736 158.178 415.657 Q157.391 417.555 155.285 420.148 Q154.706 420.819 151.604 424.037 Q148.503 427.231 142.854 432.995 Z" fill="#000000" fill-rule="evenodd" fill-opacity="1" /><path clip-path="url(#clip630)" d="M 0 0 M164.243 431.051 L169.127 431.051 L169.127 436.93 L164.243 436.93 L164.243 431.051 Z" fill="#000000" fill-rule="evenodd" fill-opacity="1" /><path clip-path="url(#clip630)" d="M 0 0 M184.197 405.449 Q180.586 405.449 178.757 409.014 Q176.951 412.555 176.951 419.685 Q176.951 426.791 178.757 430.356 Q180.586 433.898 184.197 433.898 Q187.831 433.898 189.637 430.356 Q191.465 426.791 191.465 419.685 Q191.465 412.555 189.637 409.014 Q187.831 405.449 184.197 405.449 M184.197 401.745 Q190.007 401.745 193.062 406.352 Q196.141 410.935 196.141 419.685 Q196.141 428.412 193.062 433.018 Q190.007 437.601 184.197 437.601 Q178.387 437.601 175.308 433.018 Q172.252 428.412 172.252 419.685 Q172.252 410.935 175.308 406.352 Q178.387 401.745 184.197 401.745 Z" fill="#000000" fill-rule="evenodd" fill-opacity="1" /><path clip-path="url(#clip630)" d="M 0 0 M229.382 411.467 L218.803 422.092 L229.382 432.671 L226.627 435.472 L216.002 424.847 L205.377 435.472 L202.646 432.671 L213.201 422.092 L202.646 411.467 L205.377 408.666 L216.002 419.291 L226.627 408.666 L229.382 411.467 Z" fill="#000000" fill-rule="evenodd" fill-opacity="1" /><path clip-path="url(#clip630)" d="M 0 0 M235.261 432.995 L242.9 432.995 L242.9 406.629 L234.59 408.296 L234.59 404.037 L242.854 402.37 L247.53 402.37 L247.53 432.995 L255.169 432.995 L255.169 436.93 L235.261 436.93 L235.261 432.995 Z" fill="#000000" fill-rule="evenodd" fill-opacity="1" /><path clip-path="url(#clip630)" d="M 0 0 M270.238 405.449 Q266.627 405.449 264.798 409.014 Q262.993 412.555 262.993 419.685 Q262.993 426.791 264.798 430.356 Q266.627 433.898 270.238 433.898 Q273.872 433.898 275.678 430.356 Q277.506 426.791 277.506 419.685 Q277.506 412.555 275.678 409.014 Q273.872 405.449 270.238 405.449 M270.238 401.745 Q276.048 401.745 279.104 406.352 Q282.182 410.935 282.182 419.685 Q282.182 428.412 279.104 433.018 Q276.048 437.601 270.238 437.601 Q264.428 437.601 261.349 433.018 Q258.294 428.412 258.294 419.685 Q258.294 410.935 261.349 406.352 Q264.428 401.745 270.238 401.745 Z" fill="#000000" fill-rule="evenodd" fill-opacity="1" /><path clip-path="url(#clip630)" d="M 0 0 M282.182 389.301 L297.36 389.301 L297.36 391.088 L282.182 391.088 L282.182 389.301 Z" fill="#000000" fill-rule="evenodd" fill-opacity="1" /><path clip-path="url(#clip630)" d="M 0 0 M300.031 381.252 L309.623 381.252 L309.623 383.038 L302.269 383.038 L302.269 386.875 Q302.796 386.706 303.341 386.631 Q303.868 386.555 304.394 386.555 Q307.422 386.555 309.19 388.004 Q310.958 389.433 310.958 391.897 Q310.958 394.436 309.134 395.847 Q307.328 397.238 304.018 397.238 Q302.89 397.238 301.705 397.069 Q300.52 396.9 299.279 396.561 L299.279 394.436 Q300.351 394.944 301.517 395.207 Q302.683 395.452 303.981 395.452 Q306.068 395.452 307.291 394.492 Q308.513 393.533 308.513 391.897 Q308.513 390.261 307.291 389.301 Q306.068 388.342 303.981 388.342 Q303.003 388.342 302.025 388.53 Q301.047 388.718 300.031 389.113 L300.031 381.252 Z" fill="#000000" fill-rule="evenodd" fill-opacity="1" /><path clip-path="url(#clip630)" d="M 0 0 M143.85 190.234 L160.169 190.234 L160.169 194.169 L138.225 194.169 L138.225 190.234 Q140.887 187.479 145.47 182.849 Q150.077 178.197 151.257 176.854 Q153.502 174.331 154.382 172.595 Q155.285 170.835 155.285 169.146 Q155.285 166.391 153.34 164.655 Q151.419 162.919 148.317 162.919 Q146.118 162.919 143.665 163.683 Q141.234 164.447 138.456 165.998 L138.456 161.275 Q141.28 160.141 143.734 159.562 Q146.188 158.984 148.225 158.984 Q153.595 158.984 156.79 161.669 Q159.984 164.354 159.984 168.845 Q159.984 170.974 159.174 172.896 Q158.387 174.794 156.28 177.386 Q155.702 178.058 152.6 181.275 Q149.498 184.47 143.85 190.234 Z" fill="#000000" fill-rule="evenodd" fill-opacity="1" /><path clip-path="url(#clip630)" d="M 0 0 M165.239 188.289 L170.123 188.289 L170.123 194.169 L165.239 194.169 L165.239 188.289 Z" fill="#000000" fill-rule="evenodd" fill-opacity="1" /><path clip-path="url(#clip630)" d="M 0 0 M175.238 159.609 L193.595 159.609 L193.595 163.544 L179.521 163.544 L179.521 172.016 Q180.539 171.669 181.558 171.507 Q182.576 171.322 183.595 171.322 Q189.382 171.322 192.762 174.493 Q196.141 177.664 196.141 183.081 Q196.141 188.659 192.669 191.761 Q189.197 194.84 182.877 194.84 Q180.701 194.84 178.433 194.47 Q176.188 194.099 173.78 193.358 L173.78 188.659 Q175.863 189.794 178.086 190.349 Q180.308 190.905 182.785 190.905 Q186.789 190.905 189.127 188.798 Q191.465 186.692 191.465 183.081 Q191.465 179.47 189.127 177.363 Q186.789 175.257 182.785 175.257 Q180.91 175.257 179.035 175.673 Q177.183 176.09 175.238 176.97 L175.238 159.609 Z" fill="#000000" fill-rule="evenodd" fill-opacity="1" /><path clip-path="url(#clip630)" d="M 0 0 M229.382 168.706 L218.803 179.331 L229.382 189.909 L226.627 192.71 L216.002 182.085 L205.377 192.71 L202.646 189.909 L213.201 179.331 L202.646 168.706 L205.377 165.905 L216.002 176.53 L226.627 165.905 L229.382 168.706 Z" fill="#000000" fill-rule="evenodd" fill-opacity="1" /><path clip-path="url(#clip630)" d="M 0 0 M235.261 190.234 L242.9 190.234 L242.9 163.868 L234.59 165.535 L234.59 161.275 L242.854 159.609 L247.53 159.609 L247.53 190.234 L255.169 190.234 L255.169 194.169 L235.261 194.169 L235.261 190.234 Z" fill="#000000" fill-rule="evenodd" fill-opacity="1" /><path clip-path="url(#clip630)" d="M 0 0 M270.238 162.687 Q266.627 162.687 264.798 166.252 Q262.993 169.794 262.993 176.923 Q262.993 184.03 264.798 187.595 Q266.627 191.136 270.238 191.136 Q273.872 191.136 275.678 187.595 Q277.506 184.03 277.506 176.923 Q277.506 169.794 275.678 166.252 Q273.872 162.687 270.238 162.687 M270.238 158.984 Q276.048 158.984 279.104 163.59 Q282.182 168.173 282.182 176.923 Q282.182 185.65 279.104 190.257 Q276.048 194.84 270.238 194.84 Q264.428 194.84 261.349 190.257 Q258.294 185.65 258.294 176.923 Q258.294 168.173 261.349 163.59 Q264.428 158.984 270.238 158.984 Z" fill="#000000" fill-rule="evenodd" fill-opacity="1" /><path clip-path="url(#clip630)" d="M 0 0 M282.182 146.54 L297.36 146.54 L297.36 148.327 L282.182 148.327 L282.182 146.54 Z" fill="#000000" fill-rule="evenodd" fill-opacity="1" /><path clip-path="url(#clip630)" d="M 0 0 M300.031 138.49 L309.623 138.49 L309.623 140.277 L302.269 140.277 L302.269 144.114 Q302.796 143.944 303.341 143.869 Q303.868 143.794 304.394 143.794 Q307.422 143.794 309.19 145.242 Q310.958 146.672 310.958 149.135 Q310.958 151.674 309.134 153.085 Q307.328 154.477 304.018 154.477 Q302.89 154.477 301.705 154.308 Q300.52 154.138 299.279 153.8 L299.279 151.674 Q300.351 152.182 301.517 152.446 Q302.683 152.69 303.981 152.69 Q306.068 152.69 307.291 151.731 Q308.513 150.772 308.513 149.135 Q308.513 147.499 307.291 146.54 Q306.068 145.581 303.981 145.581 Q303.003 145.581 302.025 145.769 Q301.047 145.957 300.031 146.352 L300.031 138.49 Z" fill="#000000" fill-rule="evenodd" fill-opacity="1" /><path clip-path="url(#clip630)" d="M 0 0 M1168.02 1538.25 Q1168.02 1544.71 1170.66 1548.4 Q1173.34 1552.07 1177.98 1552.07 Q1182.63 1552.07 1185.3 1548.4 Q1187.98 1544.71 1187.98 1538.25 Q1187.98 1531.79 1185.3 1528.13 Q1182.63 1524.44 1177.98 1524.44 Q1173.34 1524.44 1170.66 1528.13 Q1168.02 1531.79 1168.02 1538.25 M1187.98 1550.7 Q1186.13 1553.88 1183.3 1555.44 Q1180.5 1556.97 1176.55 1556.97 Q1170.09 1556.97 1166.02 1551.81 Q1161.97 1546.65 1161.97 1538.25 Q1161.97 1529.85 1166.02 1524.69 Q1170.09 1519.54 1176.55 1519.54 Q1180.5 1519.54 1183.3 1521.1 Q1186.13 1522.62 1187.98 1525.81 L1187.98 1520.4 L1193.83 1520.4 L1193.83 1569.6 L1187.98 1569.6 L1187.98 1550.7 Z" fill="#000000" fill-rule="evenodd" fill-opacity="1" /><path clip-path="url(#clip630)" d="M 0 0 M1227.06 1566.87 L1227.06 1571.42 L1193.2 1571.42 L1193.2 1566.87 L1227.06 1566.87 Z" fill="#000000" fill-rule="evenodd" fill-opacity="1" /><path clip-path="url(#clip630)" d="M 0 0 M1253.86 1525.87 Q1252.88 1525.3 1251.7 1525.04 Q1250.55 1524.76 1249.15 1524.76 Q1244.19 1524.76 1241.51 1528 Q1238.87 1531.22 1238.87 1537.27 L1238.87 1556.04 L1232.98 1556.04 L1232.98 1520.4 L1238.87 1520.4 L1238.87 1525.93 Q1240.72 1522.69 1243.68 1521.13 Q1246.64 1519.54 1250.87 1519.54 Q1251.47 1519.54 1252.21 1519.63 Q1252.94 1519.7 1253.83 1519.85 L1253.86 1525.87 Z" fill="#000000" fill-rule="evenodd" fill-opacity="1" /><path clip-path="url(#clip630)" d="M 0 0 M1276.21 1538.12 Q1269.11 1538.12 1266.37 1539.75 Q1263.63 1541.37 1263.63 1545.29 Q1263.63 1548.4 1265.67 1550.25 Q1267.74 1552.07 1271.27 1552.07 Q1276.14 1552.07 1279.07 1548.63 Q1282.03 1545.16 1282.03 1539.43 L1282.03 1538.12 L1276.21 1538.12 M1287.89 1535.71 L1287.89 1556.04 L1282.03 1556.04 L1282.03 1550.63 Q1280.02 1553.88 1277.03 1555.44 Q1274.04 1556.97 1269.71 1556.97 Q1264.24 1556.97 1260.99 1553.91 Q1257.78 1550.82 1257.78 1545.67 Q1257.78 1539.65 1261.79 1536.6 Q1265.83 1533.54 1273.82 1533.54 L1282.03 1533.54 L1282.03 1532.97 Q1282.03 1528.93 1279.36 1526.73 Q1276.71 1524.5 1271.91 1524.5 Q1268.85 1524.5 1265.96 1525.23 Q1263.06 1525.97 1260.39 1527.43 L1260.39 1522.02 Q1263.6 1520.78 1266.63 1520.17 Q1269.65 1519.54 1272.51 1519.54 Q1280.25 1519.54 1284.07 1523.55 Q1287.89 1527.56 1287.89 1535.71 Z" fill="#000000" fill-rule="evenodd" fill-opacity="1" /><path clip-path="url(#clip630)" d="M 0 0 M1294.03 1520.4 L1299.89 1520.4 L1299.89 1556.04 L1294.03 1556.04 L1294.03 1520.4 M1294.03 1506.52 L1299.89 1506.52 L1299.89 1513.93 L1294.03 1513.93 L1294.03 1506.52 Z" fill="#000000" fill-rule="evenodd" fill-opacity="1" /><path clip-path="url(#clip630)" d="M 0 0 M1335.66 1534.53 L1335.66 1556.04 L1329.8 1556.04 L1329.8 1534.72 Q1329.8 1529.66 1327.83 1527.14 Q1325.86 1524.63 1321.91 1524.63 Q1317.17 1524.63 1314.43 1527.65 Q1311.69 1530.68 1311.69 1535.9 L1311.69 1556.04 L1305.81 1556.04 L1305.81 1520.4 L1311.69 1520.4 L1311.69 1525.93 Q1313.8 1522.72 1316.63 1521.13 Q1319.49 1519.54 1323.22 1519.54 Q1329.36 1519.54 1332.51 1523.36 Q1335.66 1527.14 1335.66 1534.53 Z" fill="#000000" fill-rule="evenodd" fill-opacity="1" /><path clip-path="url(#clip630)" d="M 0 0 M1361.98 1506.52 L1375.48 1506.52 L1375.48 1511.07 L1367.84 1511.07 L1367.84 1560.09 L1375.48 1560.09 L1375.48 1564.64 L1361.98 1564.64 L1361.98 1506.52 Z" fill="#000000" fill-rule="evenodd" fill-opacity="1" /><path clip-path="url(#clip630)" d="M 0 0 M1405.08 1537.81 Q1405.08 1531.44 1402.44 1527.94 Q1399.83 1524.44 1395.09 1524.44 Q1390.37 1524.44 1387.73 1527.94 Q1385.12 1531.44 1385.12 1537.81 Q1385.12 1544.14 1387.73 1547.64 Q1390.37 1551.14 1395.09 1551.14 Q1399.83 1551.14 1402.44 1547.64 Q1405.08 1544.14 1405.08 1537.81 M1410.94 1551.62 Q1410.94 1560.72 1406.89 1565.15 Q1402.85 1569.6 1394.51 1569.6 Q1391.42 1569.6 1388.69 1569.13 Q1385.95 1568.68 1383.37 1567.72 L1383.37 1562.03 Q1385.95 1563.43 1388.46 1564.1 Q1390.98 1564.76 1393.59 1564.76 Q1399.35 1564.76 1402.21 1561.74 Q1405.08 1558.75 1405.08 1552.67 L1405.08 1549.77 Q1403.27 1552.92 1400.43 1554.48 Q1397.6 1556.04 1393.65 1556.04 Q1387.1 1556.04 1383.09 1551.05 Q1379.08 1546.05 1379.08 1537.81 Q1379.08 1529.53 1383.09 1524.53 Q1387.1 1519.54 1393.65 1519.54 Q1397.6 1519.54 1400.43 1521.1 Q1403.27 1522.66 1405.08 1525.81 L1405.08 1520.4 L1410.94 1520.4 L1410.94 1551.62 Z" fill="#000000" fill-rule="evenodd" fill-opacity="1" /><path clip-path="url(#clip630)" d="M 0 0 M1427.49 1508.52 L1432.9 1508.52 L1416.35 1562.09 L1410.94 1562.09 L1427.49 1508.52 Z" fill="#000000" fill-rule="evenodd" fill-opacity="1" /><path clip-path="url(#clip630)" d="M 0 0 M1438.82 1506.52 L1444.71 1506.52 L1444.71 1535.77 L1462.18 1520.4 L1469.66 1520.4 L1450.75 1537.07 L1470.46 1556.04 L1462.82 1556.04 L1444.71 1538.63 L1444.71 1556.04 L1438.82 1556.04 L1438.82 1506.52 Z" fill="#000000" fill-rule="evenodd" fill-opacity="1" /><path clip-path="url(#clip630)" d="M 0 0 M1500.06 1537.81 Q1500.06 1531.44 1497.41 1527.94 Q1494.8 1524.44 1490.06 1524.44 Q1485.35 1524.44 1482.71 1527.94 Q1480.1 1531.44 1480.1 1537.81 Q1480.1 1544.14 1482.71 1547.64 Q1485.35 1551.14 1490.06 1551.14 Q1494.8 1551.14 1497.41 1547.64 Q1500.06 1544.14 1500.06 1537.81 M1505.91 1551.62 Q1505.91 1560.72 1501.87 1565.15 Q1497.83 1569.6 1489.49 1569.6 Q1486.4 1569.6 1483.66 1569.13 Q1480.93 1568.68 1478.35 1567.72 L1478.35 1562.03 Q1480.93 1563.43 1483.44 1564.1 Q1485.96 1564.76 1488.57 1564.76 Q1494.33 1564.76 1497.19 1561.74 Q1500.06 1558.75 1500.06 1552.67 L1500.06 1549.77 Q1498.24 1552.92 1495.41 1554.48 Q1492.58 1556.04 1488.63 1556.04 Q1482.07 1556.04 1478.06 1551.05 Q1474.05 1546.05 1474.05 1537.81 Q1474.05 1529.53 1478.06 1524.53 Q1482.07 1519.54 1488.63 1519.54 Q1492.58 1519.54 1495.41 1521.1 Q1498.24 1522.66 1500.06 1525.81 L1500.06 1520.4 L1505.91 1520.4 L1505.91 1551.62 Z" fill="#000000" fill-rule="evenodd" fill-opacity="1" /><path clip-path="url(#clip630)" d="M 0 0 M1525.74 1506.52 L1525.74 1564.64 L1512.25 1564.64 L1512.25 1560.09 L1519.85 1560.09 L1519.85 1511.07 L1512.25 1511.07 L1512.25 1506.52 L1525.74 1506.52 Z" fill="#000000" fill-rule="evenodd" fill-opacity="1" /><path clip-path="url(#clip630)" d="M 0 0 M53.4065 1211.32 L58.9447 1211.32 Q57.6716 1213.8 57.035 1216.48 Q56.3984 1219.15 56.3984 1222.01 Q56.3984 1226.37 57.7352 1228.57 Q59.072 1230.73 61.7456 1230.73 Q63.7826 1230.73 64.9603 1229.17 Q66.1061 1227.62 67.1565 1222.9 L67.6021 1220.9 Q68.9389 1214.66 71.3897 1212.05 Q73.8086 1209.41 78.1691 1209.41 Q83.1344 1209.41 86.0308 1213.36 Q88.9272 1217.27 88.9272 1224.15 Q88.9272 1227.01 88.3543 1230.13 Q87.8132 1233.22 86.6992 1236.65 L80.6518 1236.65 Q82.3387 1233.41 83.198 1230.26 Q84.0256 1227.11 84.0256 1224.02 Q84.0256 1219.88 82.6251 1217.65 Q81.1929 1215.42 78.6147 1215.42 Q76.2276 1215.42 74.9545 1217.05 Q73.6813 1218.64 72.5037 1224.08 L72.0262 1226.12 Q70.8804 1231.56 68.5251 1233.98 Q66.138 1236.4 62.0002 1236.4 Q56.9713 1236.4 54.2341 1232.84 Q51.4968 1229.27 51.4968 1222.71 Q51.4968 1219.47 51.9743 1216.6 Q52.4517 1213.74 53.4065 1211.32 Z" fill="#000000" fill-rule="evenodd" fill-opacity="1" /><path clip-path="url(#clip630)" d="M 0 0 M66.4881 1173.63 L88.0042 1173.63 L88.0042 1179.49 L66.679 1179.49 Q61.6183 1179.49 59.1038 1181.46 Q56.5894 1183.44 56.5894 1187.38 Q56.5894 1192.13 59.6131 1194.86 Q62.6368 1197.6 67.8567 1197.6 L88.0042 1197.6 L88.0042 1203.49 L52.3562 1203.49 L52.3562 1197.6 L57.8944 1197.6 Q54.6797 1195.5 53.0883 1192.67 Q51.4968 1189.8 51.4968 1186.08 Q51.4968 1179.94 55.3163 1176.79 Q59.1038 1173.63 66.4881 1173.63 Z" fill="#000000" fill-rule="evenodd" fill-opacity="1" /><path clip-path="url(#clip630)" d="M 0 0 M56.4621 1153.68 Q56.4621 1158.39 60.1542 1161.13 Q63.8145 1163.86 70.212 1163.86 Q76.6095 1163.86 80.3017 1161.16 Q83.9619 1158.42 83.9619 1153.68 Q83.9619 1149 80.2698 1146.26 Q76.5777 1143.52 70.212 1143.52 Q63.8781 1143.52 60.186 1146.26 Q56.4621 1149 56.4621 1153.68 M51.4968 1153.68 Q51.4968 1146.04 56.4621 1141.68 Q61.4273 1137.32 70.212 1137.32 Q78.9649 1137.32 83.9619 1141.68 Q88.9272 1146.04 88.9272 1153.68 Q88.9272 1161.35 83.9619 1165.71 Q78.9649 1170.04 70.212 1170.04 Q61.4273 1170.04 56.4621 1165.71 Q51.4968 1161.35 51.4968 1153.68 Z" fill="#000000" fill-rule="evenodd" fill-opacity="1" /><path clip-path="url(#clip630)" d="M 0 0 M52.3562 1134.58 L52.3562 1128.72 L80.1743 1121.4 L52.3562 1114.11 L52.3562 1107.21 L80.1743 1099.89 L52.3562 1092.6 L52.3562 1086.74 L88.0042 1096.07 L88.0042 1102.97 L58.7856 1110.65 L88.0042 1118.35 L88.0042 1125.25 L52.3562 1134.58 Z" fill="#000000" fill-rule="evenodd" fill-opacity="1" /><path clip-path="url(#clip630)" d="M 0 0 M67.5384 1083.56 L67.5384 1066.4 L72.7583 1066.4 L72.7583 1083.56 L67.5384 1083.56 Z" fill="#000000" fill-rule="evenodd" fill-opacity="1" /><path clip-path="url(#clip630)" d="M 0 0 M57.8307 1039.6 Q57.2578 1040.59 57.0032 1041.77 Q56.7167 1042.91 56.7167 1044.31 Q56.7167 1049.28 59.9632 1051.95 Q63.1779 1054.6 69.2253 1054.6 L88.0042 1054.6 L88.0042 1060.48 L52.3562 1060.48 L52.3562 1054.6 L57.8944 1054.6 Q54.6479 1052.75 53.0883 1049.79 Q51.4968 1046.83 51.4968 1042.6 Q51.4968 1041.99 51.5923 1041.26 Q51.656 1040.53 51.8151 1039.64 L57.8307 1039.6 Z" fill="#000000" fill-rule="evenodd" fill-opacity="1" /><path clip-path="url(#clip630)" d="M 0 0 M70.0847 1017.26 Q70.0847 1024.36 71.7079 1027.1 Q73.3312 1029.83 77.2461 1029.83 Q80.3653 1029.83 82.2114 1027.8 Q84.0256 1025.73 84.0256 1022.19 Q84.0256 1017.32 80.5881 1014.4 Q77.1188 1011.44 71.3897 1011.44 L70.0847 1011.44 L70.0847 1017.26 M67.6657 1005.58 L88.0042 1005.58 L88.0042 1011.44 L82.5933 1011.44 Q85.8398 1013.44 87.3994 1016.43 Q88.9272 1019.42 88.9272 1023.75 Q88.9272 1029.23 85.8716 1032.47 Q82.7843 1035.69 77.6281 1035.69 Q71.6125 1035.69 68.5569 1031.68 Q65.5014 1027.64 65.5014 1019.65 L65.5014 1011.44 L64.9285 1011.44 Q60.8862 1011.44 58.6901 1014.11 Q56.4621 1016.75 56.4621 1021.56 Q56.4621 1024.61 57.1941 1027.51 Q57.9262 1030.41 59.3903 1033.08 L53.9795 1033.08 Q52.7381 1029.86 52.1334 1026.84 Q51.4968 1023.82 51.4968 1020.95 Q51.4968 1013.22 55.5072 1009.4 Q59.5176 1005.58 67.6657 1005.58 Z" fill="#000000" fill-rule="evenodd" fill-opacity="1" /><path clip-path="url(#clip630)" d="M 0 0 M52.3562 999.437 L52.3562 993.58 L88.0042 993.58 L88.0042 999.437 L52.3562 999.437 M38.479 999.437 L38.479 993.58 L45.895 993.58 L45.895 999.437 L38.479 999.437 Z" fill="#000000" fill-rule="evenodd" fill-opacity="1" /><path clip-path="url(#clip630)" d="M 0 0 M66.4881 957.805 L88.0042 957.805 L88.0042 963.661 L66.679 963.661 Q61.6183 963.661 59.1038 965.635 Q56.5894 967.608 56.5894 971.555 Q56.5894 976.297 59.6131 979.034 Q62.6368 981.772 67.8567 981.772 L88.0042 981.772 L88.0042 987.66 L52.3562 987.66 L52.3562 981.772 L57.8944 981.772 Q54.6797 979.671 53.0883 976.838 Q51.4968 973.974 51.4968 970.25 Q51.4968 964.107 55.3163 960.956 Q59.1038 957.805 66.4881 957.805 Z" fill="#000000" fill-rule="evenodd" fill-opacity="1" /><path clip-path="url(#clip630)" d="M 0 0 M70.0847 914.741 Q70.0847 921.839 71.7079 924.576 Q73.3312 927.313 77.2461 927.313 Q80.3653 927.313 82.2114 925.276 Q84.0256 923.207 84.0256 919.674 Q84.0256 914.804 80.5881 911.876 Q77.1188 908.916 71.3897 908.916 L70.0847 908.916 L70.0847 914.741 M67.6657 903.06 L88.0042 903.06 L88.0042 908.916 L82.5933 908.916 Q85.8398 910.921 87.3994 913.913 Q88.9272 916.905 88.9272 921.234 Q88.9272 926.708 85.8716 929.955 Q82.7843 933.17 77.6281 933.17 Q71.6125 933.17 68.5569 929.159 Q65.5014 925.117 65.5014 917.128 L65.5014 908.916 L64.9285 908.916 Q60.8862 908.916 58.6901 911.59 Q56.4621 914.232 56.4621 919.038 Q56.4621 922.093 57.1941 924.99 Q57.9262 927.886 59.3903 930.56 L53.9795 930.56 Q52.7381 927.345 52.1334 924.321 Q51.4968 921.297 51.4968 918.433 Q51.4968 910.699 55.5072 906.879 Q59.5176 903.06 67.6657 903.06 Z" fill="#000000" fill-rule="evenodd" fill-opacity="1" /><path clip-path="url(#clip630)" d="M 0 0 M53.7248 871.263 L59.1993 871.263 Q57.8307 873.746 57.1623 876.26 Q56.4621 878.743 56.4621 881.289 Q56.4621 886.986 60.0905 890.137 Q63.6872 893.288 70.212 893.288 Q76.7369 893.288 80.3653 890.137 Q83.9619 886.986 83.9619 881.289 Q83.9619 878.743 83.2935 876.26 Q82.5933 873.746 81.2247 871.263 L86.6355 871.263 Q87.7814 873.714 88.3543 876.356 Q88.9272 878.966 88.9272 881.926 Q88.9272 889.978 83.8664 894.721 Q78.8057 899.463 70.212 899.463 Q61.491 899.463 56.4939 894.689 Q51.4968 889.883 51.4968 881.544 Q51.4968 878.838 52.0697 876.26 Q52.6108 873.682 53.7248 871.263 Z" fill="#000000" fill-rule="evenodd" fill-opacity="1" /><path clip-path="url(#clip630)" d="M 0 0 M53.7248 839.466 L59.1993 839.466 Q57.8307 841.949 57.1623 844.463 Q56.4621 846.946 56.4621 849.492 Q56.4621 855.19 60.0905 858.341 Q63.6872 861.492 70.212 861.492 Q76.7369 861.492 80.3653 858.341 Q83.9619 855.19 83.9619 849.492 Q83.9619 846.946 83.2935 844.463 Q82.5933 841.949 81.2247 839.466 L86.6355 839.466 Q87.7814 841.917 88.3543 844.559 Q88.9272 847.169 88.9272 850.129 Q88.9272 858.182 83.8664 862.924 Q78.8057 867.666 70.212 867.666 Q61.491 867.666 56.4939 862.892 Q51.4968 858.086 51.4968 849.747 Q51.4968 847.042 52.0697 844.463 Q52.6108 841.885 53.7248 839.466 Z" fill="#000000" fill-rule="evenodd" fill-opacity="1" /><path clip-path="url(#clip630)" d="M 0 0 M57.8307 812.667 Q57.2578 813.653 57.0032 814.831 Q56.7167 815.977 56.7167 817.377 Q56.7167 822.343 59.9632 825.016 Q63.1779 827.658 69.2253 827.658 L88.0042 827.658 L88.0042 833.546 L52.3562 833.546 L52.3562 827.658 L57.8944 827.658 Q54.6479 825.812 53.0883 822.852 Q51.4968 819.892 51.4968 815.659 Q51.4968 815.054 51.5923 814.322 Q51.656 813.59 51.8151 812.699 L57.8307 812.667 Z" fill="#000000" fill-rule="evenodd" fill-opacity="1" /><path clip-path="url(#clip630)" d="M 0 0 M68.7161 777.464 L71.5806 777.464 L71.5806 804.391 Q77.6281 804.009 80.8109 800.763 Q83.9619 797.484 83.9619 791.66 Q83.9619 788.286 83.1344 785.135 Q82.3069 781.952 80.6518 778.833 L86.1899 778.833 Q87.5267 781.984 88.227 785.294 Q88.9272 788.604 88.9272 792.01 Q88.9272 800.54 83.9619 805.537 Q78.9967 810.502 70.5303 810.502 Q61.7774 810.502 56.6531 805.792 Q51.4968 801.049 51.4968 793.028 Q51.4968 785.835 56.1438 781.666 Q60.7589 777.464 68.7161 777.464 M66.9973 783.321 Q62.1912 783.384 59.3266 786.026 Q56.4621 788.636 56.4621 792.965 Q56.4621 797.866 59.2312 800.826 Q62.0002 803.755 67.0292 804.2 L66.9973 783.321 Z" fill="#000000" fill-rule="evenodd" fill-opacity="1" /><path clip-path="url(#clip630)" d="M 0 0 M42.2347 765.529 L52.3562 765.529 L52.3562 753.466 L56.9077 753.466 L56.9077 765.529 L76.2594 765.529 Q80.6199 765.529 81.8613 764.351 Q83.1026 763.142 83.1026 759.481 L83.1026 753.466 L88.0042 753.466 L88.0042 759.481 Q88.0042 766.261 85.4897 768.839 Q82.9434 771.417 76.2594 771.417 L56.9077 771.417 L56.9077 775.714 L52.3562 775.714 L52.3562 771.417 L42.2347 771.417 L42.2347 765.529 Z" fill="#000000" fill-rule="evenodd" fill-opacity="1" /><path clip-path="url(#clip630)" d="M 0 0 M52.3562 747.323 L52.3562 741.466 L88.0042 741.466 L88.0042 747.323 L52.3562 747.323 M38.479 747.323 L38.479 741.466 L45.895 741.466 L45.895 747.323 L38.479 747.323 Z" fill="#000000" fill-rule="evenodd" fill-opacity="1" /><path clip-path="url(#clip630)" d="M 0 0 M56.4621 721.51 Q56.4621 726.22 60.1542 728.958 Q63.8145 731.695 70.212 731.695 Q76.6095 731.695 80.3017 728.989 Q83.9619 726.252 83.9619 721.51 Q83.9619 716.831 80.2698 714.094 Q76.5777 711.356 70.212 711.356 Q63.8781 711.356 60.186 714.094 Q56.4621 716.831 56.4621 721.51 M51.4968 721.51 Q51.4968 713.871 56.4621 709.51 Q61.4273 705.15 70.212 705.15 Q78.9649 705.15 83.9619 709.51 Q88.9272 713.871 88.9272 721.51 Q88.9272 729.18 83.9619 733.541 Q78.9649 737.87 70.212 737.87 Q61.4273 737.87 56.4621 733.541 Q51.4968 729.18 51.4968 721.51 Z" fill="#000000" fill-rule="evenodd" fill-opacity="1" /><path clip-path="url(#clip630)" d="M 0 0 M66.4881 669.375 L88.0042 669.375 L88.0042 675.231 L66.679 675.231 Q61.6183 675.231 59.1038 677.204 Q56.5894 679.178 56.5894 683.125 Q56.5894 687.867 59.6131 690.604 Q62.6368 693.342 67.8567 693.342 L88.0042 693.342 L88.0042 699.23 L52.3562 699.23 L52.3562 693.342 L57.8944 693.342 Q54.6797 691.241 53.0883 688.408 Q51.4968 685.544 51.4968 681.82 Q51.4968 675.677 55.3163 672.526 Q59.1038 669.375 66.4881 669.375 Z" fill="#000000" fill-rule="evenodd" fill-opacity="1" /><path clip-path="url(#clip630)" d="M 0 0 M57.8307 621.855 Q57.2578 622.841 57.0032 624.019 Q56.7167 625.165 56.7167 626.565 Q56.7167 631.531 59.9632 634.204 Q63.1779 636.846 69.2253 636.846 L88.0042 636.846 L88.0042 642.734 L52.3562 642.734 L52.3562 636.846 L57.8944 636.846 Q54.6479 635 53.0883 632.04 Q51.4968 629.08 51.4968 624.847 Q51.4968 624.242 51.5923 623.51 Q51.656 622.778 51.8151 621.886 L57.8307 621.855 Z" fill="#000000" fill-rule="evenodd" fill-opacity="1" /><path clip-path="url(#clip630)" d="M 0 0 M70.0847 599.511 Q70.0847 606.609 71.7079 609.346 Q73.3312 612.083 77.2461 612.083 Q80.3653 612.083 82.2114 610.046 Q84.0256 607.977 84.0256 604.444 Q84.0256 599.575 80.5881 596.646 Q77.1188 593.686 71.3897 593.686 L70.0847 593.686 L70.0847 599.511 M67.6657 587.83 L88.0042 587.83 L88.0042 593.686 L82.5933 593.686 Q85.8398 595.692 87.3994 598.683 Q88.9272 601.675 88.9272 606.004 Q88.9272 611.479 85.8716 614.725 Q82.7843 617.94 77.6281 617.94 Q71.6125 617.94 68.5569 613.929 Q65.5014 609.887 65.5014 601.898 L65.5014 593.686 L64.9285 593.686 Q60.8862 593.686 58.6901 596.36 Q56.4621 599.002 56.4621 603.808 Q56.4621 606.863 57.1941 609.76 Q57.9262 612.656 59.3903 615.33 L53.9795 615.33 Q52.7381 612.115 52.1334 609.091 Q51.4968 606.068 51.4968 603.203 Q51.4968 595.469 55.5072 591.649 Q59.5176 587.83 67.6657 587.83 Z" fill="#000000" fill-rule="evenodd" fill-opacity="1" /><path clip-path="url(#clip630)" d="M 0 0 M42.2347 575.894 L52.3562 575.894 L52.3562 563.831 L56.9077 563.831 L56.9077 575.894 L76.2594 575.894 Q80.6199 575.894 81.8613 574.717 Q83.1026 573.507 83.1026 569.847 L83.1026 563.831 L88.0042 563.831 L88.0042 569.847 Q88.0042 576.626 85.4897 579.204 Q82.9434 581.783 76.2594 581.783 L56.9077 581.783 L56.9077 586.079 L52.3562 586.079 L52.3562 581.783 L42.2347 581.783 L42.2347 575.894 Z" fill="#000000" fill-rule="evenodd" fill-opacity="1" /><path clip-path="url(#clip630)" d="M 0 0 M68.7161 527.197 L71.5806 527.197 L71.5806 554.124 Q77.6281 553.742 80.8109 550.495 Q83.9619 547.217 83.9619 541.392 Q83.9619 538.018 83.1344 534.867 Q82.3069 531.684 80.6518 528.565 L86.1899 528.565 Q87.5267 531.716 88.227 535.026 Q88.9272 538.337 88.9272 541.742 Q88.9272 550.272 83.9619 555.269 Q78.9967 560.235 70.5303 560.235 Q61.7774 560.235 56.6531 555.524 Q51.4968 550.782 51.4968 542.761 Q51.4968 535.567 56.1438 531.398 Q60.7589 527.197 68.7161 527.197 M66.9973 533.053 Q62.1912 533.117 59.3266 535.758 Q56.4621 538.368 56.4621 542.697 Q56.4621 547.599 59.2312 550.559 Q62.0002 553.487 67.0292 553.933 L66.9973 533.053 Z" fill="#000000" fill-rule="evenodd" fill-opacity="1" /><path clip-path="url(#clip630)" d="M 0 0 M38.479 500.874 L38.479 487.379 L43.0304 487.379 L43.0304 495.018 L92.0464 495.018 L92.0464 487.379 L96.5979 487.379 L96.5979 500.874 L38.479 500.874 Z" fill="#000000" fill-rule="evenodd" fill-opacity="1" /><path clip-path="url(#clip630)" d="M 0 0 M82.5933 479.295 L82.5933 468.791 L46.3406 468.791 L48.6323 480.218 L42.7758 480.218 L40.4842 468.855 L40.4842 462.426 L82.5933 462.426 L82.5933 451.922 L88.0042 451.922 L88.0042 479.295 L82.5933 479.295 Z" fill="#000000" fill-rule="evenodd" fill-opacity="1" /><path clip-path="url(#clip630)" d="M 0 0 M40.4842 435.371 L40.4842 429.96 L94.0516 446.511 L94.0516 451.922 L40.4842 435.371 Z" fill="#000000" fill-rule="evenodd" fill-opacity="1" /><path clip-path="url(#clip630)" d="M 0 0 M53.4065 401.092 L58.9447 401.092 Q57.6716 403.575 57.035 406.248 Q56.3984 408.922 56.3984 411.786 Q56.3984 416.147 57.7352 418.343 Q59.072 420.507 61.7456 420.507 Q63.7826 420.507 64.9603 418.948 Q66.1061 417.388 67.1565 412.678 L67.6021 410.672 Q68.9389 404.434 71.3897 401.824 Q73.8086 399.182 78.1691 399.182 Q83.1344 399.182 86.0308 403.129 Q88.9272 407.044 88.9272 413.919 Q88.9272 416.783 88.3543 419.903 Q87.8132 422.99 86.6992 426.427 L80.6518 426.427 Q82.3387 423.181 83.198 420.03 Q84.0256 416.879 84.0256 413.792 Q84.0256 409.654 82.6251 407.426 Q81.1929 405.198 78.6147 405.198 Q76.2276 405.198 74.9545 406.821 Q73.6813 408.413 72.5037 413.855 L72.0262 415.892 Q70.8804 421.335 68.5251 423.754 Q66.138 426.173 62.0002 426.173 Q56.9713 426.173 54.2341 422.608 Q51.4968 419.043 51.4968 412.487 Q51.4968 409.24 51.9743 406.375 Q52.4517 403.511 53.4065 401.092 Z" fill="#000000" fill-rule="evenodd" fill-opacity="1" /><path clip-path="url(#clip630)" d="M 0 0 M38.479 379.353 L96.5979 379.353 L96.5979 392.848 L92.0464 392.848 L92.0464 385.241 L43.0304 385.241 L43.0304 392.848 L38.479 392.848 L38.479 379.353 Z" fill="#000000" fill-rule="evenodd" fill-opacity="1" /><path clip-path="url(#clip630)" d="M 0 0 M40.4842 358.824 L40.4842 318.624 L45.895 318.624 L45.895 335.493 L88.0042 335.493 L88.0042 341.955 L45.895 341.955 L45.895 358.824 L40.4842 358.824 Z" fill="#000000" fill-rule="evenodd" fill-opacity="1" /><path clip-path="url(#clip630)" d="M 0 0 M55.921 311.717 L50.1282 311.717 L64.9285 270.913 L70.212 270.913 L85.0123 311.717 L79.2195 311.717 L67.6021 278.934 L55.921 311.717 Z" fill="#000000" fill-rule="evenodd" fill-opacity="1" /><path clip-path="url(#clip630)" d="M 0 0 M44.7174 250.193 Q44.7174 255.158 49.6189 257.673 Q54.4887 260.155 64.2919 260.155 Q74.0633 260.155 78.9649 257.673 Q83.8346 255.158 83.8346 250.193 Q83.8346 245.196 78.9649 242.713 Q74.0633 240.199 64.2919 240.199 Q54.4887 240.199 49.6189 242.713 Q44.7174 245.196 44.7174 250.193 M39.6248 250.193 Q39.6248 242.204 45.9587 238.003 Q52.2607 233.769 64.2919 233.769 Q76.2913 233.769 82.6251 238.003 Q88.9272 242.204 88.9272 250.193 Q88.9272 258.182 82.6251 262.415 Q76.2913 266.616 64.2919 266.616 Q52.2607 266.616 45.9587 262.415 Q39.6248 258.182 39.6248 250.193 Z" fill="#000000" fill-rule="evenodd" fill-opacity="1" /><polyline clip-path="url(#clip632)" style="stroke:#009af9; stroke-width:12; stroke-opacity:1; fill:none" points="
  392.066,1384.24 411.294,1383.7 430.522,1383.48 449.75,1383.31 468.978,1383.17 488.206,1383.04 507.434,1382.92 526.662,1382.81 545.891,1382.71 565.119,1382.62 
  584.347,1382.52 603.575,1382.44 622.803,1382.35 642.031,1382.27 661.259,1382.19 680.487,1382.11 699.715,1382.04 718.944,1381.97 738.172,1381.9 757.4,1381.83 
  776.628,1381.76 795.856,1381.69 815.084,1381.63 834.312,1381.56 853.54,1381.5 872.768,1381.44 891.997,1381.38 911.225,1381.32 930.453,1381.26 949.681,1381.2 
  968.909,1381.14 988.137,1381.09 1007.37,1381.03 1026.59,1380.98 1045.82,1380.92 1065.05,1380.87 1084.28,1380.81 1103.51,1380.76 1122.73,1380.71 1141.96,1380.66 
  1161.19,1380.6 1180.42,1380.55 1199.65,1380.5 1218.87,1380.45 1238.1,1380.4 1257.33,1380.36 1276.56,1380.31 1295.79,1380.26 1315.01,1380.21 1334.24,1380.16 
  1353.47,1380.12 1372.7,1380.07 1391.93,1380.02 1411.16,1379.98 1430.38,1379.93 1449.61,1379.89 1468.84,1379.84 1488.07,1379.8 1507.3,1379.75 1526.52,1379.71 
  1545.75,1379.66 1564.98,1379.62 1584.21,1379.58 1603.44,1379.53 1622.66,1379.49 1641.89,1379.45 1661.12,1379.4 1680.35,1379.36 1699.58,1379.32 1718.81,1379.28 
  1738.03,1379.24 1757.26,1379.2 1776.49,1379.15 1795.72,1379.11 1814.95,1379.07 1834.17,1379.03 1853.4,1378.99 1872.63,1378.95 1891.86,1378.91 1911.09,1378.87 
  1930.31,1378.83 1949.54,1378.79 1968.77,1378.75 1988,1378.71 2007.23,1378.68 2026.45,1378.64 2045.68,1378.6 2064.91,1378.56 2084.14,1378.52 2103.37,1378.48 
  2122.6,1378.44 2141.82,1378.41 2161.05,1378.37 2180.28,1378.33 2199.51,1378.29 2218.74,1378.26 2237.96,1378.22 2257.19,1378.18 2276.42,1378.15 2295.65,1378.11 
  
  "/>
<polyline clip-path="url(#clip632)" style="stroke:#e26f46; stroke-width:12; stroke-opacity:1; fill:none" points="
  392.066,1384.08 411.294,1375.35 430.522,1371.98 449.75,1369.4 468.978,1367.23 488.206,1365.32 507.434,1363.58 526.662,1361.98 545.891,1360.48 565.119,1359.07 
  584.347,1357.73 603.575,1356.45 622.803,1355.23 642.031,1354.05 661.259,1352.91 680.487,1351.81 699.715,1350.74 718.944,1349.7 738.172,1348.69 757.4,1347.7 
  776.628,1346.74 795.856,1345.8 815.084,1344.88 834.312,1343.97 853.54,1343.09 872.768,1342.22 891.997,1341.36 911.225,1340.52 930.453,1339.69 949.681,1338.88 
  968.909,1338.07 988.137,1337.28 1007.37,1336.5 1026.59,1335.73 1045.82,1334.97 1065.05,1334.22 1084.28,1333.48 1103.51,1332.75 1122.73,1332.02 1141.96,1331.3 
  1161.19,1330.6 1180.42,1329.89 1199.65,1329.2 1218.87,1328.51 1238.1,1327.83 1257.33,1327.16 1276.56,1326.49 1295.79,1325.83 1315.01,1325.17 1334.24,1324.52 
  1353.47,1323.88 1372.7,1323.24 1391.93,1322.61 1411.16,1321.98 1430.38,1321.35 1449.61,1320.73 1468.84,1320.12 1488.07,1319.51 1507.3,1318.9 1526.52,1318.3 
  1545.75,1317.7 1564.98,1317.11 1584.21,1316.52 1603.44,1315.93 1622.66,1315.35 1641.89,1314.77 1661.12,1314.2 1680.35,1313.63 1699.58,1313.06 1718.81,1312.5 
  1738.03,1311.94 1757.26,1311.38 1776.49,1310.82 1795.72,1310.27 1814.95,1309.72 1834.17,1309.18 1853.4,1308.64 1872.63,1308.1 1891.86,1307.56 1911.09,1307.03 
  1930.31,1306.49 1949.54,1305.97 1968.77,1305.44 1988,1304.92 2007.23,1304.39 2026.45,1303.88 2045.68,1303.36 2064.91,1302.85 2084.14,1302.33 2103.37,1301.82 
  2122.6,1301.32 2141.82,1300.81 2161.05,1300.31 2180.28,1299.81 2199.51,1299.31 2218.74,1298.82 2237.96,1298.32 2257.19,1297.83 2276.42,1297.34 2295.65,1296.85 
  
  "/>
<polyline clip-path="url(#clip632)" style="stroke:#3da44d; stroke-width:12; stroke-opacity:1; fill:none" points="
  392.066,1381.59 411.294,1238.06 430.522,1184.48 449.75,1144.02 468.978,1110.18 488.206,1080.5 507.434,1053.73 526.662,1029.15 545.891,1006.29 565.119,984.83 
  584.347,964.529 603.575,945.216 622.803,926.754 642.031,909.036 661.259,891.975 680.487,875.501 699.715,859.554 718.944,844.085 738.172,829.05 757.4,814.413 
  776.628,800.142 795.856,786.21 815.084,772.592 834.312,759.266 853.54,746.213 872.768,733.416 891.997,720.86 911.225,708.53 930.453,696.413 949.681,684.498 
  968.909,672.775 988.137,661.233 1007.37,649.865 1026.59,638.661 1045.82,627.614 1065.05,616.717 1084.28,605.963 1103.51,595.348 1122.73,584.864 1141.96,574.507 
  1161.19,564.271 1180.42,554.153 1199.65,544.147 1218.87,534.25 1238.1,524.458 1257.33,514.767 1276.56,505.174 1295.79,495.676 1315.01,486.269 1334.24,476.951 
  1353.47,467.718 1372.7,458.57 1391.93,449.502 1411.16,440.512 1430.38,431.599 1449.61,422.76 1468.84,413.993 1488.07,405.297 1507.3,396.668 1526.52,388.106 
  1545.75,379.609 1564.98,371.175 1584.21,362.803 1603.44,354.491 1622.66,346.237 1641.89,338.041 1661.12,329.9 1680.35,321.815 1699.58,313.783 1718.81,305.803 
  1738.03,297.874 1757.26,289.995 1776.49,282.165 1795.72,274.383 1814.95,266.648 1834.17,258.959 1853.4,251.314 1872.63,243.715 1891.86,236.158 1911.09,228.644 
  1930.31,221.171 1949.54,213.739 1968.77,206.348 1988,198.995 2007.23,191.682 2026.45,184.406 2045.68,177.167 2064.91,169.966 2084.14,162.8 2103.37,155.669 
  2122.6,148.574 2141.82,141.512 2161.05,134.484 2180.28,127.489 2199.51,120.527 2218.74,113.597 2237.96,106.698 2257.19,99.8301 2276.42,92.9929 2295.65,86.1857 
  
  "/>
<path clip-path="url(#clip630)" d="
M1772.94 335.029 L2285.5 335.029 L2285.5 93.1086 L1772.94 93.1086  Z
  " fill="#ffffff" fill-rule="evenodd" fill-opacity="1"/>
<polyline clip-path="url(#clip630)" style="stroke:#000000; stroke-width:4; stroke-opacity:1; fill:none" points="
  1772.94,335.029 2285.5,335.029 2285.5,93.1086 1772.94,93.1086 1772.94,335.029 
  "/>
<polyline clip-path="url(#clip630)" style="stroke:#009af9; stroke-width:4; stroke-opacity:1; fill:none" points="
  1795.36,153.589 1929.88,153.589 
  "/>
<path clip-path="url(#clip630)" d="M 0 0 M1956.7 157.929 Q1956.7 162.628 1958.62 165.313 Q1960.56 167.975 1963.94 167.975 Q1967.32 167.975 1969.27 165.313 Q1971.21 162.628 1971.21 157.929 Q1971.21 153.23 1969.27 150.568 Q1967.32 147.883 1963.94 147.883 Q1960.56 147.883 1958.62 150.568 Q1956.7 153.23 1956.7 157.929 M1971.21 166.98 Q1969.87 169.295 1967.81 170.429 Q1965.77 171.54 1962.9 171.54 Q1958.2 171.54 1955.24 167.79 Q1952.3 164.04 1952.3 157.929 Q1952.3 151.818 1955.24 148.068 Q1958.2 144.318 1962.9 144.318 Q1965.77 144.318 1967.81 145.452 Q1969.87 146.563 1971.21 148.878 L1971.21 144.943 L1975.47 144.943 L1975.47 180.73 L1971.21 180.73 L1971.21 166.98 Z" fill="#000000" fill-rule="evenodd" fill-opacity="1" /><path clip-path="url(#clip630)" d="M 0 0 M1999.64 178.739 L1999.64 182.049 L1975.01 182.049 L1975.01 178.739 L1999.64 178.739 Z" fill="#000000" fill-rule="evenodd" fill-opacity="1" /><path clip-path="url(#clip630)" d="M 0 0 M2020.63 145.707 L2020.63 149.734 Q2018.83 148.809 2016.88 148.346 Q2014.94 147.883 2012.86 147.883 Q2009.69 147.883 2008.09 148.855 Q2006.51 149.827 2006.51 151.771 Q2006.51 153.253 2007.65 154.109 Q2008.78 154.943 2012.21 155.707 L2013.67 156.031 Q2018.2 157.003 2020.1 158.785 Q2022.02 160.545 2022.02 163.716 Q2022.02 167.327 2019.15 169.433 Q2016.31 171.54 2011.31 171.54 Q2009.22 171.54 2006.95 171.123 Q2004.71 170.73 2002.21 169.92 L2002.21 165.521 Q2004.57 166.748 2006.86 167.373 Q2009.15 167.975 2011.4 167.975 Q2014.41 167.975 2016.03 166.957 Q2017.65 165.915 2017.65 164.04 Q2017.65 162.304 2016.47 161.378 Q2015.31 160.452 2011.35 159.596 L2009.87 159.248 Q2005.91 158.415 2004.15 156.702 Q2002.39 154.966 2002.39 151.957 Q2002.39 148.299 2004.99 146.309 Q2007.58 144.318 2012.35 144.318 Q2014.71 144.318 2016.79 144.665 Q2018.87 145.012 2020.63 145.707 Z" fill="#000000" fill-rule="evenodd" fill-opacity="1" /><path clip-path="url(#clip630)" d="M 0 0 M2048.04 155.221 L2048.04 170.869 L2043.78 170.869 L2043.78 155.359 Q2043.78 151.679 2042.35 149.85 Q2040.91 148.022 2038.04 148.022 Q2034.59 148.022 2032.6 150.221 Q2030.61 152.42 2030.61 156.216 L2030.61 170.869 L2026.33 170.869 L2026.33 144.943 L2030.61 144.943 L2030.61 148.971 Q2032.14 146.633 2034.2 145.475 Q2036.28 144.318 2038.99 144.318 Q2043.46 144.318 2045.75 147.096 Q2048.04 149.85 2048.04 155.221 Z" fill="#000000" fill-rule="evenodd" fill-opacity="1" /><path clip-path="url(#clip630)" d="M 0 0 M2062.56 147.929 Q2059.13 147.929 2057.14 150.614 Q2055.15 153.276 2055.15 157.929 Q2055.15 162.582 2057.12 165.267 Q2059.11 167.929 2062.56 167.929 Q2065.96 167.929 2067.95 165.244 Q2069.94 162.558 2069.94 157.929 Q2069.94 153.322 2067.95 150.637 Q2065.96 147.929 2062.56 147.929 M2062.56 144.318 Q2068.11 144.318 2071.28 147.929 Q2074.45 151.54 2074.45 157.929 Q2074.45 164.295 2071.28 167.929 Q2068.11 171.54 2062.56 171.54 Q2056.98 171.54 2053.81 167.929 Q2050.66 164.295 2050.66 157.929 Q2050.66 151.54 2053.81 147.929 Q2056.98 144.318 2062.56 144.318 Z" fill="#000000" fill-rule="evenodd" fill-opacity="1" /><path clip-path="url(#clip630)" d="M 0 0 M2076.44 144.943 L2080.7 144.943 L2086.03 165.174 L2091.33 144.943 L2096.35 144.943 L2101.68 165.174 L2106.98 144.943 L2111.24 144.943 L2104.45 170.869 L2099.43 170.869 L2093.85 149.619 L2088.25 170.869 L2083.23 170.869 L2076.44 144.943 Z" fill="#000000" fill-rule="evenodd" fill-opacity="1" /><path clip-path="url(#clip630)" d="M 0 0 M2116.26 149.341 L2145.93 149.341 L2145.93 153.23 L2116.26 153.23 L2116.26 149.341 M2116.26 158.785 L2145.93 158.785 L2145.93 162.721 L2116.26 162.721 L2116.26 158.785 Z" fill="#000000" fill-rule="evenodd" fill-opacity="1" /><path clip-path="url(#clip630)" d="M 0 0 M2151.81 166.933 L2159.45 166.933 L2159.45 140.568 L2151.14 142.235 L2151.14 137.975 L2159.41 136.309 L2164.08 136.309 L2164.08 166.933 L2171.72 166.933 L2171.72 170.869 L2151.81 170.869 L2151.81 166.933 Z" fill="#000000" fill-rule="evenodd" fill-opacity="1" /><path clip-path="url(#clip630)" d="M 0 0 M2198.36 156.841 L2198.36 158.924 L2178.78 158.924 Q2179.06 163.322 2181.42 165.637 Q2183.8 167.929 2188.04 167.929 Q2190.49 167.929 2192.79 167.327 Q2195.1 166.725 2197.37 165.521 L2197.37 169.549 Q2195.08 170.521 2192.67 171.031 Q2190.26 171.54 2187.79 171.54 Q2181.58 171.54 2177.95 167.929 Q2174.34 164.318 2174.34 158.16 Q2174.34 151.795 2177.76 148.068 Q2181.21 144.318 2187.05 144.318 Q2192.28 144.318 2195.31 147.697 Q2198.36 151.054 2198.36 156.841 M2194.11 155.591 Q2194.06 152.096 2192.14 150.012 Q2190.24 147.929 2187.09 147.929 Q2183.53 147.929 2181.37 149.943 Q2179.24 151.957 2178.92 155.614 L2194.11 155.591 Z" fill="#000000" fill-rule="evenodd" fill-opacity="1" /><path clip-path="url(#clip630)" d="M 0 0 M2200.68 155.984 L2213.16 155.984 L2213.16 159.781 L2200.68 159.781 L2200.68 155.984 Z" fill="#000000" fill-rule="evenodd" fill-opacity="1" /><path clip-path="url(#clip630)" d="M 0 0 M2228.8 151.725 Q2225.66 151.725 2223.8 153.878 Q2221.98 156.031 2221.98 159.781 Q2221.98 163.508 2223.8 165.683 Q2225.66 167.836 2228.8 167.836 Q2231.95 167.836 2233.78 165.683 Q2235.63 163.508 2235.63 159.781 Q2235.63 156.031 2233.78 153.878 Q2231.95 151.725 2228.8 151.725 M2238.09 137.073 L2238.09 141.332 Q2236.33 140.498 2234.52 140.059 Q2232.74 139.619 2230.98 139.619 Q2226.35 139.619 2223.9 142.744 Q2221.47 145.869 2221.12 152.188 Q2222.48 150.174 2224.55 149.109 Q2226.61 148.022 2229.08 148.022 Q2234.29 148.022 2237.3 151.193 Q2240.33 154.341 2240.33 159.781 Q2240.33 165.105 2237.18 168.322 Q2234.04 171.54 2228.8 171.54 Q2222.81 171.54 2219.64 166.957 Q2216.47 162.35 2216.47 153.623 Q2216.47 145.429 2220.36 140.568 Q2224.24 135.684 2230.79 135.684 Q2232.55 135.684 2234.34 136.031 Q2236.14 136.378 2238.09 137.073 Z" fill="#000000" fill-rule="evenodd" fill-opacity="1" /><polyline clip-path="url(#clip630)" style="stroke:#e26f46; stroke-width:4; stroke-opacity:1; fill:none" points="
  1795.36,214.069 1929.88,214.069 
  "/>
<path clip-path="url(#clip630)" d="M 0 0 M1956.7 218.409 Q1956.7 223.108 1958.62 225.793 Q1960.56 228.455 1963.94 228.455 Q1967.32 228.455 1969.27 225.793 Q1971.21 223.108 1971.21 218.409 Q1971.21 213.71 1969.27 211.048 Q1967.32 208.363 1963.94 208.363 Q1960.56 208.363 1958.62 211.048 Q1956.7 213.71 1956.7 218.409 M1971.21 227.46 Q1969.87 229.775 1967.81 230.909 Q1965.77 232.02 1962.9 232.02 Q1958.2 232.02 1955.24 228.27 Q1952.3 224.52 1952.3 218.409 Q1952.3 212.298 1955.24 208.548 Q1958.2 204.798 1962.9 204.798 Q1965.77 204.798 1967.81 205.932 Q1969.87 207.043 1971.21 209.358 L1971.21 205.423 L1975.47 205.423 L1975.47 241.21 L1971.21 241.21 L1971.21 227.46 Z" fill="#000000" fill-rule="evenodd" fill-opacity="1" /><path clip-path="url(#clip630)" d="M 0 0 M1999.64 239.219 L1999.64 242.529 L1975.01 242.529 L1975.01 239.219 L1999.64 239.219 Z" fill="#000000" fill-rule="evenodd" fill-opacity="1" /><path clip-path="url(#clip630)" d="M 0 0 M2020.63 206.187 L2020.63 210.214 Q2018.83 209.289 2016.88 208.826 Q2014.94 208.363 2012.86 208.363 Q2009.69 208.363 2008.09 209.335 Q2006.51 210.307 2006.51 212.251 Q2006.51 213.733 2007.65 214.589 Q2008.78 215.423 2012.21 216.187 L2013.67 216.511 Q2018.2 217.483 2020.1 219.265 Q2022.02 221.025 2022.02 224.196 Q2022.02 227.807 2019.15 229.913 Q2016.31 232.02 2011.31 232.02 Q2009.22 232.02 2006.95 231.603 Q2004.71 231.21 2002.21 230.4 L2002.21 226.001 Q2004.57 227.228 2006.86 227.853 Q2009.15 228.455 2011.4 228.455 Q2014.41 228.455 2016.03 227.437 Q2017.65 226.395 2017.65 224.52 Q2017.65 222.784 2016.47 221.858 Q2015.31 220.932 2011.35 220.076 L2009.87 219.728 Q2005.91 218.895 2004.15 217.182 Q2002.39 215.446 2002.39 212.437 Q2002.39 208.779 2004.99 206.789 Q2007.58 204.798 2012.35 204.798 Q2014.71 204.798 2016.79 205.145 Q2018.87 205.492 2020.63 206.187 Z" fill="#000000" fill-rule="evenodd" fill-opacity="1" /><path clip-path="url(#clip630)" d="M 0 0 M2048.04 215.701 L2048.04 231.349 L2043.78 231.349 L2043.78 215.839 Q2043.78 212.159 2042.35 210.33 Q2040.91 208.502 2038.04 208.502 Q2034.59 208.502 2032.6 210.701 Q2030.61 212.9 2030.61 216.696 L2030.61 231.349 L2026.33 231.349 L2026.33 205.423 L2030.61 205.423 L2030.61 209.451 Q2032.14 207.113 2034.2 205.955 Q2036.28 204.798 2038.99 204.798 Q2043.46 204.798 2045.75 207.576 Q2048.04 210.33 2048.04 215.701 Z" fill="#000000" fill-rule="evenodd" fill-opacity="1" /><path clip-path="url(#clip630)" d="M 0 0 M2062.56 208.409 Q2059.13 208.409 2057.14 211.094 Q2055.15 213.756 2055.15 218.409 Q2055.15 223.062 2057.12 225.747 Q2059.11 228.409 2062.56 228.409 Q2065.96 228.409 2067.95 225.724 Q2069.94 223.038 2069.94 218.409 Q2069.94 213.802 2067.95 211.117 Q2065.96 208.409 2062.56 208.409 M2062.56 204.798 Q2068.11 204.798 2071.28 208.409 Q2074.45 212.02 2074.45 218.409 Q2074.45 224.775 2071.28 228.409 Q2068.11 232.02 2062.56 232.02 Q2056.98 232.02 2053.81 228.409 Q2050.66 224.775 2050.66 218.409 Q2050.66 212.02 2053.81 208.409 Q2056.98 204.798 2062.56 204.798 Z" fill="#000000" fill-rule="evenodd" fill-opacity="1" /><path clip-path="url(#clip630)" d="M 0 0 M2076.44 205.423 L2080.7 205.423 L2086.03 225.654 L2091.33 205.423 L2096.35 205.423 L2101.68 225.654 L2106.98 205.423 L2111.24 205.423 L2104.45 231.349 L2099.43 231.349 L2093.85 210.099 L2088.25 231.349 L2083.23 231.349 L2076.44 205.423 Z" fill="#000000" fill-rule="evenodd" fill-opacity="1" /><path clip-path="url(#clip630)" d="M 0 0 M2116.26 209.821 L2145.93 209.821 L2145.93 213.71 L2116.26 213.71 L2116.26 209.821 M2116.26 219.265 L2145.93 219.265 L2145.93 223.201 L2116.26 223.201 L2116.26 219.265 Z" fill="#000000" fill-rule="evenodd" fill-opacity="1" /><path clip-path="url(#clip630)" d="M 0 0 M2151.81 227.413 L2159.45 227.413 L2159.45 201.048 L2151.14 202.715 L2151.14 198.455 L2159.41 196.789 L2164.08 196.789 L2164.08 227.413 L2171.72 227.413 L2171.72 231.349 L2151.81 231.349 L2151.81 227.413 Z" fill="#000000" fill-rule="evenodd" fill-opacity="1" /><path clip-path="url(#clip630)" d="M 0 0 M2198.36 217.321 L2198.36 219.404 L2178.78 219.404 Q2179.06 223.802 2181.42 226.117 Q2183.8 228.409 2188.04 228.409 Q2190.49 228.409 2192.79 227.807 Q2195.1 227.205 2197.37 226.001 L2197.37 230.029 Q2195.08 231.001 2192.67 231.511 Q2190.26 232.02 2187.79 232.02 Q2181.58 232.02 2177.95 228.409 Q2174.34 224.798 2174.34 218.64 Q2174.34 212.275 2177.76 208.548 Q2181.21 204.798 2187.05 204.798 Q2192.28 204.798 2195.31 208.177 Q2198.36 211.534 2198.36 217.321 M2194.11 216.071 Q2194.06 212.576 2192.14 210.492 Q2190.24 208.409 2187.09 208.409 Q2183.53 208.409 2181.37 210.423 Q2179.24 212.437 2178.92 216.094 L2194.11 216.071 Z" fill="#000000" fill-rule="evenodd" fill-opacity="1" /><path clip-path="url(#clip630)" d="M 0 0 M2200.68 216.464 L2213.16 216.464 L2213.16 220.261 L2200.68 220.261 L2200.68 216.464 Z" fill="#000000" fill-rule="evenodd" fill-opacity="1" /><path clip-path="url(#clip630)" d="M 0 0 M2218.27 196.789 L2236.63 196.789 L2236.63 200.724 L2222.55 200.724 L2222.55 209.196 Q2223.57 208.849 2224.59 208.687 Q2225.61 208.502 2226.63 208.502 Q2232.42 208.502 2235.79 211.673 Q2239.17 214.844 2239.17 220.261 Q2239.17 225.839 2235.7 228.941 Q2232.23 232.02 2225.91 232.02 Q2223.73 232.02 2221.47 231.65 Q2219.22 231.279 2216.81 230.538 L2216.81 225.839 Q2218.9 226.974 2221.12 227.529 Q2223.34 228.085 2225.82 228.085 Q2229.82 228.085 2232.16 225.978 Q2234.5 223.872 2234.5 220.261 Q2234.5 216.65 2232.16 214.543 Q2229.82 212.437 2225.82 212.437 Q2223.94 212.437 2222.07 212.853 Q2220.22 213.27 2218.27 214.15 L2218.27 196.789 Z" fill="#000000" fill-rule="evenodd" fill-opacity="1" /><polyline clip-path="url(#clip630)" style="stroke:#3da44d; stroke-width:4; stroke-opacity:1; fill:none" points="
  1795.36,274.549 1929.88,274.549 
  "/>
<path clip-path="url(#clip630)" d="M 0 0 M1956.7 278.889 Q1956.7 283.588 1958.62 286.273 Q1960.56 288.935 1963.94 288.935 Q1967.32 288.935 1969.27 286.273 Q1971.21 283.588 1971.21 278.889 Q1971.21 274.19 1969.27 271.528 Q1967.32 268.843 1963.94 268.843 Q1960.56 268.843 1958.62 271.528 Q1956.7 274.19 1956.7 278.889 M1971.21 287.94 Q1969.87 290.255 1967.81 291.389 Q1965.77 292.5 1962.9 292.5 Q1958.2 292.5 1955.24 288.75 Q1952.3 285 1952.3 278.889 Q1952.3 272.778 1955.24 269.028 Q1958.2 265.278 1962.9 265.278 Q1965.77 265.278 1967.81 266.412 Q1969.87 267.523 1971.21 269.838 L1971.21 265.903 L1975.47 265.903 L1975.47 301.69 L1971.21 301.69 L1971.21 287.94 Z" fill="#000000" fill-rule="evenodd" fill-opacity="1" /><path clip-path="url(#clip630)" d="M 0 0 M1999.64 299.699 L1999.64 303.009 L1975.01 303.009 L1975.01 299.699 L1999.64 299.699 Z" fill="#000000" fill-rule="evenodd" fill-opacity="1" /><path clip-path="url(#clip630)" d="M 0 0 M2020.63 266.667 L2020.63 270.694 Q2018.83 269.769 2016.88 269.306 Q2014.94 268.843 2012.86 268.843 Q2009.69 268.843 2008.09 269.815 Q2006.51 270.787 2006.51 272.731 Q2006.51 274.213 2007.65 275.069 Q2008.78 275.903 2012.21 276.667 L2013.67 276.991 Q2018.2 277.963 2020.1 279.745 Q2022.02 281.505 2022.02 284.676 Q2022.02 288.287 2019.15 290.393 Q2016.31 292.5 2011.31 292.5 Q2009.22 292.5 2006.95 292.083 Q2004.71 291.69 2002.21 290.88 L2002.21 286.481 Q2004.57 287.708 2006.86 288.333 Q2009.15 288.935 2011.4 288.935 Q2014.41 288.935 2016.03 287.917 Q2017.65 286.875 2017.65 285 Q2017.65 283.264 2016.47 282.338 Q2015.31 281.412 2011.35 280.556 L2009.87 280.208 Q2005.91 279.375 2004.15 277.662 Q2002.39 275.926 2002.39 272.917 Q2002.39 269.259 2004.99 267.269 Q2007.58 265.278 2012.35 265.278 Q2014.71 265.278 2016.79 265.625 Q2018.87 265.972 2020.63 266.667 Z" fill="#000000" fill-rule="evenodd" fill-opacity="1" /><path clip-path="url(#clip630)" d="M 0 0 M2048.04 276.181 L2048.04 291.829 L2043.78 291.829 L2043.78 276.319 Q2043.78 272.639 2042.35 270.81 Q2040.91 268.982 2038.04 268.982 Q2034.59 268.982 2032.6 271.181 Q2030.61 273.38 2030.61 277.176 L2030.61 291.829 L2026.33 291.829 L2026.33 265.903 L2030.61 265.903 L2030.61 269.931 Q2032.14 267.593 2034.2 266.435 Q2036.28 265.278 2038.99 265.278 Q2043.46 265.278 2045.75 268.056 Q2048.04 270.81 2048.04 276.181 Z" fill="#000000" fill-rule="evenodd" fill-opacity="1" /><path clip-path="url(#clip630)" d="M 0 0 M2062.56 268.889 Q2059.13 268.889 2057.14 271.574 Q2055.15 274.236 2055.15 278.889 Q2055.15 283.542 2057.12 286.227 Q2059.11 288.889 2062.56 288.889 Q2065.96 288.889 2067.95 286.204 Q2069.94 283.518 2069.94 278.889 Q2069.94 274.282 2067.95 271.597 Q2065.96 268.889 2062.56 268.889 M2062.56 265.278 Q2068.11 265.278 2071.28 268.889 Q2074.45 272.5 2074.45 278.889 Q2074.45 285.255 2071.28 288.889 Q2068.11 292.5 2062.56 292.5 Q2056.98 292.5 2053.81 288.889 Q2050.66 285.255 2050.66 278.889 Q2050.66 272.5 2053.81 268.889 Q2056.98 265.278 2062.56 265.278 Z" fill="#000000" fill-rule="evenodd" fill-opacity="1" /><path clip-path="url(#clip630)" d="M 0 0 M2076.44 265.903 L2080.7 265.903 L2086.03 286.134 L2091.33 265.903 L2096.35 265.903 L2101.68 286.134 L2106.98 265.903 L2111.24 265.903 L2104.45 291.829 L2099.43 291.829 L2093.85 270.579 L2088.25 291.829 L2083.23 291.829 L2076.44 265.903 Z" fill="#000000" fill-rule="evenodd" fill-opacity="1" /><path clip-path="url(#clip630)" d="M 0 0 M2116.26 270.301 L2145.93 270.301 L2145.93 274.19 L2116.26 274.19 L2116.26 270.301 M2116.26 279.745 L2145.93 279.745 L2145.93 283.681 L2116.26 283.681 L2116.26 279.745 Z" fill="#000000" fill-rule="evenodd" fill-opacity="1" /><path clip-path="url(#clip630)" d="M 0 0 M2151.81 287.893 L2159.45 287.893 L2159.45 261.528 L2151.14 263.195 L2151.14 258.935 L2159.41 257.269 L2164.08 257.269 L2164.08 287.893 L2171.72 287.893 L2171.72 291.829 L2151.81 291.829 L2151.81 287.893 Z" fill="#000000" fill-rule="evenodd" fill-opacity="1" /><path clip-path="url(#clip630)" d="M 0 0 M2198.36 277.801 L2198.36 279.884 L2178.78 279.884 Q2179.06 284.282 2181.42 286.597 Q2183.8 288.889 2188.04 288.889 Q2190.49 288.889 2192.79 288.287 Q2195.1 287.685 2197.37 286.481 L2197.37 290.509 Q2195.08 291.481 2192.67 291.991 Q2190.26 292.5 2187.79 292.5 Q2181.58 292.5 2177.95 288.889 Q2174.34 285.278 2174.34 279.12 Q2174.34 272.755 2177.76 269.028 Q2181.21 265.278 2187.05 265.278 Q2192.28 265.278 2195.31 268.657 Q2198.36 272.014 2198.36 277.801 M2194.11 276.551 Q2194.06 273.056 2192.14 270.972 Q2190.24 268.889 2187.09 268.889 Q2183.53 268.889 2181.37 270.903 Q2179.24 272.917 2178.92 276.574 L2194.11 276.551 Z" fill="#000000" fill-rule="evenodd" fill-opacity="1" /><path clip-path="url(#clip630)" d="M 0 0 M2200.68 276.944 L2213.16 276.944 L2213.16 280.741 L2200.68 280.741 L2200.68 276.944 Z" fill="#000000" fill-rule="evenodd" fill-opacity="1" /><path clip-path="url(#clip630)" d="M 0 0 M2231.07 261.343 L2219.27 279.792 L2231.07 279.792 L2231.07 261.343 M2229.85 257.269 L2235.73 257.269 L2235.73 279.792 L2240.66 279.792 L2240.66 283.681 L2235.73 283.681 L2235.73 291.829 L2231.07 291.829 L2231.07 283.681 L2215.47 283.681 L2215.47 279.167 L2229.85 257.269 Z" fill="#000000" fill-rule="evenodd" fill-opacity="1" /></svg>
