<?xml version="1.0" encoding="utf-8"?>
<svg xmlns="http://www.w3.org/2000/svg" xmlns:xlink="http://www.w3.org/1999/xlink" width="600" height="400" viewBox="0 0 2400 1600">
<defs>
  <clipPath id="clip320">
    <rect x="0" y="0" width="2400" height="1600"/>
  </clipPath>
</defs>
<path clip-path="url(#clip320)" d="
M0 1600 L2400 1600 L2400 0 L0 0  Z
  " fill="#ffffff" fill-rule="evenodd" fill-opacity="1"/>
<defs>
  <clipPath id="clip321">
    <rect x="480" y="0" width="1681" height="1600"/>
  </clipPath>
</defs>
<path clip-path="url(#clip320)" d="
M351.092 1423.18 L2352.76 1423.18 L2352.76 47.2441 L351.092 47.2441  Z
  " fill="#ffffff" fill-rule="evenodd" fill-opacity="1"/>
<defs>
  <clipPath id="clip322">
    <rect x="351" y="47" width="2003" height="1377"/>
  </clipPath>
</defs>
<polyline clip-path="url(#clip322)" style="stroke:#000000; stroke-width:2; stroke-opacity:0.1; fill:none" points="
  407.739,1423.18 407.739,47.2441 
  "/>
<polyline clip-path="url(#clip322)" style="stroke:#000000; stroke-width:2; stroke-opacity:0.1; fill:none" points="
  785.413,1423.18 785.413,47.2441 
  "/>
<polyline clip-path="url(#clip322)" style="stroke:#000000; stroke-width:2; stroke-opacity:0.1; fill:none" points="
  1163.09,1423.18 1163.09,47.2441 
  "/>
<polyline clip-path="url(#clip322)" style="stroke:#000000; stroke-width:2; stroke-opacity:0.1; fill:none" points="
  1540.76,1423.18 1540.76,47.2441 
  "/>
<polyline clip-path="url(#clip322)" style="stroke:#000000; stroke-width:2; stroke-opacity:0.1; fill:none" points="
  1918.43,1423.18 1918.43,47.2441 
  "/>
<polyline clip-path="url(#clip322)" style="stroke:#000000; stroke-width:2; stroke-opacity:0.1; fill:none" points="
  2296.11,1423.18 2296.11,47.2441 
  "/>
<polyline clip-path="url(#clip322)" style="stroke:#000000; stroke-width:2; stroke-opacity:0.1; fill:none" points="
  351.092,1310.83 2352.76,1310.83 
  "/>
<polyline clip-path="url(#clip322)" style="stroke:#000000; stroke-width:2; stroke-opacity:0.1; fill:none" points="
  351.092,1004.61 2352.76,1004.61 
  "/>
<polyline clip-path="url(#clip322)" style="stroke:#000000; stroke-width:2; stroke-opacity:0.1; fill:none" points="
  351.092,698.382 2352.76,698.382 
  "/>
<polyline clip-path="url(#clip322)" style="stroke:#000000; stroke-width:2; stroke-opacity:0.1; fill:none" points="
  351.092,392.157 2352.76,392.157 
  "/>
<polyline clip-path="url(#clip322)" style="stroke:#000000; stroke-width:2; stroke-opacity:0.1; fill:none" points="
  351.092,85.9327 2352.76,85.9327 
  "/>
<polyline clip-path="url(#clip320)" style="stroke:#000000; stroke-width:4; stroke-opacity:1; fill:none" points="
  351.092,1423.18 2352.76,1423.18 
  "/>
<polyline clip-path="url(#clip320)" style="stroke:#000000; stroke-width:4; stroke-opacity:1; fill:none" points="
  351.092,1423.18 351.092,47.2441 
  "/>
<polyline clip-path="url(#clip320)" style="stroke:#000000; stroke-width:4; stroke-opacity:1; fill:none" points="
  407.739,1423.18 407.739,1406.67 
  "/>
<polyline clip-path="url(#clip320)" style="stroke:#000000; stroke-width:4; stroke-opacity:1; fill:none" points="
  785.413,1423.18 785.413,1406.67 
  "/>
<polyline clip-path="url(#clip320)" style="stroke:#000000; stroke-width:4; stroke-opacity:1; fill:none" points="
  1163.09,1423.18 1163.09,1406.67 
  "/>
<polyline clip-path="url(#clip320)" style="stroke:#000000; stroke-width:4; stroke-opacity:1; fill:none" points="
  1540.76,1423.18 1540.76,1406.67 
  "/>
<polyline clip-path="url(#clip320)" style="stroke:#000000; stroke-width:4; stroke-opacity:1; fill:none" points="
  1918.43,1423.18 1918.43,1406.67 
  "/>
<polyline clip-path="url(#clip320)" style="stroke:#000000; stroke-width:4; stroke-opacity:1; fill:none" points="
  2296.11,1423.18 2296.11,1406.67 
  "/>
<polyline clip-path="url(#clip320)" style="stroke:#000000; stroke-width:4; stroke-opacity:1; fill:none" points="
  351.092,1310.83 375.112,1310.83 
  "/>
<polyline clip-path="url(#clip320)" style="stroke:#000000; stroke-width:4; stroke-opacity:1; fill:none" points="
  351.092,1004.61 375.112,1004.61 
  "/>
<polyline clip-path="url(#clip320)" style="stroke:#000000; stroke-width:4; stroke-opacity:1; fill:none" points="
  351.092,698.382 375.112,698.382 
  "/>
<polyline clip-path="url(#clip320)" style="stroke:#000000; stroke-width:4; stroke-opacity:1; fill:none" points="
  351.092,392.157 375.112,392.157 
  "/>
<polyline clip-path="url(#clip320)" style="stroke:#000000; stroke-width:4; stroke-opacity:1; fill:none" points="
  351.092,85.9327 375.112,85.9327 
  "/>
<path clip-path="url(#clip320)" d="M 0 0 M407.739 1445.17 Q404.128 1445.17 402.3 1448.74 Q400.494 1452.28 400.494 1459.41 Q400.494 1466.51 402.3 1470.08 Q404.128 1473.62 407.739 1473.62 Q411.374 1473.62 413.179 1470.08 Q415.008 1466.51 415.008 1459.41 Q415.008 1452.28 413.179 1448.74 Q411.374 1445.17 407.739 1445.17 M407.739 1441.47 Q413.55 1441.47 416.605 1446.07 Q419.684 1450.66 419.684 1459.41 Q419.684 1468.13 416.605 1472.74 Q413.55 1477.32 407.739 1477.32 Q401.929 1477.32 398.851 1472.74 Q395.795 1468.13 395.795 1459.41 Q395.795 1450.66 398.851 1446.07 Q401.929 1441.47 407.739 1441.47 Z" fill="#000000" fill-rule="evenodd" fill-opacity="1" /><path clip-path="url(#clip320)" d="M 0 0 M775.795 1472.72 L783.433 1472.72 L783.433 1446.35 L775.123 1448.02 L775.123 1443.76 L783.387 1442.09 L788.063 1442.09 L788.063 1472.72 L795.702 1472.72 L795.702 1476.65 L775.795 1476.65 L775.795 1472.72 Z" fill="#000000" fill-rule="evenodd" fill-opacity="1" /><path clip-path="url(#clip320)" d="M 0 0 M1157.74 1472.72 L1174.06 1472.72 L1174.06 1476.65 L1152.11 1476.65 L1152.11 1472.72 Q1154.78 1469.96 1159.36 1465.33 Q1163.97 1460.68 1165.15 1459.34 Q1167.39 1456.81 1168.27 1455.08 Q1169.17 1453.32 1169.17 1451.63 Q1169.17 1448.87 1167.23 1447.14 Q1165.31 1445.4 1162.21 1445.4 Q1160.01 1445.4 1157.55 1446.17 Q1155.12 1446.93 1152.35 1448.48 L1152.35 1443.76 Q1155.17 1442.62 1157.62 1442.05 Q1160.08 1441.47 1162.11 1441.47 Q1167.48 1441.47 1170.68 1444.15 Q1173.87 1446.84 1173.87 1451.33 Q1173.87 1453.46 1173.06 1455.38 Q1172.28 1457.28 1170.17 1459.87 Q1169.59 1460.54 1166.49 1463.76 Q1163.39 1466.95 1157.74 1472.72 Z" fill="#000000" fill-rule="evenodd" fill-opacity="1" /><path clip-path="url(#clip320)" d="M 0 0 M1545.01 1458.02 Q1548.36 1458.74 1550.24 1461 Q1552.14 1463.27 1552.14 1466.61 Q1552.14 1471.72 1548.62 1474.52 Q1545.1 1477.32 1538.62 1477.32 Q1536.44 1477.32 1534.13 1476.88 Q1531.84 1476.47 1529.38 1475.61 L1529.38 1471.1 Q1531.33 1472.23 1533.64 1472.81 Q1535.96 1473.39 1538.48 1473.39 Q1542.88 1473.39 1545.17 1471.65 Q1547.48 1469.92 1547.48 1466.61 Q1547.48 1463.55 1545.33 1461.84 Q1543.2 1460.1 1539.38 1460.1 L1535.35 1460.1 L1535.35 1456.26 L1539.57 1456.26 Q1543.02 1456.26 1544.84 1454.89 Q1546.67 1453.5 1546.67 1450.91 Q1546.67 1448.25 1544.78 1446.84 Q1542.9 1445.4 1539.38 1445.4 Q1537.46 1445.4 1535.26 1445.82 Q1533.06 1446.24 1530.42 1447.11 L1530.42 1442.95 Q1533.09 1442.21 1535.4 1441.84 Q1537.74 1441.47 1539.8 1441.47 Q1545.12 1441.47 1548.22 1443.9 Q1551.33 1446.3 1551.33 1450.43 Q1551.33 1453.3 1549.68 1455.29 Q1548.04 1457.25 1545.01 1458.02 Z" fill="#000000" fill-rule="evenodd" fill-opacity="1" /><path clip-path="url(#clip320)" d="M 0 0 M1921.44 1446.17 L1909.64 1464.61 L1921.44 1464.61 L1921.44 1446.17 M1920.21 1442.09 L1926.09 1442.09 L1926.09 1464.61 L1931.02 1464.61 L1931.02 1468.5 L1926.09 1468.5 L1926.09 1476.65 L1921.44 1476.65 L1921.44 1468.5 L1905.84 1468.5 L1905.84 1463.99 L1920.21 1442.09 Z" fill="#000000" fill-rule="evenodd" fill-opacity="1" /><path clip-path="url(#clip320)" d="M 0 0 M2286.38 1442.09 L2304.74 1442.09 L2304.74 1446.03 L2290.67 1446.03 L2290.67 1454.5 Q2291.68 1454.15 2292.7 1453.99 Q2293.72 1453.8 2294.74 1453.8 Q2300.53 1453.8 2303.91 1456.98 Q2307.29 1460.15 2307.29 1465.56 Q2307.29 1471.14 2303.81 1474.24 Q2300.34 1477.32 2294.02 1477.32 Q2291.85 1477.32 2289.58 1476.95 Q2287.33 1476.58 2284.92 1475.84 L2284.92 1471.14 Q2287.01 1472.28 2289.23 1472.83 Q2291.45 1473.39 2293.93 1473.39 Q2297.93 1473.39 2300.27 1471.28 Q2302.61 1469.18 2302.61 1465.56 Q2302.61 1461.95 2300.27 1459.85 Q2297.93 1457.74 2293.93 1457.74 Q2292.05 1457.74 2290.18 1458.16 Q2288.33 1458.57 2286.38 1459.45 L2286.38 1442.09 Z" fill="#000000" fill-rule="evenodd" fill-opacity="1" /><path clip-path="url(#clip320)" d="M 0 0 M123.688 1319.67 L136.165 1319.67 L136.165 1323.47 L123.688 1323.47 L123.688 1319.67 Z" fill="#000000" fill-rule="evenodd" fill-opacity="1" /><path clip-path="url(#clip320)" d="M 0 0 M158.989 1330.62 L175.308 1330.62 L175.308 1334.56 L153.364 1334.56 L153.364 1330.62 Q156.026 1327.87 160.609 1323.24 Q165.215 1318.59 166.396 1317.24 Q168.641 1314.72 169.521 1312.98 Q170.424 1311.23 170.424 1309.54 Q170.424 1306.78 168.479 1305.04 Q166.558 1303.31 163.456 1303.31 Q161.257 1303.31 158.803 1304.07 Q156.373 1304.84 153.595 1306.39 L153.595 1301.67 Q156.419 1300.53 158.873 1299.95 Q161.327 1299.37 163.364 1299.37 Q168.734 1299.37 171.928 1302.06 Q175.123 1304.74 175.123 1309.23 Q175.123 1311.36 174.313 1313.29 Q173.526 1315.18 171.419 1317.78 Q170.84 1318.45 167.739 1321.67 Q164.637 1324.86 158.989 1330.62 Z" fill="#000000" fill-rule="evenodd" fill-opacity="1" /><path clip-path="url(#clip320)" d="M 0 0 M180.377 1328.68 L185.262 1328.68 L185.262 1334.56 L180.377 1334.56 L180.377 1328.68 Z" fill="#000000" fill-rule="evenodd" fill-opacity="1" /><path clip-path="url(#clip320)" d="M 0 0 M200.331 1303.08 Q196.72 1303.08 194.891 1306.64 Q193.086 1310.18 193.086 1317.31 Q193.086 1324.42 194.891 1327.98 Q196.72 1331.53 200.331 1331.53 Q203.965 1331.53 205.771 1327.98 Q207.599 1324.42 207.599 1317.31 Q207.599 1310.18 205.771 1306.64 Q203.965 1303.08 200.331 1303.08 M200.331 1299.37 Q206.141 1299.37 209.197 1303.98 Q212.275 1308.56 212.275 1317.31 Q212.275 1326.04 209.197 1330.65 Q206.141 1335.23 200.331 1335.23 Q194.521 1335.23 191.442 1330.65 Q188.387 1326.04 188.387 1317.31 Q188.387 1308.56 191.442 1303.98 Q194.521 1299.37 200.331 1299.37 Z" fill="#000000" fill-rule="evenodd" fill-opacity="1" /><path clip-path="url(#clip320)" d="M 0 0 M245.516 1309.1 L234.937 1319.72 L245.516 1330.3 L242.761 1333.1 L232.136 1322.48 L221.511 1333.1 L218.78 1330.3 L229.335 1319.72 L218.78 1309.1 L221.511 1306.29 L232.136 1316.92 L242.761 1306.29 L245.516 1309.1 Z" fill="#000000" fill-rule="evenodd" fill-opacity="1" /><path clip-path="url(#clip320)" d="M 0 0 M251.395 1330.62 L259.034 1330.62 L259.034 1304.26 L250.724 1305.92 L250.724 1301.67 L258.988 1300 L263.664 1300 L263.664 1330.62 L271.303 1330.62 L271.303 1334.56 L251.395 1334.56 L251.395 1330.62 Z" fill="#000000" fill-rule="evenodd" fill-opacity="1" /><path clip-path="url(#clip320)" d="M 0 0 M286.372 1303.08 Q282.761 1303.08 280.932 1306.64 Q279.127 1310.18 279.127 1317.31 Q279.127 1324.42 280.932 1327.98 Q282.761 1331.53 286.372 1331.53 Q290.006 1331.53 291.812 1327.98 Q293.641 1324.42 293.641 1317.31 Q293.641 1310.18 291.812 1306.64 Q290.006 1303.08 286.372 1303.08 M286.372 1299.37 Q292.182 1299.37 295.238 1303.98 Q298.317 1308.56 298.317 1317.31 Q298.317 1326.04 295.238 1330.65 Q292.182 1335.23 286.372 1335.23 Q280.562 1335.23 277.483 1330.65 Q274.428 1326.04 274.428 1317.31 Q274.428 1308.56 277.483 1303.98 Q280.562 1299.37 286.372 1299.37 Z" fill="#000000" fill-rule="evenodd" fill-opacity="1" /><path clip-path="url(#clip320)" d="M 0 0 M298.317 1286.93 L313.494 1286.93 L313.494 1288.72 L298.317 1288.72 L298.317 1286.93 Z" fill="#000000" fill-rule="evenodd" fill-opacity="1" /><path clip-path="url(#clip320)" d="M 0 0 M316.165 1278.88 L325.757 1278.88 L325.757 1280.67 L318.403 1280.67 L318.403 1284.5 Q318.93 1284.33 319.475 1284.26 Q320.002 1284.18 320.529 1284.18 Q323.557 1284.18 325.324 1285.63 Q327.092 1287.06 327.092 1289.53 Q327.092 1292.06 325.268 1293.48 Q323.463 1294.87 320.152 1294.87 Q319.024 1294.87 317.839 1294.7 Q316.654 1294.53 315.413 1294.19 L315.413 1292.06 Q316.485 1292.57 317.651 1292.84 Q318.817 1293.08 320.115 1293.08 Q322.202 1293.08 323.425 1292.12 Q324.647 1291.16 324.647 1289.53 Q324.647 1287.89 323.425 1286.93 Q322.202 1285.97 320.115 1285.97 Q319.137 1285.97 318.159 1286.16 Q317.181 1286.35 316.165 1286.74 L316.165 1278.88 Z" fill="#000000" fill-rule="evenodd" fill-opacity="1" /><path clip-path="url(#clip320)" d="M 0 0 M126.049 1013.45 L138.526 1013.45 L138.526 1017.25 L126.049 1017.25 L126.049 1013.45 Z" fill="#000000" fill-rule="evenodd" fill-opacity="1" /><path clip-path="url(#clip320)" d="M 0 0 M156.396 1024.4 L164.035 1024.4 L164.035 998.033 L155.725 999.7 L155.725 995.441 L163.989 993.774 L168.664 993.774 L168.664 1024.4 L176.303 1024.4 L176.303 1028.33 L156.396 1028.33 L156.396 1024.4 Z" fill="#000000" fill-rule="evenodd" fill-opacity="1" /><path clip-path="url(#clip320)" d="M 0 0 M181.373 1022.45 L186.257 1022.45 L186.257 1028.33 L181.373 1028.33 L181.373 1022.45 Z" fill="#000000" fill-rule="evenodd" fill-opacity="1" /><path clip-path="url(#clip320)" d="M 0 0 M191.373 993.774 L209.729 993.774 L209.729 997.709 L195.655 997.709 L195.655 1006.18 Q196.674 1005.83 197.692 1005.67 Q198.711 1005.49 199.729 1005.49 Q205.516 1005.49 208.896 1008.66 Q212.275 1011.83 212.275 1017.25 Q212.275 1022.82 208.803 1025.93 Q205.331 1029.01 199.012 1029.01 Q196.836 1029.01 194.567 1028.63 Q192.322 1028.26 189.914 1027.52 L189.914 1022.82 Q191.998 1023.96 194.22 1024.51 Q196.442 1025.07 198.919 1025.07 Q202.924 1025.07 205.261 1022.96 Q207.599 1020.86 207.599 1017.25 Q207.599 1013.64 205.261 1011.53 Q202.924 1009.42 198.919 1009.42 Q197.044 1009.42 195.169 1009.84 Q193.317 1010.26 191.373 1011.14 L191.373 993.774 Z" fill="#000000" fill-rule="evenodd" fill-opacity="1" /><path clip-path="url(#clip320)" d="M 0 0 M245.516 1002.87 L234.937 1013.5 L245.516 1024.07 L242.761 1026.88 L232.136 1016.25 L221.511 1026.88 L218.78 1024.07 L229.335 1013.5 L218.78 1002.87 L221.511 1000.07 L232.136 1010.7 L242.761 1000.07 L245.516 1002.87 Z" fill="#000000" fill-rule="evenodd" fill-opacity="1" /><path clip-path="url(#clip320)" d="M 0 0 M251.395 1024.4 L259.034 1024.4 L259.034 998.033 L250.724 999.7 L250.724 995.441 L258.988 993.774 L263.664 993.774 L263.664 1024.4 L271.303 1024.4 L271.303 1028.33 L251.395 1028.33 L251.395 1024.4 Z" fill="#000000" fill-rule="evenodd" fill-opacity="1" /><path clip-path="url(#clip320)" d="M 0 0 M286.372 996.853 Q282.761 996.853 280.932 1000.42 Q279.127 1003.96 279.127 1011.09 Q279.127 1018.2 280.932 1021.76 Q282.761 1025.3 286.372 1025.3 Q290.006 1025.3 291.812 1021.76 Q293.641 1018.2 293.641 1011.09 Q293.641 1003.96 291.812 1000.42 Q290.006 996.853 286.372 996.853 M286.372 993.149 Q292.182 993.149 295.238 997.756 Q298.317 1002.34 298.317 1011.09 Q298.317 1019.82 295.238 1024.42 Q292.182 1029.01 286.372 1029.01 Q280.562 1029.01 277.483 1024.42 Q274.428 1019.82 274.428 1011.09 Q274.428 1002.34 277.483 997.756 Q280.562 993.149 286.372 993.149 Z" fill="#000000" fill-rule="evenodd" fill-opacity="1" /><path clip-path="url(#clip320)" d="M 0 0 M298.317 980.705 L313.494 980.705 L313.494 982.492 L298.317 982.492 L298.317 980.705 Z" fill="#000000" fill-rule="evenodd" fill-opacity="1" /><path clip-path="url(#clip320)" d="M 0 0 M316.165 972.656 L325.757 972.656 L325.757 974.442 L318.403 974.442 L318.403 978.279 Q318.93 978.11 319.475 978.035 Q320.002 977.959 320.529 977.959 Q323.557 977.959 325.324 979.408 Q327.092 980.837 327.092 983.301 Q327.092 985.84 325.268 987.25 Q323.463 988.642 320.152 988.642 Q319.024 988.642 317.839 988.473 Q316.654 988.304 315.413 987.965 L315.413 985.84 Q316.485 986.348 317.651 986.611 Q318.817 986.855 320.115 986.855 Q322.202 986.855 323.425 985.896 Q324.647 984.937 324.647 983.301 Q324.647 981.665 323.425 980.705 Q322.202 979.746 320.115 979.746 Q319.137 979.746 318.159 979.934 Q317.181 980.122 316.165 980.517 L316.165 972.656 Z" fill="#000000" fill-rule="evenodd" fill-opacity="1" /><path clip-path="url(#clip320)" d="M 0 0 M125.054 707.225 L137.53 707.225 L137.53 711.022 L125.054 711.022 L125.054 707.225 Z" fill="#000000" fill-rule="evenodd" fill-opacity="1" /><path clip-path="url(#clip320)" d="M 0 0 M155.401 718.174 L163.039 718.174 L163.039 691.809 L154.729 693.475 L154.729 689.216 L162.993 687.549 L167.669 687.549 L167.669 718.174 L175.308 718.174 L175.308 722.109 L155.401 722.109 L155.401 718.174 Z" fill="#000000" fill-rule="evenodd" fill-opacity="1" /><path clip-path="url(#clip320)" d="M 0 0 M180.377 716.23 L185.262 716.23 L185.262 722.109 L180.377 722.109 L180.377 716.23 Z" fill="#000000" fill-rule="evenodd" fill-opacity="1" /><path clip-path="url(#clip320)" d="M 0 0 M200.331 690.628 Q196.72 690.628 194.891 694.193 Q193.086 697.735 193.086 704.864 Q193.086 711.971 194.891 715.535 Q196.72 719.077 200.331 719.077 Q203.965 719.077 205.771 715.535 Q207.599 711.971 207.599 704.864 Q207.599 697.735 205.771 694.193 Q203.965 690.628 200.331 690.628 M200.331 686.924 Q206.141 686.924 209.197 691.531 Q212.275 696.114 212.275 704.864 Q212.275 713.591 209.197 718.197 Q206.141 722.781 200.331 722.781 Q194.521 722.781 191.442 718.197 Q188.387 713.591 188.387 704.864 Q188.387 696.114 191.442 691.531 Q194.521 686.924 200.331 686.924 Z" fill="#000000" fill-rule="evenodd" fill-opacity="1" /><path clip-path="url(#clip320)" d="M 0 0 M245.516 696.647 L234.937 707.272 L245.516 717.85 L242.761 720.651 L232.136 710.026 L221.511 720.651 L218.78 717.85 L229.335 707.272 L218.78 696.647 L221.511 693.846 L232.136 704.471 L242.761 693.846 L245.516 696.647 Z" fill="#000000" fill-rule="evenodd" fill-opacity="1" /><path clip-path="url(#clip320)" d="M 0 0 M251.395 718.174 L259.034 718.174 L259.034 691.809 L250.724 693.475 L250.724 689.216 L258.988 687.549 L263.664 687.549 L263.664 718.174 L271.303 718.174 L271.303 722.109 L251.395 722.109 L251.395 718.174 Z" fill="#000000" fill-rule="evenodd" fill-opacity="1" /><path clip-path="url(#clip320)" d="M 0 0 M286.372 690.628 Q282.761 690.628 280.932 694.193 Q279.127 697.735 279.127 704.864 Q279.127 711.971 280.932 715.535 Q282.761 719.077 286.372 719.077 Q290.006 719.077 291.812 715.535 Q293.641 711.971 293.641 704.864 Q293.641 697.735 291.812 694.193 Q290.006 690.628 286.372 690.628 M286.372 686.924 Q292.182 686.924 295.238 691.531 Q298.317 696.114 298.317 704.864 Q298.317 713.591 295.238 718.197 Q292.182 722.781 286.372 722.781 Q280.562 722.781 277.483 718.197 Q274.428 713.591 274.428 704.864 Q274.428 696.114 277.483 691.531 Q280.562 686.924 286.372 686.924 Z" fill="#000000" fill-rule="evenodd" fill-opacity="1" /><path clip-path="url(#clip320)" d="M 0 0 M298.317 674.481 L313.494 674.481 L313.494 676.267 L298.317 676.267 L298.317 674.481 Z" fill="#000000" fill-rule="evenodd" fill-opacity="1" /><path clip-path="url(#clip320)" d="M 0 0 M316.165 666.431 L325.757 666.431 L325.757 668.218 L318.403 668.218 L318.403 672.055 Q318.93 671.885 319.475 671.81 Q320.002 671.735 320.529 671.735 Q323.557 671.735 325.324 673.183 Q327.092 674.612 327.092 677.076 Q327.092 679.615 325.268 681.026 Q323.463 682.418 320.152 682.418 Q319.024 682.418 317.839 682.248 Q316.654 682.079 315.413 681.741 L315.413 679.615 Q316.485 680.123 317.651 680.386 Q318.817 680.631 320.115 680.631 Q322.202 680.631 323.425 679.672 Q324.647 678.712 324.647 677.076 Q324.647 675.44 323.425 674.481 Q322.202 673.522 320.115 673.522 Q319.137 673.522 318.159 673.71 Q317.181 673.898 316.165 674.293 L316.165 666.431 Z" fill="#000000" fill-rule="evenodd" fill-opacity="1" /><path clip-path="url(#clip320)" d="M 0 0 M122.669 401.001 L135.146 401.001 L135.146 404.797 L122.669 404.797 L122.669 401.001 Z" fill="#000000" fill-rule="evenodd" fill-opacity="1" /><path clip-path="url(#clip320)" d="M 0 0 M153.803 381.325 L172.16 381.325 L172.16 385.26 L158.086 385.26 L158.086 393.732 Q159.104 393.385 160.123 393.223 Q161.141 393.038 162.16 393.038 Q167.947 393.038 171.326 396.209 Q174.706 399.38 174.706 404.797 Q174.706 410.376 171.234 413.478 Q167.762 416.556 161.442 416.556 Q159.266 416.556 156.998 416.186 Q154.752 415.815 152.345 415.075 L152.345 410.376 Q154.428 411.51 156.651 412.065 Q158.873 412.621 161.35 412.621 Q165.354 412.621 167.692 410.515 Q170.03 408.408 170.03 404.797 Q170.03 401.186 167.692 399.079 Q165.354 396.973 161.35 396.973 Q159.475 396.973 157.6 397.39 Q155.748 397.806 153.803 398.686 L153.803 381.325 Z" fill="#000000" fill-rule="evenodd" fill-opacity="1" /><path clip-path="url(#clip320)" d="M 0 0 M179.775 410.005 L184.66 410.005 L184.66 415.885 L179.775 415.885 L179.775 410.005 Z" fill="#000000" fill-rule="evenodd" fill-opacity="1" /><path clip-path="url(#clip320)" d="M 0 0 M199.729 384.404 Q196.118 384.404 194.289 387.968 Q192.484 391.51 192.484 398.64 Q192.484 405.746 194.289 409.311 Q196.118 412.853 199.729 412.853 Q203.363 412.853 205.169 409.311 Q206.998 405.746 206.998 398.64 Q206.998 391.51 205.169 387.968 Q203.363 384.404 199.729 384.404 M199.729 380.7 Q205.539 380.7 208.595 385.306 Q211.673 389.89 211.673 398.64 Q211.673 407.366 208.595 411.973 Q205.539 416.556 199.729 416.556 Q193.919 416.556 190.84 411.973 Q187.785 407.366 187.785 398.64 Q187.785 389.89 190.84 385.306 Q193.919 380.7 199.729 380.7 Z" fill="#000000" fill-rule="evenodd" fill-opacity="1" /><path clip-path="url(#clip320)" d="M 0 0 M244.914 390.422 L234.335 401.047 L244.914 411.626 L242.159 414.427 L231.534 403.802 L220.91 414.427 L218.178 411.626 L228.734 401.047 L218.178 390.422 L220.91 387.621 L231.534 398.246 L242.159 387.621 L244.914 390.422 Z" fill="#000000" fill-rule="evenodd" fill-opacity="1" /><path clip-path="url(#clip320)" d="M 0 0 M250.794 411.95 L258.432 411.95 L258.432 385.584 L250.122 387.251 L250.122 382.992 L258.386 381.325 L263.062 381.325 L263.062 411.95 L270.701 411.95 L270.701 415.885 L250.794 415.885 L250.794 411.95 Z" fill="#000000" fill-rule="evenodd" fill-opacity="1" /><path clip-path="url(#clip320)" d="M 0 0 M285.77 384.404 Q282.159 384.404 280.331 387.968 Q278.525 391.51 278.525 398.64 Q278.525 405.746 280.331 409.311 Q282.159 412.853 285.77 412.853 Q289.405 412.853 291.21 409.311 Q293.039 405.746 293.039 398.64 Q293.039 391.51 291.21 387.968 Q289.405 384.404 285.77 384.404 M285.77 380.7 Q291.58 380.7 294.636 385.306 Q297.715 389.89 297.715 398.64 Q297.715 407.366 294.636 411.973 Q291.58 416.556 285.77 416.556 Q279.96 416.556 276.881 411.973 Q273.826 407.366 273.826 398.64 Q273.826 389.89 276.881 385.306 Q279.96 380.7 285.77 380.7 Z" fill="#000000" fill-rule="evenodd" fill-opacity="1" /><path clip-path="url(#clip320)" d="M 0 0 M297.715 368.256 L312.893 368.256 L312.893 370.043 L297.715 370.043 L297.715 368.256 Z" fill="#000000" fill-rule="evenodd" fill-opacity="1" /><path clip-path="url(#clip320)" d="M 0 0 M321.074 367.165 Q319.419 367.165 318.46 368.143 Q317.5 369.14 317.5 370.852 Q317.5 372.544 318.46 373.522 Q319.419 374.519 321.074 374.519 Q322.71 374.519 323.669 373.522 Q324.629 372.544 324.629 370.852 Q324.629 369.14 323.669 368.143 Q322.71 367.165 321.074 367.165 M325.926 360.507 L325.926 362.445 Q325.005 362.068 324.064 361.88 Q323.124 361.673 322.202 361.673 Q319.795 361.673 318.516 363.084 Q317.237 364.513 317.049 367.391 Q317.764 366.469 318.836 365.98 Q319.927 365.491 321.206 365.491 Q323.933 365.491 325.513 366.921 Q327.092 368.369 327.092 370.852 Q327.092 373.24 325.437 374.726 Q323.801 376.193 321.074 376.193 Q317.933 376.193 316.278 374.105 Q314.623 372.018 314.623 368.03 Q314.623 364.307 316.654 362.106 Q318.685 359.887 322.108 359.887 Q323.03 359.887 323.97 360.037 Q324.911 360.206 325.926 360.507 Z" fill="#000000" fill-rule="evenodd" fill-opacity="1" /><path clip-path="url(#clip320)" d="M 0 0 M315.148 71.7314 Q311.537 71.7314 309.708 75.2962 Q307.903 78.8378 307.903 85.9674 Q307.903 93.0739 309.708 96.6387 Q311.537 100.18 315.148 100.18 Q318.782 100.18 320.588 96.6387 Q322.417 93.0739 322.417 85.9674 Q322.417 78.8378 320.588 75.2962 Q318.782 71.7314 315.148 71.7314 M315.148 68.0277 Q320.958 68.0277 324.014 72.6342 Q327.092 77.2175 327.092 85.9674 Q327.092 94.6942 324.014 99.3007 Q320.958 103.884 315.148 103.884 Q309.338 103.884 306.259 99.3007 Q303.204 94.6942 303.204 85.9674 Q303.204 77.2175 306.259 72.6342 Q309.338 68.0277 315.148 68.0277 Z" fill="#000000" fill-rule="evenodd" fill-opacity="1" /><path clip-path="url(#clip320)" d="M 0 0 M1176.09 1538.25 Q1176.09 1544.71 1178.73 1548.4 Q1181.4 1552.07 1186.05 1552.07 Q1190.7 1552.07 1193.37 1548.4 Q1196.04 1544.71 1196.04 1538.25 Q1196.04 1531.79 1193.37 1528.13 Q1190.7 1524.44 1186.05 1524.44 Q1181.4 1524.44 1178.73 1528.13 Q1176.09 1531.79 1176.09 1538.25 M1196.04 1550.7 Q1194.2 1553.88 1191.37 1555.44 Q1188.56 1556.97 1184.62 1556.97 Q1178.16 1556.97 1174.08 1551.81 Q1170.04 1546.65 1170.04 1538.25 Q1170.04 1529.85 1174.08 1524.69 Q1178.16 1519.54 1184.62 1519.54 Q1188.56 1519.54 1191.37 1521.1 Q1194.2 1522.62 1196.04 1525.81 L1196.04 1520.4 L1201.9 1520.4 L1201.9 1569.6 L1196.04 1569.6 L1196.04 1550.7 Z" fill="#000000" fill-rule="evenodd" fill-opacity="1" /><path clip-path="url(#clip320)" d="M 0 0 M1235.13 1566.87 L1235.13 1571.42 L1201.26 1571.42 L1201.26 1566.87 L1235.13 1566.87 Z" fill="#000000" fill-rule="evenodd" fill-opacity="1" /><path clip-path="url(#clip320)" d="M 0 0 M1261.93 1525.87 Q1260.94 1525.3 1259.76 1525.04 Q1258.62 1524.76 1257.22 1524.76 Q1252.25 1524.76 1249.58 1528 Q1246.94 1531.22 1246.94 1537.27 L1246.94 1556.04 L1241.05 1556.04 L1241.05 1520.4 L1246.94 1520.4 L1246.94 1525.93 Q1248.78 1522.69 1251.74 1521.13 Q1254.7 1519.54 1258.94 1519.54 Q1259.54 1519.54 1260.27 1519.63 Q1261.01 1519.7 1261.9 1519.85 L1261.93 1525.87 Z" fill="#000000" fill-rule="evenodd" fill-opacity="1" /><path clip-path="url(#clip320)" d="M 0 0 M1284.27 1538.12 Q1277.17 1538.12 1274.44 1539.75 Q1271.7 1541.37 1271.7 1545.29 Q1271.7 1548.4 1273.74 1550.25 Q1275.81 1552.07 1279.34 1552.07 Q1284.21 1552.07 1287.14 1548.63 Q1290.1 1545.16 1290.1 1539.43 L1290.1 1538.12 L1284.27 1538.12 M1295.95 1535.71 L1295.95 1556.04 L1290.1 1556.04 L1290.1 1550.63 Q1288.09 1553.88 1285.1 1555.44 Q1282.11 1556.97 1277.78 1556.97 Q1272.31 1556.97 1269.06 1553.91 Q1265.84 1550.82 1265.84 1545.67 Q1265.84 1539.65 1269.85 1536.6 Q1273.9 1533.54 1281.89 1533.54 L1290.1 1533.54 L1290.1 1532.97 Q1290.1 1528.93 1287.42 1526.73 Q1284.78 1524.5 1279.98 1524.5 Q1276.92 1524.5 1274.02 1525.23 Q1271.13 1525.97 1268.45 1527.43 L1268.45 1522.02 Q1271.67 1520.78 1274.69 1520.17 Q1277.72 1519.54 1280.58 1519.54 Q1288.31 1519.54 1292.13 1523.55 Q1295.95 1527.56 1295.95 1535.71 Z" fill="#000000" fill-rule="evenodd" fill-opacity="1" /><path clip-path="url(#clip320)" d="M 0 0 M1302.1 1520.4 L1307.95 1520.4 L1307.95 1556.04 L1302.1 1556.04 L1302.1 1520.4 M1302.1 1506.52 L1307.95 1506.52 L1307.95 1513.93 L1302.1 1513.93 L1302.1 1506.52 Z" fill="#000000" fill-rule="evenodd" fill-opacity="1" /><path clip-path="url(#clip320)" d="M 0 0 M1343.73 1534.53 L1343.73 1556.04 L1337.87 1556.04 L1337.87 1534.72 Q1337.87 1529.66 1335.9 1527.14 Q1333.93 1524.63 1329.98 1524.63 Q1325.24 1524.63 1322.5 1527.65 Q1319.76 1530.68 1319.76 1535.9 L1319.76 1556.04 L1313.87 1556.04 L1313.87 1520.4 L1319.76 1520.4 L1319.76 1525.93 Q1321.86 1522.72 1324.69 1521.13 Q1327.56 1519.54 1331.28 1519.54 Q1337.43 1519.54 1340.58 1523.36 Q1343.73 1527.14 1343.73 1534.53 Z" fill="#000000" fill-rule="evenodd" fill-opacity="1" /><path clip-path="url(#clip320)" d="M 0 0 M1370.05 1506.52 L1383.55 1506.52 L1383.55 1511.07 L1375.91 1511.07 L1375.91 1560.09 L1383.55 1560.09 L1383.55 1564.64 L1370.05 1564.64 L1370.05 1506.52 Z" fill="#000000" fill-rule="evenodd" fill-opacity="1" /><path clip-path="url(#clip320)" d="M 0 0 M1413.15 1537.81 Q1413.15 1531.44 1410.5 1527.94 Q1407.89 1524.44 1403.15 1524.44 Q1398.44 1524.44 1395.8 1527.94 Q1393.19 1531.44 1393.19 1537.81 Q1393.19 1544.14 1395.8 1547.64 Q1398.44 1551.14 1403.15 1551.14 Q1407.89 1551.14 1410.5 1547.64 Q1413.15 1544.14 1413.15 1537.81 M1419 1551.62 Q1419 1560.72 1414.96 1565.15 Q1410.92 1569.6 1402.58 1569.6 Q1399.49 1569.6 1396.75 1569.13 Q1394.02 1568.68 1391.44 1567.72 L1391.44 1562.03 Q1394.02 1563.43 1396.53 1564.1 Q1399.05 1564.76 1401.66 1564.76 Q1407.42 1564.76 1410.28 1561.74 Q1413.15 1558.75 1413.15 1552.67 L1413.15 1549.77 Q1411.33 1552.92 1408.5 1554.48 Q1405.67 1556.04 1401.72 1556.04 Q1395.16 1556.04 1391.15 1551.05 Q1387.14 1546.05 1387.14 1537.81 Q1387.14 1529.53 1391.15 1524.53 Q1395.16 1519.54 1401.72 1519.54 Q1405.67 1519.54 1408.5 1521.1 Q1411.33 1522.66 1413.15 1525.81 L1413.15 1520.4 L1419 1520.4 L1419 1551.62 Z" fill="#000000" fill-rule="evenodd" fill-opacity="1" /><path clip-path="url(#clip320)" d="M 0 0 M1435.55 1508.52 L1440.96 1508.52 L1424.41 1562.09 L1419 1562.09 L1435.55 1508.52 Z" fill="#000000" fill-rule="evenodd" fill-opacity="1" /><path clip-path="url(#clip320)" d="M 0 0 M1446.88 1506.52 L1452.77 1506.52 L1452.77 1535.77 L1470.25 1520.4 L1477.73 1520.4 L1458.82 1537.07 L1478.52 1556.04 L1470.88 1556.04 L1452.77 1538.63 L1452.77 1556.04 L1446.88 1556.04 L1446.88 1506.52 Z" fill="#000000" fill-rule="evenodd" fill-opacity="1" /><path clip-path="url(#clip320)" d="M 0 0 M1508.12 1537.81 Q1508.12 1531.44 1505.48 1527.94 Q1502.87 1524.44 1498.13 1524.44 Q1493.42 1524.44 1490.78 1527.94 Q1488.17 1531.44 1488.17 1537.81 Q1488.17 1544.14 1490.78 1547.64 Q1493.42 1551.14 1498.13 1551.14 Q1502.87 1551.14 1505.48 1547.64 Q1508.12 1544.14 1508.12 1537.81 M1513.98 1551.62 Q1513.98 1560.72 1509.94 1565.15 Q1505.89 1569.6 1497.56 1569.6 Q1494.47 1569.6 1491.73 1569.13 Q1488.99 1568.68 1486.42 1567.72 L1486.42 1562.03 Q1488.99 1563.43 1491.51 1564.1 Q1494.02 1564.76 1496.63 1564.76 Q1502.39 1564.76 1505.26 1561.74 Q1508.12 1558.75 1508.12 1552.67 L1508.12 1549.77 Q1506.31 1552.92 1503.48 1554.48 Q1500.64 1556.04 1496.7 1556.04 Q1490.14 1556.04 1486.13 1551.05 Q1482.12 1546.05 1482.12 1537.81 Q1482.12 1529.53 1486.13 1524.53 Q1490.14 1519.54 1496.7 1519.54 Q1500.64 1519.54 1503.48 1521.1 Q1506.31 1522.66 1508.12 1525.81 L1508.12 1520.4 L1513.98 1520.4 L1513.98 1551.62 Z" fill="#000000" fill-rule="evenodd" fill-opacity="1" /><path clip-path="url(#clip320)" d="M 0 0 M1533.81 1506.52 L1533.81 1564.64 L1520.31 1564.64 L1520.31 1560.09 L1527.92 1560.09 L1527.92 1511.07 L1520.31 1511.07 L1520.31 1506.52 L1533.81 1506.52 Z" fill="#000000" fill-rule="evenodd" fill-opacity="1" /><path clip-path="url(#clip320)" d="M 0 0 M57.8307 1096.21 Q57.2578 1097.2 57.0032 1098.38 Q56.7167 1099.52 56.7167 1100.92 Q56.7167 1105.89 59.9632 1108.56 Q63.1779 1111.2 69.2253 1111.2 L88.0042 1111.2 L88.0042 1117.09 L52.3562 1117.09 L52.3562 1111.2 L57.8944 1111.2 Q54.6479 1109.36 53.0883 1106.4 Q51.4968 1103.44 51.4968 1099.2 Q51.4968 1098.6 51.5923 1097.87 Q51.656 1097.13 51.8151 1096.24 L57.8307 1096.21 Z" fill="#000000" fill-rule="evenodd" fill-opacity="1" /><path clip-path="url(#clip320)" d="M 0 0 M70.0847 1073.87 Q70.0847 1080.97 71.7079 1083.7 Q73.3312 1086.44 77.2461 1086.44 Q80.3653 1086.44 82.2114 1084.4 Q84.0256 1082.33 84.0256 1078.8 Q84.0256 1073.93 80.5881 1071 Q77.1188 1068.04 71.3897 1068.04 L70.0847 1068.04 L70.0847 1073.87 M67.6657 1062.19 L88.0042 1062.19 L88.0042 1068.04 L82.5933 1068.04 Q85.8398 1070.05 87.3994 1073.04 Q88.9272 1076.03 88.9272 1080.36 Q88.9272 1085.84 85.8716 1089.08 Q82.7843 1092.3 77.6281 1092.3 Q71.6125 1092.3 68.5569 1088.29 Q65.5014 1084.24 65.5014 1076.25 L65.5014 1068.04 L64.9285 1068.04 Q60.8862 1068.04 58.6901 1070.72 Q56.4621 1073.36 56.4621 1078.16 Q56.4621 1081.22 57.1941 1084.12 Q57.9262 1087.01 59.3903 1089.69 L53.9795 1089.69 Q52.7381 1086.47 52.1334 1083.45 Q51.4968 1080.42 51.4968 1077.56 Q51.4968 1069.83 55.5072 1066.01 Q59.5176 1062.19 67.6657 1062.19 Z" fill="#000000" fill-rule="evenodd" fill-opacity="1" /><path clip-path="url(#clip320)" d="M 0 0 M52.3562 1056.04 L52.3562 1050.19 L88.0042 1050.19 L88.0042 1056.04 L52.3562 1056.04 M38.479 1056.04 L38.479 1050.19 L45.895 1050.19 L45.895 1056.04 L38.479 1056.04 Z" fill="#000000" fill-rule="evenodd" fill-opacity="1" /><path clip-path="url(#clip320)" d="M 0 0 M66.4881 1014.41 L88.0042 1014.41 L88.0042 1020.27 L66.679 1020.27 Q61.6183 1020.27 59.1038 1022.24 Q56.5894 1024.22 56.5894 1028.16 Q56.5894 1032.9 59.6131 1035.64 Q62.6368 1038.38 67.8567 1038.38 L88.0042 1038.38 L88.0042 1044.27 L52.3562 1044.27 L52.3562 1038.38 L57.8944 1038.38 Q54.6797 1036.28 53.0883 1033.45 Q51.4968 1030.58 51.4968 1026.86 Q51.4968 1020.71 55.3163 1017.56 Q59.1038 1014.41 66.4881 1014.41 Z" fill="#000000" fill-rule="evenodd" fill-opacity="1" /><path clip-path="url(#clip320)" d="M 0 0 M68.7161 957.057 L71.5806 957.057 L71.5806 983.984 Q77.6281 983.602 80.8109 980.355 Q83.9619 977.077 83.9619 971.252 Q83.9619 967.879 83.1344 964.728 Q82.3069 961.545 80.6518 958.425 L86.1899 958.425 Q87.5267 961.576 88.227 964.887 Q88.9272 968.197 88.9272 971.602 Q88.9272 980.133 83.9619 985.13 Q78.9967 990.095 70.5303 990.095 Q61.7774 990.095 56.6531 985.384 Q51.4968 980.642 51.4968 972.621 Q51.4968 965.428 56.1438 961.258 Q60.7589 957.057 68.7161 957.057 M66.9973 962.913 Q62.1912 962.977 59.3266 965.619 Q56.4621 968.229 56.4621 972.557 Q56.4621 977.459 59.2312 980.419 Q62.0002 983.347 67.0292 983.793 L66.9973 962.913 Z" fill="#000000" fill-rule="evenodd" fill-opacity="1" /><path clip-path="url(#clip320)" d="M 0 0 M52.3562 955.115 L52.3562 948.909 L82.275 937.769 L52.3562 926.629 L52.3562 920.422 L88.0042 933.79 L88.0042 941.747 L52.3562 955.115 Z" fill="#000000" fill-rule="evenodd" fill-opacity="1" /><path clip-path="url(#clip320)" d="M 0 0 M70.0847 898.079 Q70.0847 905.176 71.7079 907.914 Q73.3312 910.651 77.2461 910.651 Q80.3653 910.651 82.2114 908.614 Q84.0256 906.545 84.0256 903.012 Q84.0256 898.142 80.5881 895.214 Q77.1188 892.254 71.3897 892.254 L70.0847 892.254 L70.0847 898.079 M67.6657 886.398 L88.0042 886.398 L88.0042 892.254 L82.5933 892.254 Q85.8398 894.259 87.3994 897.251 Q88.9272 900.243 88.9272 904.572 Q88.9272 910.046 85.8716 913.293 Q82.7843 916.507 77.6281 916.507 Q71.6125 916.507 68.5569 912.497 Q65.5014 908.455 65.5014 900.466 L65.5014 892.254 L64.9285 892.254 Q60.8862 892.254 58.6901 894.928 Q56.4621 897.569 56.4621 902.375 Q56.4621 905.431 57.1941 908.327 Q57.9262 911.224 59.3903 913.897 L53.9795 913.897 Q52.7381 910.683 52.1334 907.659 Q51.4968 904.635 51.4968 901.771 Q51.4968 894.036 55.5072 890.217 Q59.5176 886.398 67.6657 886.398 Z" fill="#000000" fill-rule="evenodd" fill-opacity="1" /><path clip-path="url(#clip320)" d="M 0 0 M82.657 874.589 L101.563 874.589 L101.563 880.477 L52.3562 880.477 L52.3562 874.589 L57.7671 874.589 Q54.5842 872.743 53.0564 869.942 Q51.4968 867.109 51.4968 863.195 Q51.4968 856.701 56.6531 852.659 Q61.8093 848.585 70.212 848.585 Q78.6147 848.585 83.771 852.659 Q88.9272 856.701 88.9272 863.195 Q88.9272 867.109 87.3994 869.942 Q85.8398 872.743 82.657 874.589 M70.212 854.664 Q63.7508 854.664 60.0905 857.338 Q56.3984 859.98 56.3984 864.627 Q56.3984 869.274 60.0905 871.947 Q63.7508 874.589 70.212 874.589 Q76.6732 874.589 80.3653 871.947 Q84.0256 869.274 84.0256 864.627 Q84.0256 859.98 80.3653 857.338 Q76.6732 854.664 70.212 854.664 Z" fill="#000000" fill-rule="evenodd" fill-opacity="1" /><path clip-path="url(#clip320)" d="M 0 0 M56.4621 828.629 Q56.4621 833.339 60.1542 836.077 Q63.8145 838.814 70.212 838.814 Q76.6095 838.814 80.3017 836.108 Q83.9619 833.371 83.9619 828.629 Q83.9619 823.95 80.2698 821.213 Q76.5777 818.475 70.212 818.475 Q63.8781 818.475 60.186 821.213 Q56.4621 823.95 56.4621 828.629 M51.4968 828.629 Q51.4968 820.99 56.4621 816.629 Q61.4273 812.269 70.212 812.269 Q78.9649 812.269 83.9619 816.629 Q88.9272 820.99 88.9272 828.629 Q88.9272 836.299 83.9619 840.66 Q78.9649 844.989 70.212 844.989 Q61.4273 844.989 56.4621 840.66 Q51.4968 836.299 51.4968 828.629 Z" fill="#000000" fill-rule="evenodd" fill-opacity="1" /><path clip-path="url(#clip320)" d="M 0 0 M57.8307 785.469 Q57.2578 786.456 57.0032 787.634 Q56.7167 788.779 56.7167 790.18 Q56.7167 795.145 59.9632 797.819 Q63.1779 800.46 69.2253 800.46 L88.0042 800.46 L88.0042 806.349 L52.3562 806.349 L52.3562 800.46 L57.8944 800.46 Q54.6479 798.614 53.0883 795.654 Q51.4968 792.694 51.4968 788.461 Q51.4968 787.856 51.5923 787.124 Q51.656 786.392 51.8151 785.501 L57.8307 785.469 Z" fill="#000000" fill-rule="evenodd" fill-opacity="1" /><path clip-path="url(#clip320)" d="M 0 0 M70.0847 763.126 Q70.0847 770.223 71.7079 772.961 Q73.3312 775.698 77.2461 775.698 Q80.3653 775.698 82.2114 773.661 Q84.0256 771.592 84.0256 768.059 Q84.0256 763.189 80.5881 760.261 Q77.1188 757.301 71.3897 757.301 L70.0847 757.301 L70.0847 763.126 M67.6657 751.445 L88.0042 751.445 L88.0042 757.301 L82.5933 757.301 Q85.8398 759.306 87.3994 762.298 Q88.9272 765.29 88.9272 769.619 Q88.9272 775.093 85.8716 778.34 Q82.7843 781.554 77.6281 781.554 Q71.6125 781.554 68.5569 777.544 Q65.5014 773.502 65.5014 765.513 L65.5014 757.301 L64.9285 757.301 Q60.8862 757.301 58.6901 759.975 Q56.4621 762.616 56.4621 767.422 Q56.4621 770.478 57.1941 773.374 Q57.9262 776.271 59.3903 778.944 L53.9795 778.944 Q52.7381 775.73 52.1334 772.706 Q51.4968 769.682 51.4968 766.818 Q51.4968 759.083 55.5072 755.264 Q59.5176 751.445 67.6657 751.445 Z" fill="#000000" fill-rule="evenodd" fill-opacity="1" /><path clip-path="url(#clip320)" d="M 0 0 M42.2347 739.509 L52.3562 739.509 L52.3562 727.446 L56.9077 727.446 L56.9077 739.509 L76.2594 739.509 Q80.6199 739.509 81.8613 738.331 Q83.1026 737.122 83.1026 733.461 L83.1026 727.446 L88.0042 727.446 L88.0042 733.461 Q88.0042 740.241 85.4897 742.819 Q82.9434 745.397 76.2594 745.397 L56.9077 745.397 L56.9077 749.694 L52.3562 749.694 L52.3562 745.397 L42.2347 745.397 L42.2347 739.509 Z" fill="#000000" fill-rule="evenodd" fill-opacity="1" /><path clip-path="url(#clip320)" d="M 0 0 M52.3562 721.303 L52.3562 715.446 L88.0042 715.446 L88.0042 721.303 L52.3562 721.303 M38.479 721.303 L38.479 715.446 L45.895 715.446 L45.895 721.303 L38.479 721.303 Z" fill="#000000" fill-rule="evenodd" fill-opacity="1" /><path clip-path="url(#clip320)" d="M 0 0 M56.4621 695.49 Q56.4621 700.201 60.1542 702.938 Q63.8145 705.675 70.212 705.675 Q76.6095 705.675 80.3017 702.97 Q83.9619 700.232 83.9619 695.49 Q83.9619 690.811 80.2698 688.074 Q76.5777 685.337 70.212 685.337 Q63.8781 685.337 60.186 688.074 Q56.4621 690.811 56.4621 695.49 M51.4968 695.49 Q51.4968 687.851 56.4621 683.491 Q61.4273 679.13 70.212 679.13 Q78.9649 679.13 83.9619 683.491 Q88.9272 687.851 88.9272 695.49 Q88.9272 703.161 83.9619 707.521 Q78.9649 711.85 70.212 711.85 Q61.4273 711.85 56.4621 707.521 Q51.4968 703.161 51.4968 695.49 Z" fill="#000000" fill-rule="evenodd" fill-opacity="1" /><path clip-path="url(#clip320)" d="M 0 0 M66.4881 643.355 L88.0042 643.355 L88.0042 649.211 L66.679 649.211 Q61.6183 649.211 59.1038 651.185 Q56.5894 653.158 56.5894 657.105 Q56.5894 661.847 59.6131 664.584 Q62.6368 667.322 67.8567 667.322 L88.0042 667.322 L88.0042 673.21 L52.3562 673.21 L52.3562 667.322 L57.8944 667.322 Q54.6797 665.221 53.0883 662.388 Q51.4968 659.524 51.4968 655.8 Q51.4968 649.657 55.3163 646.506 Q59.1038 643.355 66.4881 643.355 Z" fill="#000000" fill-rule="evenodd" fill-opacity="1" /><path clip-path="url(#clip320)" d="M 0 0 M57.8307 595.835 Q57.2578 596.822 57.0032 597.999 Q56.7167 599.145 56.7167 600.545 Q56.7167 605.511 59.9632 608.184 Q63.1779 610.826 69.2253 610.826 L88.0042 610.826 L88.0042 616.714 L52.3562 616.714 L52.3562 610.826 L57.8944 610.826 Q54.6479 608.98 53.0883 606.02 Q51.4968 603.06 51.4968 598.827 Q51.4968 598.222 51.5923 597.49 Q51.656 596.758 51.8151 595.867 L57.8307 595.835 Z" fill="#000000" fill-rule="evenodd" fill-opacity="1" /><path clip-path="url(#clip320)" d="M 0 0 M70.0847 573.491 Q70.0847 580.589 71.7079 583.326 Q73.3312 586.063 77.2461 586.063 Q80.3653 586.063 82.2114 584.026 Q84.0256 581.958 84.0256 578.425 Q84.0256 573.555 80.5881 570.627 Q77.1188 567.667 71.3897 567.667 L70.0847 567.667 L70.0847 573.491 M67.6657 561.81 L88.0042 561.81 L88.0042 567.667 L82.5933 567.667 Q85.8398 569.672 87.3994 572.664 Q88.9272 575.656 88.9272 579.984 Q88.9272 585.459 85.8716 588.705 Q82.7843 591.92 77.6281 591.92 Q71.6125 591.92 68.5569 587.91 Q65.5014 583.867 65.5014 575.878 L65.5014 567.667 L64.9285 567.667 Q60.8862 567.667 58.6901 570.34 Q56.4621 572.982 56.4621 577.788 Q56.4621 580.844 57.1941 583.74 Q57.9262 586.636 59.3903 589.31 L53.9795 589.31 Q52.7381 586.095 52.1334 583.072 Q51.4968 580.048 51.4968 577.183 Q51.4968 569.449 55.5072 565.63 Q59.5176 561.81 67.6657 561.81 Z" fill="#000000" fill-rule="evenodd" fill-opacity="1" /><path clip-path="url(#clip320)" d="M 0 0 M42.2347 549.874 L52.3562 549.874 L52.3562 537.811 L56.9077 537.811 L56.9077 549.874 L76.2594 549.874 Q80.6199 549.874 81.8613 548.697 Q83.1026 547.487 83.1026 543.827 L83.1026 537.811 L88.0042 537.811 L88.0042 543.827 Q88.0042 550.606 85.4897 553.185 Q82.9434 555.763 76.2594 555.763 L56.9077 555.763 L56.9077 560.06 L52.3562 560.06 L52.3562 555.763 L42.2347 555.763 L42.2347 549.874 Z" fill="#000000" fill-rule="evenodd" fill-opacity="1" /><path clip-path="url(#clip320)" d="M 0 0 M68.7161 501.177 L71.5806 501.177 L71.5806 528.104 Q77.6281 527.722 80.8109 524.475 Q83.9619 521.197 83.9619 515.372 Q83.9619 511.998 83.1344 508.847 Q82.3069 505.665 80.6518 502.545 L86.1899 502.545 Q87.5267 505.696 88.227 509.007 Q88.9272 512.317 88.9272 515.722 Q88.9272 524.252 83.9619 529.25 Q78.9967 534.215 70.5303 534.215 Q61.7774 534.215 56.6531 529.504 Q51.4968 524.762 51.4968 516.741 Q51.4968 509.548 56.1438 505.378 Q60.7589 501.177 68.7161 501.177 M66.9973 507.033 Q62.1912 507.097 59.3266 509.739 Q56.4621 512.349 56.4621 516.677 Q56.4621 521.579 59.2312 524.539 Q62.0002 527.467 67.0292 527.913 L66.9973 507.033 Z" fill="#000000" fill-rule="evenodd" fill-opacity="1" /><path clip-path="url(#clip320)" d="M 0 0 M38.479 474.855 L38.479 461.359 L43.0304 461.359 L43.0304 468.998 L92.0464 468.998 L92.0464 461.359 L96.5979 461.359 L96.5979 474.855 L38.479 474.855 Z" fill="#000000" fill-rule="evenodd" fill-opacity="1" /><path clip-path="url(#clip320)" d="M 0 0 M82.5933 453.275 L82.5933 442.771 L46.3406 442.771 L48.6323 454.198 L42.7758 454.198 L40.4842 442.835 L40.4842 436.406 L82.5933 436.406 L82.5933 425.902 L88.0042 425.902 L88.0042 453.275 L82.5933 453.275 Z" fill="#000000" fill-rule="evenodd" fill-opacity="1" /><path clip-path="url(#clip320)" d="M 0 0 M40.4842 409.351 L40.4842 403.941 L94.0516 420.491 L94.0516 425.902 L40.4842 409.351 Z" fill="#000000" fill-rule="evenodd" fill-opacity="1" /><path clip-path="url(#clip320)" d="M 0 0 M53.4065 375.072 L58.9447 375.072 Q57.6716 377.555 57.035 380.228 Q56.3984 382.902 56.3984 385.767 Q56.3984 390.127 57.7352 392.323 Q59.072 394.488 61.7456 394.488 Q63.7826 394.488 64.9603 392.928 Q66.1061 391.368 67.1565 386.658 L67.6021 384.653 Q68.9389 378.414 71.3897 375.804 Q73.8086 373.162 78.1691 373.162 Q83.1344 373.162 86.0308 377.109 Q88.9272 381.024 88.9272 387.899 Q88.9272 390.764 88.3543 393.883 Q87.8132 396.97 86.6992 400.408 L80.6518 400.408 Q82.3387 397.161 83.198 394.01 Q84.0256 390.859 84.0256 387.772 Q84.0256 383.634 82.6251 381.406 Q81.1929 379.178 78.6147 379.178 Q76.2276 379.178 74.9545 380.801 Q73.6813 382.393 72.5037 387.835 L72.0262 389.872 Q70.8804 395.315 68.5251 397.734 Q66.138 400.153 62.0002 400.153 Q56.9713 400.153 54.2341 396.588 Q51.4968 393.023 51.4968 386.467 Q51.4968 383.22 51.9743 380.356 Q52.4517 377.491 53.4065 375.072 Z" fill="#000000" fill-rule="evenodd" fill-opacity="1" /><path clip-path="url(#clip320)" d="M 0 0 M38.479 353.333 L96.5979 353.333 L96.5979 366.829 L92.0464 366.829 L92.0464 359.222 L43.0304 359.222 L43.0304 366.829 L38.479 366.829 L38.479 353.333 Z" fill="#000000" fill-rule="evenodd" fill-opacity="1" /><polyline clip-path="url(#clip322)" style="stroke:#009af9; stroke-width:12; stroke-opacity:1; fill:none" points="
  407.743,86.3091 426.818,150.346 445.892,186.286 464.966,216.19 484.041,242.768 503.115,267.126 522.189,289.856 541.264,311.319 560.338,331.755 579.413,351.335 
  598.487,370.187 617.561,388.407 636.636,406.072 655.71,423.245 674.784,439.975 693.859,456.304 712.933,472.27 732.007,487.901 751.082,503.224 770.156,518.263 
  789.23,533.037 808.305,547.564 827.379,561.859 846.454,575.938 865.528,589.811 884.602,603.492 903.677,616.989 922.751,630.314 941.825,643.473 960.9,656.476 
  979.974,669.328 999.048,682.038 1018.12,694.611 1037.2,707.053 1056.27,719.37 1075.35,731.565 1094.42,743.644 1113.49,755.612 1132.57,767.471 1151.64,779.227 
  1170.72,790.882 1189.79,802.44 1208.87,813.904 1227.94,825.277 1247.02,836.563 1266.09,847.763 1285.16,858.88 1304.24,869.916 1323.31,880.875 1342.39,891.757 
  1361.46,902.566 1380.54,913.302 1399.61,923.969 1418.68,934.568 1437.76,945.1 1456.83,955.567 1475.91,965.971 1494.98,976.313 1514.06,986.595 1533.13,996.818 
  1552.2,1006.98 1571.28,1017.09 1590.35,1027.15 1609.43,1037.15 1628.5,1047.09 1647.58,1056.99 1666.65,1066.84 1685.73,1076.63 1704.8,1086.38 1723.87,1096.08 
  1742.95,1105.73 1762.02,1115.34 1781.1,1124.9 1800.17,1134.42 1819.25,1143.9 1838.32,1153.33 1857.39,1162.72 1876.47,1172.07 1895.54,1181.38 1914.62,1190.65 
  1933.69,1199.88 1952.77,1209.08 1971.84,1218.23 1990.92,1227.35 2009.99,1236.43 2029.06,1245.48 2048.14,1254.49 2067.21,1263.47 2086.29,1272.41 2105.36,1281.32 
  2124.44,1290.19 2143.51,1299.03 2162.58,1307.85 2181.66,1316.62 2200.73,1325.37 2219.81,1334.09 2238.88,1342.78 2257.96,1351.43 2277.03,1360.06 2296.11,1368.66 
  
  "/>
<polyline clip-path="url(#clip322)" style="stroke:#e26f46; stroke-width:12; stroke-opacity:1; fill:none" points="
  407.743,86.1857 426.818,140.732 445.892,173.427 464.966,201.178 484.041,226.163 503.115,249.285 522.189,271.03 541.264,291.696 560.338,311.483 579.413,330.535 
  598.487,348.958 617.561,366.834 636.636,384.227 655.71,401.191 674.784,417.768 693.859,433.994 712.933,449.9 732.007,465.511 751.082,480.851 770.156,495.939 
  789.23,510.793 808.305,525.427 827.379,539.855 846.454,554.09 865.528,568.143 884.602,582.023 903.677,595.739 922.751,609.3 941.825,622.713 960.9,635.985 
  979.974,649.122 999.048,662.131 1018.12,675.016 1037.2,687.783 1056.27,700.436 1075.35,712.98 1094.42,725.418 1113.49,737.756 1132.57,749.995 1151.64,762.14 
  1170.72,774.194 1189.79,786.159 1208.87,798.039 1227.94,809.835 1247.02,821.552 1266.09,833.19 1285.16,844.753 1304.24,856.242 1323.31,867.66 1342.39,879.008 
  1361.46,890.288 1380.54,901.503 1399.61,912.653 1418.68,923.74 1437.76,934.766 1456.83,945.733 1475.91,956.641 1494.98,967.493 1514.06,978.288 1533.13,989.03 
  1552.2,999.718 1571.28,1010.35 1590.35,1020.94 1609.43,1031.48 1628.5,1041.96 1647.58,1052.4 1666.65,1062.79 1685.73,1073.14 1704.8,1083.44 1723.87,1093.7 
  1742.95,1103.91 1762.02,1114.08 1781.1,1124.21 1800.17,1134.3 1819.25,1144.35 1838.32,1154.36 1857.39,1164.33 1876.47,1174.26 1895.54,1184.16 1914.62,1194.01 
  1933.69,1203.84 1952.77,1213.62 1971.84,1223.37 1990.92,1233.09 2009.99,1242.77 2029.06,1252.42 2048.14,1262.03 2067.21,1271.61 2086.29,1281.17 2105.36,1290.68 
  2124.44,1300.17 2143.51,1309.63 2162.58,1319.06 2181.66,1328.46 2200.73,1337.82 2219.81,1347.16 2238.88,1356.47 2257.96,1365.76 2277.03,1375.01 2296.11,1384.24 
  
  "/>
<path clip-path="url(#clip320)" d="
M1735.76 274.549 L2286.03 274.549 L2286.03 93.1086 L1735.76 93.1086  Z
  " fill="#ffffff" fill-rule="evenodd" fill-opacity="1"/>
<polyline clip-path="url(#clip320)" style="stroke:#000000; stroke-width:4; stroke-opacity:1; fill:none" points="
  1735.76,274.549 2286.03,274.549 2286.03,93.1086 1735.76,93.1086 1735.76,274.549 
  "/>
<polyline clip-path="url(#clip320)" style="stroke:#009af9; stroke-width:4; stroke-opacity:1; fill:none" points="
  1758,153.589 1891.44,153.589 
  "/>
<path clip-path="url(#clip320)" d="M 0 0 M1941.55 138.971 L1941.55 143.901 Q1939.19 141.702 1936.51 140.614 Q1933.85 139.526 1930.84 139.526 Q1924.91 139.526 1921.76 143.16 Q1918.61 146.772 1918.61 153.623 Q1918.61 160.452 1921.76 164.086 Q1924.91 167.697 1930.84 167.697 Q1933.85 167.697 1936.51 166.609 Q1939.19 165.521 1941.55 163.322 L1941.55 168.207 Q1939.1 169.873 1936.35 170.707 Q1933.61 171.54 1930.56 171.54 Q1922.71 171.54 1918.2 166.748 Q1913.68 161.933 1913.68 153.623 Q1913.68 145.29 1918.2 140.498 Q1922.71 135.684 1930.56 135.684 Q1933.66 135.684 1936.39 136.517 Q1939.15 137.327 1941.55 138.971 Z" fill="#000000" fill-rule="evenodd" fill-opacity="1" /><path clip-path="url(#clip320)" d="M 0 0 M1946.02 134.85 L1950.28 134.85 L1950.28 170.869 L1946.02 170.869 L1946.02 134.85 Z" fill="#000000" fill-rule="evenodd" fill-opacity="1" /><path clip-path="url(#clip320)" d="M 0 0 M1954.75 144.943 L1959.01 144.943 L1959.01 170.869 L1954.75 170.869 L1954.75 144.943 M1954.75 134.85 L1959.01 134.85 L1959.01 140.244 L1954.75 140.244 L1954.75 134.85 Z" fill="#000000" fill-rule="evenodd" fill-opacity="1" /><path clip-path="url(#clip320)" d="M 0 0 M1983.66 149.92 Q1985.26 147.049 1987.48 145.684 Q1989.7 144.318 1992.71 144.318 Q1996.76 144.318 1998.96 147.165 Q2001.16 149.989 2001.16 155.221 L2001.16 170.869 L1996.88 170.869 L1996.88 155.359 Q1996.88 151.633 1995.56 149.827 Q1994.24 148.022 1991.53 148.022 Q1988.22 148.022 1986.3 150.221 Q1984.38 152.42 1984.38 156.216 L1984.38 170.869 L1980.1 170.869 L1980.1 155.359 Q1980.1 151.609 1978.78 149.827 Q1977.46 148.022 1974.7 148.022 Q1971.44 148.022 1969.52 150.244 Q1967.6 152.443 1967.6 156.216 L1967.6 170.869 L1963.31 170.869 L1963.31 144.943 L1967.6 144.943 L1967.6 148.971 Q1969.05 146.586 1971.09 145.452 Q1973.13 144.318 1975.93 144.318 Q1978.75 144.318 1980.72 145.753 Q1982.71 147.188 1983.66 149.92 Z" fill="#000000" fill-rule="evenodd" fill-opacity="1" /><path clip-path="url(#clip320)" d="M 0 0 M2017.41 157.836 Q2012.25 157.836 2010.26 159.017 Q2008.27 160.197 2008.27 163.045 Q2008.27 165.313 2009.75 166.656 Q2011.25 167.975 2013.82 167.975 Q2017.36 167.975 2019.49 165.475 Q2021.65 162.952 2021.65 158.785 L2021.65 157.836 L2017.41 157.836 M2025.91 156.077 L2025.91 170.869 L2021.65 170.869 L2021.65 166.933 Q2020.19 169.295 2018.01 170.429 Q2015.84 171.54 2012.69 171.54 Q2008.71 171.54 2006.35 169.318 Q2004.01 167.072 2004.01 163.322 Q2004.01 158.947 2006.92 156.725 Q2009.86 154.503 2015.67 154.503 L2021.65 154.503 L2021.65 154.086 Q2021.65 151.147 2019.7 149.549 Q2017.78 147.929 2014.29 147.929 Q2012.06 147.929 2009.96 148.461 Q2007.85 148.994 2005.91 150.059 L2005.91 146.123 Q2008.24 145.221 2010.44 144.781 Q2012.64 144.318 2014.72 144.318 Q2020.35 144.318 2023.13 147.234 Q2025.91 150.151 2025.91 156.077 Z" fill="#000000" fill-rule="evenodd" fill-opacity="1" /><path clip-path="url(#clip320)" d="M 0 0 M2034.59 137.582 L2034.59 144.943 L2043.36 144.943 L2043.36 148.253 L2034.59 148.253 L2034.59 162.327 Q2034.59 165.498 2035.44 166.401 Q2036.32 167.304 2038.98 167.304 L2043.36 167.304 L2043.36 170.869 L2038.98 170.869 Q2034.05 170.869 2032.18 169.04 Q2030.3 167.188 2030.3 162.327 L2030.3 148.253 L2027.18 148.253 L2027.18 144.943 L2030.3 144.943 L2030.3 137.582 L2034.59 137.582 Z" fill="#000000" fill-rule="evenodd" fill-opacity="1" /><path clip-path="url(#clip320)" d="M 0 0 M2070 156.841 L2070 158.924 L2050.42 158.924 Q2050.7 163.322 2053.06 165.637 Q2055.44 167.929 2059.68 167.929 Q2062.13 167.929 2064.42 167.327 Q2066.74 166.725 2069.01 165.521 L2069.01 169.549 Q2066.72 170.521 2064.31 171.031 Q2061.9 171.54 2059.42 171.54 Q2053.22 171.54 2049.59 167.929 Q2045.97 164.318 2045.97 158.16 Q2045.97 151.795 2049.4 148.068 Q2052.85 144.318 2058.68 144.318 Q2063.91 144.318 2066.95 147.697 Q2070 151.054 2070 156.841 M2065.74 155.591 Q2065.7 152.096 2063.78 150.012 Q2061.88 147.929 2058.73 147.929 Q2055.16 147.929 2053.01 149.943 Q2050.88 151.957 2050.56 155.614 L2065.74 155.591 Z" fill="#000000" fill-rule="evenodd" fill-opacity="1" /><path clip-path="url(#clip320)" d="M 0 0 M2074.66 136.309 L2081.62 136.309 L2090.44 159.827 L2099.31 136.309 L2106.28 136.309 L2106.28 170.869 L2101.72 170.869 L2101.72 140.522 L2092.8 164.225 L2088.1 164.225 L2079.19 140.522 L2079.19 170.869 L2074.66 170.869 L2074.66 136.309 Z" fill="#000000" fill-rule="evenodd" fill-opacity="1" /><path clip-path="url(#clip320)" d="M 0 0 M2122.53 157.836 Q2117.36 157.836 2115.37 159.017 Q2113.38 160.197 2113.38 163.045 Q2113.38 165.313 2114.86 166.656 Q2116.37 167.975 2118.94 167.975 Q2122.48 167.975 2124.61 165.475 Q2126.76 162.952 2126.76 158.785 L2126.76 157.836 L2122.53 157.836 M2131.02 156.077 L2131.02 170.869 L2126.76 170.869 L2126.76 166.933 Q2125.3 169.295 2123.13 170.429 Q2120.95 171.54 2117.8 171.54 Q2113.82 171.54 2111.46 169.318 Q2109.12 167.072 2109.12 163.322 Q2109.12 158.947 2112.04 156.725 Q2114.98 154.503 2120.79 154.503 L2126.76 154.503 L2126.76 154.086 Q2126.76 151.147 2124.82 149.549 Q2122.9 147.929 2119.4 147.929 Q2117.18 147.929 2115.07 148.461 Q2112.97 148.994 2111.02 150.059 L2111.02 146.123 Q2113.36 145.221 2115.56 144.781 Q2117.76 144.318 2119.84 144.318 Q2125.47 144.318 2128.24 147.234 Q2131.02 150.151 2131.02 156.077 Z" fill="#000000" fill-rule="evenodd" fill-opacity="1" /><path clip-path="url(#clip320)" d="M 0 0 M2154.15 145.938 L2154.15 149.92 Q2152.34 148.924 2150.51 148.438 Q2148.71 147.929 2146.85 147.929 Q2142.71 147.929 2140.42 150.568 Q2138.13 153.184 2138.13 157.929 Q2138.13 162.674 2140.42 165.313 Q2142.71 167.929 2146.85 167.929 Q2148.71 167.929 2150.51 167.443 Q2152.34 166.933 2154.15 165.938 L2154.15 169.873 Q2152.36 170.707 2150.44 171.123 Q2148.54 171.54 2146.39 171.54 Q2140.53 171.54 2137.09 167.859 Q2133.64 164.179 2133.64 157.929 Q2133.64 151.586 2137.11 147.952 Q2140.6 144.318 2146.67 144.318 Q2148.64 144.318 2150.51 144.735 Q2152.39 145.128 2154.15 145.938 Z" fill="#000000" fill-rule="evenodd" fill-opacity="1" /><path clip-path="url(#clip320)" d="M 0 0 M2180.16 155.221 L2180.16 170.869 L2175.9 170.869 L2175.9 155.359 Q2175.9 151.679 2174.47 149.85 Q2173.03 148.022 2170.16 148.022 Q2166.71 148.022 2164.72 150.221 Q2162.73 152.42 2162.73 156.216 L2162.73 170.869 L2158.45 170.869 L2158.45 134.85 L2162.73 134.85 L2162.73 148.971 Q2164.26 146.633 2166.32 145.475 Q2168.4 144.318 2171.11 144.318 Q2175.58 144.318 2177.87 147.096 Q2180.16 149.85 2180.16 155.221 Z" fill="#000000" fill-rule="evenodd" fill-opacity="1" /><path clip-path="url(#clip320)" d="M 0 0 M2184.63 144.943 L2188.89 144.943 L2188.89 170.869 L2184.63 170.869 L2184.63 144.943 M2184.63 134.85 L2188.89 134.85 L2188.89 140.244 L2184.63 140.244 L2184.63 134.85 Z" fill="#000000" fill-rule="evenodd" fill-opacity="1" /><path clip-path="url(#clip320)" d="M 0 0 M2214.91 155.221 L2214.91 170.869 L2210.65 170.869 L2210.65 155.359 Q2210.65 151.679 2209.21 149.85 Q2207.78 148.022 2204.91 148.022 Q2201.46 148.022 2199.47 150.221 Q2197.48 152.42 2197.48 156.216 L2197.48 170.869 L2193.2 170.869 L2193.2 144.943 L2197.48 144.943 L2197.48 148.971 Q2199.01 146.633 2201.07 145.475 Q2203.15 144.318 2205.86 144.318 Q2210.33 144.318 2212.62 147.096 Q2214.91 149.85 2214.91 155.221 Z" fill="#000000" fill-rule="evenodd" fill-opacity="1" /><path clip-path="url(#clip320)" d="M 0 0 M2241.55 156.841 L2241.55 158.924 L2221.97 158.924 Q2222.25 163.322 2224.61 165.637 Q2226.99 167.929 2231.23 167.929 Q2233.68 167.929 2235.97 167.327 Q2238.29 166.725 2240.56 165.521 L2240.56 169.549 Q2238.27 170.521 2235.86 171.031 Q2233.45 171.54 2230.97 171.54 Q2224.77 171.54 2221.14 167.929 Q2217.52 164.318 2217.52 158.16 Q2217.52 151.795 2220.95 148.068 Q2224.4 144.318 2230.23 144.318 Q2235.46 144.318 2238.5 147.697 Q2241.55 151.054 2241.55 156.841 M2237.29 155.591 Q2237.25 152.096 2235.33 150.012 Q2233.43 147.929 2230.28 147.929 Q2226.71 147.929 2224.56 149.943 Q2222.43 151.957 2222.11 155.614 L2237.29 155.591 Z" fill="#000000" fill-rule="evenodd" fill-opacity="1" /><polyline clip-path="url(#clip320)" style="stroke:#e26f46; stroke-width:4; stroke-opacity:1; fill:none" points="
  1758,214.069 1891.44,214.069 
  "/>
<path clip-path="url(#clip320)" d="M 0 0 M1937.71 217.321 L1937.71 219.404 L1918.13 219.404 Q1918.41 223.802 1920.77 226.117 Q1923.15 228.409 1927.39 228.409 Q1929.84 228.409 1932.13 227.807 Q1934.45 227.205 1936.72 226.001 L1936.72 230.029 Q1934.42 231.001 1932.02 231.511 Q1929.61 232.02 1927.13 232.02 Q1920.93 232.02 1917.29 228.409 Q1913.68 224.798 1913.68 218.64 Q1913.68 212.275 1917.11 208.548 Q1920.56 204.798 1926.39 204.798 Q1931.62 204.798 1934.66 208.177 Q1937.71 211.534 1937.71 217.321 M1933.45 216.071 Q1933.41 212.576 1931.48 210.492 Q1929.59 208.409 1926.44 208.409 Q1922.87 208.409 1920.72 210.423 Q1918.59 212.437 1918.27 216.094 L1933.45 216.071 Z" fill="#000000" fill-rule="evenodd" fill-opacity="1" /><path clip-path="url(#clip320)" d="M 0 0 M1962.36 210.4 Q1963.96 207.529 1966.18 206.164 Q1968.41 204.798 1971.41 204.798 Q1975.47 204.798 1977.66 207.645 Q1979.86 210.469 1979.86 215.701 L1979.86 231.349 L1975.58 231.349 L1975.58 215.839 Q1975.58 212.113 1974.26 210.307 Q1972.94 208.502 1970.23 208.502 Q1966.92 208.502 1965 210.701 Q1963.08 212.9 1963.08 216.696 L1963.08 231.349 L1958.8 231.349 L1958.8 215.839 Q1958.8 212.089 1957.48 210.307 Q1956.16 208.502 1953.41 208.502 Q1950.14 208.502 1948.22 210.724 Q1946.3 212.923 1946.3 216.696 L1946.3 231.349 L1942.02 231.349 L1942.02 205.423 L1946.3 205.423 L1946.3 209.451 Q1947.76 207.066 1949.79 205.932 Q1951.83 204.798 1954.63 204.798 Q1957.46 204.798 1959.42 206.233 Q1961.41 207.668 1962.36 210.4 Z" fill="#000000" fill-rule="evenodd" fill-opacity="1" /><path clip-path="url(#clip320)" d="M 0 0 M1988.45 227.46 L1988.45 241.21 L1984.17 241.21 L1984.17 205.423 L1988.45 205.423 L1988.45 209.358 Q1989.79 207.043 1991.83 205.932 Q1993.89 204.798 1996.74 204.798 Q2001.46 204.798 2004.4 208.548 Q2007.36 212.298 2007.36 218.409 Q2007.36 224.52 2004.4 228.27 Q2001.46 232.02 1996.74 232.02 Q1993.89 232.02 1991.83 230.909 Q1989.79 229.775 1988.45 227.46 M2002.94 218.409 Q2002.94 213.71 2001 211.048 Q1999.08 208.363 1995.7 208.363 Q1992.32 208.363 1990.37 211.048 Q1988.45 213.71 1988.45 218.409 Q1988.45 223.108 1990.37 225.793 Q1992.32 228.455 1995.7 228.455 Q1999.08 228.455 2001 225.793 Q2002.94 223.108 2002.94 218.409 Z" fill="#000000" fill-rule="evenodd" fill-opacity="1" /><path clip-path="url(#clip320)" d="M 0 0 M2011.83 205.423 L2016.09 205.423 L2016.09 231.349 L2011.83 231.349 L2011.83 205.423 M2011.83 195.33 L2016.09 195.33 L2016.09 200.724 L2011.83 200.724 L2011.83 195.33 Z" fill="#000000" fill-rule="evenodd" fill-opacity="1" /><path clip-path="url(#clip320)" d="M 0 0 M2035.58 209.404 Q2034.86 208.988 2034.01 208.802 Q2033.17 208.594 2032.16 208.594 Q2028.54 208.594 2026.6 210.955 Q2024.68 213.293 2024.68 217.691 L2024.68 231.349 L2020.4 231.349 L2020.4 205.423 L2024.68 205.423 L2024.68 209.451 Q2026.02 207.089 2028.17 205.955 Q2030.33 204.798 2033.41 204.798 Q2033.85 204.798 2034.38 204.867 Q2034.91 204.914 2035.56 205.029 L2035.58 209.404 Z" fill="#000000" fill-rule="evenodd" fill-opacity="1" /><path clip-path="url(#clip320)" d="M 0 0 M2040.05 205.423 L2044.31 205.423 L2044.31 231.349 L2040.05 231.349 L2040.05 205.423 M2040.05 195.33 L2044.31 195.33 L2044.31 200.724 L2040.05 200.724 L2040.05 195.33 Z" fill="#000000" fill-rule="evenodd" fill-opacity="1" /><path clip-path="url(#clip320)" d="M 0 0 M2067.43 206.418 L2067.43 210.4 Q2065.63 209.404 2063.8 208.918 Q2061.99 208.409 2060.14 208.409 Q2056 208.409 2053.71 211.048 Q2051.41 213.664 2051.41 218.409 Q2051.41 223.154 2053.71 225.793 Q2056 228.409 2060.14 228.409 Q2061.99 228.409 2063.8 227.923 Q2065.63 227.413 2067.43 226.418 L2067.43 230.353 Q2065.65 231.187 2063.73 231.603 Q2061.83 232.02 2059.68 232.02 Q2053.82 232.02 2050.37 228.339 Q2046.92 224.659 2046.92 218.409 Q2046.92 212.066 2050.4 208.432 Q2053.89 204.798 2059.96 204.798 Q2061.92 204.798 2063.8 205.215 Q2065.67 205.608 2067.43 206.418 Z" fill="#000000" fill-rule="evenodd" fill-opacity="1" /><path clip-path="url(#clip320)" d="M 0 0 M2083.68 218.316 Q2078.52 218.316 2076.53 219.497 Q2074.54 220.677 2074.54 223.525 Q2074.54 225.793 2076.02 227.136 Q2077.53 228.455 2080.09 228.455 Q2083.64 228.455 2085.77 225.955 Q2087.92 223.432 2087.92 219.265 L2087.92 218.316 L2083.68 218.316 M2092.18 216.557 L2092.18 231.349 L2087.92 231.349 L2087.92 227.413 Q2086.46 229.775 2084.28 230.909 Q2082.11 232.02 2078.96 232.02 Q2074.98 232.02 2072.62 229.798 Q2070.28 227.552 2070.28 223.802 Q2070.28 219.427 2073.2 217.205 Q2076.14 214.983 2081.95 214.983 L2087.92 214.983 L2087.92 214.566 Q2087.92 211.627 2085.97 210.029 Q2084.05 208.409 2080.56 208.409 Q2078.34 208.409 2076.23 208.941 Q2074.12 209.474 2072.18 210.539 L2072.18 206.603 Q2074.52 205.701 2076.72 205.261 Q2078.91 204.798 2081 204.798 Q2086.62 204.798 2089.4 207.714 Q2092.18 210.631 2092.18 216.557 Z" fill="#000000" fill-rule="evenodd" fill-opacity="1" /><path clip-path="url(#clip320)" d="M 0 0 M2096.65 195.33 L2100.9 195.33 L2100.9 231.349 L2096.65 231.349 L2096.65 195.33 Z" fill="#000000" fill-rule="evenodd" fill-opacity="1" /></svg>
